<!-- Generated by IcoMoon.io -->
<svg version="1.1" xmlns="http://www.w3.org/2000/svg" width="32" height="32" viewBox="0 0 32 32">
<title>bank</title>
<path d="M31.467 26.666h-1.067v-0.533c-0.003-0.676-0.43-1.277-1.067-1.502v-10.863c0.637-0.225 1.064-0.826 1.067-1.502v-0.533c0.884 0 1.6-0.716 1.6-1.6s-0.716-1.6-1.6-1.6h-0.382l-13.738-8.454c-0.171-0.105-0.388-0.105-0.559 0l-13.738 8.454h-0.382c-0.884 0-1.6 0.716-1.6 1.6s0.716 1.6 1.6 1.6v0.533c0.003 0.676 0.43 1.277 1.067 1.502v10.863c-0.637 0.225-1.064 0.826-1.067 1.502v0.533h-1.067c-0.295 0-0.533 0.239-0.533 0.533v4.267c0 0.295 0.239 0.533 0.533 0.533h30.933c0.295 0 0.533-0.239 0.533-0.533v-4.267c0-0.295-0.239-0.533-0.533-0.533zM29.334 12.267c0 0.295-0.239 0.533-0.533 0.533h-2.133c-0.295 0-0.533-0.239-0.533-0.533v-0.533h3.2v0.533zM28.8 25.6c0.295 0 0.533 0.239 0.533 0.533v0.533h-3.2v-0.533c0-0.295 0.239-0.533 0.533-0.533h2.133zM27.2 24.533v-10.667h1.067v10.667h-1.067zM1.6 10.667c-0.295 0-0.533-0.239-0.533-0.533s0.239-0.533 0.533-0.533h3.733v-1.067h-1.316l11.982-7.374 11.982 7.374h-19.449v1.067h21.867c0.295 0 0.533 0.239 0.533 0.533s-0.239 0.533-0.533 0.533h-28.8zM12.267 24.631v-10.863c0.637-0.225 1.064-0.826 1.067-1.502v-0.533h5.333v0.533c0.003 0.676 0.43 1.277 1.067 1.502v10.863c-0.637 0.225-1.064 0.826-1.067 1.502v0.533h-5.333v-0.533c-0.003-0.676-0.43-1.277-1.067-1.502zM11.734 25.6c0.295 0 0.533 0.239 0.533 0.533v0.533h-3.2v-0.533c0-0.295 0.239-0.533 0.533-0.533h2.133zM10.134 24.533v-10.667h1.067v10.667h-1.067zM11.734 12.8h-2.133c-0.295 0-0.533-0.239-0.533-0.533v-0.533h3.2v0.533c0 0.295-0.239 0.533-0.533 0.533zM19.734 26.133c0-0.295 0.239-0.533 0.533-0.533h2.133c0.295 0 0.533 0.239 0.533 0.533v0.533h-3.2v-0.533zM20.8 24.533v-10.667h1.067v10.667h-1.067zM22.4 12.8h-2.133c-0.295 0-0.533-0.239-0.533-0.533v-0.533h3.2v0.533c0 0.295-0.239 0.533-0.533 0.533zM3.2 12.8c-0.295 0-0.533-0.239-0.533-0.533v-0.533h3.2v0.533c0 0.295-0.239 0.533-0.533 0.533h-2.133zM4.8 13.867v10.667h-1.067v-10.667h1.067zM2.667 26.133c0-0.295 0.239-0.533 0.533-0.533h2.133c0.295 0 0.533 0.239 0.533 0.533v0.533h-3.2v-0.533zM6.934 30.933h-5.867v-3.2h5.867v3.2zM5.867 24.631v-10.863c0.637-0.225 1.064-0.826 1.067-1.502v-0.533h1.067v0.533c0.003 0.676 0.43 1.277 1.067 1.502v10.863c-0.637 0.225-1.064 0.826-1.067 1.502v0.533h-1.067v-0.533c-0.003-0.676-0.43-1.277-1.067-1.502zM24 30.933h-16v-1.067h12.8v-1.067h-12.8v-1.067h16v3.2zM22.934 24.631v-10.863c0.637-0.225 1.064-0.826 1.067-1.502v-0.533h1.067v0.533c0.003 0.676 0.43 1.277 1.067 1.502v10.863c-0.637 0.225-1.064 0.826-1.067 1.502v0.533h-1.067v-0.533c-0.003-0.676-0.43-1.277-1.067-1.502zM30.934 30.933h-5.867v-3.2h5.867v3.2z"></path>
<path d="M22.933 28.8h-1.067v1.067h1.067v-1.067z"></path>
<path d="M7.467 8.534h-1.067v1.067h1.067v-1.067z"></path>
<path d="M16 3.2c-1.178 0-2.133 0.955-2.133 2.133s0.955 2.133 2.133 2.133c1.178 0 2.133-0.955 2.133-2.133s-0.955-2.133-2.133-2.133zM16 6.4c-0.589 0-1.067-0.478-1.067-1.067s0.478-1.067 1.067-1.067c0.589 0 1.067 0.478 1.067 1.067s-0.478 1.067-1.067 1.067z"></path>
</svg>
