<!-- Generated by IcoMoon.io -->
<svg version="1.1" xmlns="http://www.w3.org/2000/svg" width="32" height="32" viewBox="0 0 32 32">
<title>big-8</title>
<path d="M16.207 24.866h-3.448c-0.131 0-0.256 0.052-0.348 0.144s-0.144 0.218-0.144 0.348c0 0.131 0.052 0.256 0.144 0.348s0.218 0.144 0.348 0.144h3.448c0.131 0 0.256-0.052 0.348-0.144s0.144-0.218 0.144-0.348c0-0.131-0.052-0.256-0.144-0.348s-0.218-0.144-0.348-0.144z"></path>
<path d="M8.020 14.513c0.358-0.312 0.817-0.484 1.292-0.483h6.896c0.437 0.001 0.861 0.146 1.206 0.413s0.592 0.642 0.702 1.064h-5.848c-0.131 0-0.256 0.052-0.348 0.144s-0.144 0.218-0.144 0.348c0 0.131 0.052 0.256 0.144 0.348s0.218 0.144 0.348 0.144h5.848c-0.11 0.423-0.356 0.797-0.702 1.065s-0.77 0.413-1.206 0.413h-1.478c-0.131 0-0.256 0.052-0.348 0.144s-0.144 0.218-0.144 0.348c0 0.131 0.052 0.256 0.144 0.348s0.218 0.144 0.348 0.144h2.463c0.71 0.002 1.395 0.259 1.932 0.724s0.889 1.106 0.993 1.808c0.009 0.064 0.031 0.126 0.064 0.181s0.077 0.104 0.128 0.143c0.052 0.039 0.111 0.067 0.173 0.083s0.128 0.020 0.192 0.010c0.064-0.009 0.126-0.031 0.181-0.064s0.104-0.077 0.143-0.128c0.039-0.052 0.067-0.111 0.083-0.173s0.020-0.128 0.010-0.192c-0.111-0.753-0.438-1.458-0.939-2.030s-1.158-0.988-1.89-1.197c0.011-0.010 0.022-0.020 0.033-0.031 0.36-0.36 0.621-0.807 0.757-1.297s0.144-1.008 0.022-1.502c-0.122-0.494-0.37-0.948-0.719-1.319s-0.788-0.644-1.274-0.795c0.272-0.313 0.46-0.691 0.547-1.096s0.070-0.827-0.050-1.224c-0.119-0.397-0.338-0.758-0.634-1.048s-0.661-0.501-1.061-0.613c0.155-0.237 0.257-0.505 0.299-0.785s0.023-0.566-0.055-0.838-0.215-0.524-0.4-0.739c-0.185-0.215-0.414-0.387-0.671-0.505 0.116-0.225 0.171-0.476 0.162-0.729s-0.084-0.499-0.216-0.715c-0.132-0.216-0.317-0.394-0.538-0.518s-0.47-0.189-0.723-0.188h-1.97c-0.253-0-0.502 0.065-0.723 0.188s-0.406 0.302-0.538 0.518c-0.132 0.216-0.206 0.462-0.216 0.715s0.046 0.504 0.162 0.729c-0.257 0.118-0.486 0.29-0.671 0.505s-0.321 0.467-0.4 0.739-0.097 0.558-0.055 0.838c0.042 0.28 0.144 0.548 0.3 0.785-0.4 0.111-0.765 0.322-1.061 0.613s-0.514 0.651-0.634 1.049c-0.119 0.397-0.136 0.819-0.049 1.224s0.275 0.783 0.547 1.096c-0.392 0.121-0.754 0.323-1.064 0.593-0.098 0.086-0.159 0.207-0.168 0.338-0.004 0.065 0.004 0.129 0.024 0.191s0.053 0.118 0.096 0.167c0.043 0.049 0.094 0.089 0.152 0.117s0.121 0.046 0.186 0.050c0.13 0.009 0.259-0.034 0.357-0.12h0zM11.774 5.164h1.97c0.131 0 0.256 0.052 0.348 0.144s0.144 0.218 0.144 0.348c0 0.131-0.052 0.256-0.144 0.348s-0.218 0.144-0.348 0.144h-1.97c-0.131 0-0.256-0.052-0.348-0.144s-0.144-0.218-0.144-0.348c0-0.131 0.052-0.256 0.144-0.348s0.218-0.144 0.348-0.144zM11.282 7.134h2.955c0.261 0 0.512 0.104 0.697 0.289s0.289 0.435 0.289 0.697c0 0.261-0.104 0.512-0.289 0.697s-0.435 0.289-0.697 0.289h-2.955c-0.261 0-0.512-0.104-0.697-0.289s-0.289-0.435-0.289-0.697 0.104-0.512 0.289-0.697c0.185-0.185 0.435-0.289 0.697-0.289zM10.297 10.090h4.925c0.305 0 0.603 0.095 0.853 0.272s0.438 0.426 0.54 0.713h-4.841c-0.131 0-0.256 0.052-0.348 0.144s-0.144 0.218-0.144 0.348c0 0.131 0.052 0.256 0.144 0.348s0.218 0.144 0.348 0.144h4.841c-0.102 0.288-0.291 0.537-0.54 0.713s-0.547 0.271-0.853 0.272h-4.925c-0.392 0-0.768-0.156-1.045-0.433s-0.433-0.653-0.433-1.045c0-0.392 0.156-0.768 0.433-1.045s0.653-0.433 1.045-0.433z"></path>
<path d="M13.239 19.445c0.028-0.12 0.010-0.246-0.051-0.354s-0.159-0.188-0.276-0.226c-0.083-0.027-1.896-0.607-3.542-0.322-0.609-1.574-2.126-2.854-2.206-2.921-0.089-0.074-0.2-0.114-0.315-0.114s-0.227 0.040-0.315 0.114c-0.073 0.060-1.64 1.381-2.231 2.983-1.639-0.275-3.423 0.296-3.517 0.326-0.117 0.038-0.216 0.119-0.276 0.226s-0.079 0.234-0.051 0.354c0.027 0.115 0.65 2.714 2.286 3.832-0.847 1.645-0.5 3.953-0.483 4.062 0.018 0.116 0.077 0.222 0.166 0.298s0.203 0.118 0.32 0.118c0.011 0 0.021 0 0.032-0.001 0.115-0.007 2.635-0.185 4.043-1.491 1.407 1.306 3.928 1.483 4.043 1.491 0.011 0.001 0.021 0.001 0.032 0.001 0.117-0 0.231-0.042 0.32-0.118s0.148-0.182 0.166-0.298c0.017-0.107 0.366-2.438-0.495-4.084 1.685-1.093 2.324-3.76 2.351-3.876zM3.183 26.783c-0.067-0.922-0.016-2.508 0.695-3.39 0.531-0.658 1.31-1.297 2.172-0.945-0.243 0.323-0.395 0.706-0.44 1.108-0.071 0.644 0.126 1.319 0.584 2.011-0.815 0.799-2.267 1.107-3.011 1.216zM5.164 21.399c-0.65 0.112-1.271 0.496-1.85 1.139-0.967-0.647-1.529-2.067-1.764-2.798 0.905-0.215 2.491-0.424 3.484 0.131 0.63 0.353 1.301 0.901 1.322 1.639-0.38-0.143-0.791-0.182-1.191-0.112zM5.515 19.012c-0.086-0.048-0.174-0.092-0.265-0.132 0.363-0.931 1.158-1.787 1.601-2.215 0.688 0.663 1.785 1.963 1.785 3.111 0 1.201-0.45 1.918-1.308 2.102-0.004-0.004-0.007-0.008-0.011-0.011 0.108-0.759-0.097-1.901-1.801-2.856h0zM10.458 26.785c-0.92-0.135-2.472-0.528-3.185-1.412-0.501-0.621-0.737-1.212-0.683-1.71 0.028-0.247 0.127-0.48 0.284-0.672 0.336 0.486 0.845 0.826 1.423 0.95 0.171 0.036 0.346 0.054 0.521 0.054 0.407-0.006 0.809-0.086 1.188-0.236 0.517 0.96 0.503 2.32 0.452 3.027h0zM10.234 22.565c-0.709 0.397-1.621 0.693-2.284 0.151 0.326-0.126 0.621-0.321 0.864-0.572 0.535-0.553 0.807-1.349 0.807-2.368 0-0.092-0.006-0.184-0.015-0.275 0.932-0.146 1.963 0.039 2.542 0.176-0.248 0.769-0.856 2.296-1.914 2.888h0z"></path>
<path d="M24.58 12.060c0.131 0 0.256-0.052 0.348-0.144s0.144-0.218 0.144-0.348v-3.448c0-0.131-0.052-0.256-0.144-0.348s-0.218-0.144-0.348-0.144c-0.131 0-0.256 0.052-0.348 0.144s-0.144 0.218-0.144 0.348v3.448c0 0.131 0.052 0.256 0.144 0.348s0.218 0.144 0.348 0.144z"></path>
<path d="M24.58 15.508c0.131 0 0.256-0.052 0.348-0.144s0.144-0.218 0.144-0.348v-1.478c0-0.131-0.052-0.256-0.144-0.348s-0.218-0.144-0.348-0.144c-0.131 0-0.256 0.052-0.348 0.144s-0.144 0.218-0.144 0.348v1.478c0 0.131 0.052 0.256 0.144 0.348s0.218 0.144 0.348 0.144z"></path>
<path d="M22.61 16.492c0.131 0 0.256-0.052 0.348-0.144s0.144-0.218 0.144-0.348v-3.94c0-0.131-0.052-0.256-0.144-0.348s-0.218-0.144-0.348-0.144c-0.131 0-0.256 0.052-0.348 0.144s-0.144 0.218-0.144 0.348v3.94c0 0.131 0.052 0.256 0.144 0.348s0.218 0.144 0.348 0.144z"></path>
<path d="M26.551 16.492c0.131 0 0.256-0.052 0.348-0.144s0.144-0.218 0.144-0.348v-3.94c0-0.131-0.052-0.256-0.144-0.348s-0.218-0.144-0.348-0.144c-0.131 0-0.256 0.052-0.348 0.144s-0.144 0.218-0.144 0.348v3.94c0 0.131 0.052 0.256 0.144 0.348s0.218 0.144 0.348 0.144z"></path>
<path d="M22.61 10.582c0.272 0 0.493-0.22 0.493-0.492s-0.221-0.492-0.493-0.492c-0.272 0-0.492 0.22-0.492 0.492s0.221 0.492 0.492 0.492z"></path>
<path d="M10.297 16.492c0.272 0 0.492-0.221 0.492-0.492s-0.22-0.492-0.492-0.492c-0.272 0-0.493 0.22-0.493 0.492s0.22 0.492 0.493 0.492z"></path>
<path d="M26.551 10.582c0.272 0 0.493-0.22 0.493-0.492s-0.221-0.492-0.493-0.492c-0.272 0-0.492 0.22-0.492 0.492s0.221 0.492 0.492 0.492z"></path>
<path d="M26.551 8.612c0.272 0 0.493-0.22 0.493-0.492s-0.221-0.492-0.493-0.492c-0.272 0-0.492 0.221-0.492 0.492s0.221 0.492 0.492 0.492z"></path>
<path d="M22.61 8.612c0.272 0 0.493-0.22 0.493-0.492s-0.221-0.492-0.493-0.492c-0.272 0-0.492 0.221-0.492 0.492s0.221 0.492 0.492 0.492z"></path>
<path d="M24.58 6.642c0.272 0 0.493-0.221 0.493-0.492s-0.221-0.492-0.493-0.492c-0.272 0-0.492 0.221-0.492 0.492s0.221 0.492 0.492 0.492z"></path>
<path d="M31.476 22.895h-6.403v-1.045c0.849-0.211 1.478-0.956 1.478-1.84 0-0.858-1.193-2.74-1.558-3.296-0.045-0.068-0.106-0.124-0.178-0.163s-0.152-0.059-0.234-0.059c-0.082 0-0.162 0.020-0.234 0.059s-0.133 0.095-0.178 0.163c-0.366 0.556-1.559 2.438-1.559 3.296 0 0.884 0.629 1.628 1.478 1.84v1.045h-6.403c-0.131 0-0.256 0.052-0.348 0.144s-0.144 0.218-0.144 0.348c-0.001 0.709 0.17 1.408 0.498 2.037 0.017 0.127 0.083 0.242 0.184 0.321 0.399 0.635 0.952 1.158 1.608 1.521s1.393 0.554 2.143 0.554h5.91c0.75-0 1.487-0.191 2.143-0.554s1.209-0.886 1.608-1.521c0.101-0.079 0.167-0.194 0.184-0.321 0.327-0.629 0.498-1.328 0.498-2.037 0-0.131-0.052-0.256-0.144-0.348s-0.218-0.144-0.348-0.144zM23.595 20.011c0-0.309 0.459-1.223 0.985-2.099 0.526 0.876 0.985 1.79 0.985 2.099 0 0.504-0.442 0.915-0.985 0.915s-0.985-0.41-0.985-0.915zM30.65 24.866h-8.039c-0.131 0-0.256 0.052-0.348 0.144s-0.144 0.218-0.144 0.348c0 0.131 0.052 0.256 0.144 0.348s0.218 0.144 0.348 0.144h7.335c-0.643 0.632-1.508 0.985-2.41 0.985h-5.91c-0.901 0-1.767-0.353-2.41-0.985h1.425c0.131 0 0.256-0.052 0.348-0.144s0.144-0.218 0.144-0.348c0-0.131-0.052-0.256-0.144-0.348s-0.218-0.144-0.348-0.144h-2.129c-0.149-0.311-0.249-0.644-0.299-0.985h12.736c-0.049 0.342-0.15 0.674-0.299 0.985z"></path>
</svg>
