<!-- Generated by IcoMoon.io -->
<svg version="1.1" xmlns="http://www.w3.org/2000/svg" width="32" height="32" viewBox="0 0 32 32">
<title>big-11</title>
<path d="M27.049 18.142c0.291-0.654 0.456-1.397 0.456-2.099 0-0.91-0.283-1.796-0.804-2.535 0.177-0.449 0.269-0.932 0.269-1.416 0-1.018-0.396-1.945-1.042-2.637h0.499c1.086 0 1.97-0.884 1.97-1.97s-0.884-1.97-1.97-1.97h-1.839v-1.195c0-1.785-1.452-3.237-3.238-3.237h-4.607c-1.785 0-3.237 1.452-3.237 3.237v1.195h-1.855c-0.266 0-0.519 0.053-0.751 0.149-0.012-0.063-0.032-0.124-0.064-0.181l-1.191-2.166 1.191-2.166c0.105-0.191 0.101-0.423-0.009-0.61s-0.312-0.302-0.53-0.302h-7.388c-0.34 0-0.616 0.276-0.616 0.616v9.186c-0.049 0.015-0.098 0.030-0.147 0.048-1.34 0.489-2.032 1.976-1.543 3.315 0.001 0.002 0.002 0.005 0.003 0.007l2.762 7.286c0.495 1.305 1.664 2.213 3.050 2.37l3.879 0.439v7.639c0 0.34 0.276 0.616 0.616 0.616h20.44c0.34 0 0.616-0.276 0.616-0.616v-5.969c-0-3.227-2.052-5.984-4.919-7.034zM12.191 17.688c-0.234-0.51-0.37-1.103-0.37-1.645 0-0.751 0.268-1.48 0.755-2.052 0.162-0.191 0.193-0.461 0.077-0.683-0.197-0.378-0.297-0.787-0.297-1.215 0-1.003 0.563-1.876 1.389-2.322v1.561c0 2.034 1.153 3.803 2.84 4.689v1.668h-4.394zM23.102 9.456h0.001v1.875c0 2.241-1.823 4.063-4.063 4.063s-4.063-1.823-4.063-4.063v-1.875c0.006 0 0.011-0 0.017-0l8.11 0zM20.267 18.227l-1.228 1.228-1.224-1.224v-1.749c0.393 0.093 0.802 0.144 1.224 0.144 0.423 0 0.833-0.051 1.228-0.145v1.746zM16.763 18.92l1.405 1.405-1.675 1.675-1.988-3.081h2.258zM21.316 18.92h2.258l-1.988 3.081-1.675-1.675 1.405-1.405zM24.847 18.931c0.594 0.034 1.165 0.152 1.703 0.341v11.258h-1.703v-11.599zM25.844 17.813c-0.442-0.082-0.898-0.125-1.363-0.125h-2.982v-1.67c1.684-0.887 2.836-2.655 2.836-4.687v-1.569c0.835 0.443 1.405 1.321 1.405 2.33 0 0.428-0.1 0.837-0.297 1.215-0.116 0.222-0.085 0.492 0.077 0.683 0.487 0.572 0.755 1.301 0.755 2.052-0 0.59-0.16 1.236-0.43 1.77zM14.738 4.32c0-1.106 0.9-2.006 2.006-2.006h4.607c1.106 0 2.006 0.9 2.006 2.006v1.195h-8.619v-1.195zM11.651 6.747h14.776c0.407 0 0.739 0.331 0.739 0.739s-0.331 0.739-0.739 0.739h-14.776c-0.407 0-0.739-0.331-0.739-0.739s0.331-0.739 0.739-0.739zM3.524 1.47h5.731l-0.853 1.55c-0.102 0.185-0.102 0.409 0 0.593l0.853 1.55h-5.731v-3.694zM10.011 6.396c-0.208 0.312-0.33 0.687-0.33 1.090 0 1.086 0.884 1.97 1.97 1.97h0.515c-0.646 0.691-1.042 1.619-1.042 2.637 0 0.484 0.092 0.967 0.269 1.416-0.521 0.739-0.804 1.625-0.804 2.535 0 0.544 0.098 1.111 0.278 1.644h-3.197l-2.208-6.055c-0.237-0.649-0.712-1.167-1.338-1.458-0.194-0.090-0.395-0.155-0.599-0.195v-3.583h6.487zM2.568 11.246c0.34-0.124 0.708-0.108 1.036 0.045s0.577 0.424 0.701 0.764l0.258 0.709-2.491 1.042-0.313-0.826c-0.253-0.701 0.109-1.478 0.81-1.733zM4.519 20.261l-2.010-5.303 2.477-1.036 1.675 4.593c0.089 0.243 0.32 0.405 0.578 0.405h3.058v3.349l-3.74-0.424c-0.926-0.105-1.707-0.712-2.038-1.583zM11.528 18.92h1.703v4.919c0 0.34 0.276 0.616 0.616 0.616s0.616-0.276 0.616-0.616v-2.714l1.409 2.184c0.101 0.156 0.267 0.259 0.452 0.278 0.022 0.002 0.044 0.003 0.065 0.003 0.162 0 0.319-0.064 0.435-0.18l2.215-2.215 2.215 2.215c0.116 0.116 0.273 0.18 0.435 0.18 0.022 0 0.044-0.001 0.065-0.003 0.185-0.020 0.351-0.122 0.452-0.278l1.409-2.184v5.408h-2.228c-0.34 0-0.616 0.276-0.616 0.616s0.276 0.616 0.616 0.616h2.228v2.765h-9.153v-1.15c0-0.34-0.276-0.616-0.616-0.616s-0.616 0.276-0.616 0.616v1.15h-1.703v-11.61zM30.737 30.53h-2.955v-10.666c1.773 1.106 2.955 3.073 2.955 5.312v5.354z"></path>
<path d="M19.039 13.719c0.316 0 0.631-0.12 0.872-0.36s0.24-0.63-0.001-0.871c-0.24-0.24-0.631-0.24-0.872 0-0.24-0.24-0.63-0.24-0.871 0s-0.24 0.63 0 0.871c0.24 0.24 0.556 0.36 0.872 0.36z"></path>
<path d="M13.847 27.225c0.162 0 0.321-0.066 0.435-0.18s0.18-0.273 0.18-0.435c0-0.162-0.066-0.321-0.18-0.435s-0.273-0.18-0.435-0.18-0.321 0.066-0.435 0.18c-0.115 0.114-0.18 0.273-0.18 0.435s0.065 0.321 0.18 0.435c0.114 0.115 0.273 0.18 0.435 0.18z"></path>
</svg>
