<!-- Generated by IcoMoon.io -->
<svg version="1.1" xmlns="http://www.w3.org/2000/svg" width="32" height="32" viewBox="0 0 32 32">
<title>big-3</title>
<path d="M29.755 21.249c0.407-0.389 0.669-0.924 0.687-1.514 0.036-1.192-0.9-2.196-2.086-2.25-0.018 0-0.037 0-0.055 0h-0.322c-0.012 0-0.024 0-0.037 0h-0.791v-4.337c2.664-1.095 4.428-3.692 4.428-6.605 0-2.554-1.381-4.927-3.595-6.198-0.255-0.146-0.584-0.146-0.839 0s-0.407 0.426-0.407 0.742c0 0.036-0.012 3.558-0.012 4.732 0 0.097-0.122 0.225-0.195 0.28-0.018 0.012-0.024 0.018-0.043 0.036-0.742 0.614-1.691 1.32-2.044 1.478-0.359-0.164-1.326-0.876-2.074-1.502-0.018-0.012-0.030-0.024-0.049-0.036 0 0-0.152-0.128-0.152-0.365 0-1.216-0.012-4.58-0.012-4.61 0-0.328-0.146-0.608-0.401-0.754s-0.584-0.14-0.851 0.012c-2.214 1.271-3.582 3.643-3.582 6.192 0 2.281 1.077 4.367 2.828 5.687-0.073-0.006-0.14-0.006-0.213-0.006-0.523 0-1.010 0.201-1.375 0.572-0.365 0.365-0.572 0.858-0.572 1.375v2.658c0 0.189 0.006 0.347 0.006 0.487 0.012 0.596 0.018 0.657-0.249 0.973l-1.855 1.429c-0.511 0.395-0.918 0.894-1.198 1.472h-0.724c-0.036-0.298-0.292-0.535-0.602-0.535h-2.050c0-0.334-0.274-0.602-0.608-0.602h-9.664c-0.335 0-0.608 0.274-0.608 0.608v8.892c0 0.335 0.274 0.608 0.608 0.608h9.652c0.335 0 0.602-0.268 0.608-0.602h2.050c0.28 0 0.517-0.189 0.584-0.444h0.59c0.553 1.35 1.873 2.263 3.363 2.263h10.327c0.037 0 0.079 0 0.116 0 1.149-0.061 2.074-0.997 2.111-2.129 0.018-0.645-0.243-1.235-0.675-1.648 0.012-0.012 0.024-0.024 0.036-0.030 0.414-0.414 0.639-0.967 0.639-1.551 0-0.62-0.262-1.18-0.681-1.581 0.42-0.401 0.681-0.967 0.681-1.581 0-0.639-0.268-1.21-0.693-1.612zM22.956 12.783c0-0.006 0-0.012 0-0.024v-0.018c0.006-0.268-0.158-0.511-0.414-0.596-2.402-0.815-4.014-3.065-4.014-5.608 0-1.885 0.912-3.655 2.409-4.768 0.006 1.052 0.012 3.053 0.012 3.929 0 0.797 0.505 1.235 0.651 1.35 2.147 1.794 2.67 1.794 2.84 1.794 0.249 0 0.584-0.073 1.752-0.943 0.505-0.377 0.955-0.748 1.052-0.827 0.146-0.109 0.693-0.553 0.693-1.259 0-0.851 0.006-2.95 0.012-4.045 1.502 1.119 2.415 2.889 2.415 4.774 0 2.536-1.612 4.793-4.014 5.608-0.255 0.085-0.42 0.328-0.414 0.59v0.024c0 0.006 0 0.012 0 0.018v4.701h-0.882v-5.285c0-0.335-0.274-0.608-0.608-0.608s-0.608 0.274-0.608 0.608v5.291h-0.882v-4.708zM12.75 22.557h-1.441v-0.687h1.441v0.687zM1.656 21.267h8.436v1.289h-5.048c-0.335 0-0.608 0.274-0.608 0.608s0.274 0.608 0.608 0.608h5.048v1.946c-0.341-0.195-0.736-0.304-1.156-0.304-1.308 0-2.372 1.064-2.372 2.372 0 0.42 0.109 0.815 0.304 1.156h-5.212v-7.676zM7.781 27.793c0-0.639 0.517-1.156 1.156-1.156s1.156 0.517 1.156 1.156c0 0.639-0.517 1.156-1.156 1.156s-1.156-0.517-1.156-1.156zM11.308 23.773h1.441v4.574h-1.441v-4.574zM28.344 23.822h-2.287c-0.334 0-0.608 0.274-0.608 0.608s0.274 0.608 0.608 0.608h2.214c0.024 0.006 0.043 0.006 0.067 0.006 0.505 0.036 0.9 0.462 0.9 0.973 0 0.262-0.103 0.505-0.286 0.687-0.164 0.164-0.383 0.268-0.614 0.28-0.012 0-0.018 0-0.030 0.006h-2.25c-0.334 0-0.608 0.274-0.608 0.608s0.274 0.608 0.608 0.608h2.25c0.012 0 0.018 0.006 0.030 0.006 0.517 0.037 0.912 0.474 0.9 0.997-0.012 0.505-0.432 0.918-0.955 0.949-0.018 0-0.037 0-0.055 0h-10.334c-1.101 0-2.062-0.742-2.342-1.806-0.067-0.268-0.31-0.456-0.59-0.456h-1.004v-5.492h1.119c0.255 0 0.487-0.158 0.572-0.401 0.189-0.523 0.529-0.985 0.967-1.326l1.91-1.472c0.030-0.024 0.061-0.055 0.091-0.085 0.584-0.675 0.602-1.077 0.584-1.837-0.006-0.134-0.006-0.286-0.006-0.456v-2.658c0-0.195 0.073-0.377 0.213-0.517s0.322-0.213 0.517-0.213c0.511 0 1.004 0.207 1.344 0.572 0.286 0.298 0.444 0.681 0.468 1.089 0 0.030 0 0.061 0 0.091v0.006c0 0.030 0 0.067 0 0.097 0 0.012 0 0.024 0 0.036v2.761c0 0.164 0.067 0.316 0.176 0.432 0.116 0.116 0.268 0.176 0.432 0.176h5.735c0.012 0 0.018 0 0.030 0h0.17c0.529 0.018 0.949 0.468 0.937 1.004-0.012 0.505-0.432 0.918-0.955 0.943-0.018 0-0.036 0-0.055 0h-2.159c-0.334 0-0.608 0.274-0.608 0.608s0.274 0.608 0.608 0.608h2.159c0.006 0 0.018 0 0.030 0 0.030 0.006 0.061 0.012 0.091 0.012 0.505 0.037 0.9 0.462 0.9 0.973 0 0.505-0.389 0.931-0.888 0.973z"></path>
<path d="M24.111 10.575c0.030 0.024 0.067 0.043 0.103 0.055s0.073 0.024 0.116 0.037c0.036 0.006 0.079 0.012 0.116 0.012 0.158 0 0.316-0.067 0.432-0.176 0.116-0.116 0.176-0.268 0.176-0.432 0-0.037-0.006-0.079-0.012-0.122-0.006-0.037-0.018-0.079-0.036-0.116s-0.037-0.073-0.055-0.103c-0.024-0.030-0.049-0.061-0.073-0.091-0.14-0.14-0.353-0.207-0.547-0.164-0.037 0.006-0.079 0.018-0.116 0.036s-0.073 0.036-0.103 0.055c-0.030 0.024-0.067 0.049-0.091 0.073-0.030 0.030-0.055 0.061-0.073 0.091-0.024 0.030-0.043 0.067-0.055 0.103-0.018 0.036-0.030 0.073-0.036 0.116-0.006 0.036-0.012 0.079-0.012 0.122 0 0.158 0.067 0.316 0.176 0.432 0.024 0.024 0.055 0.049 0.091 0.073z"></path>
<path d="M3.481 22.934c-0.012-0.036-0.037-0.073-0.055-0.103-0.024-0.030-0.049-0.067-0.073-0.091-0.030-0.030-0.061-0.055-0.091-0.073-0.030-0.024-0.067-0.043-0.103-0.055-0.037-0.018-0.073-0.030-0.116-0.036-0.079-0.018-0.158-0.018-0.237 0-0.037 0.006-0.079 0.018-0.116 0.036s-0.073 0.037-0.103 0.055c-0.030 0.024-0.067 0.049-0.091 0.073-0.030 0.030-0.055 0.061-0.073 0.091-0.024 0.030-0.043 0.067-0.055 0.103s-0.024 0.073-0.037 0.116c-0.012 0.043-0.012 0.079-0.012 0.116s0.006 0.079 0.012 0.116 0.018 0.079 0.037 0.116c0.012 0.036 0.037 0.073 0.055 0.103 0.024 0.030 0.049 0.067 0.073 0.091 0.030 0.030 0.061 0.055 0.091 0.073 0.030 0.024 0.067 0.043 0.103 0.055 0.037 0.018 0.073 0.030 0.116 0.036 0.037 0.006 0.079 0.012 0.116 0.012s0.079-0.006 0.122-0.012c0.037-0.006 0.079-0.018 0.116-0.036s0.073-0.037 0.103-0.055c0.030-0.024 0.067-0.049 0.091-0.073 0.030-0.030 0.055-0.061 0.073-0.091 0.024-0.030 0.043-0.067 0.055-0.103s0.024-0.073 0.037-0.116c0.006-0.036 0.012-0.079 0.012-0.116s-0.006-0.079-0.012-0.116c-0.012-0.043-0.024-0.079-0.037-0.116z"></path>
</svg>
