<!-- Generated by IcoMoon.io -->
<svg version="1.1" xmlns="http://www.w3.org/2000/svg" width="32" height="32" viewBox="0 0 32 32">
<title>big-7</title>
<path d="M31.050 13.964c0.094 0.053 0.198 0.079 0.303 0.079 0.107 0 0.215-0.028 0.311-0.084 0.189-0.11 0.305-0.313 0.305-0.532v-3.328c0-0.222-0.12-0.427-0.313-0.536l-15.146-8.545c-0.188-0.106-0.417-0.106-0.605 0l-15.146 8.545c-0.194 0.109-0.313 0.314-0.313 0.536v3.328c0 0.219 0.116 0.421 0.305 0.532s0.422 0.112 0.613 0.005l1.98-1.117v14.083h-2.283c-0.34 0-0.616 0.276-0.616 0.616v2.899c0 0.34 0.276 0.616 0.616 0.616h12.375c0.34 0 0.616-0.276 0.616-0.616s-0.276-0.616-0.616-0.616h-11.759v-1.667h29.060v1.667h-11.759c-0.34 0-0.616 0.276-0.616 0.616s0.276 0.616 0.616 0.616h12.375c0.34 0 0.616-0.276 0.616-0.616v-2.899c0-0.34-0.276-0.616-0.616-0.616h-2.283v-14.083l1.98 1.117zM1.677 10.46l14.53-8.198 14.53 8.197v1.914l-14.227-8.027c-0.094-0.053-0.198-0.079-0.303-0.079s-0.209 0.026-0.303 0.079l-14.227 8.027v-1.914zM27.838 26.93h-23.262v-14.778l11.631-6.562 11.631 6.562v14.778z"></path>
<path d="M16.207 31.060c0.34 0 0.616-0.276 0.616-0.616s-0.276-0.616-0.616-0.616-0.616 0.276-0.616 0.616c0 0.34 0.276 0.616 0.616 0.616z"></path>
<path d="M10.125 14.936c-0.24 0.24-0.24 0.63-0 0.871s0.63 0.24 0.871 0c1.394-1.394 3.245-2.162 5.212-2.162s3.817 0.768 5.212 2.162c0.12 0.12 0.278 0.18 0.435 0.18s0.315-0.060 0.435-0.18c0.24-0.24 0.24-0.63 0-0.871-1.627-1.627-3.787-2.523-6.082-2.523s-4.455 0.896-6.082 2.523z"></path>
<path d="M16.207 15.609c-1.444 0-2.802 0.563-3.824 1.587-0.24 0.241-0.24 0.63 0 0.871s0.63 0.24 0.871-0c0.79-0.79 1.838-1.226 2.953-1.226s2.163 0.435 2.953 1.226c0.12 0.12 0.278 0.181 0.436 0.181s0.315-0.060 0.435-0.18c0.241-0.24 0.241-0.63 0-0.871-1.022-1.023-2.38-1.587-3.824-1.587z"></path>
<path d="M16.207 18.805c-1.221 0-2.213 0.993-2.213 2.213s0.993 2.214 2.213 2.214c1.221 0 2.214-0.993 2.214-2.214s-0.993-2.213-2.214-2.213zM16.207 22.001c-0.542 0-0.982-0.441-0.982-0.982s0.441-0.982 0.982-0.982c0.542 0 0.982 0.441 0.982 0.982s-0.441 0.982-0.982 0.982z"></path>
</svg>
