<!-- Generated by IcoMoon.io -->
<svg version="1.1" xmlns="http://www.w3.org/2000/svg" width="32" height="32" viewBox="0 0 32 32">
<title>big-4</title>
<path d="M22.796 10.584c-0.653-0.023-1.243-0.313-1.661-0.819-0.305-0.369-0.866-0.368-1.17 0-0.907 1.095-2.575 1.093-3.48 0-0.309-0.373-0.87-0.363-1.17 0-0.906 1.095-2.575 1.094-3.48-0-0.306-0.369-0.866-0.367-1.17 0-0.418 0.505-1.008 0.796-1.661 0.819-0.257 0.009-0.458 0.225-0.449 0.482s0.223 0.458 0.482 0.449c0.843-0.029 1.639-0.393 2.214-1.005 1.259 1.343 3.389 1.345 4.65 0 1.259 1.343 3.389 1.345 4.65-0 0.575 0.612 1.371 0.976 2.214 1.005 0.256 0.009 0.473-0.192 0.482-0.449s-0.192-0.473-0.449-0.482z"></path>
<path d="M21.135 13.586c-0.305-0.369-0.866-0.368-1.17 0-0.907 1.095-2.575 1.094-3.48 0-0.309-0.373-0.87-0.363-1.17 0-0.907 1.095-2.575 1.093-3.48-0-0.305-0.368-0.865-0.369-1.17 0-0.496 0.6-1.253 0.9-2.025 0.802-0.255-0.032-0.488 0.148-0.521 0.404s0.148 0.488 0.404 0.521c1.024 0.13 2.028-0.236 2.727-0.982 1.259 1.343 3.389 1.345 4.65 0 1.259 1.343 3.389 1.345 4.65 0 0.699 0.746 1.704 1.111 2.727 0.982 0.255-0.032 0.436-0.265 0.404-0.521s-0.266-0.436-0.521-0.404c-0.772 0.097-1.529-0.202-2.025-0.802z"></path>
<path d="M22.407 6.689c-0.502-0.106-0.942-0.373-1.272-0.772-0.305-0.369-0.866-0.368-1.17 0-0.907 1.095-2.575 1.093-3.48 0-0.309-0.373-0.87-0.363-1.17 0-0.906 1.095-2.575 1.094-3.48-0-0.306-0.369-0.866-0.367-1.17 0-0.33 0.399-0.77 0.666-1.272 0.772-0.252 0.053-0.413 0.3-0.36 0.552s0.301 0.413 0.552 0.36c0.645-0.136 1.217-0.459 1.665-0.939 1.26 1.343 3.389 1.344 4.65-0 1.259 1.343 3.389 1.345 4.65 0 0.449 0.48 1.021 0.803 1.666 0.939 0.251 0.053 0.499-0.108 0.552-0.36s-0.108-0.499-0.36-0.552z"></path>
<path d="M3.415 26.661h10.542v4.321c0 0.45 0.366 0.817 0.817 0.817h1.565c0.45 0 0.817-0.366 0.817-0.817v-0.091h4.608v0.091c0 0.45 0.366 0.817 0.817 0.817h1.565c0.45 0 0.817-0.366 0.817-0.817v-4.321h3.423c1.498 0 2.676-1.297 2.525-2.792-0-0.002-0.001-0.005-0.001-0.007l-0.81-6.929c-0.030-0.256-0.262-0.439-0.517-0.409s-0.439 0.261-0.409 0.517l0.809 6.925c0.091 0.921-0.627 1.764-1.599 1.764h-3.423v-1.184h2.791c0.588 0 1.048-0.509 0.99-1.094-0.001-0.003-0.001-0.005-0.001-0.008l-2.407-20.438c-0.053-0.508-0.478-0.89-0.989-0.89h-8.358c-0.257 0-0.466 0.209-0.466 0.466s0.209 0.466 0.466 0.466h8.358c0.032 0 0.059 0.024 0.063 0.057 0 0.003 0.001 0.005 0.001 0.008l2.407 20.435c0.001 0.017-0.005 0.034-0.016 0.047s-0.029 0.021-0.047 0.021h-2.791v-1.422c0-2.452-2.003-4.369-4.369-4.369-1.663 0-3.164 0.943-3.903 2.406-0.746-1.476-2.281-2.438-3.988-2.405-2.341 0.044-4.285 1.962-4.285 4.368v1.422h-4.369c-0.018 0-0.035-0.008-0.047-0.021s-0.017-0.030-0.016-0.047l2.407-20.435c0-0.003 0.001-0.005 0.001-0.008 0.003-0.032 0.030-0.057 0.063-0.057h8.358c0.257 0 0.466-0.209 0.466-0.466s-0.209-0.466-0.466-0.466h-8.358c-0.511 0-0.936 0.383-0.989 0.891l-2.407 20.438c-0 0.003-0.001 0.005-0.001 0.008-0.059 0.585 0.401 1.094 0.99 1.094h9.909v1.184h-10.542c-0.922 0-1.694-0.794-1.599-1.764l2.522-21.581c0-0.002 0.001-0.005 0.001-0.007 0.083-0.824 0.77-1.445 1.598-1.445h19.924c0.828 0 1.515 0.621 1.598 1.445 0 0.002 0 0.005 0.001 0.007l1.459 12.482c0.030 0.256 0.262 0.439 0.517 0.409s0.439-0.261 0.409-0.517l-1.458-12.479c-0.133-1.3-1.218-2.28-2.525-2.28h-19.924c-1.307 0-2.392 0.98-2.525 2.28l-2.522 21.582c-0 0.003-0.001 0.005-0.001 0.007-0.15 1.491 1.023 2.792 2.525 2.792zM19.421 22.233c0-0.641 0.504-1.198 1.149-1.21 0.663-0.013 1.193 0.527 1.193 1.17v1.422h-2.342v-1.382zM17.154 26.661h4.608v1.184h-4.608v-1.184zM22.012 24.546c0.346 0 0.622 0.299 0.589 0.648-0.029 0.303-0.285 0.536-0.589 0.536h-4.858v-1.184c1.622 0 3.24 0 4.858 0zM17.154 28.776h4.858c0.344 0 0.622 0.298 0.589 0.648-0.029 0.303-0.285 0.536-0.589 0.536h-4.858v-1.184zM24.029 30.867h-1.335v-0.137c1.119-0.567 1.121-2.156 0-2.724v-1.507c1.124-0.57 1.116-2.158 0-2.724v-1.583c0-1.272-1.13-2.268-2.409-2.080-1.016 0.149-1.796 1.026-1.796 2.080v1.422h-1.335v-1.356c0-1.898 1.519-3.484 3.405-3.502 1.939-0.016 3.47 1.556 3.47 3.436v8.675zM9.348 23.614v-1.356c0-2.001 1.658-3.576 3.577-3.499 1.831 0.075 3.298 1.584 3.298 3.434v8.675h-1.335c0-0.895 0-7.519 0-8.675 0-1.115-0.873-2.037-1.982-2.099-1.197-0.068-2.223 0.886-2.223 2.099v1.422l-1.335 0zM11.615 23.614v-1.382c0-0.585 0.42-1.101 0.986-1.195 0.723-0.115 1.356 0.449 1.356 1.155v1.422h-2.342z"></path>
</svg>
