<!-- Generated by IcoMoon.io -->
<svg version="1.1" xmlns="http://www.w3.org/2000/svg" width="32" height="32" viewBox="0 0 32 32">
<title>big-2</title>
<path d="M29.012 13.58c0.286 0.209 0.632 0.281 0.955 0.23 0.323-0.052 0.628-0.229 0.836-0.515 0.208-0.288 0.281-0.632 0.229-0.956-0.052-0.323-0.227-0.627-0.515-0.836l-5.917-4.302c-0.206-0.15-0.253-0.438-0.103-0.644s0.438-0.251 0.644-0.103l5.917 4.304c0.492 0.356 0.794 0.88 0.883 1.438 0.089 0.557-0.035 1.149-0.391 1.641-0.358 0.492-0.881 0.792-1.438 0.881-0.555 0.089-1.143-0.033-1.635-0.386v16.612c0 0.255-0.206 0.462-0.461 0.462-7.872 0-15.745 0-23.616 0-0.255 0-0.462-0.208-0.462-0.462v-16.611c-0.485 0.339-1.047 0.478-1.634 0.384-0.55-0.087-1.15-0.429-1.454-0.904-0.344-0.489-0.463-1.070-0.375-1.618 0.089-0.555 0.426-1.145 0.902-1.454l2.56-1.862v-5.357h-0.335c-0.255 0-0.462-0.206-0.462-0.461v-2.122c0-0.255 0.208-0.463 0.462-0.463h6.062c0.255 0 0.463 0.208 0.463 0.463v2.122c0 0.255-0.208 0.461-0.463 0.461h-0.337v1.438l5.587-4.063c0.398-0.288 0.859-0.424 1.316-0.419 0.469 0.005 0.927 0.159 1.304 0.442l5.917 4.302c0.206 0.15 0.251 0.438 0.103 0.644-0.15 0.206-0.438 0.253-0.644 0.103l-5.918-4.302c-0.23-0.171-0.48-0.265-0.77-0.269-0.264-0.002-0.534 0.077-0.766 0.246-4.519 3.287-9.038 6.573-13.556 9.858-0.288 0.209-0.462 0.513-0.515 0.836-0.052 0.325 0.021 0.668 0.229 0.955 0.209 0.279 0.49 0.461 0.836 0.517 0.323 0.051 0.667-0.021 0.955-0.229 4.175-3.037 8.351-6.074 12.526-9.111 0.157-0.119 0.381-0.127 0.548-0.005 4.178 3.039 8.357 6.077 12.535 9.114zM16.206 20.439c0.094-1.101 0.579-2.091 1.318-2.829 0.826-0.824 1.963-1.335 3.222-1.335s2.396 0.511 3.222 1.335c0.737 0.738 1.224 1.728 1.316 2.829 0.225 0.072 0.424 0.197 0.586 0.36 0.265 0.264 0.429 0.628 0.429 1.032 0 0.401-0.164 0.766-0.429 1.030-0.169 0.169-0.379 0.299-0.613 0.368l-0.314 2.67c-0.030 0.253-0.257 0.435-0.51 0.407-0.253-0.030-0.436-0.258-0.407-0.511l0.293-2.505h-1.705v0.878c0 0.347-0.141 0.662-0.37 0.89-0.227 0.229-0.543 0.37-0.89 0.37h-1.197c-0.346 0-0.662-0.141-0.89-0.37-0.227-0.229-0.37-0.543-0.37-0.89v-0.878h-1.728l0.845 7.193h5.463l0.305-2.609c0.030-0.253 0.258-0.435 0.511-0.407 0.253 0.030 0.435 0.258 0.405 0.511l-0.293 2.505h3.147v-16.822l-11.346-8.25-11.345 8.25v16.822h1.702l0.552-4.618c0.047-0.391 0.215-0.75 0.473-1.009s0.602-0.419 1.004-0.419h0.518v-11.49c0-0.403 0.164-0.768 0.428-1.031 0.265-0.265 0.63-0.429 1.031-0.429 0.403 0 0.768 0.164 1.031 0.429 0.265 0.264 0.429 0.628 0.429 1.031v4.931c0 0.255-0.208 0.461-0.462 0.461s-0.463-0.206-0.463-0.461v-4.931c0-0.148-0.059-0.281-0.157-0.379s-0.232-0.159-0.379-0.159c-0.147 0-0.281 0.061-0.377 0.159-0.098 0.098-0.159 0.232-0.159 0.379v11.49h1.072v-4.468c0-0.255 0.208-0.463 0.463-0.463s0.462 0.208 0.462 0.463v4.468h0.517c0.403 0 0.745 0.161 1.004 0.419 0.26 0.258 0.428 0.618 0.475 1.009 0.183 1.539 0.367 3.079 0.55 4.618h2.512l-0.852-7.254c-0.234-0.070-0.445-0.199-0.614-0.368-0.264-0.264-0.428-0.628-0.428-1.030 0-0.403 0.164-0.768 0.428-1.032 0.162-0.162 0.363-0.288 0.586-0.36zM24.348 20.369c-0.103-0.819-0.48-1.552-1.035-2.107-0.656-0.656-1.564-1.063-2.567-1.063s-1.911 0.407-2.569 1.063c-0.553 0.555-0.93 1.288-1.033 2.107h7.205zM9.2 2.6v-1.199h-5.138v1.199h5.138zM8.403 3.523h-3.541v4.685l3.541-2.574v-2.11zM22.615 21.293v1.073h2.224c0.148 0 0.281-0.061 0.379-0.159s0.159-0.23 0.159-0.377c0-0.148-0.061-0.281-0.159-0.379s-0.23-0.159-0.379-0.159h-2.224zM18.898 22.366v-1.073h-2.246c-0.147 0-0.281 0.061-0.377 0.159-0.098 0.098-0.159 0.23-0.159 0.379 0 0.147 0.061 0.279 0.159 0.377 0.096 0.098 0.23 0.159 0.377 0.159h2.246zM21.692 24.167v-2.875h-1.869v2.875c0 0.091 0.037 0.176 0.098 0.237s0.147 0.099 0.237 0.099h1.197c0.092 0 0.176-0.038 0.237-0.099s0.099-0.147 0.099-0.237zM11.272 29.122c0-0.255 0.206-0.461 0.461-0.461s0.463 0.206 0.463 0.461v1.36h1.45l-0.321-2.684h-5.512l-0.319 2.684h1.45v-0.627c0-0.257 0.206-0.463 0.461-0.463s0.462 0.206 0.462 0.463v0.627h1.405v-1.36zM7.923 26.874h5.292l-0.106-0.902c-0.023-0.185-0.098-0.351-0.211-0.464-0.091-0.091-0.211-0.148-0.351-0.148h-3.955c-0.14 0-0.258 0.058-0.351 0.148-0.113 0.113-0.187 0.279-0.209 0.464l-0.108 0.902z"></path>
</svg>
