<!-- Generated by IcoMoon.io -->
<svg version="1.1" xmlns="http://www.w3.org/2000/svg" width="32" height="32" viewBox="0 0 32 32">
<title>big-10</title>
<path d="M10.851 17.329c0-1.635-1.33-2.965-2.965-2.965s-2.965 1.33-2.965 2.965c0 1.635 1.33 2.965 2.965 2.965s2.965-1.33 2.965-2.965zM5.845 17.329c0-1.125 0.916-2.041 2.041-2.041s2.041 0.916 2.041 2.041c0 1.125-0.916 2.041-2.041 2.041s-2.041-0.916-2.041-2.041z"></path>
<path d="M29.954 28.683h-2.097l-2.411-2.257c-0.186-0.174-0.478-0.165-0.653 0.021s-0.165 0.478 0.021 0.653l2.544 2.382c0.086 0.080 0.198 0.125 0.316 0.125h2.279c0.602 0 1.091 0.49 1.091 1.092v0.14h-3.746c-0.132 0-0.262-0.043-0.368-0.122l-11.605-11.015v-1.486l8.14 7.622c0.186 0.174 0.478 0.165 0.653-0.021s0.165-0.478-0.021-0.653l-8.771-8.213v-0.151c0-0.51-0.415-0.925-0.925-0.925h-0.773v-2.634h0.704c0.402 0 0.762-0.24 0.916-0.612s0.070-0.796-0.214-1.081l-6.446-6.467c-0.072-0.072-0.153-0.132-0.241-0.178v-0.669h3.087c0.552 0 1-0.449 1-1v-1.552c0-0.552-0.449-1-1-1h-3.089c-0.011-0.245-0.213-0.44-0.461-0.44-0.255 0-0.462 0.207-0.462 0.462v4.2c-0.088 0.046-0.169 0.106-0.241 0.178l-2.464 2.471c-0.18 0.181-0.18 0.473 0.001 0.653s0.473 0.18 0.653-0.001l2.464-2.471c0.017-0.017 0.036-0.020 0.049-0.020s0.032 0.003 0.049 0.020l6.446 6.467c0.010 0.010 0.032 0.033 0.015 0.075s-0.050 0.042-0.064 0.042h-12.893c-0.014 0-0.046 0-0.064-0.042s0.005-0.065 0.015-0.075l2.679-2.688c0.18-0.181 0.18-0.473-0.001-0.653s-0.473-0.18-0.653 0.001l-2.679 2.688c-0.284 0.285-0.368 0.709-0.214 1.081s0.514 0.612 0.917 0.612h0.704v4.275c0 0.255 0.207 0.462 0.462 0.462s0.462-0.207 0.462-0.462v-4.275h9.637v8.181h-9.637v-2.060c0-0.255-0.207-0.462-0.462-0.462s-0.462 0.207-0.462 0.462v11.477h-1.236c-0.255 0-0.462 0.207-0.462 0.462s0.207 0.462 0.462 0.462h30.599c0.255 0 0.462-0.207 0.462-0.462v-0.602c0-1.111-0.904-2.015-2.015-2.015zM11.512 1.679v1.552c0 0.042-0.034 0.077-0.077 0.077h-3.087v-1.706h3.087c0.042 0 0.077 0.034 0.077 0.077zM21.806 27.124l3.912 3.713h-3.912v-3.713zM20.883 30.838h-3.744v-8.143l3.744 3.554v4.59zM16.215 21.818v9.020h-2.587v-9.662h0.773c0.304 0 0.574-0.148 0.742-0.375l1.072 1.018zM14.402 16.798l-0.001 3.454c0 0-0 0-0.001 0h-0.773v-3.455l0.774 0.001zM12.705 30.838h-2.287v-8.494h2.287v8.494zM6.278 27.052h3.216v1.32h-3.216v-1.32zM9.494 26.129h-3.216v-1.32h3.216v1.32zM6.278 29.295h3.216v1.542h-3.216v-1.542zM9.494 22.343v1.542h-3.216v-1.542h3.216zM3.067 22.343h2.287v8.494h-2.287v-8.494z"></path>
</svg>
