<!-- Generated by IcoMoon.io -->
<svg version="1.1" xmlns="http://www.w3.org/2000/svg" width="32" height="32" viewBox="0 0 32 32">
<title>big-5</title>
<path d="M19.217 29.689c-0.243 0.065-0.389 0.316-0.316 0.559 0.065 0.227 0.34 0.381 0.559 0.316 0.576-0.178 0.34-1.013-0.243-0.876z"></path>
<path d="M16.906 30.119c-0.251 0.024-0.43 0.251-0.405 0.494 0.024 0.251 0.251 0.438 0.495 0.405 0.251-0.024 0.43-0.251 0.405-0.494-0.024-0.251-0.243-0.43-0.495-0.405z"></path>
<path d="M12.237 29.794c-0.243-0.057-0.494 0.089-0.551 0.332s0.089 0.495 0.332 0.551c0.227 0.057 0.495-0.105 0.551-0.332 0.065-0.251-0.089-0.494-0.332-0.551z"></path>
<path d="M14.556 30.151c-0.251-0.016-0.47 0.17-0.486 0.422s0.17 0.47 0.422 0.486c0.251 0.016 0.47-0.17 0.486-0.422 0.024-0.251-0.17-0.47-0.422-0.486z"></path>
<path d="M21.422 28.878c-0.227 0.105-0.324 0.381-0.219 0.608 0.17 0.243 0.373 0.316 0.608 0.219 0.535-0.276 0.162-1.062-0.389-0.827z"></path>
<path d="M23.457 27.711c-0.211 0.146-0.259 0.43-0.113 0.632 0.195 0.219 0.405 0.251 0.632 0.114 0.203-0.146 0.259-0.43 0.113-0.632-0.146-0.211-0.43-0.259-0.632-0.113z"></path>
<path d="M28.62 22.215c-0.227-0.113-0.495-0.016-0.608 0.211s-0.016 0.494 0.211 0.608c0.235 0.105 0.438 0.032 0.608-0.211 0.105-0.227 0.016-0.503-0.211-0.608z"></path>
<path d="M29.845 17.537c-0.251-0.032-0.478 0.146-0.503 0.397-0.032 0.243 0.203 0.511 0.454 0.511 0.227 0 0.422-0.17 0.454-0.405 0.016-0.251-0.162-0.478-0.405-0.503z"></path>
<path d="M29.431 19.929c-0.243-0.073-0.495 0.065-0.567 0.308s0.065 0.495 0.308 0.567c0.219 0.065 0.503-0.081 0.567-0.308 0.073-0.243-0.065-0.503-0.308-0.567z"></path>
<path d="M25.264 26.211c-0.178 0.178-0.186 0.462-0.008 0.64 0.211 0.178 0.43 0.178 0.64 0.008 0.178-0.178 0.178-0.462 0.008-0.64-0.178-0.186-0.462-0.186-0.64-0.008z"></path>
<path d="M27.429 24.33c-0.203-0.146-0.486-0.105-0.632 0.105-0.146 0.203-0.105 0.486 0.105 0.632 0.227 0.146 0.438 0.105 0.632-0.105 0.146-0.203 0.097-0.486-0.105-0.632z"></path>
<path d="M7.73 4.68c0.081 0 0.17-0.024 0.251-0.073 0.211-0.138 0.268-0.422 0.138-0.632-0.138-0.211-0.422-0.268-0.632-0.138-0.211 0.138-0.268 0.422-0.138 0.632 0.081 0.138 0.227 0.211 0.381 0.211z"></path>
<path d="M9.87 3.537c0.3 0 0.535-0.357 0.422-0.632-0.097-0.227-0.365-0.34-0.6-0.235-0.227 0.097-0.341 0.365-0.235 0.6 0.065 0.17 0.235 0.268 0.413 0.268z"></path>
<path d="M14.564 2.41c0.008 0 0.024 0 0.032 0 0.251-0.016 0.438-0.235 0.422-0.486s-0.235-0.438-0.486-0.422c-0.251 0.016-0.438 0.235-0.422 0.486 0.016 0.235 0.219 0.422 0.454 0.422z"></path>
<path d="M12.164 2.775c0.267 0 0.503-0.3 0.446-0.559-0.057-0.243-0.308-0.397-0.551-0.332-0.243 0.057-0.397 0.308-0.332 0.551 0.049 0.203 0.235 0.34 0.438 0.34z"></path>
<path d="M5.809 6.164c0.113 0 0.219-0.041 0.308-0.122 0.186-0.17 0.195-0.462 0.024-0.64-0.17-0.186-0.454-0.195-0.64-0.024s-0.195 0.462-0.024 0.64c0.089 0.097 0.211 0.146 0.332 0.146z"></path>
<path d="M1.334 18.51c-0.243 0.049-0.405 0.284-0.365 0.535 0.041 0.227 0.308 0.405 0.535 0.365 0.251-0.049 0.413-0.284 0.365-0.535s-0.284-0.413-0.535-0.365z"></path>
<path d="M1.269 14.57c0.227 0.032 0.486-0.154 0.519-0.381 0.041-0.251-0.13-0.478-0.381-0.519s-0.478 0.13-0.519 0.381c-0.041 0.251 0.13 0.486 0.381 0.519z"></path>
<path d="M1.172 16.994h0.008c0.251-0.008 0.454-0.211 0.446-0.462s-0.211-0.454-0.462-0.446-0.446 0.211-0.446 0.462c0.008 0.251 0.211 0.446 0.454 0.446z"></path>
<path d="M1.755 12.195c0.219 0.073 0.503-0.065 0.576-0.292 0.081-0.235-0.049-0.494-0.292-0.576-0.235-0.081-0.494 0.049-0.576 0.292s0.049 0.494 0.292 0.576z"></path>
<path d="M2.639 9.933c0.235 0.113 0.438 0.049 0.616-0.186 0.122-0.219 0.032-0.495-0.186-0.616s-0.494-0.032-0.616 0.186c-0.122 0.227-0.032 0.503 0.186 0.616z"></path>
<path d="M3.895 7.858c0.227 0.146 0.438 0.122 0.64-0.081 0.154-0.203 0.114-0.486-0.081-0.64s-0.486-0.114-0.64 0.081c-0.154 0.203-0.122 0.486 0.081 0.64z"></path>
<path d="M31.328 7.85l-1.694-0.73c-0.122-0.389-0.276-0.778-0.454-1.143l0.681-1.694c0.065-0.17 0.024-0.365-0.097-0.486l-1.67-1.678c-0.13-0.13-0.324-0.17-0.494-0.105l-1.589 0.632c-0.413-0.227-0.851-0.422-1.305-0.559l-0.657-1.548c-0.073-0.17-0.235-0.276-0.422-0.276h-2.367c-0.186 0-0.349 0.105-0.422 0.276l-0.657 1.548c-0.454 0.146-0.884 0.332-1.305 0.559l-1.581-0.64c-0.17-0.065-0.365-0.032-0.494 0.105l-1.67 1.678c-0.13 0.13-0.17 0.324-0.097 0.486l0.681 1.694c-0.146 0.3-0.276 0.608-0.381 0.924-1.994 0-3.899 0.608-5.529 1.759-0.478 0.34 0.041 1.086 0.527 0.746 5.658-4.069 13.789 0.146 13.733 7.126 0 2.432-1.030 4.767-2.813 6.412-0.097 0.089-0.146 0.211-0.146 0.332v1.727l-1.556-0.657c-0.122-0.049-0.259-0.049-0.381 0.008-2.197 1.086-4.88 1.167-7.134 0.227l0.462-0.47c0.13-0.13 0.162-0.324 0.097-0.494l-0.6-1.451c-0.073-0.17-0.235-0.284-0.413-0.284l-1.054-0.008c-0.178-0.211-0.373-0.413-0.576-0.592l-0.008-1.046c0-0.178-0.114-0.349-0.284-0.413l-1.443-0.6c-0.17-0.073-0.365-0.032-0.494 0.097l-0.454 0.446c-1.208-2.951-0.608-6.542 1.508-8.934 0.389-0.446-0.3-1.038-0.689-0.6-2.318 2.627-2.991 6.558-1.694 9.809-0.081 0-0.162 0.008-0.243 0.016l-0.754-0.746c-0.13-0.13-0.324-0.17-0.495-0.097l-1.443 0.6c-0.17 0.073-0.276 0.235-0.284 0.413l-0.016 1.143c-0.17 0.154-0.332 0.324-0.486 0.503l-1.143 0.016c-0.186 0-0.349 0.114-0.413 0.284l-0.6 1.451c-0.073 0.17-0.032 0.357 0.097 0.495l0.803 0.827c-0.016 0.235-0.024 0.47-0.008 0.697l-0.794 0.819c-0.13 0.13-0.162 0.324-0.097 0.494l0.6 1.451c0.073 0.17 0.235 0.284 0.413 0.284l1.054 0.008c0.178 0.211 0.373 0.413 0.576 0.592l0.008 1.046c0 0.178 0.114 0.349 0.284 0.413l1.443 0.6c0.17 0.073 0.365 0.032 0.495-0.097l0.746-0.73c0.276 0.016 0.551 0.016 0.827-0.008l0.754 0.746c0.154 0.13 0.316 0.162 0.495 0.097l1.443-0.6c0.17-0.073 0.276-0.235 0.284-0.413l0.016-1.143c0.17-0.154 0.332-0.324 0.486-0.503l1.143-0.016c0.186 0 0.349-0.114 0.413-0.284l0.6-1.451c0.073-0.17 0.032-0.357-0.097-0.495l-0.803-0.827c0.008-0.065 0.008-0.13 0.008-0.195 2.424 1.005 5.302 0.948 7.677-0.17l1.994 0.843c0.365 0.089 0.576-0.057 0.632-0.422v-2.221c1.832-1.759 2.902-4.191 2.959-6.728 0.357-0.13 0.705-0.292 1.046-0.478l1.581 0.64c0.178 0.065 0.34 0.032 0.495-0.105l1.67-1.678c0.13-0.13 0.17-0.324 0.097-0.486l-0.681-1.694c0.178-0.365 0.332-0.754 0.454-1.143l1.694-0.73c0.17-0.073 0.276-0.235 0.276-0.422v-2.359c0.008-0.186-0.097-0.349-0.268-0.422zM11.256 27.768l-1.054 0.008c-0.138 0-0.268 0.065-0.357 0.178-0.195 0.243-0.413 0.47-0.657 0.673-0.105 0.089-0.162 0.211-0.162 0.349l-0.008 1.046-0.892 0.373-0.697-0.681c-0.097-0.097-0.243-0.146-0.381-0.13-0.349 0.049-0.697 0.057-1.038 0.016-0.138-0.016-0.276 0.032-0.373 0.13l-0.681 0.665-0.892-0.373-0.008-0.957c0-0.138-0.065-0.267-0.17-0.349-0.276-0.219-0.519-0.47-0.73-0.754-0.081-0.113-0.219-0.178-0.357-0.178l-0.973-0.008-0.373-0.9 0.73-0.746c0.089-0.097 0.138-0.227 0.13-0.357-0.032-0.316-0.024-0.632 0.016-0.94 0.016-0.138-0.032-0.276-0.13-0.373l-0.738-0.762 0.373-0.9 1.054-0.008c0.138 0 0.268-0.065 0.357-0.178 0.195-0.243 0.413-0.47 0.649-0.673 0.105-0.089 0.162-0.211 0.162-0.349l0.008-1.046 0.892-0.373 0.697 0.681c0.097 0.097 0.243 0.146 0.381 0.13 0.292-0.041 0.592-0.049 0.884-0.032 0.178 0.073 0.397 0.024 0.535-0.114l0.681-0.665 0.892 0.373 0.008 0.957c0 0.138 0.065 0.268 0.17 0.349 0.276 0.219 0.519 0.47 0.73 0.754 0.081 0.113 0.219 0.178 0.357 0.178l0.973 0.008 0.373 0.9-0.632 0.657c-0.138 0.089-0.235 0.292-0.219 0.454 0.032 0.316 0.024 0.632-0.016 0.94-0.016 0.138 0.032 0.276 0.13 0.373l0.738 0.762-0.381 0.892zM19.485 7.834c0.584-1.086 1.727-1.775 2.967-1.775 3.502 0.041 4.645 4.677 1.613 6.38-0.948-2.010-2.578-3.64-4.58-4.604zM30.696 10.347l-1.613 0.689c-0.13 0.057-0.219 0.162-0.259 0.3-0.13 0.47-0.316 0.932-0.543 1.37-0.065 0.122-0.073 0.259-0.016 0.381l0.64 1.613-1.248 1.257-1.508-0.608c-0.13-0.057-0.284-0.041-0.405 0.032-0.259 0.154-0.527 0.292-0.803 0.405-0.065-0.867-0.251-1.702-0.535-2.489 1.427-0.73 2.327-2.189 2.327-3.834-0.049-4.507-5.999-5.95-8.099-1.978-0.746-0.276-1.532-0.454-2.359-0.535 0.097-0.251 0.211-0.494 0.332-0.738 0.065-0.122 0.073-0.259 0.016-0.381l-0.64-1.613 1.248-1.257 1.508 0.608c0.13 0.057 0.284 0.041 0.405-0.032 0.47-0.276 0.981-0.494 1.5-0.649 0.13-0.041 0.235-0.13 0.292-0.259l0.624-1.467h1.759l0.624 1.467c0.057 0.13 0.162 0.219 0.292 0.259 0.527 0.154 1.030 0.373 1.5 0.649 0.122 0.073 0.268 0.081 0.405 0.032l1.508-0.608 1.248 1.257-0.64 1.613c-0.049 0.122-0.041 0.259 0.016 0.381 0.227 0.43 0.413 0.892 0.543 1.362 0.041 0.13 0.13 0.243 0.259 0.3l1.613 0.689v1.783h0.008z"></path>
<path d="M11.313 19.426h0.332c0.511 0 0.932-0.422 0.932-0.932v-2.764c0-0.511-0.422-0.932-0.932-0.932-0.195-0.008-0.405-0.008-0.6 0.016 1.054-4.637 7.531-4.653 8.601 0-0.195-0.024-0.405-0.016-0.6-0.016-0.511 0-0.932 0.422-0.932 0.932v2.764c0 0.511 0.422 0.932 0.932 0.932 0.203 0 0.551 0 0.689 0 0 0.827-0.608 1.524-1.402 1.654-0.195-0.494-0.673-0.851-1.24-0.851h-0.875c-1.767 0.073-1.767 2.586 0 2.659h0.875c0.576 0 1.070-0.373 1.257-0.892 1.289-0.146 2.302-1.24 2.302-2.57v-0.381c1.394-0.9 1.378-2.999-0.024-3.883-0.13-1.289-0.73-2.481-1.694-3.364-3.17-2.943-8.439-0.924-8.852 3.364-1.929 1.24-1.086 4.24 1.232 4.264zM17.101 21.972h-0.876c-0.551-0.016-0.551-0.819 0-0.835h0.876c0.551 0.016 0.551 0.819 0 0.835zM19.379 18.518c0 0-0.349 0.024-0.349-0.024v-2.764c0-0.041 0.357-0.024 0.349-0.024 1.865 0.081 1.865 2.732 0 2.813zM11.313 15.705c0 0 0.349-0.024 0.349 0.024v2.764c0 0.040-0.357 0.024-0.349 0.024-1.856-0.081-1.856-2.732 0-2.813z"></path>
<path d="M7.697 22.507c-0.738-0.308-1.548-0.308-2.286 0s-1.313 0.884-1.621 1.629c-0.965 2.327 1.224 4.759 3.632 4.021 0.243-0.073 0.373-0.324 0.3-0.567s-0.324-0.373-0.567-0.3c-0.454 0.138-0.957 0.114-1.394-0.073-1.070-0.446-1.573-1.67-1.135-2.74 0.211-0.519 0.616-0.924 1.127-1.135 1.621-0.681 3.299 0.9 2.772 2.562-0.073 0.243 0.057 0.495 0.3 0.567s0.494-0.057 0.567-0.3c0.227-0.713 0.17-1.484-0.138-2.164-0.308-0.673-0.867-1.216-1.556-1.5z"></path>
</svg>
