<!-- Generated by IcoMoon.io -->
<svg version="1.1" xmlns="http://www.w3.org/2000/svg" width="26" height="32" viewBox="0 0 26 32">
<title>big-12</title>
<path d="M15.38 20.464c-0.47-0.403-0.94-0.906-1.477-1.443-0.369-0.403-0.772-0.974-1.108-1.578 0.638-2.182 0.94-4.263 0.269-5.27-0.302-0.47-0.772-0.705-1.376-0.705-0.671 0-1.175 0.302-1.41 0.873-0.537 1.208 0.269 3.424 1.242 5.237-0.269 0.873-0.604 1.813-1.007 2.853-0.235 0.571-0.504 1.141-0.772 1.678-2.753 1.074-4.431 2.283-4.666 3.424-0.101 0.537 0.067 1.007 0.537 1.376 0.269 0.201 0.571 0.336 0.906 0.336 0.134 0 0.269-0.034 0.403-0.067 1.276-0.336 2.652-2.216 3.659-4.129 0.604-0.235 1.309-0.47 2.081-0.671 0.906-0.269 1.712-0.47 2.417-0.604 1.309 1.041 2.417 1.611 3.39 1.611 0.738 0.034 1.276-0.235 1.779-0.738 0.738-0.738 0.436-1.376 0.336-1.544-0.604-0.94-2.45-1.141-5.203-0.638zM6.585 26.002c-0.134 0.034-0.201 0-0.269-0.034-0.134-0.101-0.134-0.168-0.101-0.235 0.067-0.403 0.839-1.141 2.518-1.947-0.806 1.208-1.611 2.081-2.148 2.216zM11.352 12.81c0.034-0.067 0.067-0.168 0.336-0.168 0.235 0 0.336 0.101 0.403 0.168 0.302 0.436 0.269 1.544-0.101 3.021-0.571-1.276-0.873-2.484-0.638-3.021zM12.292 21.202c-0.336 0.101-0.671 0.201-1.007 0.302 0.101-0.235 0.201-0.47 0.302-0.671 0.235-0.638 0.504-1.276 0.739-1.947 0.269 0.369 0.504 0.705 0.739 0.94 0.302 0.336 0.604 0.638 0.906 0.94-0.537 0.134-1.108 0.269-1.678 0.436zM19.375 21.806c-0.235 0.269-0.537 0.369-0.906 0.369-0.504 0-1.108-0.235-1.813-0.705 1.947-0.269 3.055-0.067 2.719 0.336z"></path>
<path d="M24.88 8.146l-7.352-7.352c-0.47-0.47-1.108-0.739-1.746-0.739h-13.192c-0.671 0-1.276 0.269-1.746 0.739s-0.739 1.074-0.739 1.746v26.922c0 1.376 1.108 2.484 2.484 2.484h20.544c1.376 0 2.484-1.108 2.484-2.484v-19.57c0-0.638-0.269-1.276-0.738-1.746zM23.47 8.75h-5.438c-0.604 0-1.108-0.504-1.108-1.108v-5.405l6.546 6.512zM23.135 30.503h-20.544c-0.571 0-1.041-0.47-1.041-1.041v-26.922c0-0.269 0.101-0.537 0.302-0.739s0.47-0.302 0.738-0.302h12.89v6.143c0 1.41 1.141 2.551 2.551 2.551h6.143v19.268c0 0.571-0.47 1.041-1.041 1.041z"></path>
</svg>
