<!-- Generated by IcoMoon.io -->
<svg version="1.1" xmlns="http://www.w3.org/2000/svg" width="32" height="32" viewBox="0 0 32 32">
<title>big-1</title>
<path d="M30.382 14.215h-8.618v-1.034c0-0.906-0.736-1.648-1.648-1.648s-1.648 0.736-1.648 1.648v1.034h-8.618c-0.62 0-1.131 0.474-1.192 1.077-0.006 0.043-0.006 0.079-0.006 0.122v7.84c0 0.663 0.541 1.198 1.198 1.198h1.454v3.272h-6.265v-15.85l10.479-6.97 10.479 6.97v1.265c0 0.243 0.201 0.444 0.444 0.444s0.444-0.201 0.444-0.444v-0.675l1.35 0.9c0.511 0.341 1.174 0.341 1.685 0 0.426-0.28 0.675-0.754 0.675-1.265s-0.255-0.979-0.675-1.265l-13.971-9.287c-0.261-0.176-0.602-0.176-0.864 0l-8.101 5.389c-0.207 0.134-0.262 0.414-0.122 0.62 0.134 0.207 0.414 0.261 0.62 0.122l8.047-5.352 13.91 9.251c0.176 0.116 0.28 0.31 0.28 0.523s-0.103 0.401-0.28 0.523c-0.213 0.14-0.487 0.14-0.693 0l-12.797-8.503c-0.261-0.176-0.602-0.176-0.864 0l-12.778 8.503c-0.213 0.14-0.487 0.14-0.693 0-0.176-0.116-0.28-0.31-0.28-0.523s0.103-0.401 0.28-0.523l3.558-2.366c0.207-0.134 0.261-0.414 0.122-0.62-0.134-0.207-0.414-0.261-0.62-0.122l-3.558 2.372c-0.42 0.28-0.675 0.754-0.675 1.259s0.255 0.979 0.675 1.265c0.255 0.17 0.547 0.255 0.839 0.255s0.584-0.085 0.839-0.255l1.356-0.894v15.26h-1.709c-0.742 0-1.344 0.602-1.344 1.344s0.602 1.344 1.344 1.344h26.153c0.742 0 1.344-0.602 1.344-1.344s-0.602-1.344-1.344-1.344h-1.709v-2.196c0-0.243-0.201-0.444-0.444-0.444s-0.444 0.201-0.444 0.444v2.196h-4.239v-3.272h8.618c0.663 0 1.198-0.541 1.198-1.198v-7.846c0.006-0.663-0.535-1.198-1.192-1.198zM19.361 13.181c0-0.42 0.341-0.754 0.754-0.754s0.754 0.341 0.754 0.754v1.034h-1.514v-1.034h0.006zM18.467 29.524h-16.026c-0.249 0-0.456-0.201-0.456-0.456 0-0.249 0.201-0.456 0.456-0.456h16.026v0.912zM18.467 27.723h-6.271v-3.272h6.271v3.272zM20.869 29.524h-1.514v-5.066h1.514v5.066zM28.6 28.617c0.249 0 0.456 0.201 0.456 0.456 0 0.249-0.201 0.456-0.456 0.456h-6.836v-0.906l6.836-0.006zM30.692 23.253c0 0.17-0.14 0.31-0.31 0.31h-20.533c-0.17 0-0.31-0.14-0.31-0.31v-7.84c0-0.17 0.14-0.31 0.31-0.31h20.527c0.17 0 0.31 0.14 0.31 0.31l0.006 7.84z"></path>
<path d="M12.713 9.671c0 1.545 1.259 2.804 2.804 2.804s2.804-1.259 2.804-2.804c0-1.545-1.259-2.804-2.804-2.804s-2.804 1.259-2.804 2.804zM15.073 11.532c-0.699-0.17-1.253-0.718-1.417-1.417h1.417v1.417zM15.073 9.221h-1.417c0.17-0.699 0.718-1.247 1.417-1.417v1.417zM15.967 7.81c0.699 0.164 1.247 0.718 1.417 1.417h-1.417v-1.417zM15.967 10.115h1.417c-0.164 0.699-0.718 1.253-1.417 1.417v-1.417z"></path>
<path d="M15.158 19.615c0.487-0.146 0.845-0.547 0.845-1.289 0-1.028-0.687-1.35-1.533-1.35h-1.277c-0.164 0-0.274 0.122-0.274 0.255v4.197c0 0.176 0.213 0.268 0.42 0.268 0.213 0 0.42-0.091 0.42-0.268v-1.685h0.541l0.918 1.782c0.067 0.128 0.176 0.201 0.292 0.201 0.243 0 0.523-0.225 0.523-0.438 0-0.024-0.006-0.073-0.030-0.103l-0.845-1.569zM14.471 19.086h-0.712v-1.375h0.712c0.42 0 0.693 0.182 0.693 0.693 0 0.505-0.274 0.681-0.693 0.681z"></path>
<path d="M19.397 17.712c0.17 0 0.268-0.176 0.268-0.377 0-0.176-0.085-0.359-0.268-0.359h-2.299c-0.189 0-0.365 0.091-0.365 0.268v4.191c0 0.176 0.182 0.268 0.365 0.268h2.299c0.182 0 0.268-0.189 0.268-0.359 0-0.201-0.097-0.377-0.268-0.377h-1.825v-1.308h0.979c0.182 0 0.268-0.176 0.268-0.322 0-0.176-0.097-0.334-0.268-0.334h-0.979v-1.289h1.825z"></path>
<path d="M22.992 16.976c-0.213 0-0.42 0.079-0.42 0.255v2.597l-1.247-2.409c-0.201-0.383-0.322-0.444-0.626-0.444-0.213 0-0.42 0.085-0.42 0.268v4.191c0 0.176 0.207 0.268 0.42 0.268 0.207 0 0.42-0.091 0.42-0.268v-2.597l1.387 2.597c0.109 0.201 0.286 0.268 0.487 0.268 0.207 0 0.42-0.091 0.42-0.268v-4.197c0-0.189-0.213-0.262-0.42-0.262z"></path>
<path d="M27 16.976h-2.731c-0.182 0-0.268 0.195-0.268 0.377 0 0.207 0.097 0.383 0.268 0.383h0.949v3.698c0 0.176 0.207 0.268 0.42 0.268 0.207 0 0.42-0.091 0.42-0.268v-3.698h0.943c0.17 0 0.268-0.182 0.268-0.383 0-0.189-0.085-0.377-0.268-0.377z"></path>
</svg>
