<!-- Generated by IcoMoon.io -->
<svg version="1.1" xmlns="http://www.w3.org/2000/svg" width="32" height="32" viewBox="0 0 32 32">
<title>big-9</title>
<path d="M28.89 10.274c0.252 0 0.478-0.153 0.572-0.387l2.463-6.166c0.126-0.316-0.027-0.674-0.343-0.8l-2.287-0.914c-0.316-0.126-0.674 0.028-0.8 0.343l-1.689 4.23h-5.304c-0.34 0-0.616 0.276-0.616 0.616v0.616h-3.078c-1.018 0-1.847 0.829-1.847 1.847 0 0.34 0.276 0.616 0.616 0.616s0.616-0.276 0.616-0.616c0-0.339 0.276-0.616 0.616-0.616h3.078v0.616c0 0.34 0.276 0.616 0.616 0.616h2.927l-2.191 9.912h-17.483c-2.376 0-4.31 1.933-4.31 4.31s1.933 4.31 4.31 4.31h0.616v0.616c0 0.34 0.276 0.616 0.616 0.616h4.925c0.34 0 0.616-0.276 0.616-0.616v-0.616h9.358v0.616c0 0.34 0.276 0.616 0.616 0.616h4.925c0.34 0 0.616-0.276 0.616-0.616v-0.616h0.616c2.376 0 4.31-1.933 4.31-4.31 0-2.167-1.608-3.965-3.694-4.265v-9.957h0.616zM25.69 10.274h1.353v9.912h-3.543l2.191-9.912zM10.297 28.806h-3.694v-2.463h3.694v2.463zM20.886 27.575h-9.358v-1.231h9.358v1.231zM25.812 28.806h-3.694v-2.463h3.694v2.463zM30.737 24.496c0 1.697-1.381 3.078-3.078 3.078h-0.616v-1.231h0.616c1.018 0 1.847-0.829 1.847-1.847s-0.829-1.847-1.847-1.847h-8.681c-0.34 0-0.616 0.276-0.616 0.616s0.276 0.616 0.616 0.616h8.681c0.34 0 0.616 0.276 0.616 0.616s-0.276 0.616-0.616 0.616h-22.903c-0.339 0-0.616-0.276-0.616-0.616s0.276-0.616 0.616-0.616h8.681c0.34 0 0.616-0.276 0.616-0.616s-0.276-0.616-0.616-0.616h-8.681c-1.018 0-1.847 0.829-1.847 1.847s0.829 1.847 1.847 1.847h0.616v1.231h-0.616c-1.697 0-3.078-1.381-3.078-3.078s1.381-3.078 3.078-3.078h22.903c1.697 0 3.078 1.381 3.078 3.078zM22.118 9.043v-1.231h5.105c0.252 0 0.478-0.153 0.572-0.387l1.615-4.045 1.143 0.457-2.080 5.207c-0.745 0-5.694 0-6.355 0z"></path>
<path d="M16.207 23.881c0.34 0 0.616-0.276 0.616-0.616s-0.276-0.616-0.616-0.616-0.616 0.276-0.616 0.616c0 0.34 0.276 0.616 0.616 0.616z"></path>
</svg>
