<!-- Generated by IcoMoon.io -->
<svg version="1.1" xmlns="http://www.w3.org/2000/svg" width="32" height="32" viewBox="0 0 32 32">
<title>big-6</title>
<path d="M27.706 24.281l-2.3-5.91c-0.343-0.881-0.936-1.629-1.717-2.163s-1.693-0.816-2.638-0.816h-2.108c-0.185-0.199-0.379-0.39-0.581-0.573v-4.554c0-1.396-0.7-2.632-1.766-3.376 1.056-0.621 1.766-1.769 1.766-3.079 0-1.969-1.602-3.571-3.571-3.571s-3.571 1.602-3.571 3.571c0 1.095 0.496 2.076 1.274 2.732-0.769 0.362-1.422 0.959-1.848 1.728-0.74 1.335-1.169 2.827-1.256 4.348-1.582 0.41-3.040 1.215-4.237 2.347-1.301 1.23-2.236 2.788-2.704 4.506-0.089 0.328 0.104 0.667 0.432 0.756 0.054 0.015 0.108 0.022 0.162 0.022 0.271 0 0.519-0.18 0.594-0.454 0.765-2.806 2.976-5.052 5.736-5.893v1.822c-1.182 0.46-2.202 1.235-2.969 2.265-0.877 1.176-1.341 2.575-1.341 4.045 0 3.734 3.038 6.772 6.772 6.772s6.772-3.038 6.772-6.772c0-3.098-2.095-5.776-5.049-6.549v-1.771c3.906 0.803 6.772 4.264 6.772 8.321 0 4.685-3.811 8.496-8.496 8.496-3.772 0-7.131-2.53-8.169-6.152-0.094-0.327-0.435-0.516-0.761-0.422s-0.516 0.435-0.422 0.761c0.57 1.99 1.794 3.783 3.447 5.047 1.708 1.306 3.75 1.997 5.905 1.997 2.914 0 5.532-1.288 7.317-3.325h10.538c0.34 0 0.616-0.276 0.616-0.616v-0.538c0-1.526-1.132-2.791-2.6-3.002zM14.791 1.47c1.29 0 2.34 1.050 2.34 2.34s-1.049 2.34-2.34 2.34c-1.29 0-2.34-1.050-2.34-2.34s1.050-2.34 2.34-2.34zM17.377 22.034c0 3.055-2.486 5.541-5.541 5.541s-5.541-2.486-5.541-5.541c0-2.142 1.208-4.044 3.078-4.966v1.088c0 1.154 0.939 2.093 2.093 2.093s2.093-0.939 2.093-2.093v-1.389c2.25 0.733 3.817 2.844 3.817 5.268zM12.944 11.588c-0.34 0-0.616 0.276-0.616 0.616v5.952c0 0.475-0.387 0.862-0.862 0.862s-0.862-0.387-0.862-0.862v-1.995c0-0.002 0-0.003 0-0.005v-2.962c0-1.51 0.387-3.006 1.119-4.327 0.508-0.917 1.475-1.486 2.523-1.486 1.59 0 2.884 1.294 2.884 2.884v3.606c-1.061-0.69-2.268-1.179-3.571-1.412v-0.255c0-0.34-0.276-0.616-0.616-0.616zM21.564 22.034c0-0.248-0.010-0.495-0.028-0.739h0.068l2.683 5.91h-4.215c0.945-1.499 1.492-3.272 1.492-5.172zM25.639 27.205l-3.079-6.781c-0.1-0.22-0.319-0.361-0.56-0.361h-0.637c-0.257-1.247-0.754-2.411-1.443-3.44h1.131c1.43 0 2.689 0.861 3.208 2.194l2.441 6.271c0.092 0.237 0.32 0.392 0.574 0.392 0.967 0 1.759 0.766 1.8 1.724h-3.434z"></path>
<path d="M3.159 22.521c0.114-0.114 0.18-0.273 0.18-0.435s-0.066-0.321-0.18-0.435c-0.114-0.115-0.273-0.18-0.435-0.18s-0.321 0.065-0.435 0.18c-0.114 0.114-0.18 0.273-0.18 0.435s0.066 0.321 0.18 0.435 0.273 0.18 0.435 0.18c0.162 0 0.321-0.066 0.435-0.18z"></path>
<path d="M13.688 25.172c0.122 0.144 0.295 0.217 0.47 0.217 0.141 0 0.282-0.048 0.398-0.146 0.945-0.802 1.487-1.971 1.487-3.209 0-0.34-0.276-0.616-0.616-0.616s-0.616 0.276-0.616 0.616c0 0.876-0.383 1.703-1.052 2.271-0.259 0.22-0.291 0.608-0.071 0.868z"></path>
<path d="M11.844 25.009c-0.001 0-0.003 0-0.004 0h-0.004c-0.34 0-0.616 0.276-0.616 0.616s0.276 0.616 0.616 0.616h0.015c0.34-0.003 0.612-0.281 0.609-0.62-0.003-0.338-0.278-0.611-0.616-0.611z"></path>
</svg>
