<!-- Generated by IcoMoon.io -->
<svg version="1.1" xmlns="http://www.w3.org/2000/svg" width="32" height="32" viewBox="0 0 32 32">
<title>callcenter</title>
<path d="M16.24 28.919c-0.229-0.018-0.429 0.154-0.446 0.382s0.154 0.429 0.383 0.446l0.064-0.829zM25.957 22.667v-0.416h-0.831v0.416h0.831zM16.176 29.748c1.517 0.117 3.929-0.23 5.974-1.296 2.058-1.073 3.807-2.913 3.807-5.785h-0.831c0 2.461-1.474 4.065-3.36 5.048-1.899 0.99-4.154 1.31-5.526 1.204l-0.064 0.829z"></path>
<path fill="none" stroke-linejoin="miter" stroke-linecap="round" stroke-miterlimit="4" stroke-width="0.8312" stroke="#000" d="M28.208 14.029h-4.502c-0.459 0-0.831 0.372-0.831 0.831v6.329c0 0.463 0.378 0.836 0.84 0.831l1.826-0.020 1.826 0.020c0.463 0.005 0.84-0.369 0.84-0.831v-7.16zM28.208 14.029c0-6.627-5.373-12-12-12s-12 5.373-12 12M4.208 14.029v7.169c0 0.459 0.372 0.831 0.831 0.831h3.671c0.459 0 0.831-0.372 0.831-0.831v-6.338c0-0.459-0.372-0.831-0.831-0.831h-4.502z"></path>
</svg>
