<!-- Generated by IcoMoon.io -->
<svg version="1.1" xmlns="http://www.w3.org/2000/svg" width="32" height="32" viewBox="0 0 32 32">
<title>instagram</title>
<path d="M16.286 9.384c-4 0-7.188 3.25-7.188 7.188 0 4 3.188 7.188 7.188 7.188 3.938 0 7.187-3.188 7.187-7.188 0-3.938-3.25-7.188-7.187-7.188zM16.286 21.259c-2.563 0-4.688-2.063-4.688-4.688 0-2.563 2.063-4.625 4.688-4.625 2.563 0 4.625 2.063 4.625 4.625 0 2.625-2.063 4.688-4.625 4.688zM25.411 9.134c0-0.938-0.75-1.688-1.688-1.688s-1.688 0.75-1.688 1.688 0.75 1.688 1.688 1.688c0.938 0 1.688-0.75 1.688-1.688zM30.161 10.821c-0.125-2.25-0.625-4.25-2.25-5.875s-3.625-2.125-5.875-2.25c-2.312-0.125-9.25-0.125-11.563 0-2.25 0.125-4.188 0.625-5.875 2.25-1.625 1.625-2.125 3.625-2.25 5.875-0.125 2.312-0.125 9.25 0 11.563 0.125 2.25 0.625 4.188 2.25 5.875 1.688 1.625 3.625 2.125 5.875 2.25 2.313 0.125 9.25 0.125 11.563 0 2.25-0.125 4.25-0.625 5.875-2.25 1.625-1.688 2.125-3.625 2.25-5.875 0.125-2.313 0.125-9.25 0-11.563zM27.161 24.822c-0.438 1.25-1.438 2.187-2.625 2.688-1.875 0.75-6.25 0.562-8.25 0.562-2.063 0-6.438 0.188-8.25-0.562-1.25-0.5-2.188-1.438-2.688-2.688-0.75-1.813-0.563-6.188-0.563-8.25 0-2-0.188-6.375 0.563-8.25 0.5-1.188 1.438-2.125 2.688-2.625 1.813-0.75 6.188-0.563 8.25-0.563 2 0 6.375-0.188 8.25 0.563 1.187 0.438 2.125 1.438 2.625 2.625 0.75 1.875 0.563 6.25 0.563 8.25 0 2.063 0.187 6.438-0.563 8.25z"></path>
</svg>
