<!-- Generated by IcoMoon.io -->
<svg version="1.1" xmlns="http://www.w3.org/2000/svg" width="32" height="32" viewBox="0 0 32 32">
<title>key</title>
<path d="M10.687 31.812h11.336v-14.031h-11.336v14.031zM21.090 30.88h-9.472v-9.275h9.472v9.275h0zM11.619 18.713h9.472v1.96h-9.472v-1.96z"></path>
<path d="M31.274 4.338v-2.936h-5.826v2.936h-0.6v0.932h3.513v-0.932h-1.981v-2.004h1.515v1.223h0.932v-1.223h1.515v2.936h0.632v1.030h-6.126v0.932h7.058v-2.894h-0.632z"></path>
<path d="M8.638 8.008v4.834l2.769 2.796v1.366h0.932v-1.749l-2.769-2.796v-4.451h-0.932z"></path>
<path d="M21.466 1.011h-3.043v-0.953h-3.975v0.953h-3.043v5.289h-3.827v1.061c0 1.807-1.47 3.277-3.277 3.277s-3.277-1.47-3.277-3.277v-3.151c0-1.807 1.47-3.277 3.277-3.277s3.277 1.47 3.277 3.277v1.061h3.050v-0.932h-2.118v-0.129c0-2.321-1.888-4.209-4.209-4.209s-4.209 1.888-4.209 4.209v3.151c0 2.321 1.888 4.209 4.209 4.209s4.209-1.888 4.209-4.209v-0.129h2.895v1.759h0.932v-7.048h2.111v3.361h0.932v-4.314h2.111v4.314h0.932v-3.361h2.111v3.361h0.932v-2.154h1.673v9.32l-2.796 2.769v1.765h0.932v-1.377l2.796-2.769v-10.641h-2.605v-1.207z"></path>
<path d="M3.093 4.342c-0.796 0-1.443 0.647-1.443 1.443s0.647 1.443 1.443 1.443c0.796 0 1.443-0.648 1.443-1.443s-0.647-1.443-1.443-1.443zM3.093 6.296c-0.282 0-0.511-0.229-0.511-0.511s0.229-0.511 0.511-0.511c0.282 0 0.511 0.229 0.511 0.511s-0.229 0.511-0.511 0.511z"></path>
<path d="M22.518 11.851h-0.932v-2.861h0.932v2.861zM22.518 8.369h-0.932v-0.932h0.932v0.932zM22.518 6.815h-0.932v-0.932h0.932v0.932z"></path>
<path d="M20.469 29.972h-0.932v-4.353h0.932v4.353zM20.469 24.998h-0.932v-0.932h0.932v0.932zM20.469 23.445h-0.932v-0.932h0.932v0.932z"></path>
<path d="M4.303 10.016v-0.932c0.95 0 1.724-0.773 1.724-1.724v-3.151c0-0.088-0.007-0.176-0.020-0.262l0.921-0.141c0.020 0.133 0.031 0.268 0.030 0.403v3.151c0 1.464-1.191 2.656-2.656 2.656zM5.866 3.482c-0.103-0.22-0.255-0.421-0.441-0.58l0.607-0.707c0.285 0.245 0.519 0.553 0.678 0.892l-0.844 0.395zM5.014 2.639c-0.224-0.102-0.463-0.154-0.711-0.154v-0.932c0.382 0 0.751 0.080 1.097 0.237l-0.386 0.849z"></path>
</svg>
