<!-- Generated by IcoMoon.io -->
<svg version="1.1" xmlns="http://www.w3.org/2000/svg" width="32" height="32" viewBox="0 0 32 32">
<title>linkedin-in</title>
<path d="M6.731 32v-20.125h-6.26v20.125h6.26zM3.567 9.183c2.019 0 3.635-1.683 3.635-3.702 0-1.952-1.615-3.567-3.635-3.567-1.952 0-3.567 1.615-3.567 3.567 0 2.019 1.615 3.702 3.567 3.702zM30.087 32h0.067v-11.038c0-5.385-1.212-9.558-7.538-9.558-3.029 0-5.048 1.683-5.923 3.231h-0.067v-2.76h-5.99v20.125h6.26v-9.962c0-2.625 0.471-5.115 3.702-5.115s3.298 2.962 3.298 5.317v9.76h6.192z"></path>
</svg>
