<!-- Generated by IcoMoon.io -->
<svg version="1.1" xmlns="http://www.w3.org/2000/svg" width="32" height="32" viewBox="0 0 32 32">
<title>loan</title>
<path d="M10.807 24.578c-0.164 0-0.326 0.066-0.442 0.183s-0.183 0.277-0.183 0.442c0 0.164 0.067 0.326 0.183 0.442s0.277 0.183 0.442 0.183 0.325-0.067 0.442-0.183c0.116-0.116 0.183-0.277 0.183-0.442s-0.067-0.326-0.183-0.442c-0.116-0.117-0.277-0.183-0.442-0.183z"></path>
<path d="M16.514 20.506c0-0.345-0.28-0.625-0.625-0.625h-6.977c-0.345 0-0.625 0.28-0.625 0.625s0.28 0.625 0.625 0.625h6.977c0.345 0 0.625-0.28 0.625-0.625z"></path>
<path d="M8.185 14.133h8.433c0.345 0 0.625-0.28 0.625-0.625s-0.28-0.625-0.625-0.625h-8.433c-0.345 0-0.625 0.28-0.625 0.625s0.28 0.625 0.625 0.625z"></path>
<path d="M12.212 9.256c-0.454 0-0.823-0.309-0.823-0.689 0-0.345-0.28-0.625-0.625-0.625s-0.625 0.28-0.625 0.625c0 0.865 0.609 1.6 1.448 1.848v0.087c0 0.345 0.28 0.625 0.625 0.625s0.625-0.28 0.625-0.625v-0.087c0.838-0.248 1.448-0.983 1.448-1.848 0-1.069-0.93-1.939-2.072-1.939-0.454 0-0.823-0.309-0.823-0.689s0.369-0.689 0.823-0.689c0.454 0 0.823 0.309 0.823 0.689 0 0.345 0.28 0.625 0.625 0.625s0.625-0.28 0.625-0.625c0-0.865-0.609-1.6-1.448-1.848v-0.087c0-0.345-0.28-0.625-0.625-0.625s-0.625 0.28-0.625 0.625v0.087c-0.838 0.248-1.448 0.983-1.448 1.848 0 1.069 0.93 1.939 2.072 1.939 0.454 0 0.823 0.309 0.823 0.689s-0.369 0.689-0.823 0.689z"></path>
<path d="M31 19.304l-0.975 0.7c-1.463 1.050-3.188 1.606-4.989 1.606h-2.173c-0.517 0-0.938-0.421-0.938-0.938s0.421-0.938 0.938-0.938h1.062c1.821 0 3.309-1.449 3.375-3.254l2.73-4.728h1.345c0.345 0 0.625-0.28 0.625-0.625s-0.28-0.625-0.625-0.625h-0.624l1.165-2.017c0.083-0.144 0.105-0.314 0.062-0.474s-0.148-0.297-0.291-0.379l-2.381-1.375c-0.299-0.173-0.681-0.070-0.853 0.229l-2.319 4.017h-0.59c-0.313 0-0.622 0.021-0.927 0.063v-9.934c0-0.345-0.28-0.625-0.625-0.625h-23.367c-0.345 0-0.625 0.28-0.625 0.625v30.74c0 0.345 0.28 0.625 0.625 0.625h23.367c0.345 0 0.625-0.28 0.625-0.625v-8.511h0.42c2.064 0 4.041-0.636 5.718-1.841l0.975-0.7c0.28-0.201 0.344-0.592 0.143-0.872s-0.592-0.344-0.872-0.143zM22.229 22.765l-0.005 0.009-1.496 1.092 0.198-1.842 0.099-0.171c0.278 0.432 0.703 0.76 1.205 0.912zM29.223 7.651l1.299 0.75-5.709 9.888c-0.27 0.124-0.57 0.194-0.887 0.194h-0.957l6.254-10.832zM22.144 17.413c-0 0-0 0-0 0l-1.618 2.802c-0.103 0.178-0.27 0.299-0.472 0.341s-0.403-0.003-0.568-0.125c-0.232-0.172-0.336-0.463-0.267-0.743l0.925-3.716c0.245-0.985 0.754-1.883 1.473-2.599 1.019-1.014 2.361-1.585 3.794-1.619l-3.267 5.658zM1.25 30.745v-29.49h22.118v9.601c-0.98 0.329-1.878 0.882-2.632 1.632-0.88 0.877-1.504 1.977-1.804 3.183l-0.177 0.712h-13.175c-0.345 0-0.625 0.28-0.625 0.625s0.28 0.625 0.625 0.625h12.864l-0.436 1.754c-0.192 0.771 0.097 1.576 0.735 2.049 0.281 0.208 0.609 0.334 0.949 0.372l-0.297 2.771h-5.776c-0.345 0-0.625 0.28-0.625 0.625s0.28 0.625 0.625 0.625h6.337c0.13 0 0.259-0.040 0.368-0.12l2.743-2.002c0.070-0.051 0.129-0.117 0.173-0.192l0.128-0.221v7.454l-22.118 0z"></path>
</svg>
