<!-- Generated by IcoMoon.io -->
<svg version="1.1" xmlns="http://www.w3.org/2000/svg" width="32" height="32" viewBox="0 0 32 32">
<title>money</title>
<path d="M12.3 3.822c-0.343 0-0.621 0.278-0.621 0.621s0.278 0.621 0.621 0.621c0.343 0 0.621-0.278 0.621-0.621s-0.278-0.621-0.621-0.621z"></path>
<path d="M16.028 8.793c-0.343 0-0.621-0.279-0.621-0.621s0.279-0.621 0.621-0.621c0.22 0 0.452 0.112 0.672 0.325 0.247 0.239 0.64 0.232 0.879-0.014s0.232-0.64-0.014-0.879c-0.315-0.305-0.631-0.478-0.915-0.572v-0.724c0-0.343-0.278-0.621-0.621-0.621s-0.621 0.278-0.621 0.621v0.728c-0.723 0.256-1.243 0.947-1.243 1.757 0 1.028 0.836 1.864 1.864 1.864 0.343 0 0.621 0.279 0.621 0.621s-0.279 0.621-0.621 0.621c-0.265 0-0.552-0.167-0.807-0.47-0.221-0.263-0.613-0.297-0.875-0.076s-0.297 0.613-0.076 0.875c0.332 0.395 0.723 0.67 1.137 0.809v0.725c0 0.343 0.278 0.621 0.621 0.621s0.621-0.278 0.621-0.621v-0.728c0.723-0.257 1.243-0.947 1.243-1.757 0-1.028-0.836-1.864-1.864-1.864z"></path>
<path d="M29.448 9.165c-1.37 0-2.485 1.115-2.485 2.485v4.428c-0.825-0.213-1.736 0.007-2.378 0.649l-4.167 4.167c-0.587 0.586-0.91 1.367-0.91 2.197v3.656h-0.621c-0.343 0-0.621 0.278-0.621 0.621v3.914c0 0.343 0.278 0.622 0.621 0.622h8.699c0.343 0 0.621-0.278 0.621-0.622v-3.914c0-0.343-0.278-0.621-0.621-0.621h-0.621v-0.293c0-0.163 0.066-0.323 0.182-0.439l3.878-3.878c0.587-0.587 0.91-1.367 0.91-2.197v-8.29c0-1.37-1.115-2.485-2.485-2.485zM26.963 30.663h-7.456v-2.672h7.456v2.672zM30.691 19.941c0 0.498-0.194 0.966-0.546 1.318l-3.878 3.878c-0.347 0.347-0.546 0.827-0.546 1.318v0.293h-4.971v-3.656c0-0.498 0.194-0.967 0.546-1.318l4.167-4.167c0.466-0.466 1.216-0.487 1.706-0.048 0.004 0.003 0.007 0.006 0.011 0.009 0.014 0.012 0.027 0.025 0.041 0.039 0.235 0.235 0.364 0.546 0.364 0.878s-0.129 0.644-0.364 0.878l-3.087 3.087c-0.243 0.243-0.243 0.636 0 0.879s0.636 0.243 0.879 0l3.087-3.087c0.47-0.469 0.728-1.093 0.728-1.757 0-0.611-0.22-1.189-0.621-1.643v-5.192c0-0.685 0.557-1.243 1.243-1.243s1.243 0.557 1.243 1.243v8.29z"></path>
<path d="M13.17 26.749h-0.621v-3.656c0-0.831-0.323-1.611-0.91-2.197l-4.167-4.167c-0.642-0.642-1.553-0.862-2.379-0.649v-4.428c0-1.37-1.115-2.485-2.485-2.485s-2.485 1.115-2.485 2.485v8.29c0 0.83 0.323 1.61 0.91 2.197l3.878 3.878c0.116 0.116 0.182 0.276 0.182 0.439v0.293h-0.621c-0.343 0-0.621 0.278-0.621 0.621v3.914c0 0.343 0.278 0.622 0.621 0.622h8.699c0.343 0 0.621-0.278 0.621-0.622v-3.914c0-0.343-0.278-0.621-0.621-0.621zM1.911 21.26c-0.352-0.352-0.546-0.821-0.546-1.318v-8.29c0-0.685 0.557-1.243 1.243-1.243s1.243 0.557 1.243 1.243v5.192c-0.401 0.454-0.621 1.031-0.621 1.643 0 0.664 0.259 1.288 0.728 1.757l3.107 3.107c0.243 0.243 0.636 0.243 0.879 0s0.243-0.636 0-0.879l-3.107-3.107c-0.235-0.235-0.364-0.546-0.364-0.878s0.129-0.644 0.364-0.878c0.014-0.014 0.027-0.027 0.041-0.039l0.011-0.009c0.49-0.44 1.239-0.419 1.706 0.048l4.168 4.167c0.352 0.352 0.546 0.82 0.546 1.318v3.657h-4.971v-0.293c0-0.491-0.199-0.971-0.546-1.318l-3.878-3.878zM12.549 30.663h-7.456v-2.672h7.456v2.672z"></path>
<path d="M16.028 0.094c-5.139 0-9.32 4.181-9.32 9.32s4.181 9.32 9.32 9.32c5.139 0 9.32-4.181 9.32-9.32s-4.181-9.32-9.32-9.32zM16.028 17.491c-4.454 0-8.077-3.623-8.077-8.077s3.623-8.077 8.077-8.077c4.454 0 8.077 3.623 8.077 8.077s-3.623 8.077-8.077 8.077z"></path>
<path d="M20.318 4.094c-1.617-1.305-3.733-1.798-5.804-1.351-0.335 0.072-0.549 0.403-0.476 0.738s0.403 0.549 0.738 0.476c1.703-0.367 3.439 0.035 4.762 1.103s2.082 2.655 2.082 4.354c0 3.083-2.509 5.592-5.592 5.592s-5.592-2.509-5.592-5.592c0-0.921 0.229-1.834 0.661-2.64 0.162-0.302 0.049-0.679-0.254-0.841s-0.679-0.049-0.841 0.254c-0.529 0.986-0.809 2.102-0.809 3.228 0 3.769 3.066 6.835 6.835 6.835s6.835-3.066 6.835-6.835c0-2.076-0.927-4.015-2.544-5.32z"></path>
</svg>
