<!-- Generated by IcoMoon.io -->
<svg version="1.1" xmlns="http://www.w3.org/2000/svg" width="32" height="32" viewBox="0 0 32 32">
<title>profit</title>
<path d="M28.279 13.772c0-0.636-0.517-1.153-1.153-1.153h-1.477v-7.611h1.023c0.236 0 0.449-0.13 0.556-0.34s0.088-0.459-0.050-0.65l-2.718-3.759c-0.117-0.161-0.305-0.258-0.504-0.258-0.196 0-0.388 0.094-0.505 0.254l-2.765 3.758c-0.14 0.191-0.161 0.441-0.054 0.652s0.32 0.343 0.557 0.343h1.072v7.611h-2.418c-0.636 0-1.153 0.517-1.153 1.153v1.070c0 0.258 0.086 0.495 0.229 0.687-0.143 0.192-0.229 0.43-0.229 0.687v1.070c0 0.258 0.086 0.495 0.229 0.687-0.143 0.192-0.229 0.43-0.229 0.687v1.070c0 0.076 0.008 0.149 0.022 0.221h-0.915v-10.073h1.023c0.236 0 0.449-0.13 0.556-0.34s0.088-0.459-0.050-0.65l-2.718-3.758c-0.116-0.161-0.305-0.258-0.503-0.259-0.001 0-0.002 0-0.003 0-0.198 0-0.386 0.095-0.503 0.254l-2.765 3.758c-0.14 0.191-0.161 0.441-0.054 0.652s0.32 0.343 0.557 0.343h1.072v10.072h-2.079c-0.636 0-1.153 0.517-1.153 1.153v0.629c-0.389-0.166-0.802-0.287-1.232-0.355v-6.293h1.023c0.236 0 0.449-0.13 0.556-0.34s0.088-0.459-0.050-0.65l-2.718-3.758c-0.116-0.161-0.305-0.258-0.503-0.259s-0.388 0.094-0.506 0.254l-2.765 3.758c-0.14 0.191-0.161 0.441-0.054 0.652s0.32 0.343 0.557 0.343h1.072v1.629c0 0.257 0.209 0.466 0.466 0.466s0.466-0.209 0.466-0.466v-1.936c0-0.344-0.28-0.624-0.624-0.624h-0.771l2.155-2.929 2.118 2.929h-0.728c-0.344 0-0.624 0.28-0.624 0.624v6.539c-0.531 0.011-1.043 0.102-1.524 0.26v-2.688c0-0.257-0.209-0.466-0.466-0.466s-0.466 0.209-0.466 0.466v3.1c-1.598 0.901-2.68 2.613-2.68 4.575 0 2.894 2.355 5.249 5.249 5.249 1.239 0 2.378-0.432 3.277-1.153h14.723c0.636 0 1.153-0.517 1.153-1.153v-1.070c0-0.258-0.086-0.495-0.229-0.687 0.143-0.192 0.229-0.429 0.229-0.687v-1.070c0-0.258-0.086-0.495-0.229-0.687 0.143-0.192 0.229-0.43 0.229-0.687v-1.070c0-0.258-0.086-0.495-0.229-0.687 0.143-0.192 0.229-0.43 0.229-0.687v-1.070c0-0.258-0.086-0.495-0.229-0.687 0.143-0.192 0.229-0.429 0.229-0.687v-1.070c0-0.258-0.086-0.495-0.229-0.687 0.143-0.192 0.229-0.43 0.229-0.687v-1.070c0-0.258-0.086-0.495-0.229-0.687 0.143-0.192 0.229-0.43 0.229-0.687v-1.070zM21.796 4.075l2.155-2.929 2.118 2.929h-0.728c-0.344 0-0.624 0.28-0.624 0.624v7.919h-1.524v-7.919c0-0.344-0.28-0.624-0.625-0.624h-0.772zM13.944 8.946l2.155-2.929 2.118 2.929h-0.728c-0.344 0-0.625 0.28-0.625 0.624v10.38h-1.524v-10.38c0-0.344-0.28-0.624-0.624-0.624h-0.772zM9.126 30.88c-2.38 0-4.317-1.936-4.317-4.317s1.937-4.317 4.317-4.317 4.317 1.937 4.317 4.317c0 2.381-1.937 4.317-4.317 4.317zM19.834 29.506c0 0.122-0.099 0.221-0.221 0.221h-6.302c0.343-0.452 0.614-0.962 0.796-1.512h5.506c0.122 0 0.221 0.099 0.221 0.221v1.070zM19.834 24.618c0 0.122-0.099 0.221-0.221 0.221h-1.795c-0.257 0-0.466 0.209-0.466 0.466s0.209 0.466 0.466 0.466h1.795c0.122 0 0.221 0.099 0.221 0.221v1.070c0 0.122-0.099 0.221-0.221 0.221h-5.289c0.033-0.236 0.051-0.476 0.051-0.72 0-0.269-0.021-0.533-0.061-0.792h1.329c0.257 0 0.466-0.209 0.466-0.466s-0.209-0.466-0.466-0.466h-1.56c-0.192-0.551-0.473-1.061-0.827-1.512h6.357c0.122 0 0.221 0.099 0.221 0.221v1.070zM19.834 22.174c0 0.122-0.099 0.221-0.221 0.221h-7.283c-0.007 0-0.014-0.001-0.021-0.002-0.060-0.046-0.121-0.090-0.182-0.133-0.011-0.026-0.017-0.055-0.017-0.085v-1.070c0-0.122 0.099-0.221 0.221-0.221h7.283c0.122 0 0.221 0.099 0.221 0.221v1.070zM27.347 29.506c0 0.122-0.099 0.221-0.221 0.221h-6.381c0.014-0.072 0.022-0.145 0.022-0.221v-1.070c0-0.076-0.008-0.149-0.022-0.221h6.382c0.122 0 0.221 0.099 0.221 0.221v1.070zM27.347 27.062c0 0.122-0.099 0.221-0.221 0.221h-6.382c0.014-0.072 0.022-0.145 0.022-0.221v-1.070c0-0.076-0.008-0.149-0.022-0.221h6.382c0.122 0 0.221 0.099 0.221 0.221v1.070zM27.347 24.618c0 0.122-0.099 0.221-0.221 0.221h-6.382c0.014-0.072 0.022-0.145 0.022-0.221v-1.070c0-0.076-0.008-0.149-0.022-0.221h6.382c0.122 0 0.221 0.099 0.221 0.221v1.070zM27.347 19.73c0 0.122-0.099 0.221-0.221 0.221-0 0-0 0-0 0h-1.169c-0.257 0-0.466 0.209-0.466 0.466s0.209 0.466 0.466 0.466h1.168c0 0 0.001 0 0.001 0h0c0.122 0 0.221 0.099 0.221 0.221v1.070c0 0.122-0.099 0.221-0.221 0.221h-6.382c0.014-0.072 0.022-0.145 0.022-0.221v-1.070c0-0.076-0.008-0.149-0.022-0.221h3.038c0.257 0 0.466-0.209 0.466-0.466s-0.209-0.466-0.466-0.466h-3.94c-0 0-0 0-0 0-0.122-0-0.221-0.099-0.221-0.221v-1.070c0-0.122 0.099-0.221 0.221-0.221h7.283c0.122 0 0.221 0.099 0.221 0.221v1.070zM27.347 17.286c0 0.122-0.099 0.221-0.221 0.221h-7.283c-0.122 0-0.221-0.099-0.221-0.221v-1.070c0-0.122 0.099-0.221 0.221-0.221h7.283c0.122 0 0.221 0.099 0.221 0.221v1.070zM27.347 14.841c0 0.122-0.099 0.221-0.221 0.221h-7.283c-0.122 0-0.221-0.099-0.221-0.221v-1.070c0-0.122 0.099-0.221 0.221-0.221h7.283c0.122 0 0.221 0.099 0.221 0.221v1.070z"></path>
<path d="M9.638 26.097h-1.024c-0.254 0-0.461-0.207-0.461-0.461s0.207-0.461 0.461-0.461h1.805c0.257 0 0.466-0.209 0.466-0.466s-0.209-0.466-0.466-0.466h-0.826v-0.485c0-0.257-0.209-0.466-0.466-0.466s-0.466 0.209-0.466 0.466v0.485h-0.046c-0.768 0-1.393 0.625-1.393 1.393s0.625 1.393 1.393 1.393h1.024c0.254 0 0.461 0.207 0.461 0.461s-0.207 0.461-0.461 0.461h-1.804c-0.257 0-0.466 0.209-0.466 0.466s0.209 0.466 0.466 0.466h0.826v0.485c0 0.257 0.209 0.466 0.466 0.466s0.466-0.208 0.466-0.466v-0.485h0.046c0.768 0 1.393-0.625 1.393-1.393s-0.625-1.393-1.393-1.393z"></path>
</svg>
