<!-- Generated by IcoMoon.io -->
<svg version="1.1" xmlns="http://www.w3.org/2000/svg" width="32" height="32" viewBox="0 0 32 32">
<title>whatsapp</title>
<path d="M25.842 5.605c-2.697-2.763-6.382-4.342-10.329-4.342-8.026 0-14.605 6.579-14.605 14.605 0 2.632 0.724 5.132 1.974 7.303l-2.039 7.566 7.697-1.974c2.171 1.118 4.539 1.776 6.974 1.776 8.092 0 14.803-6.579 14.803-14.605 0-3.947-1.71-7.566-4.474-10.329zM15.513 28.039c-2.171 0-4.276-0.592-6.184-1.71l-0.395-0.263-4.605 1.25 1.25-4.474-0.329-0.46c-1.184-1.974-1.842-4.211-1.842-6.513 0-6.645 5.461-12.105 12.171-12.105 3.224 0 6.25 1.25 8.553 3.553s3.684 5.329 3.684 8.618c0 6.645-5.592 12.105-12.303 12.105zM22.224 18.96c-0.395-0.197-2.171-1.053-2.5-1.184s-0.592-0.197-0.855 0.197c-0.197 0.329-0.921 1.184-1.118 1.447-0.263 0.197-0.461 0.263-0.79 0.066-2.171-1.053-3.553-1.908-5-4.342-0.395-0.658 0.395-0.592 1.053-1.974 0.132-0.263 0.066-0.46 0-0.658s-0.855-1.974-1.118-2.697c-0.329-0.724-0.592-0.658-0.855-0.658-0.197 0-0.461 0-0.658 0-0.263 0-0.658 0.066-0.987 0.461s-1.25 1.25-1.25 3.026c0 1.842 1.25 3.553 1.447 3.816 0.197 0.197 2.566 3.882 6.25 5.46 2.303 1.053 3.224 1.118 4.408 0.921 0.658-0.066 2.105-0.855 2.434-1.71s0.329-1.579 0.197-1.711c-0.066-0.197-0.329-0.263-0.658-0.46z"></path>
</svg>
