<!-- Generated by IcoMoon.io -->
<svg version="1.1" xmlns="http://www.w3.org/2000/svg" width="32" height="32" viewBox="0 0 32 32">
<title>youtube</title>
<path d="M30.023 9.336c-0.328-1.313-1.367-2.352-2.625-2.68-2.352-0.656-11.648-0.656-11.648-0.656s-9.352 0-11.703 0.656c-1.258 0.328-2.297 1.367-2.625 2.68-0.656 2.297-0.656 7.219-0.656 7.219s0 4.867 0.656 7.219c0.328 1.313 1.367 2.297 2.625 2.625 2.352 0.602 11.703 0.602 11.703 0.602s9.297 0 11.648-0.602c1.258-0.328 2.297-1.312 2.625-2.625 0.656-2.352 0.656-7.219 0.656-7.219s0-4.922-0.656-7.219zM12.688 20.984v-8.859l7.766 4.43-7.766 4.43z"></path>
</svg>
