<svg width="78" height="77" viewBox="0 0 78 77" fill="none" xmlns="http://www.w3.org/2000/svg">
<path d="M39.0767 69.5863C38.526 69.5439 38.0453 69.956 38.0029 70.5066C37.9606 71.0573 38.3726 71.538 38.9233 71.5804L39.0767 69.5863ZM62.4583 54.5417V53.5417H60.4583V54.5417H62.4583ZM38.9233 71.5804C42.5736 71.8612 48.3765 71.0271 53.2981 68.4623C58.2505 65.8815 62.4583 61.4526 62.4583 54.5417H60.4583C60.4583 60.464 56.9127 64.3234 52.3738 66.6887C47.8041 69.0701 42.3778 69.8402 39.0767 69.5863L38.9233 71.5804Z" fill="#B4A990"/>
<path d="M67.875 33.7573H57.0417C55.9371 33.7573 55.0417 34.6527 55.0417 35.7573V50.9854C55.0417 52.0984 55.9504 52.9974 57.0634 52.9852L61.4583 52.9374L65.8532 52.9852C66.9662 52.9974 67.875 52.0984 67.875 50.9854V33.7573ZM67.875 33.7573C67.875 17.81 54.9472 4.88226 39 4.88226C23.0528 4.88226 10.125 17.81 10.125 33.7573M10.125 33.7573V51.0073C10.125 52.1118 11.0204 53.0073 12.125 53.0073H20.9583C22.0629 53.0073 22.9583 52.1118 22.9583 51.0073V35.7573C22.9583 34.6527 22.0629 33.7573 20.9583 33.7573H10.125Z" stroke="#B4A990" stroke-width="2" stroke-linecap="round"/>
</svg>
