<svg width="335" height="317" viewBox="0 0 335 317" fill="none" xmlns="http://www.w3.org/2000/svg">
<path fill-rule="evenodd" clip-rule="evenodd" d="M175.638 11.9306C175.496 10.719 175.496 9.49511 175.638 8.28351C175.692 7.88979 175.654 7.48886 175.527 7.11226C175.4 6.73566 175.187 6.39368 174.906 6.11323C174.152 5.28184 173.54 4.3316 173.095 3.30086C172.944 2.94526 172.686 2.64544 172.357 2.44296C172.028 2.24048 171.644 2.14535 171.259 2.17077C169.945 2.15291 168.685 1.64447 167.727 0.745324C167.671 0.652247 167.592 0.575228 167.498 0.521758C167.403 0.468288 167.296 0.440186 167.188 0.440186C167.079 0.440186 166.972 0.468288 166.878 0.521758C166.783 0.575228 166.704 0.652247 166.648 0.745324C165.739 1.60795 164.549 2.114 163.297 2.17077C162.875 2.16567 162.462 2.28473 162.108 2.51311C161.754 2.74149 161.475 3.06907 161.306 3.45496C160.872 4.48054 160.239 5.41014 159.444 6.19028C159.199 6.40852 159.01 6.68189 158.891 6.98781C158.773 7.29372 158.729 7.62341 158.764 7.94962C158.91 9.25541 158.91 10.5735 158.764 11.8793C158.708 12.2659 158.742 12.6601 158.862 13.0317C158.983 13.4033 159.186 13.7426 159.457 14.0238C160.125 14.7322 160.695 15.5269 161.152 16.3868C161.311 16.7284 161.553 17.0248 161.856 17.2491C162.159 17.4733 162.513 17.6184 162.886 17.6709C164.162 17.7353 165.411 18.0549 166.561 18.6102L154.397 39.5921V39.6049L153.719 40.7461L149.004 32.208H146.435L152.415 42.8796H152.407V42.9438L152.41 42.9501L145.832 54.0264H148.22L153.633 45.0716L166.031 66.3944L127.04 133.974L126.98 133.813C124.841 126.304 123.93 118.498 124.283 110.698C124.936 92.3716 130.867 74.6238 141.363 59.5869L142.865 57.3653L140.297 58.1486C128.457 62.3117 117.582 68.8164 108.318 77.2698L108.141 77.2445L108.117 77.4533C107.85 77.6989 107.584 77.946 107.319 78.1948C100.58 84.466 94.9731 91.8218 90.72 99.9352L90.5346 99.949L90.5485 100.086L90.5639 100.235C89.1764 102.909 87.9355 105.664 86.849 108.489C84.3612 114.966 82.6808 121.851 81.8137 129.102L81.7893 129.113L81.808 129.15C80.7745 137.829 80.9061 147.033 82.2131 156.685C83.4469 165.978 86.6897 174.892 91.7161 182.805C92.9538 184.736 94.2618 186.616 95.6365 188.442L73.5191 226.648H182.908C183.61 226.697 184.312 226.761 185.012 226.84C185.304 226.84 185.589 226.773 185.846 226.648H260.869L238.704 188.302L237.42 190.087L237.462 190.16L237.459 190.164H237.465L257.376 224.67H186.891C186.852 224.419 186.765 224.179 186.634 223.963C195.151 222.396 203.365 219.344 210.889 214.91C221.27 208.583 230.208 200.148 237.125 190.151C238.312 188.465 239.456 186.752 240.555 185.012C240.804 184.835 241.052 184.656 241.298 184.475L241.07 184.19C247.013 174.616 251.617 164.26 254.744 153.41C257.02 141.493 256.538 129.214 253.334 117.512C250.131 105.81 244.292 94.9964 236.264 85.8999C226.196 74.445 212.366 65.1089 195.17 58.1229L191.562 56.659L194.13 59.6254C198.36 65.0963 201.773 71.1524 204.262 77.6041C210.411 93.1649 212.188 110.111 209.399 126.609C208.946 129.29 208.364 131.941 207.656 134.554L168.339 66.3857L180.685 44.96L186.155 54.0264H188.621L181.982 42.8648L187.94 32.208H185.372L180.692 40.6973L180.042 39.6049L180.021 39.6445L179.991 39.5921L167.909 18.6027C168.999 18.0824 170.18 17.7787 171.387 17.7095C171.774 17.6477 172.14 17.4958 172.457 17.266C172.774 17.0362 173.032 16.735 173.211 16.3868C173.676 15.5255 174.254 14.7307 174.931 14.0238C175.197 13.7495 175.399 13.4192 175.521 13.0571C175.643 12.6949 175.683 12.3101 175.638 11.9306ZM237.465 190.164H237.484C237.691 189.964 237.939 189.571 238.177 189.193C238.383 188.867 238.582 188.551 238.743 188.379C238.561 188.561 238.342 188.902 238.121 189.247C237.891 189.605 237.659 189.969 237.462 190.16L237.465 190.164ZM173.84 12.9837C173.07 13.7926 172.409 14.6993 171.875 15.6805C171.806 15.8253 171.701 15.9506 171.571 16.0448C171.441 16.139 171.29 16.1991 171.13 16.2198C169.803 16.3516 168.504 16.685 167.278 17.2086C165.966 16.6328 164.569 16.2729 163.143 16.1428C163.024 16.1237 162.912 16.0764 162.816 16.0049C162.72 15.9334 162.643 15.8397 162.59 15.7318V15.6676C162.07 14.6836 161.423 13.7725 160.664 12.958C160.525 12.8438 160.415 12.698 160.343 12.5327C160.272 12.3673 160.241 12.1874 160.253 12.0077C160.419 10.5914 160.419 9.16046 160.253 7.74415C160.244 7.65528 160.257 7.56562 160.291 7.48287C160.325 7.40011 160.378 7.32673 160.446 7.269C161.389 6.33931 162.143 5.23607 162.667 4.02C162.72 3.90893 162.804 3.81569 162.909 3.75179C163.014 3.68789 163.135 3.65613 163.258 3.66043C164.698 3.64017 166.092 3.14849 167.226 2.26066C168.414 3.19577 169.889 3.69043 171.4 3.66043C171.471 3.66141 171.539 3.68246 171.599 3.72111C171.658 3.75977 171.705 3.81444 171.734 3.87874C172.248 5.07247 172.96 6.17088 173.84 7.12774C173.96 7.25042 174.05 7.39818 174.106 7.56032C174.162 7.72246 174.18 7.89491 174.161 8.0652C173.994 9.40843 173.994 10.7672 174.161 12.1104C174.18 12.271 174.161 12.4337 174.105 12.5855C174.049 12.7372 173.958 12.8736 173.84 12.9837ZM249.551 163.048C246.788 170.198 243.349 177.072 239.28 183.574C233.041 187.951 226 191.06 218.555 192.719C211.286 194.376 203.737 194.376 196.467 192.719C187.678 190.53 179.536 186.312 172.688 180.417C173.296 180.279 173.904 180.119 174.511 179.935L174.495 179.98C182.59 183 191.153 184.573 199.793 184.629C202.256 184.638 204.717 184.505 207.165 184.231C215.8 183.229 224.16 180.564 231.783 176.384C238.37 172.884 244.363 168.383 249.551 163.048ZM169.705 180.905C169.905 180.885 170.105 180.862 170.305 180.837C183.489 192.43 196.621 195.827 207.421 195.827C211.334 195.831 215.235 195.409 219.056 194.568C225.284 193.187 231.236 190.81 236.687 187.542C236.34 188.05 235.99 188.556 235.635 189.059C228.86 198.845 220.111 207.104 209.951 213.305C201.308 218.371 191.754 221.579 181.897 222.779C180.83 222.729 179.762 222.712 178.694 222.731C178.182 222.739 177.776 222.912 177.477 223.182C174.782 223.344 172.072 223.358 169.358 223.219C150.095 222.512 133.182 217.363 118.915 207.886C110.388 202.167 102.919 195.036 96.8208 186.814C102.708 190.457 109.179 193.082 115.961 194.568C119.863 195.424 123.846 195.854 127.84 195.853C131.656 195.854 135.459 195.428 139.18 194.581C148.793 192.235 157.668 187.537 165.008 180.916C166.649 181.074 168.22 181.054 169.705 180.905ZM84.088 156.377C82.9527 147.93 82.7385 139.839 83.4249 132.155C87.6953 139.769 92.9707 146.781 99.113 152.999C105.559 159.658 113.083 165.181 121.368 169.334C131.067 174.125 141.743 176.604 152.561 176.577L153.002 176.569C154.624 177.611 156.22 178.44 157.778 179.085C148.375 182.245 138.395 183.359 128.508 182.343C120.167 181.379 112.094 178.801 104.738 174.753C97.0352 170.602 90.1756 165.049 84.5118 158.38L84.403 158.465C84.2865 157.771 84.1814 157.075 84.088 156.377ZM85.081 161.907C86.668 168.928 89.451 175.638 93.3213 181.739C93.6455 182.246 93.9747 182.749 94.3087 183.248L94.5156 182.985C101.096 187.668 108.551 190.978 116.437 192.719C123.801 194.376 131.442 194.376 138.807 192.719C147.569 190.564 155.693 186.391 162.535 180.547C161.912 180.421 161.281 180.268 160.641 180.085C152.62 183.039 144.146 184.577 135.597 184.629C133.142 184.63 130.689 184.488 128.251 184.205C119.655 183.208 111.333 180.552 103.749 176.384C96.7502 172.639 90.4406 167.743 85.081 161.907ZM146.491 171.284C147.766 172.544 149.032 173.657 150.285 174.636C140.556 174.336 130.992 171.955 122.241 167.639C114.152 163.589 106.806 158.201 100.513 151.702C93.8243 144.948 88.1857 137.23 83.784 128.808C84.6503 121.907 86.2636 115.352 88.6083 109.183C89.3407 107.279 90.145 105.407 91.0187 103.572C91.2588 105.003 91.5557 106.425 91.9087 107.834C93.4985 114.405 95.8337 120.774 98.869 126.815C105.661 140.374 119.424 159.005 146.491 171.284ZM177.252 178.951C186.774 182.201 196.895 183.353 206.921 182.317C215.312 181.337 223.435 178.747 230.845 174.689C238.575 170.556 245.479 165.036 251.212 158.406L251.232 158.421C251.846 156.616 252.417 154.796 252.946 152.961C254.461 144.975 254.707 136.824 253.695 128.806C249.114 137.138 243.448 144.829 236.842 151.677C230.251 158.651 222.548 164.483 214.048 168.936C204.297 173.987 193.476 176.62 182.495 176.615H181.879V176.577C180.35 177.512 178.804 178.305 177.252 178.951ZM251.443 117.646C252.184 120.297 252.782 122.979 253.235 125.681L253.216 125.672C248.507 134.728 242.516 143.058 235.43 150.405C228.987 157.216 221.457 162.91 213.149 167.254C204.327 171.812 194.609 174.344 184.703 174.677C185.905 173.793 187.095 172.82 188.266 171.763C215.501 159.471 229.427 140.079 236.354 125.98C239.442 119.662 241.819 113.02 243.443 106.178C243.887 104.382 244.248 102.566 244.524 100.738C247.488 106.06 249.816 111.734 251.443 117.646ZM192.244 167.768C201.753 162.935 210.425 156.584 217.913 148.954C224.698 141.971 230.333 133.957 234.608 125.209C238.903 116.688 241.722 107.501 242.947 98.0379C240.586 94.1775 237.878 90.5224 234.852 87.1199C232.615 84.6028 230.194 82.1886 227.591 79.8805C228.46 90.4341 228.152 101.055 226.671 111.546C225.409 121.216 222.553 130.611 218.221 139.348C213.17 149.068 206.234 156.316 197.602 160.917C197.297 161.367 196.987 161.814 196.673 162.258C195.245 164.24 193.765 166.079 192.244 167.768ZM197.61 61.2563C208.356 65.9217 217.696 71.561 225.523 78.1004C226.586 89.1703 226.333 100.328 224.771 111.34C223.543 120.799 220.757 129.99 216.526 138.539C212.289 146.68 206.703 153.01 199.869 157.396C205.539 148.1 209.394 137.792 211.21 127.02C214.056 110.156 212.226 92.8336 205.919 76.9363C203.734 71.4203 200.947 66.1619 197.61 61.2563ZM164.582 178.899C166.295 179.112 167.927 179.113 169.461 178.966C178.347 178.092 187.439 171.736 195.145 161.102C200.318 153.799 204.274 145.735 206.885 137.224L167.149 68.3836L127.943 136.328C134.385 152.803 141.123 163.26 147.585 169.704L147.591 169.707L147.59 169.709C153.585 175.686 159.343 178.208 164.407 178.877L164.491 178.799L164.582 178.899ZM100.615 126.044C106.904 138.537 119.298 155.541 143.054 167.541C141.153 165.274 139.243 162.66 137.335 159.654L137.253 159.818C128.348 154.988 121.167 147.506 116.706 138.411C112.44 129.793 109.665 120.513 108.5 110.968C107.134 100.813 106.909 90.5402 107.827 80.3417C101.663 86.2277 96.5039 93.0571 92.5334 100.557C93.7426 109.452 96.4761 118.074 100.615 126.044ZM135.465 156.577C128.105 151.967 122.153 145.39 118.299 137.563C114.139 129.14 111.43 120.074 110.285 110.749C108.876 100.016 108.757 89.1544 109.93 78.3953C118.235 70.9346 127.809 65.0117 138.204 60.9096C128.365 75.8936 122.887 93.3186 122.382 111.237C122.25 116.887 122.681 122.535 123.667 128.099C124.053 130.272 124.585 132.417 125.259 134.52C128.583 143.385 132.011 150.65 135.465 156.577ZM77.0121 224.67H162.338C145.613 223.087 130.686 217.98 117.888 209.478C109.931 204.161 102.875 197.639 96.9631 190.162L77.0121 224.67ZM179.259 42.9116L179.263 42.9181H179.259V42.9116ZM179.234 42.8667L179.254 42.9021L178.065 45.0242L177.192 46.5524L167.136 63.9916L156.259 45.0755L154.983 42.9566H155.027L155.065 42.8667L156.247 40.735L167.201 21.806L178.103 40.735L179.234 42.8667ZM170.537 14.8515C169.545 15.5117 168.38 15.8628 167.188 15.8602C165.593 15.8568 164.064 15.2208 162.937 14.0917C161.811 12.9625 161.178 11.4325 161.178 9.83739C161.178 8.64564 161.531 7.48067 162.194 6.48994C162.856 5.49921 163.798 4.72726 164.899 4.27178C166 3.81631 167.212 3.69779 168.38 3.93122C169.549 4.16466 170.622 4.73956 171.464 5.58315C172.306 6.42675 172.878 7.50112 173.109 8.67028C173.34 9.83944 173.219 11.0508 172.761 12.1512C172.304 13.2515 171.53 14.1912 170.537 14.8515ZM24.5037 314.02H25.7482V304.582H24.5037V314.02ZM24.5879 302.579C24.4712 302.713 24.4129 302.877 24.4129 303.072C24.4129 303.266 24.4712 303.428 24.5879 303.558C24.7089 303.687 24.8861 303.752 25.1195 303.752C25.3528 303.752 25.53 303.687 25.651 303.558C25.772 303.428 25.8325 303.266 25.8325 303.072C25.8325 302.877 25.772 302.713 25.651 302.579C25.53 302.445 25.3528 302.378 25.1195 302.378C24.8861 302.378 24.7089 302.445 24.5879 302.579ZM39.3295 313.002H34.8568V304.582H33.6057V314.02H39.3295V313.002ZM52.6191 304.582V310.999C52.6148 311.89 52.3339 312.618 51.7764 313.184C51.2233 313.75 50.4714 314.068 49.5206 314.137L49.19 314.15C48.1572 314.15 47.334 313.871 46.7203 313.313C46.1067 312.756 45.7955 311.989 45.7869 311.012V304.582H47.0185V310.973C47.0185 311.656 47.2065 312.188 47.5824 312.568C47.9584 312.944 48.4943 313.132 49.19 313.132C49.8944 313.132 50.4325 312.944 50.8041 312.568C51.1801 312.192 51.3681 311.663 51.3681 310.98V304.582H52.6191ZM60.6063 308.685C61.0946 309.13 61.8725 309.506 62.9399 309.813C63.7912 310.059 64.3789 310.31 64.703 310.565C65.0271 310.816 65.1892 311.172 65.1892 311.635C65.1892 312.097 65.0142 312.462 64.6642 312.73C64.3141 312.998 63.8106 313.132 63.1538 313.132C62.4494 313.132 61.8854 312.968 61.4619 312.639C61.0427 312.307 60.8331 311.855 60.8331 311.284H59.5821C59.5821 311.833 59.7333 312.324 60.0358 312.756C60.3427 313.188 60.777 313.529 61.3388 313.78C61.9006 314.026 62.5056 314.15 63.1538 314.15C64.152 314.15 64.9494 313.921 65.5457 313.463C66.1421 313 66.4403 312.386 66.4403 311.622C66.4403 311.142 66.3322 310.725 66.1162 310.37C65.9044 310.016 65.576 309.707 65.1309 309.444C64.6901 309.176 64.0764 308.931 63.2899 308.711C62.5077 308.491 61.9524 308.249 61.624 307.985C61.2999 307.717 61.1378 307.391 61.1378 307.006C61.1378 306.527 61.3085 306.153 61.6499 305.885C61.9956 305.613 62.4753 305.476 63.089 305.476C63.7502 305.476 64.2622 305.641 64.6253 305.969C64.9883 306.293 65.1698 306.74 65.1698 307.311H66.4208C66.4208 306.788 66.2804 306.306 65.9995 305.865C65.7229 305.425 65.3297 305.079 64.8197 304.828C64.3141 304.578 63.7372 304.452 63.089 304.452C62.1382 304.452 61.3647 304.696 60.7683 305.185C60.1763 305.669 59.8803 306.282 59.8803 307.026C59.8803 307.683 60.1223 308.236 60.6063 308.685ZM80.2614 304.582V310.999C80.2571 311.89 79.9762 312.618 79.4187 313.184C78.8656 313.75 78.1136 314.068 77.1629 314.137L76.8323 314.15C75.7995 314.15 74.9762 313.871 74.3626 313.313C73.7489 312.756 73.4378 311.989 73.4291 311.012V304.582H74.6608V310.973C74.6608 311.656 74.8488 312.188 75.2247 312.568C75.6007 312.944 76.1366 313.132 76.8323 313.132C77.5367 313.132 78.0747 312.944 78.4464 312.568C78.8224 312.192 79.0103 311.663 79.0103 310.98V304.582H80.2614ZM102.011 304.582L99.5481 309.32L97.0978 304.582H95.6717L98.9258 310.5V314.02H100.17V310.5L103.424 304.582H102.011ZM110.867 311.557L109.979 314.02H108.695L112.3 304.582H113.389L116.999 314.02H115.722L114.821 311.557H110.867ZM111.243 310.533H114.452L112.844 306.118L111.243 310.533ZM124.293 308.685C124.781 309.13 125.559 309.506 126.626 309.813C127.478 310.059 128.065 310.31 128.39 310.565C128.714 310.816 128.876 311.172 128.876 311.635C128.876 312.097 128.701 312.462 128.351 312.73C128.001 312.998 127.497 313.132 126.84 313.132C126.136 313.132 125.572 312.968 125.148 312.639C124.729 312.307 124.52 311.855 124.52 311.284H123.269C123.269 311.833 123.42 312.324 123.722 312.756C124.029 313.188 124.463 313.529 125.025 313.78C125.458 313.97 125.916 314.086 126.399 314.13L126.218 314.889C126.641 314.928 126.922 314.992 127.061 315.083C127.199 315.174 127.268 315.314 127.268 315.504C127.268 315.708 127.173 315.865 126.983 315.978C126.797 316.09 126.533 316.146 126.192 316.146L126.237 316.84C126.855 316.84 127.337 316.717 127.683 316.47C128.029 316.228 128.202 315.898 128.202 315.478C128.202 314.848 127.871 314.474 127.21 314.357L127.261 314.135C128.065 314.079 128.722 313.854 129.232 313.463C129.829 313 130.127 312.386 130.127 311.622C130.127 311.142 130.019 310.725 129.803 310.37C129.591 310.016 129.262 309.707 128.817 309.444C128.377 309.176 127.763 308.931 126.976 308.711C126.194 308.491 125.639 308.249 125.31 307.985C124.986 307.717 124.824 307.391 124.824 307.006C124.824 306.527 124.995 306.153 125.336 305.885C125.682 305.613 126.162 305.476 126.775 305.476C127.437 305.476 127.949 305.641 128.312 305.969C128.675 306.293 128.856 306.74 128.856 307.311H130.107C130.107 306.788 129.967 306.306 129.686 305.865C129.409 305.425 129.016 305.079 128.506 304.828C128.001 304.578 127.424 304.452 126.775 304.452C125.825 304.452 125.051 304.696 124.455 305.185C123.863 305.669 123.567 306.282 123.567 307.026C123.567 307.683 123.809 308.236 124.293 308.685ZM138.561 311.557L137.673 314.02H136.39L139.994 304.582H141.083L144.693 314.02H143.416L142.515 311.557H138.561ZM138.937 310.533H142.146L140.538 306.118L138.937 310.533ZM156.272 304.582L153.808 309.32L151.358 304.582H149.932L153.186 310.5V314.02H154.431V310.5L157.685 304.582H156.272ZM165.815 314.02H164.57V304.582H165.815V314.02ZM174.119 308.685C174.608 309.13 175.385 309.506 176.453 309.813C177.304 310.059 177.892 310.31 178.216 310.565C178.54 310.816 178.702 311.172 178.702 311.635C178.702 312.097 178.527 312.462 178.177 312.73C177.827 312.998 177.324 313.132 176.667 313.132C175.962 313.132 175.398 312.968 174.975 312.639C174.556 312.307 174.346 311.855 174.346 311.284H173.095C173.095 311.833 173.246 312.324 173.549 312.756C173.856 313.188 174.29 313.529 174.852 313.78C175.284 313.97 175.742 314.086 176.226 314.13L176.044 314.889C176.468 314.928 176.749 314.992 176.887 315.083C177.025 315.174 177.095 315.314 177.095 315.504C177.095 315.708 177 315.865 176.809 315.978C176.624 316.09 176.36 316.146 176.019 316.146L176.064 316.84C176.682 316.84 177.164 316.717 177.509 316.47C177.855 316.228 178.028 315.898 178.028 315.478C178.028 314.848 177.697 314.474 177.036 314.357L177.087 314.135C177.892 314.079 178.549 313.854 179.059 313.463C179.655 313 179.953 312.386 179.953 311.622C179.953 311.142 179.845 310.725 179.629 310.37C179.417 310.016 179.089 309.707 178.644 309.444C178.203 309.176 177.589 308.931 176.803 308.711C176.021 308.491 175.465 308.249 175.137 307.985C174.813 307.717 174.651 307.391 174.651 307.006C174.651 306.527 174.822 306.153 175.163 305.885C175.509 305.613 175.988 305.476 176.602 305.476C177.263 305.476 177.775 305.641 178.138 305.969C178.501 306.293 178.683 306.74 178.683 307.311H179.934C179.934 306.788 179.793 306.306 179.512 305.865C179.236 305.425 178.843 305.079 178.333 304.828C177.827 304.578 177.25 304.452 176.602 304.452C175.651 304.452 174.878 304.696 174.281 305.185C173.689 305.669 173.393 306.282 173.393 307.026C173.393 307.683 173.635 308.236 174.119 308.685ZM198.397 309.632L197.243 310.831V314.02H195.999V304.582H197.243V309.249L201.437 304.582H202.941L199.227 308.75L203.233 314.02H201.742L198.397 309.632ZM216.484 312.03C216.795 311.339 216.95 310.53 216.95 309.606V309.009C216.95 308.089 216.795 307.283 216.484 306.591C216.173 305.896 215.727 305.366 215.148 305.003C214.574 304.636 213.908 304.452 213.152 304.452C212.409 304.452 211.747 304.638 211.168 305.01C210.594 305.377 210.148 305.909 209.833 306.604C209.517 307.3 209.36 308.102 209.36 309.009V309.69C209.368 310.58 209.53 311.364 209.846 312.043C210.166 312.717 210.613 313.238 211.188 313.605C211.763 313.968 212.422 314.15 213.165 314.15C213.925 314.15 214.591 313.968 215.161 313.605C215.732 313.242 216.173 312.717 216.484 312.03ZM215.038 306.423C215.488 307.019 215.712 307.877 215.712 308.996V309.696C215.699 310.79 215.473 311.63 215.032 312.218C214.591 312.801 213.969 313.093 213.165 313.093C212.365 313.093 211.737 312.784 211.279 312.166C210.825 311.544 210.598 310.69 210.598 309.606V308.912C210.611 307.849 210.842 307.019 211.291 306.423C211.745 305.822 212.365 305.522 213.152 305.522C213.96 305.522 214.589 305.822 215.038 306.423ZM226.001 304.582L229.086 312.283L232.172 304.582H233.786V314.02H232.541V310.345L232.658 306.377L229.559 314.02H228.607L225.515 306.397L225.638 310.345V314.02H224.393V304.582H226.001ZM242.804 314.02V310.325H245.027C246.094 310.325 246.913 310.079 247.484 309.586C248.059 309.089 248.346 308.383 248.346 307.466C248.346 306.598 248.052 305.9 247.464 305.373C246.881 304.845 246.073 304.582 245.04 304.582H241.559V314.02H242.804ZM245.04 309.307H242.804V305.606H245.111C245.729 305.619 246.215 305.794 246.57 306.131C246.924 306.468 247.101 306.918 247.101 307.479C247.101 308.071 246.924 308.525 246.57 308.841C246.215 309.152 245.706 309.307 245.04 309.307ZM256.761 313.002H261.234V314.02H255.51V304.582H256.761V313.002ZM269.474 309.657H273.564V308.64H269.474V305.606H274.16V304.582H268.229V314.02H274.225V313.002H269.474V309.657ZM283.748 309.632L282.595 310.831V314.02H281.35V304.582H282.595V309.249L286.789 304.582H288.293L284.578 308.75L288.584 314.02H287.093L283.748 309.632ZM295.696 308.685C296.185 309.13 296.962 309.506 298.03 309.813C298.881 310.059 299.469 310.31 299.793 310.565C300.117 310.816 300.279 311.172 300.279 311.635C300.279 312.097 300.104 312.462 299.754 312.73C299.404 312.998 298.901 313.132 298.244 313.132C297.539 313.132 296.975 312.968 296.552 312.639C296.133 312.307 295.923 311.855 295.923 311.284H294.672C294.672 311.833 294.823 312.324 295.126 312.756C295.433 313.188 295.867 313.529 296.429 313.78C296.991 314.026 297.596 314.15 298.244 314.15C299.242 314.15 300.039 313.921 300.636 313.463C301.232 313 301.53 312.386 301.53 311.622C301.53 311.142 301.422 310.725 301.206 310.37C300.994 310.016 300.666 309.707 300.221 309.444C299.78 309.176 299.166 308.931 298.38 308.711C297.598 308.491 297.042 308.249 296.714 307.985C296.39 307.717 296.228 307.391 296.228 307.006C296.228 306.527 296.398 306.153 296.74 305.885C297.086 305.613 297.565 305.476 298.179 305.476C298.84 305.476 299.352 305.641 299.715 305.969C300.078 306.293 300.26 306.74 300.26 307.311H301.511C301.511 306.788 301.37 306.306 301.089 305.865C300.813 305.425 300.42 305.079 299.91 304.828C299.404 304.578 298.827 304.452 298.179 304.452C297.228 304.452 296.455 304.696 295.858 305.185C295.266 305.669 294.97 306.282 294.97 307.026C294.97 307.683 295.212 308.236 295.696 308.685ZM310.042 314.02H308.798V304.582H310.042V314.02ZM308.707 303.072C308.707 302.877 308.765 302.713 308.882 302.579C309.003 302.445 309.18 302.378 309.414 302.378C309.647 302.378 309.824 302.445 309.945 302.579C310.066 302.713 310.127 302.877 310.127 303.072C310.127 303.266 310.066 303.428 309.945 303.558C309.824 303.687 309.647 303.752 309.414 303.752C309.18 303.752 309.003 303.687 308.882 303.558C308.765 303.428 308.707 303.266 308.707 303.072ZM132.208 268.78C132.208 277.425 127.535 281.28 121.421 281.28C115.346 281.28 110.673 277.425 110.673 268.78C110.673 260.135 115.346 256.28 121.421 256.28C127.535 256.28 132.208 260.135 132.208 268.78ZM106.857 268.78C106.857 277.62 112.854 282.721 121.421 282.721C130.027 282.721 136.024 277.62 136.024 268.78C136.024 259.94 130.027 254.839 121.421 254.839C112.854 254.839 106.857 259.94 106.857 268.78ZM17.387 266.842H17.3853H17.3826C15.5835 266.876 13.79 266.911 11.9794 266.911C10.1687 266.911 8.37518 266.876 6.57605 266.842H6.57342H6.57168H6.56995H6.56823H6.56651H6.56482H6.56313H6.56145H6.55978H6.55812H6.55647H6.55482H6.55318H6.55154C5.65026 266.824 4.74754 266.807 3.84051 266.794V265.431C3.84051 262.082 3.99628 258.694 4.15204 255.345C3.49003 255.462 2.86696 255.54 2.2439 255.54C1.62083 255.54 0.997763 255.462 0.335754 255.345C0.491521 258.694 0.647283 262.082 0.647283 265.431V272.129C0.647283 275.478 0.491521 278.866 0.335754 282.215C0.997763 282.098 1.62083 282.02 2.2439 282.02C2.86696 282.02 3.49003 282.098 4.15204 282.215C3.99628 278.866 3.84051 275.478 3.84051 272.129V268.624L3.95408 268.622H3.9619H3.96292H3.96483H3.96658H3.96819H3.96966H3.97102C6.65201 268.584 9.29714 268.546 11.9794 268.546C14.6615 268.546 17.3059 268.584 19.9869 268.622H19.9882H19.9896H19.9912H19.9929H19.9947H19.9957H19.9968H20.0046L20.1182 268.624V272.129C20.1182 275.478 19.9624 278.866 19.8067 282.215C20.4687 282.098 21.0917 282.02 21.7148 282.02C22.3379 282.02 22.9609 282.098 23.6229 282.215C23.4672 278.866 23.3114 275.478 23.3114 272.129V265.431C23.3114 262.082 23.4672 258.694 23.6229 255.345C22.9609 255.462 22.3379 255.54 21.7148 255.54C21.0917 255.54 20.4687 255.462 19.8067 255.345C19.9624 258.694 20.1182 262.082 20.1182 265.431V266.794C19.2111 266.807 18.3084 266.824 17.4071 266.842H17.4055H17.4038H17.4022H17.4005H17.3989H17.3972H17.3955H17.3939H17.3922H17.3905H17.3888H17.387ZM33.293 272.129C33.293 275.478 33.1372 278.866 32.9814 282.215C33.6435 282.098 34.2665 282.02 34.8896 282.02C35.5127 282.02 36.1357 282.098 36.7977 282.215C36.642 278.866 36.4862 275.478 36.4862 272.129V265.431C36.4862 262.082 36.642 258.694 36.7977 255.345C36.1357 255.462 35.5127 255.54 34.8896 255.54C34.2665 255.54 33.6435 255.462 32.9814 255.345C33.1372 258.694 33.293 262.082 33.293 265.431V272.129ZM46.1562 282.215C46.312 278.866 46.4678 275.478 46.4678 272.129V265.431C46.4678 262.082 46.312 258.694 46.1562 255.345C46.8182 255.462 47.4413 255.54 48.0644 255.54C48.6874 255.54 49.3105 255.462 49.9725 255.345C49.8167 258.694 49.661 262.082 49.661 265.431C49.661 270.491 49.7076 274.387 49.7467 277.658C49.7582 278.616 49.769 279.52 49.7778 280.384C53.4383 280.384 56.6316 280.384 60.5257 279.878C60.4089 280.268 60.331 280.657 60.331 281.046C60.331 281.436 60.4089 281.825 60.5257 282.215C58.1503 282.098 55.7359 282.02 53.3604 282.02C50.9461 282.02 48.5706 282.098 46.1562 282.215ZM68.2751 272.129C68.2751 275.478 68.1194 278.866 67.9636 282.215C70.378 282.098 72.7534 282.02 75.1678 282.02C77.5433 282.02 79.9577 282.098 82.3331 282.215C82.2163 281.825 82.1384 281.436 82.1384 281.046C82.1384 280.657 82.2163 280.268 82.3331 279.878C78.4389 280.384 75.2457 280.384 71.5852 280.384C71.5764 279.52 71.5655 278.616 71.5541 277.658C71.5149 274.387 71.4684 270.491 71.4684 265.431C71.4684 262.082 71.6241 258.694 71.7799 255.345C71.1179 255.462 70.4948 255.54 69.8717 255.54C69.2487 255.54 68.6256 255.462 67.9636 255.345C68.1194 258.694 68.2751 262.082 68.2751 265.431V272.129ZM91.6092 282.215C91.7649 278.866 91.9207 275.478 91.9207 272.129V265.431C91.9207 262.744 91.8817 260.057 91.8039 257.37C89.1169 257.37 85.6511 257.526 83.4703 257.798C83.5872 257.409 83.665 256.98 83.665 256.552C83.665 256.163 83.5872 255.773 83.4703 255.345C86.8193 255.462 90.1683 255.54 93.5173 255.54C96.8663 255.54 100.215 255.462 103.564 255.345C103.447 255.773 103.369 256.163 103.369 256.591C103.369 256.98 103.447 257.409 103.564 257.798C101.383 257.526 97.9177 257.37 95.2307 257.37C95.1529 260.057 95.1139 262.744 95.1139 265.431V272.129C95.1139 275.478 95.2697 278.866 95.4254 282.215C94.7634 282.098 94.1404 282.02 93.5173 282.02C92.8942 282.02 92.2712 282.098 91.6092 282.215ZM143.501 282.215C143.657 278.866 143.813 275.478 143.813 272.129V265.431C143.813 262.082 143.657 258.694 143.501 255.345C144.748 255.462 146.033 255.54 147.279 255.54C147.922 255.54 148.899 255.488 149.843 255.437C150.726 255.39 151.581 255.345 152.108 255.345C154.444 255.345 160.636 255.423 160.636 261.926C160.636 268.78 153.899 270.104 150.16 270.104C148.992 270.104 148.019 270.065 147.006 269.987V272.129C147.006 275.478 147.162 278.866 147.318 282.215C146.656 282.098 146.033 282.02 145.41 282.02C144.786 282.02 144.163 282.098 143.501 282.215ZM150.511 256.786H147.006V268.351C147.824 268.546 148.914 268.663 149.771 268.663C152.964 268.663 157.053 267.456 157.053 262.16C157.053 257.72 154.522 256.786 150.511 256.786ZM197.703 266.842H197.701H197.698C195.899 266.876 194.105 266.911 192.295 266.911C190.484 266.911 188.691 266.876 186.891 266.842H186.889H186.887H186.885H186.883H186.88H186.877C185.972 266.824 185.066 266.807 184.156 266.794V265.431C184.156 262.082 184.312 258.694 184.467 255.345C183.805 255.462 183.182 255.54 182.559 255.54C181.936 255.54 181.313 255.462 180.651 255.345C180.807 258.694 180.963 262.082 180.963 265.431V272.129C180.963 275.478 180.807 278.866 180.651 282.215C181.313 282.098 181.936 282.02 182.559 282.02C183.182 282.02 183.805 282.098 184.467 282.215C184.312 278.866 184.156 275.478 184.156 272.129V268.624L184.27 268.622H184.277H184.278H184.281H184.282H184.283C186.966 268.584 189.611 268.546 192.295 268.546C194.978 268.546 197.624 268.584 200.306 268.622H200.308H200.31H200.311H200.32L200.434 268.624V272.129C200.434 275.478 200.278 278.866 200.122 282.215C200.784 282.098 201.407 282.02 202.03 282.02C202.653 282.02 203.276 282.098 203.938 282.215C203.783 278.866 203.627 275.478 203.627 272.129V265.431C203.627 262.082 203.783 258.694 203.938 255.345C203.276 255.462 202.653 255.54 202.03 255.54C201.407 255.54 200.784 255.462 200.122 255.345C200.278 258.694 200.434 262.082 200.434 265.431V266.794C199.52 266.807 198.611 266.824 197.703 266.842ZM213.297 282.215C213.453 278.827 213.608 275.439 213.608 272.09V265.392C213.608 262.043 213.453 258.655 213.297 255.345C215.633 255.462 217.931 255.54 220.267 255.54C222.604 255.54 224.901 255.462 227.199 255.345C227.121 255.734 227.082 256.124 227.082 256.513C227.082 256.903 227.121 257.292 227.199 257.681C226.477 257.63 225.821 257.576 225.183 257.524C222.932 257.341 220.902 257.175 216.957 257.175C216.942 257.835 216.915 258.446 216.887 259.062C216.844 260.009 216.802 260.965 216.802 262.121C216.802 263.317 216.815 264.553 216.826 265.566V265.569C216.834 266.27 216.841 266.863 216.841 267.261C221.436 267.261 224.006 267.066 226.303 266.872C226.226 267.261 226.187 267.689 226.187 268.079C226.187 268.468 226.226 268.858 226.303 269.247C223.616 268.975 218.71 268.897 216.841 268.897C216.802 269.831 216.802 270.805 216.802 274.543C216.802 277.503 216.841 279.411 216.879 280.384C220.345 280.384 224.94 280.346 227.394 279.878C227.316 280.229 227.277 280.735 227.277 281.085C227.277 281.436 227.316 281.864 227.394 282.215C225.096 282.098 222.76 282.02 220.384 282.02C218.009 282.02 215.672 282.098 213.297 282.215ZM244.45 254.839C240.478 264.029 236.428 273.102 232.261 282.215C232.768 282.098 233.235 282.02 233.702 282.02C234.17 282.02 234.637 282.098 235.143 282.215C235.805 279.761 237.285 275.789 238.921 271.778L239.032 271.776H239.033H239.035C240.592 271.738 242.113 271.7 243.671 271.7C245.385 271.7 247.098 271.739 248.773 271.778C249.076 272.528 249.401 273.316 249.732 274.118C250.931 277.023 252.204 280.109 252.784 282.215C253.485 282.098 254.147 282.02 254.848 282.02C255.549 282.02 256.211 282.098 256.912 282.215C255.336 279.034 251.559 270.02 248.162 261.914V261.913C247.109 259.401 246.093 256.976 245.19 254.839H244.45ZM248.228 269.987C246.787 270.026 245.307 270.065 243.866 270.065C243.185 270.065 242.474 270.045 241.763 270.026C241.053 270.006 240.342 269.987 239.66 269.987L243.905 260.096L248.228 269.987ZM270.592 282.02C270.164 282.02 269.657 282.098 269.307 282.215C266.97 275.789 262.22 264.301 258.442 255.345C259.104 255.462 259.805 255.54 260.467 255.54C261.129 255.54 261.83 255.462 262.492 255.345C264.79 262.238 268.1 270.493 271.371 278.359C274.214 272.051 278.575 260.446 280.211 255.345C280.678 255.462 281.184 255.54 281.652 255.54C282.119 255.54 282.625 255.462 283.092 255.345C279.042 264.301 275.304 273.258 271.877 282.215C271.449 282.098 271.02 282.02 270.592 282.02ZM289.907 272.09C289.907 275.439 289.751 278.827 289.595 282.215C291.971 282.098 294.307 282.02 296.683 282.02C299.058 282.02 301.395 282.098 303.692 282.215C303.614 281.864 303.575 281.436 303.575 281.085C303.575 280.735 303.614 280.229 303.692 279.878C301.239 280.346 296.644 280.384 293.178 280.384C293.139 279.411 293.1 277.503 293.1 274.543C293.1 270.805 293.1 269.831 293.139 268.897C295.008 268.897 299.915 268.975 302.602 269.247C302.524 268.858 302.485 268.468 302.485 268.079C302.485 267.689 302.524 267.261 302.602 266.872C300.304 267.066 297.734 267.261 293.139 267.261C293.139 267.08 293.138 266.859 293.135 266.605C293.133 266.3 293.129 265.949 293.125 265.566V265.562C293.114 264.55 293.1 263.315 293.1 262.121C293.1 260.965 293.143 260.009 293.185 259.063V259.062C293.213 258.446 293.24 257.835 293.256 257.175C297.2 257.175 299.23 257.341 301.481 257.524H301.482C302.12 257.576 302.775 257.63 303.497 257.681C303.42 257.292 303.381 256.903 303.381 256.513C303.381 256.124 303.42 255.734 303.497 255.345C301.2 255.462 298.902 255.54 296.566 255.54C294.229 255.54 291.932 255.462 289.595 255.345C289.751 258.655 289.907 262.043 289.907 265.392V272.09ZM334.067 268.39C334.067 272.362 334.145 280.969 334.184 282.721H333.638C328.207 276.325 321.793 269.503 315.628 262.947C315.074 262.358 314.522 261.771 313.973 261.186L313.96 261.636V261.637V261.638C313.919 263.104 313.856 265.37 313.856 269.091C313.856 272.44 314.012 280.657 314.206 282.215C313.778 282.098 313.311 282.02 312.843 282.02C312.376 282.02 311.909 282.098 311.403 282.215C311.714 280.384 312.22 270.415 312.22 265.275C312.22 260.368 312.22 256.591 312.104 254.839H312.727C313.275 255.434 313.84 256.047 314.417 256.675C320.532 263.318 328.091 271.53 332.431 275.906C332.431 268.936 332.431 261.342 332.12 255.345C332.548 255.462 333.015 255.54 333.444 255.54C333.872 255.54 334.261 255.462 334.69 255.345C334.456 257.642 334.067 265.353 334.067 268.39Z" fill="white"/>
</svg>
