<svg width="1441" height="395" viewBox="0 0 1441 395" fill="none" xmlns="http://www.w3.org/2000/svg">
<path d="M961.987 386.988C986.48 343.809 1053.07 307.337 1090.06 267.536C1127.04 231.049 1134.44 187.953 1178.83 154.828C1215.82 75.242 1164.03 -7.65774 1097.56 -80.481" stroke="#B4A990" stroke-width="1.10578" stroke-miterlimit="10"/>
<path d="M199.733 71.428C194.685 85.093 196.023 95.8759 175.074 105.259C172.956 106.198 153.71 109.313 148.574 110.934C137.72 114.51 131.711 121.288 121.438 125.027C130.865 141.332 158.415 131.471 173.481 127.459C185.999 124.135 202.425 115.02 217.315 114.777C233.94 114.502 247.237 125.139 268.181 123.451C268.195 119.485 266.984 115.537 264.581 111.719C271.564 105.851 285.729 91.0755 284.353 87.2491C279.559 73.9831 221.694 70.0575 199.733 71.428Z" stroke="#B4A990" stroke-width="1.10578" stroke-miterlimit="10"/>
<path d="M1326.68 391.627C1324.44 371.306 1292.31 355.47 1280.05 336.536C1268.72 319.161 1274.46 300.601 1239.54 288.064C1175.75 265.167 1102.76 297.86 1069.77 321.349C1042.05 341.086 1027.43 364.277 1018.46 387.023" stroke="#B4A990" stroke-width="1.10578" stroke-miterlimit="10"/>
<path d="M1282.85 -86C1257.94 -83.2956 1232.48 -81.7526 1206.87 -81.3954C1180.44 -81.103 1154.51 -82.5057 1128.75 -84.4932C1134.46 -80.9493 1140.5 -77.5095 1145.89 -74.0078C1160.37 -64.6921 1166.46 -53.7357 1170.57 -42.6852C1172.22 -37.6603 1174.64 -32.6921 1177.81 -27.8158C1180.75 -23.5755 1184.68 -19.1419 1186.22 -14.7207C1186.98 -12.5077 1186.33 -10.0592 1186.33 -7.81138V18.0094C1186.07 35.9941 1193.67 53.944 1197.89 71.7204C1198.09 72.5308 1198.86 73.2074 1199.2 74.0227C1199.68 75.1503 1199.2 76.3102 1199.59 77.4625C1200.48 79.8045 1203.75 81.7102 1204.9 83.9481C1205.18 84.8133 1205.24 85.6891 1205.09 86.5602L1212.32 105.291C1216.32 105.539 1215.22 108.874 1215.22 110.074C1215.22 111.697 1215.34 113.253 1215.22 114.834C1215.07 116.958 1213.3 118.743 1212.6 120.817C1211.89 122.891 1212.6 124.871 1212.04 126.859C1211.52 128.275 1210.76 129.671 1209.76 131.035C1208.68 132.952 1207.83 134.896 1207.23 136.856C1205.9 141.541 1205.24 146.259 1205.24 150.982C1205.08 154.087 1202.48 156.561 1200.45 159.497C1198.62 162.397 1196.43 165.25 1193.9 168.042C1187.41 174.781 1178.47 181.09 1170.49 187.504C1166.04 191.08 1161.55 194.8 1159.27 198.775C1157.18 202.438 1155.44 205.496 1151.3 208.876C1147.98 211.57 1145.58 214.415 1142.78 217.213C1140.54 219.148 1138.84 221.199 1137.73 223.32C1136.72 225.833 1137.73 228.41 1136.72 230.958C1134.58 236.462 1135.99 242.415 1135.99 247.986C1135.75 251.64 1136.17 255.298 1137.24 258.922C1138.9 263.631 1142.67 269.675 1151.93 272.552C1160.34 275.147 1173.49 273.544 1182.81 272.738C1193.14 271.863 1204.01 270.087 1214.52 269.883C1220.07 269.731 1225.64 269.954 1231.04 270.548C1239.42 271.514 1248.98 271.787 1256.87 273.41C1285.58 279.266 1295.02 296.966 1297.3 309.624C1298.96 318.858 1305.7 328.573 1312.78 337.249C1321.12 347.433 1331.32 357.254 1339.83 367.412C1346.3 375.157 1352.94 382.723 1357.61 390.653C1359.22 390.854 1360.73 391.186 1362.07 391.632C1363.75 391.342 1365.54 391.199 1367.34 391.211C1389.38 391.268 1411.32 392.356 1433.33 392.698C1433.79 390.188 1436.07 387.815 1439.83 385.942C1437.96 384.85 1436.92 383.517 1436.88 382.14V380.517C1436.91 379.143 1437.95 377.812 1439.84 376.73C1438.82 372.305 1438.35 367.858 1438.42 363.41C1438.49 358.411 1439.16 353.417 1440.41 348.449C1438.27 347.936 1436.49 347.172 1435.25 346.238C1434.02 345.303 1433.38 344.235 1433.4 343.149C1433.42 342.063 1434.11 341.001 1435.38 340.077C1436.65 339.153 1438.47 338.403 1440.62 337.909C1439.03 337.362 1437.75 336.651 1436.9 335.837C1436.04 335.023 1435.63 334.129 1435.7 333.23C1435.69 332.545 1435.92 331.864 1436.37 331.21V330.553C1436.37 330.08 1436.43 329.607 1436.54 329.136C1434.29 327.258 1433.15 325.153 1433.22 323.022C1433.02 319.999 1435.4 317.056 1439.89 314.799C1438.67 313.848 1438.05 312.766 1438.09 311.669C1438.01 310.376 1438.89 309.108 1440.58 308.061C1436.11 294.183 1432.21 280.257 1430.18 266.292C1427.29 246.466 1433.18 226.789 1440.2 207.199C1438.4 206.67 1436.93 205.94 1435.94 205.081C1434.95 204.221 1434.47 203.261 1434.56 202.294C1434.48 200.944 1435.44 199.623 1437.29 198.555C1437.04 198.054 1436.91 197.543 1436.91 197.03C1436.84 196.218 1437.17 195.409 1437.86 194.657C1438.56 193.906 1439.6 193.23 1440.93 192.676C1439.98 189.075 1438.45 185.489 1437.58 181.997C1435.77 174.245 1439.06 166.412 1439.24 158.645C1439.22 158.374 1439.25 158.103 1439.34 157.834C1437.51 157.284 1436.01 156.541 1434.97 155.669C1433.93 154.797 1433.39 153.824 1433.39 152.836C1433.39 151.848 1433.93 150.875 1434.97 150.003C1436.01 149.131 1437.51 148.387 1439.34 147.837C1433.43 133.54 1427.86 119.199 1425.56 104.329C1423.3 89.7323 1426.7 75.3089 1431.74 60.9401C1418.72 37.2456 1418.05 13.1645 1431.08 -12.4655C1433.39 -16.9849 1436.35 -21.432 1439.95 -25.7787C1438.6 -26.3334 1437.54 -27.0129 1436.83 -27.7702C1436.12 -28.5274 1435.79 -29.3445 1435.85 -30.1651C1435.85 -30.6336 1435.95 -31.1011 1436.16 -31.5604C1419.88 -32.2171 1405.4 -35.2778 1392 -39.7807C1376.5 -44.9892 1362.43 -51.002 1350.09 -57.6935C1341.09 -62.6815 1332.97 -67.9734 1325.79 -73.522C1320.59 -77.7033 1314.91 -81.7629 1308.79 -85.6853C1300.05 -85.601 1291.37 -85.715 1282.85 -86Z" stroke="#B4A990" stroke-width="1.10578" stroke-miterlimit="10"/>
<path d="M1206.85 -81.393C1194.99 -81.2773 1183.13 -81.4561 1171.32 -81.9283C1173.15 -80.7413 1175.17 -79.6171 1177.37 -78.5653C1186.97 -74.0871 1195.03 -68.992 1201.28 -63.448C1208.28 -57.0417 1209.73 -51.1633 1211.23 -44.1325C1212.84 -37.7068 1216.01 -31.3793 1220.69 -25.2632C1224.31 -20.2522 1223.82 -15.4122 1223.82 -10.1756C1223.82 -3.6876 1222.32 2.79796 1222.35 9.28601C1222.13 11.9644 1222.22 14.646 1222.61 17.3205C1223.46 20.9462 1225.18 24.6189 1226.22 28.2025C1227.29 31.6001 1229.85 34.7797 1231.06 38.1526C1232.45 42.6142 1233.28 47.108 1233.53 51.612C1234.51 59.5793 1234.51 67.5647 1233.53 75.532C1233.17 78.2407 1233.05 81.3311 1231.32 83.958C1230.38 85.2159 1229.77 86.5195 1229.51 87.8414L1235.12 94.6045C1235.12 99.3132 1249.46 118.931 1248.31 123.575C1247.71 126.009 1246.13 128.442 1246.73 130.938C1248.18 137.183 1252.7 143.419 1252.59 149.743C1252.59 153.188 1253.54 156.796 1251.33 160.152C1249.52 162.878 1246.43 165.356 1243.86 167.943C1238.07 173.772 1232.8 179.425 1223.95 184.525C1217.84 188.012 1210.28 191.425 1206.62 195.633C1205.18 197.635 1204.17 199.697 1203.64 201.789C1202.24 206.071 1199.98 210.289 1196.89 214.388C1194.5 217.332 1191.86 220.234 1189.66 223.203C1183.62 231.112 1181.16 239.48 1182.42 247.82C1182.8 250.211 1181.22 254.419 1188.06 255.021C1191.97 255.361 1195.49 254.922 1199.3 254.615C1209.73 253.805 1218.73 253.415 1228.89 255.175C1241.56 257.371 1252.41 261.214 1265.56 262.781C1277.86 264.24 1289.47 266.535 1301.88 268.002C1306.57 268.562 1310.39 268.852 1313.32 270.637C1316.25 272.421 1316.77 274.909 1317.82 276.936C1324.69 290.398 1331.72 304.036 1342.24 317.01C1355.56 333.421 1365.63 350.32 1378.08 366.869C1384.36 375.221 1391.05 383.508 1397.67 391.803C1409.57 392.143 1421.48 392.547 1433.41 392.72C1433.87 390.21 1436.15 387.836 1439.91 385.964C1438.04 384.872 1437.01 383.539 1436.96 382.163V380.539C1436.99 379.165 1438.04 377.834 1439.93 376.753C1438.9 372.328 1438.43 367.881 1438.5 363.432C1438.58 358.433 1439.24 353.439 1440.49 348.471C1438.36 347.955 1436.58 347.189 1435.35 346.255C1434.13 345.321 1433.49 344.254 1433.51 343.17C1433.53 342.085 1434.22 341.024 1435.48 340.101C1436.75 339.177 1438.56 338.426 1440.71 337.928C1439.11 337.382 1437.83 336.673 1436.98 335.859C1436.12 335.045 1435.71 334.151 1435.79 333.252C1435.77 332.567 1436 331.885 1436.46 331.232V330.593C1436.45 330.119 1436.51 329.645 1436.62 329.173C1434.37 327.295 1433.22 325.19 1433.3 323.059C1433.09 320.037 1435.48 317.095 1439.97 314.839C1438.75 313.888 1438.12 312.806 1438.16 311.709C1438.08 310.416 1438.96 309.147 1440.66 308.1C1436.19 294.222 1432.28 280.294 1430.26 266.332C1427.36 246.506 1433.26 226.829 1440.28 207.238C1438.47 206.709 1437 205.979 1436.01 205.119C1435.02 204.259 1434.55 203.298 1434.64 202.331C1434.56 200.982 1435.52 199.661 1437.37 198.594C1437.11 198.094 1436.99 197.583 1436.99 197.07C1436.92 196.258 1437.25 195.449 1437.94 194.697C1438.63 193.946 1439.67 193.27 1441 192.716C1440.06 189.115 1438.52 185.514 1437.65 182.037C1435.85 174.285 1439.14 166.451 1439.31 158.685C1439.3 158.413 1439.33 158.142 1439.42 157.874C1437.59 157.324 1436.09 156.58 1435.05 155.708C1434.02 154.836 1433.47 153.863 1433.47 152.874C1433.47 151.886 1434.02 150.913 1435.05 150.041C1436.09 149.169 1437.59 148.425 1439.42 147.874C1433.44 133.572 1427.89 119.221 1425.57 104.364C1423.35 89.762 1426.76 75.3337 1431.8 60.9599C1418.77 37.2654 1418.1 13.1843 1431.13 -12.4482C1431.47 -13.1049 1431.9 -13.7443 1432.27 -14.3936C1422.6 -15.7467 1413.17 -17.4269 1404.07 -19.4195C1395.17 -21.4021 1386.11 -22.5173 1377.53 -24.8047C1362.93 -28.6807 1349.12 -32.5393 1336.36 -37.6321C1326.32 -41.637 1316.21 -45.3147 1305.43 -48.9032C1299.97 -50.6662 1294.76 -52.5842 1289.85 -54.6453C1274.69 -61.1308 1265.68 -69.6783 1255.48 -77.7128C1253.18 -79.512 1250.63 -81.2889 1247.99 -83.041C1234.37 -82.1089 1220.63 -81.5585 1206.85 -81.393V-81.393Z" stroke="#B4A990" stroke-width="1.10578" stroke-miterlimit="10"/>
<path d="M1262.41 -24.8022C1258.95 -23.0922 1261.3 -18.7057 1261.3 -16.5323C1261.3 -6.86717 1261.3 2.71869 1262.55 12.3591C1263.69 21.6822 1267.03 30.9186 1269.99 40.1625C1270.94 43.2281 1272.48 46.2689 1272.75 49.3568C1273.02 52.2191 1272.75 55.0741 1272.75 57.9365C1272.91 62.728 1272.46 67.5198 1271.39 72.288C1270.56 75.5716 1269.73 78.9619 1268.4 82.2307C1268.08 83.0411 1267.23 85.5714 1265.57 86.6073C1264.53 87.2491 1274.36 97.7742 1274.9 98.1881C1273.63 100.012 1292.72 111.655 1294.47 113.043C1296.93 114.981 1295.76 116.926 1293.79 118.914C1291.16 121.563 1287.22 123.201 1282.79 125.196C1276.96 127.823 1276.48 131.367 1275.88 134.861C1273.45 149.017 1279.33 163.564 1272.88 177.576C1271.44 180.681 1267.27 183.437 1266 186.498C1265.56 187.81 1265.36 189.136 1265.4 190.463C1265.19 194.785 1265.17 199.226 1265.4 203.558C1265.55 206.135 1266.83 208.691 1267.49 211.241C1268.17 213.917 1268.39 216.594 1269.18 219.26C1270.31 223.819 1273.81 228.195 1279.41 232.033C1282.39 233.961 1285.57 236.184 1289.85 237.57C1292.37 238.32 1295.11 238.918 1297.98 239.346C1306.45 240.853 1315.76 242.588 1321.92 245.743C1334.96 252.417 1343.62 261.239 1351.6 269.259C1363.04 280.845 1373.95 292.554 1385.45 304.125C1404.53 323.349 1420.38 343.529 1429.75 364.176C1431.99 369.097 1434.4 374.089 1437.3 378.991C1437.81 378.194 1438.66 377.448 1439.79 376.792C1438.75 372.373 1438.26 367.931 1438.32 363.487C1438.4 358.488 1439.06 353.495 1440.31 348.528C1438.19 348.012 1436.41 347.246 1435.18 346.313C1433.95 345.379 1433.31 344.312 1433.34 343.228C1433.36 342.143 1434.04 341.082 1435.31 340.158C1436.58 339.235 1438.38 338.484 1440.53 337.986C1438.93 337.439 1437.66 336.729 1436.8 335.914C1435.94 335.1 1435.53 334.206 1435.61 333.307C1435.6 332.623 1435.82 331.942 1436.28 331.289V330.633C1436.28 330.158 1436.33 329.684 1436.44 329.213C1434.19 327.335 1433.05 325.23 1433.13 323.099C1432.92 320.076 1435.31 317.134 1439.8 314.876C1438.58 313.925 1437.95 312.843 1437.99 311.746C1437.92 310.453 1438.79 309.184 1440.49 308.138C1436.02 294.259 1432.11 280.334 1430.09 266.372C1427.19 246.546 1433.09 226.866 1440.11 207.275C1438.3 206.746 1436.83 206.016 1435.84 205.157C1434.86 204.297 1434.38 203.337 1434.46 202.371C1434.39 201.021 1435.35 199.701 1437.2 198.634C1436.95 198.133 1436.82 197.622 1436.82 197.11C1436.75 196.297 1437.08 195.488 1437.77 194.737C1438.46 193.986 1439.51 193.31 1440.83 192.755C1439.89 189.155 1438.36 185.554 1437.49 182.074C1435.68 174.325 1438.97 166.491 1439.15 158.722C1439.13 158.451 1439.17 158.179 1439.26 157.911C1437.42 157.362 1435.92 156.618 1434.88 155.747C1433.84 154.875 1433.3 153.901 1433.3 152.913C1433.3 151.924 1433.84 150.951 1434.88 150.079C1435.92 149.207 1437.42 148.463 1439.26 147.914C1433.27 133.61 1427.71 119.258 1425.4 104.404C1423.14 89.8092 1426.54 75.3833 1431.58 61.0144C1422.66 44.8355 1419.69 28.1124 1422.78 11.5041C1414.86 10.9876 1407.06 10.1743 1399.46 9.07291C1386.96 7.24644 1375.73 4.32954 1364.31 1.42504C1346.34 -3.09675 1329.1 -8.1824 1312.73 -13.7939C1301.68 -17.6128 1290.46 -22.324 1277.59 -24.9261C1274.09 -25.5977 1265.87 -26.4973 1262.41 -24.8022Z" stroke="#B4A990" stroke-width="1.10578" stroke-miterlimit="10"/>
<path d="M1361.61 29.734C1353.58 29.2235 1345.44 28.4057 1338.18 30.3511C1322.7 34.5022 1321.69 44.5416 1321.69 51.612C1321.49 57.5921 1322.57 63.5669 1324.9 69.4553C1327.4 75.3337 1330.93 81.0833 1333.28 86.9864C1337.12 96.5946 1342.41 105.91 1344.57 115.665C1346 120.82 1346.54 126.018 1346.18 131.211C1345.22 138.742 1340.93 145.832 1335.6 152.957C1327.86 163.297 1319.31 173.829 1315.17 184.58C1312.93 190.421 1312.65 196.379 1314.34 202.257C1316.15 208.743 1322.16 214.542 1328.65 220.348C1331.01 222.758 1334.05 225.022 1337.69 227.087C1341.47 228.982 1346.74 230.484 1350.96 232.145C1356.64 234.407 1361.93 236.853 1367.24 239.272C1377.48 243.695 1385.84 248.916 1391.92 254.679C1400.31 262.991 1407.13 271.633 1414.15 280.188C1422.33 290.101 1430.67 299.892 1438.61 309.768C1439.01 309.16 1439.66 308.589 1440.51 308.081C1436.04 294.202 1432.12 280.294 1430.09 266.332C1427.19 246.506 1433.09 226.826 1440.11 207.236C1438.3 206.707 1436.83 205.977 1435.84 205.118C1434.85 204.258 1434.38 203.298 1434.46 202.331C1434.39 200.981 1435.35 199.66 1437.2 198.592C1436.94 198.092 1436.81 197.58 1436.81 197.068C1436.75 196.255 1437.07 195.446 1437.77 194.695C1438.46 193.943 1439.51 193.268 1440.83 192.713C1439.89 189.112 1438.35 185.514 1437.48 182.035C1435.68 174.283 1438.97 166.451 1439.14 158.682C1439.13 158.411 1439.16 158.14 1439.25 157.872C1437.42 157.322 1435.91 156.578 1434.88 155.706C1433.84 154.834 1433.3 153.861 1433.3 152.873C1433.3 151.885 1433.84 150.912 1434.88 150.04C1435.91 149.168 1437.42 148.425 1439.25 147.874C1433.26 133.57 1427.71 119.218 1425.39 104.364C1423.13 89.767 1426.53 75.3436 1431.58 60.9748C1425.98 50.7846 1422.72 40.3649 1421.85 29.8778C1420.89 29.9199 1420.04 29.9769 1418.99 30.0166C1407.9 30.4626 1396.87 30.3561 1385.78 30.3734C1377.7 30.4237 1369.62 30.21 1361.61 29.734V29.734Z" stroke="#B4A990" stroke-width="1.10578" stroke-miterlimit="10"/>
<path d="M1414 40.6978C1410.25 40.7622 1407.7 41.9369 1403.96 42.0286C1401.5 41.9563 1399.04 42.1081 1396.72 42.4747C1395.61 42.7731 1394.45 43.0436 1393.27 43.2851C1391.06 43.5849 1387.97 43.632 1385.62 43.8278C1383.27 44.0236 1380.75 44.3235 1378.38 44.4845C1372.21 44.8984 1366.53 44.1673 1361 45.912C1356.16 47.4361 1355.15 49.6814 1354.99 52.1968C1354.64 57.3045 1354.99 62.4295 1354.99 67.5372C1354.88 70.3418 1356.35 73.1134 1359.26 75.5964C1364.05 79.7078 1365.97 83.9085 1368.7 88.352C1371.79 93.3778 1372.68 98.4781 1376.63 103.4C1378.29 105.484 1380.55 107.633 1381.05 109.843C1381.43 111.578 1380.94 113.742 1380.94 115.444C1380.94 123.278 1381.66 131.012 1382.37 138.831C1383.18 147.753 1385.43 156.749 1382.52 165.668C1381.19 169.658 1379.4 172.112 1373.47 175.086C1370.09 176.706 1366.91 178.102 1364.7 180.136C1359.03 185.308 1356.18 191.007 1356.37 196.768C1356.7 200.626 1360.24 203.66 1365.42 206.681C1370.14 209.429 1375.79 211.488 1380.87 214.044C1383.94 215.759 1387.23 217.397 1390.71 218.948C1395.13 220.732 1397.71 222.938 1401.15 225.094C1410.24 230.735 1417.46 236.934 1422.61 243.5C1425.51 247.469 1427.04 251.615 1427.13 255.792C1426.84 257.605 1426.98 259.427 1427.54 261.227C1428.15 262.511 1429.01 263.767 1430.13 264.979C1427.69 245.624 1433.45 226.4 1440.28 207.271C1438.47 206.741 1437 206.011 1436.01 205.152C1435.02 204.292 1434.55 203.332 1434.63 202.366C1434.55 201.017 1435.52 199.696 1437.36 198.629C1437.11 198.129 1436.99 197.617 1436.99 197.105C1436.92 196.292 1437.24 195.483 1437.94 194.732C1438.63 193.981 1439.67 193.305 1441 192.75C1440.06 189.15 1438.52 185.549 1437.66 182.069C1435.85 174.32 1439.14 166.486 1439.31 158.717C1439.3 158.446 1439.33 158.174 1439.42 157.906C1437.59 157.356 1436.09 156.612 1435.05 155.741C1434.02 154.869 1433.47 153.896 1433.47 152.908C1433.47 151.92 1434.02 150.947 1435.05 150.075C1436.09 149.203 1437.59 148.459 1439.42 147.909C1433.44 133.605 1427.88 119.253 1425.56 104.399C1423.31 89.8042 1426.71 75.3783 1431.75 61.0095C1427.91 53.969 1425.17 46.8167 1423.56 39.6049C1420.52 40.201 1417.3 40.5702 1414 40.6978V40.6978Z" stroke="#B4A990" stroke-width="1.10578" stroke-miterlimit="10"/>
<path d="M1391.58 67.78C1382.05 72.8803 1391.37 77.1974 1392.65 83.1873C1394.1 90.0471 1397.54 95.1052 1401.84 101.796C1406.6 109.206 1407.05 118.425 1407.93 126.17C1408.61 132.234 1411.96 142.435 1401.74 147.332C1386.81 156.997 1400.85 162.967 1407.85 168.335C1424.13 178.615 1408.12 190.713 1411.17 201.888C1413.45 210.254 1419.72 212.128 1430.9 217.501C1432.7 218.392 1434.33 219.35 1435.77 220.363C1437.15 215.974 1438.67 211.605 1440.19 207.228C1438.38 206.698 1436.91 205.967 1435.92 205.106C1434.93 204.246 1434.45 203.285 1434.53 202.316C1434.45 200.966 1435.42 199.645 1437.26 198.577C1437.01 198.077 1436.88 197.566 1436.88 197.053C1436.82 196.24 1437.15 195.432 1437.84 194.681C1438.53 193.93 1439.58 193.254 1440.9 192.698C1439.96 189.098 1438.42 185.499 1437.55 182.02C1435.74 174.268 1439.04 166.436 1439.21 158.667C1439.19 158.396 1439.23 158.125 1439.31 157.857C1437.48 157.307 1435.98 156.563 1434.94 155.691C1433.91 154.819 1433.36 153.846 1433.36 152.858C1433.36 151.87 1433.91 150.897 1434.94 150.025C1435.98 149.153 1437.48 148.41 1439.31 147.86C1433.39 133.572 1427.82 119.221 1425.5 104.366C1423.24 89.7695 1426.64 75.3461 1431.69 60.9773C1431.35 60.3527 1431.11 59.7381 1430.79 59.1037C1415.99 60.6923 1401.08 62.6798 1391.58 67.78Z" stroke="#B4A990" stroke-width="1.10578" stroke-miterlimit="10"/>
<path d="M1439.34 157.906C1437.67 157.457 1436.27 156.836 1435.24 156.095C1434.22 155.355 1433.6 154.515 1433.44 153.646C1434 159.549 1435.76 165.492 1437.45 171.428C1438.08 167.18 1439.1 162.922 1439.25 158.689C1439.24 158.428 1439.27 158.166 1439.34 157.906V157.906Z" stroke="#B4A990" stroke-width="1.10578" stroke-miterlimit="10"/>
<path d="M1439.27 147.909C1438.04 144.95 1436.81 141.989 1435.65 138.987C1434.27 142.281 1433.45 145.618 1433.19 148.967C1433.19 150.241 1433.19 151.522 1433.34 152.796C1433.28 151.82 1433.81 150.855 1434.85 149.997C1435.89 149.14 1437.41 148.42 1439.27 147.909V147.909Z" stroke="#B4A990" stroke-width="1.10578" stroke-miterlimit="10"/>
<path d="M989.736 -73.641C1112.26 -7.68747 1104.86 85.1649 1090.05 168.067C1053.05 191.273 1045.65 224.437 1023.46 250.959C1014.72 258.426 1007.3 266.188 1001.26 274.173C971.662 297.389 919.856 310.663 890.299 333.862C868.1 353.76 853.305 373.657 825.876 389.412" stroke="#B4A990" stroke-width="1.10578" stroke-miterlimit="10"/>
<path d="M688.936 391.062C742.356 363.712 779.383 327.23 771.952 290.758C771.952 270.86 801.526 257.594 831.112 244.338C919.895 217.806 993.921 181.326 979.071 131.578C971.667 121.63 964.27 111.68 964.27 101.732C964.27 51.9937 949.491 2.25528 890.304 -40.8563C868.106 -60.7467 816.316 -64.0626 787.859 -81.4004" stroke="#B4A990" stroke-width="1.10578" stroke-miterlimit="10"/>
<path d="M717.194 -80.6792C720.163 -77.3262 720.163 -74.0053 727.555 -70.6894C786.748 -34.1998 868.117 -14.3193 882.918 32.1032C890.321 65.2671 882.918 95.1151 838.526 121.637C808.93 138.219 779.367 151.485 764.555 168.067C712.766 244.335 638.778 317.257 546.644 385.999" stroke="#B4A990" stroke-width="1.10578" stroke-miterlimit="10"/>
<path d="M501.771 384.123C520.42 367.038 542.619 350.456 557.414 333.849C587.011 300.718 579.613 267.554 609.209 234.397C638.783 211.184 675.777 194.602 697.976 171.395C727.566 134.906 749.765 95.1275 808.935 68.5954C816.339 42.0559 779.361 18.857 734.931 -1.04329C720.136 -7.67507 712.738 -17.6252 697.937 -24.257C675.744 -40.8389 660.943 -60.7467 641.083 -75.8937" stroke="#B4A990" stroke-width="1.10578" stroke-miterlimit="10"/>
<path d="M467.282 382.683C476.018 373.657 490.797 367.026 505.614 360.379C535.21 340.481 542.608 317.275 550.006 294.061C557.403 234.373 579.602 174.679 646.17 121.625C660.971 105.043 653.573 85.1352 675.766 68.5706C690.561 61.9388 697.965 55.3046 720.158 51.9887C720.158 2.2503 638.756 -30.9136 550.006 -57.4357C542.608 -60.7516 535.21 -67.3859 527.89 -74.6348" stroke="#B4A990" stroke-width="1.10578" stroke-miterlimit="10"/>
<path d="M401.001 380.981C435.933 346.258 489.116 311.919 464.711 272.324C453.062 253.408 440.002 236.705 450.839 216.953C459.752 200.733 479.656 186.399 498.686 172.265C518.242 157.76 537.991 143.319 543.421 126.267C549.248 107.893 549.265 90.9293 568.301 73.9509C584.578 59.3565 610.414 43.7708 603.879 26.4677C598.35 11.799 578.374 -4.58718 564.265 -18.049C547.6 -33.9569 526.253 -49.4533 493.224 -59.5224C452.448 -71.9855 407.835 -73.0313 360.928 -76.8503" stroke="#B4A990" stroke-width="1.10578" stroke-miterlimit="10"/>
<path d="M9.94763 363.71C98.7363 343.809 187.503 320.588 291.087 327.22C342.86 317.28 379.854 304.014 387.251 280.8C387.251 257.584 365.053 237.693 372.456 214.48C372.456 207.845 379.854 201.214 387.251 194.582C416.848 178 461.239 164.741 446.411 141.528C483.388 124.946 527.818 105.038 535.183 81.8416C542.608 51.9937 505.642 28.7774 513.012 -1.06062C527.807 -27.5927 446.444 -30.9086 402.047 -44.1821C342.86 -60.7467 268.888 -87.2788 194.917 -67.3809C157.907 -57.4308 143.111 -34.2245 98.7142 -30.8912C69.118 -30.8912 39.5218 -30.8912 12.5849 -31.5827" stroke="#B4A990" stroke-width="1.10578" stroke-miterlimit="10"/>
<path d="M14.343 279.68C83.9354 260.91 165.282 270.857 239.292 267.517C283.684 264.201 350.279 257.569 350.279 234.363C357.677 204.515 365.075 174.667 431.681 158.092C431.681 138.194 461.278 121.605 490.841 105.031C498.233 98.3988 505.642 88.4684 505.642 81.8243L461.256 -7.70976L439.063 -17.6599C387.268 -24.2917 342.876 -37.5577 298.501 -50.8089C283.706 -54.1273 268.905 -57.4432 254.11 -54.1273C180.105 -34.2047 113.532 -1.05319 14.9401 -7.3281" stroke="#B4A990" stroke-width="1.10578" stroke-miterlimit="10"/>
<path d="M17.0024 243.061C106.134 231.069 194.9 234.387 283.684 221.121C320.661 217.803 320.661 191.241 320.661 174.692C320.661 164.749 350.257 164.749 365.053 158.117C402.069 148.167 402.069 128.269 409.439 111.687C416.842 101.739 446.433 101.739 446.433 91.7967C446.433 81.854 453.836 68.583 439.035 58.6328C409.439 38.735 424.245 15.5287 394.649 -4.3691C357.655 -24.2669 291.087 -34.2171 239.287 -20.951C209.69 -11.0034 202.293 8.89693 165.299 15.5362C113.532 22.1704 54.3446 18.8545 4.81116 25.4937" stroke="#B4A990" stroke-width="1.10578" stroke-miterlimit="10"/>
<path d="M11.7389 203.459C54.3447 201.229 98.7142 201.229 135.758 197.905C180.133 187.958 231.922 184.639 276.314 171.388C298.512 161.438 313.291 148.172 335.473 138.224C350.279 131.59 365.053 131.59 379.854 124.953C402.047 105.055 379.854 85.1649 379.854 65.2671C379.854 58.6328 394.649 52.0011 394.649 45.3693C387.251 32.1032 387.251 18.852 365.053 8.87959C328.059 -7.70234 276.286 -11.0182 246.69 8.87959C231.894 18.8297 217.099 32.0859 194.917 38.7201C143.111 55.3021 83.9354 45.347 24.7485 45.347C17.3508 45.347 17.3508 48.6678 6.93433 50.6554" stroke="#B4A990" stroke-width="1.10578" stroke-miterlimit="10"/>
<path d="M10.4396 175.95C128.332 184.649 246.69 161.443 328.059 124.963C335.462 121.647 342.86 115.013 350.257 108.381C365.053 81.8639 350.257 55.3268 335.462 28.7972C320.661 15.5386 291.087 15.5386 268.888 25.4789C246.69 35.4191 224.497 45.3792 202.298 52.011C157.907 65.277 98.7362 65.277 46.9359 65.277C32.1406 65.277 17.3452 71.9088 2.95898 76.0375" stroke="#B4A990" stroke-width="1.10578" stroke-miterlimit="10"/>
<path d="M4.08691 153.723C32.218 154.801 54.4 151.493 84.0072 151.493C106.206 148.174 106.206 131.592 91.4104 124.961C61.8142 118.321 32.218 134.903 0.670044 122.187" stroke="#B4A990" stroke-width="1.10578" stroke-miterlimit="10"/>
<path d="M279.852 37.7536C274.851 39.7722 271.112 42.3409 269.004 45.2057C267.191 47.4361 264.028 51.1535 258.726 52.0506L261.95 58.5362C265.079 59.3466 271.426 58.5362 275.423 59.2995C285.049 61.0169 290.313 65.681 301.166 66.2634C311.566 66.816 314.375 61.9413 315.541 58.1545C316.968 53.3641 315.414 49.5848 309.172 45.7336C304.522 42.8539 307.364 39.3595 302.825 36.7004C296.223 32.8641 286.039 35.0375 279.852 37.7536Z" stroke="#B4A990" stroke-width="1.10578" stroke-miterlimit="10"/>
<path d="M170.59 81.735C181.156 94.1659 125.364 109.424 75.2937 111.786C25.224 114.148 7.88533 101.65 5.049 96.9391C2.21267 92.2279 11.5068 86.2603 26.0588 83.5565C40.6109 80.8528 53.1836 73.599 76.1231 80.6496C99.0625 87.7002 103.983 81.735 119.32 80.1044C134.658 78.4737 142.84 75.3957 149.624 78.4836C156.408 81.5715 167.383 77.9309 170.59 81.735Z" stroke="#B4A990" stroke-width="1.10578" stroke-miterlimit="10"/>
<path d="M332.476 343.363C332.476 343.363 278.205 352.9 241.211 347.67C204.217 342.441 185.623 355.665 92.9807 373.811C72.4128 377.723 52.6079 382.397 33.7716 387.783C61.969 389.972 89.691 392.534 117.584 395C160.478 392.162 200.8 391.659 240.182 394.257C286.852 390.631 333.621 387.317 380.65 385.744C377.753 381.531 364.063 373.677 372.273 361.209C386.743 339.363 396.982 336.598 375.707 334.749C354.432 332.9 332.476 343.363 332.476 343.363Z" stroke="#B4A990" stroke-width="1.10578" stroke-miterlimit="10"/>
<path d="M862.765 -80.937C865.846 -80.0435 869.125 -79.296 872.551 -78.7065C876.852 -78.0176 882.138 -78.4587 886.191 -77.4922C896.646 -75.0586 896.192 -69.3834 901.998 -65.4901C907.173 -62.0354 914.161 -60.0825 918.28 -56.0355C921.498 -52.9551 922.062 -49.7854 924.539 -46.6703C928.846 -41.2875 937.582 -38.7399 944.891 -34.1923C954.55 -28.1999 957.248 -21.8754 970.65 -17.2461C980.796 -13.7418 992.611 -10.8794 995.597 -4.89697C997.875 -0.339476 995.016 3.74715 999.212 8.39386C1002.58 12.0517 1012.48 19.4369 1021.67 20.3216C1051.68 23.2162 1047.7 5.23162 1036.79 -1.5216C1031.18 -4.99114 1023.52 -6.84983 1019.65 -10.986C1012.54 -18.5595 1009.5 -27.1293 1003.71 -34.9457C995.917 -45.4386 981.625 -54.2438 964.513 -62.1097C956.187 -65.9436 943.221 -69.309 937.377 -74.0524C936.101 -75.1096 935.094 -76.2277 934.375 -77.3856C910.371 -77.9423 886.46 -79.1281 862.765 -80.937V-80.937Z" stroke="#B4A990" stroke-width="1.10578" stroke-miterlimit="10"/>
<path d="M1100.07 321.691C1113.45 335.368 1105.49 355.747 1089.1 368.443C1080.06 375.442 1069.46 378.629 1065.29 386.842C1064.13 389.059 1062.56 391.229 1060.59 393.33C1069.26 393.612 1077.92 393.897 1086.62 394.14C1117.38 395.032 1148.13 393.848 1178.89 394.48C1181.1 392.249 1185.99 390.361 1191.55 390.685C1204.68 391.496 1217.16 390.824 1230.13 389.875C1237.13 389.347 1244.2 390.571 1246.72 393.711C1254.83 394.058 1263 394.172 1271.16 394.165C1267.69 391.06 1263.56 388.262 1258.88 386.549C1240.79 379.982 1229.39 378.986 1228.72 366.587C1227.99 353.063 1237.01 338.206 1224.02 325.51C1217.78 319.379 1208.12 309.86 1191.95 308.036C1160.2 304.485 1126.35 315.585 1100.07 321.691Z" stroke="#B4A990" stroke-width="1.10578" stroke-miterlimit="10"/>
<path d="M1169.2 344.555C1158.01 345.205 1150.41 353.378 1146.85 357.69C1141.42 364.396 1145.27 371.605 1137.24 378.084C1131.91 382.398 1123.49 385.957 1118.1 390.247C1116.44 391.614 1114.94 393.02 1113.62 394.46C1135.32 394.46 1157.03 394.024 1178.74 394.46C1180.91 392.229 1185.83 390.333 1191.4 390.658C1195.85 390.919 1200.33 391.032 1204.8 390.998C1203.12 389.052 1201.9 387.029 1201.19 384.966C1199.67 380.19 1195.85 378.478 1191.87 374.294C1186.03 368.099 1193.23 360.77 1189.7 354.22C1187.48 350.045 1180.98 343.876 1169.2 344.555Z" stroke="#B4A990" stroke-width="1.10578" stroke-miterlimit="10"/>
</svg>
