<svg width="1440" height="904" viewBox="0 0 1440 904" fill="none" xmlns="http://www.w3.org/2000/svg">
<path d="M200.122 295.873C190.635 321.555 193.149 341.821 153.777 359.455C149.798 361.22 113.626 367.075 103.973 370.121C83.575 376.842 72.2799 389.58 52.9731 396.609C70.69 427.252 122.469 408.719 150.785 401.178C174.31 394.932 205.182 377.801 233.166 377.345C264.412 376.828 289.402 396.818 328.764 393.647C328.792 386.192 326.515 378.772 321.999 371.597C335.123 360.568 361.745 332.799 359.158 325.608C350.149 300.675 241.395 293.297 200.122 295.873Z" stroke="#98A077" stroke-opacity="0.39" stroke-width="1.10578" stroke-miterlimit="10"/>
<path d="M1684.87 23.2278C1915.14 147.182 1901.23 321.69 1873.39 477.498C1803.87 521.113 1789.95 583.441 1748.24 633.288C1731.82 647.32 1717.87 661.908 1706.52 676.916C1650.9 720.549 1553.53 745.495 1497.98 789.096C1456.26 826.492 1428.46 863.888 1376.91 893.497" stroke="#98A077" stroke-opacity="0.39" stroke-width="1.10578" stroke-miterlimit="10"/>
<path d="M1119.54 896.599C1219.94 845.197 1289.53 776.632 1275.56 708.085C1275.56 670.689 1331.14 645.756 1386.75 620.842C1553.61 570.978 1692.73 502.417 1664.82 408.919C1650.91 390.223 1637.01 371.523 1637.01 352.827C1637.01 259.348 1609.23 165.869 1497.99 84.8439C1456.27 47.4616 1358.94 41.2296 1305.46 8.64465" stroke="#98A077" stroke-opacity="0.39" stroke-width="1.10578" stroke-miterlimit="10"/>
<path d="M1172.65 9.99994C1178.23 16.3017 1178.23 22.543 1192.12 28.775C1303.37 97.3543 1456.29 134.718 1484.11 221.965C1498.03 284.294 1484.11 340.391 1400.68 390.237C1345.06 421.402 1289.5 446.334 1261.66 477.498C1164.32 620.838 1025.27 757.889 852.113 887.083" stroke="#98A077" stroke-opacity="0.39" stroke-width="1.10578" stroke-miterlimit="10"/>
<path d="M767.779 883.558C802.828 851.448 844.549 820.283 872.355 789.072C927.979 726.804 914.076 664.475 969.699 602.161C1025.28 558.532 1094.81 527.368 1136.53 483.754C1192.14 415.174 1233.86 340.414 1345.07 290.549C1358.98 240.671 1289.49 197.07 1205.98 159.669C1178.18 147.205 1164.27 128.505 1136.46 116.041C1094.75 84.8765 1066.93 47.4616 1029.6 18.994" stroke="#98A077" stroke-opacity="0.39" stroke-width="1.10578" stroke-miterlimit="10"/>
<path d="M702.959 880.851C719.377 863.888 747.153 851.424 775.001 838.933C830.624 801.536 844.528 757.922 858.431 714.294C872.334 602.114 914.055 489.925 1039.16 390.214C1066.98 359.049 1053.08 321.635 1094.79 290.503C1122.59 278.039 1136.51 265.57 1178.22 259.338C1178.22 165.859 1025.23 103.53 858.431 53.6842C844.528 47.4522 830.624 34.9837 816.867 21.36" stroke="#98A077" stroke-opacity="0.39" stroke-width="1.10578" stroke-miterlimit="10"/>
<path d="M147.823 17.9879C102.165 32.3428 56.714 57.3358 2.65937 64.5132C-47.9246 71.2342 -108.193 64.2757 -159.827 63.1718" stroke="#98A077" stroke-opacity="0.39" stroke-width="1.10578" stroke-miterlimit="10"/>
<path d="M578.39 877.652C644.041 812.393 743.993 747.857 698.127 673.441C676.233 637.889 651.689 606.497 672.056 569.375C688.806 538.891 726.214 511.951 761.98 485.388C798.734 458.127 835.851 430.987 846.055 398.938C857.007 364.406 857.038 332.524 892.815 300.615C923.407 273.186 971.964 243.894 959.682 211.374C949.291 183.805 911.748 153.009 885.23 127.708C853.911 97.8108 813.791 68.6865 751.714 49.7624C675.079 26.3391 591.234 24.3735 503.075 17.1961" stroke="#98A077" stroke-opacity="0.39" stroke-width="1.10578" stroke-miterlimit="10"/>
<path d="M-156.564 845.193C10.3075 807.792 177.137 764.149 371.815 776.613C469.117 757.931 538.644 732.999 552.548 689.371C552.548 645.738 510.827 608.355 524.741 564.727C524.741 552.258 538.644 539.795 552.548 527.331C608.171 496.166 691.602 471.248 663.733 427.62C733.228 396.455 816.732 359.04 830.573 315.445C844.528 259.348 775.053 215.715 788.904 159.637C816.711 109.772 663.795 103.54 580.354 78.5934C469.117 47.4616 330.094 -2.40328 191.071 34.993C121.513 53.6935 93.7067 97.3078 10.2659 103.572C-45.3578 103.572 -100.981 103.572 -151.607 102.273" stroke="#98A077" stroke-opacity="0.39" stroke-width="1.10578" stroke-miterlimit="10"/>
<path d="M-148.303 687.265C-17.5098 651.988 135.375 670.684 274.47 664.405C357.901 658.173 483.062 645.71 483.062 602.095C496.965 545.998 510.868 489.902 636.05 458.751C636.05 421.355 691.674 390.177 747.235 359.026C761.128 346.562 775.052 327.899 775.052 315.412L691.632 147.14L649.923 128.44C552.578 115.976 469.148 91.0433 385.749 66.1388C357.942 59.9022 330.125 53.6702 302.319 59.9022C163.233 97.3451 38.1139 159.651 -147.181 147.857" stroke="#98A077" stroke-opacity="0.39" stroke-width="1.10578" stroke-miterlimit="10"/>
<path d="M-143.305 618.444C24.2106 595.905 191.04 602.142 357.901 577.209C427.397 570.973 427.397 521.052 427.397 489.948C427.397 471.262 483.02 471.262 510.827 458.798C580.396 440.097 580.396 402.701 594.247 371.537C608.161 352.841 663.774 352.841 663.774 334.154C663.774 315.468 677.688 290.526 649.871 271.825C594.247 234.429 622.074 190.815 566.451 153.419C496.924 116.022 371.815 97.3217 274.46 122.254C218.836 140.95 204.933 178.351 135.406 190.829C38.1139 203.297 -73.1231 197.065 -166.217 209.543" stroke="#98A077" stroke-opacity="0.39" stroke-width="1.10578" stroke-miterlimit="10"/>
<path d="M-153.197 544.014C-73.123 539.822 10.2658 539.822 79.8863 533.577C163.285 514.881 260.619 508.644 344.049 483.74C385.77 465.039 413.545 440.107 455.235 421.411C483.062 408.942 510.827 408.942 538.644 396.469C580.354 359.073 538.644 321.69 538.644 284.294C538.644 271.826 566.451 259.362 566.451 246.898C552.547 221.965 552.547 197.061 510.827 178.318C441.3 147.154 343.998 140.922 288.374 178.318C260.567 197.019 232.761 221.933 191.071 234.401C93.7065 265.566 -17.5097 246.856 -128.747 246.856C-142.65 246.856 -142.65 253.097 -162.227 256.833" stroke="#98A077" stroke-opacity="0.39" stroke-width="1.10578" stroke-miterlimit="10"/>
<path d="M-155.639 492.314C65.931 508.663 288.374 465.048 441.3 396.488C455.214 390.256 469.117 377.787 483.02 365.323C510.827 315.486 483.02 265.612 455.214 215.752C427.397 190.833 371.815 190.833 330.094 209.515C288.374 228.197 246.664 246.916 204.944 259.38C121.513 284.313 10.3074 284.313 -87.0471 284.313C-114.854 284.313 -142.66 296.777 -169.698 304.536" stroke="#98A077" stroke-opacity="0.39" stroke-width="1.10578" stroke-miterlimit="10"/>
<path d="M-167.578 450.54C-114.708 452.566 -73.0191 446.348 -17.3746 446.348C24.3458 440.111 24.3458 408.947 -3.46087 396.483C-59.0846 384.005 -114.708 415.17 -174 391.271" stroke="#98A077" stroke-opacity="0.39" stroke-width="1.10578" stroke-miterlimit="10"/>
<path d="M350.7 232.585C341.3 236.378 334.273 241.206 330.312 246.59C326.904 250.782 320.96 257.769 310.995 259.455L317.053 271.644C322.935 273.167 334.864 271.644 342.376 273.078C360.467 276.306 370.36 285.072 390.758 286.167C410.303 287.205 415.582 278.044 417.774 270.927C420.455 261.923 417.536 254.82 405.804 247.582C397.065 242.17 402.406 235.603 393.875 230.605C381.468 223.395 362.327 227.48 350.7 232.585Z" stroke="#98A077" stroke-opacity="0.39" stroke-width="1.10578" stroke-miterlimit="10"/>
<path d="M145.351 315.244C165.208 338.607 60.3511 367.284 -33.7509 371.723C-127.853 376.162 -160.439 352.673 -165.77 343.819C-171.101 334.965 -153.633 323.749 -126.284 318.668C-98.9344 313.586 -75.305 299.953 -32.1922 313.204C10.9205 326.455 20.1686 315.244 48.9936 312.179C77.8186 309.115 93.1974 303.33 105.947 309.133C118.697 314.937 139.324 308.095 145.351 315.244Z" stroke="#98A077" stroke-opacity="0.39" stroke-width="1.10578" stroke-miterlimit="10"/>
<path d="M449.602 806.953C449.602 806.953 347.603 824.876 278.076 815.048C208.549 805.22 173.604 830.074 -0.509896 864.177C-39.1656 871.53 -76.3872 880.313 -111.788 890.437C-58.7937 894.55 -6.69262 899.366 45.7306 904C126.345 898.667 202.127 897.722 276.143 902.603C363.855 895.789 451.753 889.561 540.14 886.604C534.695 878.686 508.967 863.926 524.398 840.493C551.591 799.436 570.836 794.238 530.851 790.763C490.866 787.288 449.602 806.953 449.602 806.953Z" stroke="#98A077" stroke-opacity="0.39" stroke-width="1.10578" stroke-miterlimit="10"/>
</svg>
