<svg width="336" height="319" viewBox="0 0 336 319" fill="none" xmlns="http://www.w3.org/2000/svg">
<path d="M171.018 14.4113C170.026 15.0715 168.861 15.4226 167.669 15.4201C166.074 15.4167 164.545 14.7806 163.418 13.6515C162.292 12.5223 161.659 10.9923 161.659 9.39721C161.659 8.20545 162.012 7.04049 162.675 6.04976C163.337 5.05903 164.278 4.28708 165.38 3.8316C166.481 3.37613 167.693 3.25761 168.861 3.49104C170.03 3.72448 171.103 4.29937 171.945 5.14297C172.787 5.98656 173.359 7.06093 173.59 8.2301C173.821 9.39926 173.7 10.6107 173.242 11.711C172.785 12.8113 172.011 13.751 171.018 14.4113Z" fill="white"/>
<path fill-rule="evenodd" clip-rule="evenodd" d="M176.119 11.4904C175.977 10.2788 175.977 9.05492 176.119 7.84333C176.173 7.44961 176.135 7.04867 176.008 6.67208C175.881 6.29548 175.668 5.9535 175.387 5.67305C174.632 4.84166 174.021 3.89142 173.576 2.86068C173.425 2.50508 173.167 2.20526 172.838 2.00278C172.509 1.80029 172.125 1.70517 171.74 1.73059C170.426 1.71273 169.166 1.20429 168.208 0.305138C168.152 0.212061 168.073 0.135042 167.979 0.0815717C167.884 0.0281015 167.777 0 167.669 0C167.56 0 167.453 0.0281015 167.359 0.0815717C167.264 0.135042 167.185 0.212061 167.129 0.305138C166.22 1.16777 165.03 1.67382 163.778 1.73059C163.356 1.72548 162.943 1.84455 162.589 2.07293C162.235 2.30131 161.956 2.62889 161.787 3.01478C161.353 4.04036 160.72 4.96995 159.925 5.7501C159.68 5.96834 159.491 6.24171 159.372 6.54762C159.254 6.85354 159.21 7.18322 159.245 7.50944C159.391 8.81523 159.391 10.1333 159.245 11.4391C159.189 11.8257 159.223 12.2199 159.343 12.5915C159.464 12.9631 159.667 13.3024 159.938 13.5837C160.606 14.292 161.176 15.0867 161.633 15.9466C161.792 16.2882 162.034 16.5846 162.337 16.8089C162.64 17.0332 162.994 17.1782 163.367 17.2308C164.643 17.2951 165.892 17.6148 167.042 18.17L154.878 39.1519L154.878 39.1647L154.2 40.3059L149.485 31.7678H146.916L152.896 42.4394H152.888V42.5036L152.891 42.5099L146.313 53.5862H148.701L154.114 44.6314L166.512 65.9542L127.521 133.533L127.461 133.373C125.322 125.863 124.411 118.058 124.764 110.257C125.417 91.9314 131.348 74.1836 141.844 59.1467L143.346 56.9251L140.778 57.7084C128.938 61.8715 118.063 68.3762 108.799 76.8296L108.622 76.8043L108.598 77.0131C108.331 77.2587 108.065 77.5058 107.8 77.7546C101.061 84.0259 95.454 91.3816 91.2009 99.495L91.0155 99.5088L91.0294 99.6458L91.0448 99.7942C89.6573 102.468 88.4163 105.223 87.3299 108.049C84.8421 114.525 83.1617 121.41 82.2946 128.661L82.2702 128.673L82.2889 128.709C81.2554 137.389 81.387 146.592 82.694 156.244C83.9278 165.538 87.1706 174.451 92.197 182.365C93.4347 184.295 94.7427 186.175 96.1174 188.002L74 226.207H183.389C184.091 226.256 184.793 226.32 185.493 226.4C185.785 226.4 186.07 226.332 186.327 226.207H261.35L239.185 187.861L237.901 189.646L237.943 189.719L237.94 189.723H237.946L257.857 224.229H187.372C187.333 223.978 187.246 223.738 187.115 223.522C195.632 221.955 203.846 218.903 211.37 214.469C221.751 208.143 230.689 199.708 237.606 189.71C238.793 188.025 239.937 186.311 241.036 184.571C241.285 184.394 241.533 184.215 241.779 184.034L241.551 183.749C247.494 174.175 252.098 163.819 255.225 152.97C257.501 141.053 257.019 128.773 253.815 117.071C250.612 105.37 244.773 94.5562 236.745 85.4598C226.677 74.0048 212.847 64.6687 195.651 57.6827L192.043 56.2188L194.611 59.1852C198.841 64.6561 202.254 70.7122 204.743 77.1639C210.892 92.7248 212.669 109.671 209.88 126.169C209.427 128.849 208.845 131.501 208.137 134.114L168.82 65.9455L181.166 44.5198L186.636 53.5862H189.102L182.463 42.4246L188.421 31.7678H185.853L181.173 40.2571L180.524 39.1647L180.502 39.2043L180.472 39.1519L168.39 18.1625C169.48 17.6422 170.661 17.3385 171.868 17.2693C172.255 17.2075 172.621 17.0556 172.938 16.8258C173.255 16.596 173.513 16.2948 173.692 15.9466C174.157 15.0853 174.735 14.2905 175.412 13.5837C175.679 13.3093 175.88 12.979 176.002 12.6169C176.124 12.2547 176.164 11.8699 176.119 11.4904ZM237.946 189.723H237.965C238.172 189.523 238.42 189.131 238.658 188.752C238.864 188.426 239.063 188.111 239.224 187.938C239.042 188.12 238.823 188.461 238.602 188.806C238.372 189.165 238.14 189.528 237.943 189.719L237.946 189.723ZM174.321 12.5435C173.551 13.3524 172.89 14.2591 172.356 15.2403C172.287 15.3851 172.182 15.5104 172.052 15.6046C171.922 15.6988 171.771 15.759 171.611 15.7796C170.284 15.9114 168.985 16.2448 167.759 16.7684C166.447 16.1926 165.05 15.8327 163.624 15.7026C163.505 15.6835 163.393 15.6363 163.297 15.5647C163.201 15.4932 163.124 15.3995 163.071 15.2916V15.2274C162.551 14.2434 161.904 13.3323 161.145 12.5178C161.006 12.4036 160.896 12.2578 160.824 12.0925C160.753 11.9272 160.722 11.7472 160.734 11.5675C160.9 10.1512 160.9 8.72028 160.734 7.30397C160.725 7.2151 160.738 7.12544 160.772 7.04268C160.806 6.95993 160.859 6.88654 160.927 6.82882C161.87 5.89913 162.624 4.79588 163.148 3.57982C163.201 3.46875 163.285 3.37551 163.39 3.31161C163.495 3.24771 163.616 3.21595 163.739 3.22025C165.179 3.19998 166.573 2.7083 167.707 1.82048C168.895 2.75559 170.37 3.25024 171.881 3.22025C171.952 3.22123 172.02 3.24227 172.08 3.28093C172.139 3.31958 172.186 3.37425 172.215 3.43856C172.729 4.63228 173.441 5.73069 174.321 6.68756C174.441 6.81024 174.531 6.958 174.587 7.12014C174.643 7.28227 174.661 7.45473 174.642 7.62502C174.475 8.96825 174.475 10.327 174.642 11.6702C174.661 11.8308 174.642 11.9935 174.586 12.1453C174.53 12.297 174.439 12.4334 174.321 12.5435ZM250.032 162.608C247.269 169.758 243.83 176.631 239.761 183.134C233.522 187.511 226.481 190.619 219.036 192.279C211.767 193.935 204.218 193.935 196.948 192.279C188.159 190.09 180.017 185.871 173.169 179.976C173.777 179.839 174.385 179.678 174.992 179.494L174.976 179.539C183.071 182.559 191.634 184.133 200.274 184.188C202.737 184.197 205.198 184.064 207.646 183.79C216.281 182.788 224.641 180.124 232.264 175.944C238.851 172.444 244.844 167.942 250.032 162.608ZM170.186 180.464C170.386 180.444 170.586 180.422 170.786 180.396C183.97 191.989 197.102 195.386 207.902 195.386C211.815 195.391 215.716 194.969 219.537 194.128C225.765 192.746 231.717 190.37 237.168 187.101C236.821 187.61 236.471 188.115 236.116 188.619C229.341 198.405 220.592 206.664 210.432 212.864C201.789 217.931 192.235 221.138 182.378 222.339C181.311 222.288 180.243 222.272 179.175 222.29C178.663 222.298 178.257 222.472 177.958 222.741C175.263 222.904 172.553 222.917 169.839 222.778C150.576 222.072 133.663 216.922 119.396 207.445C110.869 201.726 103.4 194.595 97.3017 186.373C103.189 190.016 109.66 192.641 116.442 194.128C120.344 194.983 124.327 195.414 128.321 195.412C132.137 195.414 135.94 194.987 139.661 194.141C149.274 191.794 158.149 187.096 165.489 180.475C167.13 180.633 168.701 180.613 170.186 180.464ZM84.5689 155.936C83.4336 147.49 83.2194 139.398 83.9058 131.714C88.1762 139.328 93.4516 146.34 99.5939 152.559C106.04 159.218 113.564 164.74 121.849 168.894C131.548 173.684 142.224 176.163 153.042 176.136L153.483 176.128C155.105 177.171 156.701 177.999 158.259 178.645C148.856 181.804 138.876 182.919 128.989 181.902C120.648 180.939 112.575 178.361 105.219 174.313C97.5161 170.162 90.6565 164.609 84.9927 157.939L84.8839 158.024C84.7674 157.33 84.6623 156.634 84.5689 155.936ZM85.5619 161.467C87.1489 168.487 89.9319 175.197 93.8022 181.299C94.1264 181.805 94.4556 182.308 94.7896 182.808L94.9965 182.544C101.577 187.227 109.032 190.537 116.918 192.279C124.282 193.935 131.923 193.935 139.288 192.279C148.05 190.124 156.174 185.95 163.016 180.106C162.393 179.98 161.762 179.827 161.122 179.645C153.101 182.599 144.627 184.136 136.078 184.188C133.623 184.189 131.17 184.048 128.732 183.764C120.136 182.768 111.814 180.112 104.23 175.944C97.2311 172.198 90.9215 167.302 85.5619 161.467ZM146.972 170.844C148.247 172.104 149.513 173.217 150.766 174.196C141.037 173.896 131.473 171.514 122.722 167.198C114.633 163.148 107.287 157.76 100.994 151.262C94.3052 144.507 88.6666 136.79 84.2649 128.367C85.1312 121.466 86.7445 114.911 89.0892 108.742C89.8216 106.838 90.6259 104.966 91.4996 103.131C91.7397 104.563 92.0366 105.985 92.3896 107.394C93.9794 113.965 96.3146 120.333 99.3499 126.374C106.142 139.934 119.905 158.565 146.972 170.844ZM177.733 178.51C187.255 181.76 197.376 182.913 207.402 181.877C215.793 180.896 223.916 178.306 231.326 174.249C239.056 170.116 245.96 164.596 251.693 157.965L251.713 157.98C252.327 156.175 252.898 154.355 253.427 152.52C254.942 144.534 255.188 136.384 254.176 128.366C249.595 136.697 243.929 144.388 237.323 151.236C230.732 158.21 223.029 164.042 214.529 168.495C204.778 173.546 193.957 176.18 182.976 176.175H182.36V176.136C180.831 177.071 179.285 177.864 177.733 178.51ZM251.924 117.205C252.665 119.856 253.263 122.538 253.716 125.24L253.697 125.231C248.988 134.288 242.997 142.618 235.911 149.965C229.468 156.776 221.938 162.469 213.63 166.813C204.808 171.371 195.09 173.903 185.184 174.236C186.386 173.352 187.576 172.38 188.747 171.322C215.982 159.03 229.908 139.638 236.835 125.539C239.923 119.221 242.3 112.58 243.924 105.737C244.368 103.941 244.729 102.126 245.005 100.298C247.969 105.619 250.297 111.294 251.924 117.205ZM192.725 167.328C202.234 162.494 210.906 156.143 218.394 148.513C225.179 141.53 230.814 133.516 235.089 124.769C239.384 116.247 242.203 107.06 243.428 97.5977C241.067 93.7373 238.359 90.0822 235.333 86.6797C233.096 84.1626 230.675 81.7484 228.072 79.4403C228.941 89.9939 228.633 100.614 227.152 111.105C225.89 120.775 223.034 130.17 218.702 138.908C213.651 148.627 206.715 155.876 198.083 160.476C197.778 160.926 197.468 161.373 197.154 161.818C195.726 163.799 194.246 165.638 192.725 167.328ZM198.091 60.8162C208.837 65.4815 218.177 71.1208 226.004 77.6603C227.067 88.7301 226.814 99.8877 225.252 110.9C224.024 120.359 221.238 129.549 217.007 138.099C212.77 146.24 207.184 152.57 200.35 156.956C206.02 147.66 209.875 137.352 211.691 126.579C214.537 109.715 212.707 92.3934 206.4 76.4961C204.215 70.9801 201.428 65.7217 198.091 60.8162ZM165.063 178.459C166.776 178.671 168.408 178.672 169.942 178.525C178.828 177.652 187.92 171.295 195.626 160.662C200.799 153.359 204.755 145.295 207.366 136.783L167.63 67.9434L128.424 135.887C134.866 152.362 141.604 162.819 148.066 169.263L148.072 169.266L148.071 169.268C154.066 175.245 159.824 177.767 164.888 178.436L164.972 178.358L165.063 178.459ZM101.096 125.604C107.385 138.097 119.779 155.101 143.535 167.1C141.634 164.834 139.724 162.219 137.816 159.213L137.734 159.378C128.829 154.548 121.648 147.066 117.187 137.97C112.921 129.352 110.146 120.073 108.981 110.527C107.615 100.372 107.39 90.1 108.308 79.9015C102.144 85.7875 96.9848 92.6169 93.0143 100.117C94.2235 109.012 96.957 117.634 101.096 125.604ZM135.946 156.136C128.586 151.526 122.634 144.949 118.78 137.123C114.62 128.699 111.911 119.634 110.766 110.309C109.357 99.576 109.238 88.7142 110.411 77.9551C118.716 70.4944 128.29 64.5715 138.685 60.4694C128.846 75.4534 123.368 92.8784 122.863 110.797C122.731 116.446 123.162 122.094 124.148 127.658C124.534 129.832 125.066 131.977 125.74 134.079C129.064 142.945 132.492 150.209 135.946 156.136ZM77.493 224.229H162.819C146.094 222.647 131.167 217.539 118.369 209.037C110.412 203.721 103.356 197.199 97.444 189.721L77.493 224.229ZM179.74 42.4714L179.744 42.4779H179.74V42.4714ZM179.715 42.4266L179.735 42.4619L178.546 44.584L177.673 46.1122L167.617 63.5515L156.74 44.6353L155.464 42.5164H155.508L155.546 42.4266L156.728 40.2948L167.682 21.3658L178.584 40.2948L179.715 42.4266Z" fill="white"/>
<path d="M59.895 312.885V316.58H58.6504V307.141H62.1313C63.1642 307.141 63.9723 307.405 64.5557 307.932C65.1434 308.46 65.4373 309.157 65.4373 310.026C65.4373 310.942 65.1499 311.649 64.5751 312.146C64.0047 312.638 63.1858 312.885 62.1184 312.885H59.895ZM59.895 311.867H62.1313C62.7968 311.867 63.3068 311.711 63.6611 311.4C64.0155 311.085 64.1927 310.631 64.1927 310.039C64.1927 309.477 64.0155 309.028 63.6611 308.691C63.3068 308.354 62.8206 308.179 62.2026 308.166H59.895V311.867Z" fill="white"/>
<path d="M77.936 312.217H73.8458V315.562H78.5972V316.58H72.6012V307.141H78.5324V308.166H73.8458V311.199H77.936V312.217Z" fill="white"/>
<path d="M90.5645 309.676C90.5645 309.175 90.3808 308.777 90.0135 308.483C89.6505 308.185 89.1384 308.036 88.4772 308.036C87.924 308.036 87.4595 308.189 87.0835 308.496C86.7118 308.799 86.526 309.175 86.526 309.624H85.2814C85.2814 309.123 85.4176 308.673 85.6898 308.276C85.9664 307.878 86.351 307.569 86.8437 307.349C87.3363 307.124 87.8808 307.012 88.4772 307.012C89.5316 307.012 90.3505 307.25 90.9339 307.725C91.5173 308.196 91.809 308.853 91.809 309.695C91.809 310.132 91.6751 310.53 91.4071 310.888C91.1392 311.247 90.7654 311.53 90.2857 311.737C91.3963 312.109 91.9516 312.846 91.9516 313.948C91.9516 314.795 91.6362 315.467 91.0052 315.964C90.3743 316.461 89.5316 316.709 88.4772 316.709C87.8506 316.709 87.2801 316.599 86.7659 316.379C86.2559 316.154 85.8584 315.836 85.5731 315.426C85.2879 315.015 85.1453 314.527 85.1453 313.961H86.3899C86.3899 314.458 86.5865 314.873 86.9798 315.205C87.373 315.534 87.8722 315.698 88.4772 315.698C89.1556 315.698 89.6958 315.54 90.0977 315.225C90.504 314.909 90.7071 314.492 90.7071 313.974C90.7071 312.867 90.0221 312.303 88.6522 312.282H87.4854V311.258H88.6457C89.2766 311.245 89.7542 311.102 90.0783 310.83C90.4024 310.558 90.5645 310.173 90.5645 309.676Z" fill="white"/>
<path d="M105.131 307.141H106.376V316.58H105.131V309.307L100.483 316.58H99.2322V307.141H100.483V314.415L105.131 307.141Z" fill="white"/>
<path d="M122.854 318.894H121.616V316.58H114.842V318.9H113.598L113.591 315.562H114.363C114.769 315.104 115.091 314.49 115.329 313.721C115.571 312.947 115.722 312.1 115.782 311.18L115.99 307.141H121.636V315.562H122.867L122.854 318.894ZM115.782 315.562H120.385V308.166H117.189L117.053 310.94C116.997 312.025 116.852 312.95 116.619 313.714C116.39 314.479 116.111 315.095 115.782 315.562Z" fill="white"/>
<path d="M135.256 312.217H131.166V315.562H135.917V316.58H129.921V307.141H135.852V308.166H131.166V311.199H135.256V312.217Z" fill="white"/>
<path d="M150.296 316.58H149.045V312.217H144.287V316.58H143.042V307.141H144.287V311.199H149.045V307.141H150.296V316.58Z" fill="white"/>
<path d="M158.121 307.141H159.372V315.562H164.026V307.141H165.271V315.536H166.263L166.146 318.855H165.024V316.58H158.121V307.141Z" fill="white"/>
<path d="M179.319 307.141H180.563V316.58H179.319V309.307L174.671 316.58H173.42V307.141H174.671V314.415L179.319 307.141Z" fill="white"/>
<path d="M193.347 316.58V312.904H191.169L189.218 316.58H187.889L190.08 312.561C188.862 312.081 188.252 311.223 188.252 309.987C188.252 309.088 188.546 308.39 189.134 307.893C189.726 307.392 190.547 307.141 191.597 307.141H194.598V316.58H193.347ZM189.497 309.987C189.497 310.558 189.674 311.016 190.028 311.361C190.387 311.707 190.884 311.882 191.519 311.886H193.347V308.166H191.578C190.904 308.166 190.387 308.326 190.028 308.645C189.674 308.965 189.497 309.412 189.497 309.987Z" fill="white"/>
<path d="M217.256 307.141H218.501V316.58H217.256V309.307L212.608 316.58H211.357V307.141H212.608V314.415L217.256 307.141Z" fill="white"/>
<path d="M233.599 307.141V316.58H232.354V308.166H228.97L228.802 311.906C228.737 313.159 228.607 314.101 228.413 314.732C228.223 315.363 227.942 315.828 227.57 316.126C227.199 316.42 226.702 316.571 226.079 316.58H225.671V315.562L225.93 315.549C226.332 315.519 226.641 315.389 226.857 315.16C227.073 314.927 227.237 314.557 227.35 314.052C227.462 313.546 227.542 312.768 227.59 311.718L227.784 307.141H233.599Z" fill="white"/>
<path d="M247.387 307.141H248.632V316.58H247.387V309.307L242.74 316.58H241.489V307.141H242.74V314.415L247.387 307.141Z" fill="white"/>
<path d="M263.419 313.585C263.302 314.583 262.933 315.354 262.311 315.899C261.693 316.439 260.869 316.709 259.841 316.709C258.726 316.709 257.831 316.31 257.157 315.51C256.487 314.711 256.152 313.641 256.152 312.301V311.394C256.152 310.517 256.308 309.745 256.619 309.08C256.935 308.414 257.38 307.904 257.954 307.55C258.529 307.191 259.195 307.012 259.951 307.012C260.954 307.012 261.757 307.293 262.362 307.855C262.967 308.412 263.32 309.186 263.419 310.175H262.168C262.06 309.423 261.824 308.879 261.461 308.542C261.103 308.205 260.599 308.036 259.951 308.036C259.156 308.036 258.531 308.33 258.078 308.918C257.628 309.505 257.403 310.342 257.403 311.426V312.34C257.403 313.364 257.617 314.179 258.045 314.784C258.473 315.389 259.072 315.692 259.841 315.692C260.532 315.692 261.062 315.536 261.429 315.225C261.801 314.909 262.047 314.363 262.168 313.585H263.419Z" fill="white"/>
<path d="M273.941 312.619L276.112 307.141H277.558L274.219 315.004C273.995 315.506 273.785 315.862 273.591 316.074C273.396 316.281 273.167 316.441 272.903 316.554C272.644 316.662 272.318 316.716 271.925 316.716C271.583 316.716 271.365 316.696 271.27 316.657L271.309 315.672L271.899 315.698C272.352 315.698 272.69 315.48 272.91 315.043L273.072 314.706L273.318 314.129L270.103 307.141H271.497L273.941 312.619Z" fill="white"/>
<path d="M20.5991 271.99C20.5991 270.277 20.5602 268.602 20.4823 266.967C20.4303 265.305 20.3654 263.618 20.2876 261.904C20.6251 261.956 20.9496 262.008 21.2611 262.06C21.5726 262.086 21.8842 262.099 22.1957 262.099C22.5072 262.099 22.8188 262.086 23.1303 262.06C23.4418 262.008 23.7664 261.956 24.1038 261.904C24.026 263.618 23.9481 265.305 23.8702 266.967C23.8183 268.602 23.7923 270.277 23.7923 271.99V278.688C23.7923 280.402 23.8183 282.089 23.8702 283.751C23.9481 285.412 24.026 287.048 24.1038 288.657C23.5067 288.605 22.8707 288.58 22.1957 288.58C21.5207 288.58 20.8847 288.605 20.2876 288.657C20.3654 287.048 20.4303 285.412 20.4823 283.751C20.5602 282.089 20.5991 280.402 20.5991 278.688V275.184C19.1972 275.158 17.8342 275.145 16.5102 275.145C15.2121 275.119 13.8622 275.106 12.4603 275.106C11.0584 275.106 9.6954 275.119 8.37138 275.145C7.07332 275.145 5.72334 275.158 4.32144 275.184V278.688C4.32144 280.402 4.3474 282.089 4.39932 283.751C4.4772 285.412 4.55509 287.048 4.63297 288.657C4.03587 288.605 3.39982 288.58 2.72483 288.58C2.04984 288.58 1.41379 288.605 0.816681 288.657C0.894564 287.048 0.959467 285.412 1.01139 283.751C1.08927 282.089 1.12821 280.402 1.12821 278.688V271.99C1.12821 270.277 1.08927 268.602 1.01139 266.967C0.959467 265.305 0.894564 263.618 0.816681 261.904C1.15418 261.956 1.47869 262.008 1.79022 262.06C2.10176 262.086 2.41329 262.099 2.72483 262.099C3.03636 262.099 3.34789 262.086 3.65943 262.06C3.97096 262.008 4.29548 261.956 4.63297 261.904C4.55509 263.618 4.4772 265.305 4.39932 266.967C4.3474 268.602 4.32144 270.277 4.32144 271.99V273.353C5.72334 273.379 7.07332 273.405 8.37138 273.431C9.6954 273.457 11.0584 273.47 12.4603 273.47C13.8622 273.47 15.2121 273.457 16.5102 273.431C17.8342 273.405 19.1972 273.379 20.5991 273.353V271.99Z" fill="white"/>
<path d="M33.7739 271.99C33.7739 270.277 33.7349 268.602 33.6571 266.967C33.6051 265.305 33.5402 263.618 33.4623 261.904C33.7998 261.956 34.1244 262.008 34.4359 262.06C34.7474 262.086 35.059 262.099 35.3705 262.099C35.682 262.099 35.9936 262.086 36.3051 262.06C36.6166 262.008 36.9411 261.956 37.2786 261.904C37.2007 263.618 37.1229 265.305 37.045 266.967C36.9931 268.602 36.9671 270.277 36.9671 271.99V278.688C36.9671 280.402 36.9931 282.089 37.045 283.751C37.1229 285.412 37.2007 287.048 37.2786 288.657C36.6815 288.605 36.0455 288.58 35.3705 288.58C34.6955 288.58 34.0594 288.605 33.4623 288.657C33.5402 287.048 33.6051 285.412 33.6571 283.751C33.7349 282.089 33.7739 280.402 33.7739 278.688V271.99Z" fill="white"/>
<path d="M46.9487 271.99C46.9487 270.277 46.9097 268.602 46.8318 266.967C46.7799 265.305 46.715 263.618 46.6371 261.904C46.9746 261.956 47.2991 262.008 47.6107 262.06C47.9222 262.086 48.2337 262.099 48.5453 262.099C48.8568 262.099 49.1683 262.086 49.4799 262.06C49.7914 262.008 50.1159 261.956 50.4534 261.904C50.3755 263.618 50.2976 265.305 50.2198 266.967C50.1678 268.602 50.1419 270.277 50.1419 271.99C50.1419 275.261 50.1549 278.104 50.1808 280.519C50.2068 282.907 50.2327 285.049 50.2587 286.944C52.1019 286.944 53.8673 286.931 55.5548 286.905C57.2423 286.853 59.0595 286.697 61.0066 286.438C60.8768 286.905 60.8119 287.294 60.8119 287.606C60.8119 287.892 60.8768 288.242 61.0066 288.657C59.8124 288.605 58.6182 288.58 57.424 288.58C56.2298 288.58 55.0356 288.58 53.8413 288.58C52.5952 288.58 51.388 288.58 50.2198 288.58C49.0775 288.58 47.8833 288.605 46.6371 288.657C46.715 287.048 46.7799 285.412 46.8318 283.751C46.9097 282.089 46.9487 280.402 46.9487 278.688V271.99Z" fill="white"/>
<path d="M68.756 271.99C68.756 270.277 68.7171 268.602 68.6392 266.967C68.5873 265.305 68.5224 263.618 68.4445 261.904C68.782 261.956 69.1065 262.008 69.418 262.06C69.7296 262.086 70.0411 262.099 70.3526 262.099C70.6642 262.099 70.9757 262.086 71.2872 262.06C71.5988 262.008 71.9233 261.956 72.2608 261.904C72.1829 263.618 72.105 265.305 72.0271 266.967C71.9752 268.602 71.9493 270.277 71.9493 271.99C71.9493 275.261 71.9622 278.104 71.9882 280.519C72.0142 282.907 72.0401 285.049 72.0661 286.944C73.9093 286.944 75.6747 286.931 77.3622 286.905C79.0496 286.853 80.8669 286.697 82.814 286.438C82.6842 286.905 82.6193 287.294 82.6193 287.606C82.6193 287.892 82.6842 288.242 82.814 288.657C81.6198 288.605 80.4256 288.58 79.2314 288.58C78.0372 288.58 76.8429 288.58 75.6487 288.58C74.4026 288.58 73.1954 288.58 72.0271 288.58C70.8849 288.58 69.6906 288.605 68.4445 288.657C68.5224 287.048 68.5873 285.412 68.6392 283.751C68.7171 282.089 68.756 280.402 68.756 278.688V271.99Z" fill="white"/>
<path d="M92.4016 271.99C92.4016 269.29 92.3626 266.603 92.2848 263.929C91.6098 263.929 90.8958 263.942 90.143 263.968C89.4161 263.968 88.6762 263.994 87.9233 264.046C87.1964 264.072 86.4824 264.111 85.7815 264.163C85.1065 264.215 84.4964 264.28 83.9512 264.358C84.081 263.89 84.1459 263.475 84.1459 263.112C84.1459 262.826 84.081 262.424 83.9512 261.904C85.6647 261.956 87.3392 262.008 88.9747 262.06C90.6103 262.086 92.2848 262.099 93.9982 262.099C95.7116 262.099 97.3861 262.086 99.0217 262.06C100.657 262.008 102.332 261.956 104.045 261.904C103.915 262.424 103.85 262.839 103.85 263.151C103.85 263.488 103.915 263.89 104.045 264.358C103.5 264.28 102.877 264.215 102.176 264.163C101.501 264.111 100.787 264.072 100.034 264.046C99.3073 263.994 98.5674 263.968 97.8145 263.968C97.0876 263.942 96.3866 263.929 95.7116 263.929C95.6338 266.603 95.5948 269.29 95.5948 271.99V278.688C95.5948 280.402 95.6208 282.089 95.6727 283.751C95.7506 285.412 95.8285 287.048 95.9063 288.657C95.3092 288.605 94.6732 288.58 93.9982 288.58C93.3232 288.58 92.6872 288.605 92.0901 288.657C92.1679 287.048 92.2328 285.412 92.2848 283.751C92.3626 282.089 92.4016 280.402 92.4016 278.688V271.99Z" fill="white"/>
<path d="M107.338 275.339C107.338 273.133 107.688 271.173 108.389 269.459C109.116 267.72 110.116 266.253 111.388 265.059C112.686 263.865 114.231 262.956 116.022 262.333C117.813 261.71 119.773 261.398 121.902 261.398C124.057 261.398 126.03 261.71 127.821 262.333C129.613 262.956 131.144 263.865 132.416 265.059C133.714 266.253 134.714 267.72 135.415 269.459C136.142 271.173 136.505 273.133 136.505 275.339C136.505 277.546 136.142 279.519 135.415 281.258C134.714 282.972 133.714 284.426 132.416 285.62C131.144 286.814 129.613 287.71 127.821 288.307C126.03 288.878 124.057 289.164 121.902 289.164C119.773 289.164 117.813 288.878 116.022 288.307C114.231 287.71 112.686 286.814 111.388 285.62C110.116 284.426 109.116 282.972 108.389 281.258C107.688 279.519 107.338 277.546 107.338 275.339ZM132.689 275.339C132.689 273.185 132.416 271.328 131.871 269.771C131.326 268.187 130.56 266.889 129.574 265.876C128.613 264.838 127.471 264.072 126.147 263.579C124.849 263.086 123.434 262.839 121.902 262.839C120.396 262.839 118.981 263.086 117.657 263.579C116.359 264.072 115.217 264.838 114.231 265.876C113.27 266.889 112.517 268.187 111.972 269.771C111.427 271.328 111.154 273.185 111.154 275.339C111.154 277.494 111.427 279.363 111.972 280.947C112.517 282.505 113.27 283.803 114.231 284.841C115.217 285.854 116.359 286.606 117.657 287.1C118.981 287.593 120.396 287.84 121.902 287.84C123.434 287.84 124.849 287.593 126.147 287.1C127.471 286.606 128.613 285.854 129.574 284.841C130.56 283.803 131.326 282.505 131.871 280.947C132.416 279.363 132.689 277.494 132.689 275.339Z" fill="white"/>
<path d="M147.487 274.911C148.37 275.119 149.291 275.223 150.252 275.223C151.057 275.223 151.888 275.132 152.744 274.95C153.601 274.768 154.38 274.444 155.081 273.976C155.808 273.483 156.392 272.821 156.833 271.99C157.3 271.134 157.534 270.043 157.534 268.719C157.534 267.603 157.378 266.694 157.067 265.993C156.755 265.292 156.314 264.747 155.743 264.358C155.198 263.968 154.523 263.709 153.718 263.579C152.913 263.423 152.004 263.345 150.992 263.345H147.487V274.911ZM144.294 271.99C144.294 270.277 144.255 268.602 144.177 266.967C144.125 265.305 144.06 263.618 143.982 261.904C144.605 261.956 145.229 262.008 145.852 262.06C146.501 262.086 147.137 262.099 147.76 262.099C148.071 262.099 148.448 262.086 148.889 262.06C149.33 262.034 149.772 262.021 150.213 262.021C150.68 261.995 151.122 261.969 151.537 261.943C151.952 261.917 152.303 261.904 152.589 261.904C152.978 261.904 153.458 261.917 154.029 261.943C154.6 261.969 155.198 262.047 155.821 262.177C156.47 262.307 157.106 262.502 157.729 262.761C158.352 263.021 158.91 263.397 159.403 263.89C159.923 264.384 160.338 265.007 160.649 265.76C160.961 266.487 161.117 267.395 161.117 268.486C161.117 270.199 160.74 271.588 159.987 272.652C159.261 273.717 158.352 274.548 157.262 275.145C156.197 275.742 155.055 276.144 153.835 276.352C152.64 276.56 151.576 276.663 150.641 276.663C150.044 276.663 149.499 276.663 149.006 276.663C148.513 276.637 148.006 276.598 147.487 276.547V278.688C147.487 280.402 147.513 282.089 147.565 283.751C147.643 285.412 147.721 287.048 147.799 288.657C147.202 288.605 146.566 288.58 145.891 288.58C145.216 288.58 144.579 288.605 143.982 288.657C144.06 287.048 144.125 285.412 144.177 283.751C144.255 282.089 144.294 280.402 144.294 278.688V271.99Z" fill="white"/>
<path d="M200.915 271.99C200.915 270.277 200.876 268.602 200.798 266.967C200.746 265.305 200.681 263.618 200.603 261.904C200.941 261.956 201.265 262.008 201.577 262.06C201.888 262.086 202.2 262.099 202.511 262.099C202.823 262.099 203.134 262.086 203.446 262.06C203.757 262.008 204.082 261.956 204.419 261.904C204.341 263.618 204.264 265.305 204.186 266.967C204.134 268.602 204.108 270.277 204.108 271.99V278.688C204.108 280.402 204.134 282.089 204.186 283.751C204.264 285.412 204.341 287.048 204.419 288.657C203.822 288.605 203.186 288.58 202.511 288.58C201.836 288.58 201.2 288.605 200.603 288.657C200.681 287.048 200.746 285.412 200.798 283.751C200.876 282.089 200.915 280.402 200.915 278.688V275.184C199.513 275.158 198.15 275.145 196.826 275.145C195.528 275.119 194.178 275.106 192.776 275.106C191.374 275.106 190.011 275.119 188.687 275.145C187.389 275.145 186.039 275.158 184.637 275.184V278.688C184.637 280.402 184.663 282.089 184.715 283.751C184.793 285.412 184.871 287.048 184.948 288.657C184.351 288.605 183.715 288.58 183.04 288.58C182.365 288.58 181.729 288.605 181.132 288.657C181.21 287.048 181.275 285.412 181.327 283.751C181.405 282.089 181.444 280.402 181.444 278.688V271.99C181.444 270.277 181.405 268.602 181.327 266.967C181.275 265.305 181.21 263.618 181.132 261.904C181.47 261.956 181.794 262.008 182.106 262.06C182.417 262.086 182.729 262.099 183.04 262.099C183.352 262.099 183.663 262.086 183.975 262.06C184.286 262.008 184.611 261.956 184.948 261.904C184.871 263.618 184.793 265.305 184.715 266.967C184.663 268.602 184.637 270.277 184.637 271.99V273.353C186.039 273.379 187.389 273.405 188.687 273.431C190.011 273.457 191.374 273.47 192.776 273.47C194.178 273.47 195.528 273.457 196.826 273.431C198.15 273.405 199.513 273.379 200.915 273.353V271.99Z" fill="white"/>
<path d="M214.089 271.951C214.089 270.238 214.05 268.55 213.973 266.889C213.921 265.227 213.856 263.566 213.778 261.904C214.946 261.956 216.101 262.008 217.244 262.06C218.412 262.086 219.58 262.099 220.748 262.099C221.917 262.099 223.072 262.086 224.214 262.06C225.357 262.008 226.512 261.956 227.68 261.904C227.602 262.294 227.563 262.683 227.563 263.073C227.563 263.462 227.602 263.852 227.68 264.241C226.849 264.189 226.083 264.137 225.382 264.085C224.708 264.033 223.981 263.981 223.202 263.929C222.449 263.877 221.618 263.839 220.709 263.813C219.801 263.761 218.71 263.735 217.438 263.735C217.412 264.565 217.373 265.357 217.322 266.11C217.296 266.863 217.283 267.72 217.283 268.68C217.283 269.693 217.283 270.679 217.283 271.64C217.309 272.6 217.322 273.327 217.322 273.821C218.464 273.821 219.489 273.808 220.398 273.782C221.307 273.756 222.137 273.73 222.89 273.704C223.643 273.652 224.331 273.613 224.954 273.587C225.603 273.535 226.213 273.483 226.784 273.431C226.707 273.821 226.668 274.223 226.668 274.638C226.668 275.028 226.707 275.417 226.784 275.807C226.109 275.729 225.318 275.664 224.409 275.612C223.526 275.56 222.631 275.534 221.722 275.534C220.839 275.508 219.996 275.495 219.191 275.495C218.412 275.469 217.789 275.456 217.322 275.456C217.322 275.69 217.309 275.949 217.283 276.235C217.283 276.495 217.283 276.832 217.283 277.247V278.766V281.103C217.283 282.583 217.283 283.803 217.283 284.763C217.309 285.724 217.335 286.451 217.36 286.944C218.217 286.944 219.126 286.944 220.086 286.944C221.073 286.944 222.033 286.931 222.968 286.905C223.929 286.853 224.824 286.801 225.655 286.749C226.512 286.671 227.252 286.568 227.875 286.438C227.823 286.619 227.784 286.827 227.758 287.061C227.758 287.268 227.758 287.463 227.758 287.645C227.758 288.06 227.797 288.398 227.875 288.657C226.706 288.605 225.538 288.58 224.37 288.58C223.228 288.58 222.059 288.58 220.865 288.58C219.671 288.58 218.49 288.58 217.322 288.58C216.153 288.58 214.972 288.605 213.778 288.657C213.856 286.996 213.921 285.347 213.973 283.712C214.05 282.05 214.089 280.363 214.089 278.649V271.951Z" fill="white"/>
<path d="M240.141 276.547C240.816 276.547 241.517 276.56 242.244 276.585C242.971 276.611 243.672 276.624 244.347 276.624C245.074 276.624 245.801 276.624 246.528 276.624C247.255 276.598 247.982 276.572 248.709 276.547L244.386 266.655L240.141 276.547ZM257.393 288.657C257.029 288.605 256.679 288.58 256.341 288.58C256.03 288.58 255.692 288.58 255.329 288.58C254.965 288.58 254.615 288.58 254.277 288.58C253.966 288.58 253.628 288.605 253.265 288.657C253.083 288.06 252.836 287.346 252.525 286.516C252.213 285.659 251.863 284.776 251.473 283.868C251.11 282.933 250.734 281.998 250.344 281.064C249.955 280.103 249.591 279.195 249.254 278.338C248.423 278.312 247.579 278.299 246.723 278.299C245.866 278.273 245.009 278.26 244.152 278.26C243.348 278.26 242.556 278.273 241.777 278.299C240.998 278.299 240.206 278.312 239.402 278.338C238.571 280.363 237.818 282.297 237.143 284.14C236.468 285.957 235.962 287.463 235.624 288.657C235.183 288.605 234.703 288.58 234.183 288.58C233.664 288.58 233.184 288.605 232.742 288.657C234.845 284.114 236.896 279.597 238.895 275.106C240.894 270.614 242.906 266.045 244.931 261.398H245.671C246.294 262.904 246.969 264.539 247.696 266.305C248.423 268.044 249.163 269.81 249.916 271.601C250.669 273.392 251.422 275.171 252.174 276.936C252.927 278.701 253.628 280.35 254.277 281.882C254.952 283.387 255.549 284.737 256.069 285.931C256.614 287.126 257.055 288.034 257.393 288.657Z" fill="white"/>
<path d="M269.788 288.657C269.191 287.126 268.464 285.282 267.607 283.128C266.75 280.973 265.829 278.701 264.842 276.313C263.882 273.924 262.882 271.484 261.844 268.992C260.831 266.5 259.858 264.137 258.923 261.904C259.287 261.956 259.637 262.008 259.975 262.06C260.312 262.086 260.637 262.099 260.948 262.099C261.26 262.099 261.584 262.086 261.922 262.06C262.259 262.008 262.61 261.956 262.973 261.904C263.544 263.618 264.167 265.422 264.842 267.317C265.543 269.187 266.27 271.095 267.023 273.042C267.802 274.989 268.594 276.962 269.399 278.961C270.203 280.96 271.021 282.946 271.852 284.919C272.319 283.855 272.825 282.673 273.371 281.375C273.916 280.051 274.461 278.688 275.006 277.286C275.577 275.859 276.135 274.418 276.681 272.964C277.226 271.484 277.745 270.069 278.238 268.719C278.758 267.369 279.225 266.11 279.64 264.942C280.056 263.774 280.406 262.761 280.692 261.904C281.263 262.034 281.743 262.099 282.133 262.099C282.522 262.099 283.002 262.034 283.573 261.904C281.548 266.422 279.601 270.9 277.732 275.339C275.863 279.779 274.072 284.218 272.358 288.657C271.943 288.605 271.514 288.58 271.073 288.58C270.554 288.58 270.125 288.605 269.788 288.657Z" fill="white"/>
<path d="M290.388 271.951C290.388 270.238 290.349 268.55 290.271 266.889C290.219 265.227 290.154 263.566 290.076 261.904C291.245 261.956 292.4 262.008 293.542 262.06C294.71 262.086 295.879 262.099 297.047 262.099C298.215 262.099 299.37 262.086 300.513 262.06C301.655 262.008 302.81 261.956 303.978 261.904C303.901 262.294 303.862 262.683 303.862 263.073C303.862 263.462 303.901 263.852 303.978 264.241C303.148 264.189 302.382 264.137 301.681 264.085C301.006 264.033 300.279 263.981 299.5 263.929C298.747 263.877 297.917 263.839 297.008 263.813C296.099 263.761 295.009 263.735 293.737 263.735C293.711 264.565 293.672 265.357 293.62 266.11C293.594 266.863 293.581 267.72 293.581 268.68C293.581 269.693 293.581 270.679 293.581 271.64C293.607 272.6 293.62 273.327 293.62 273.821C294.762 273.821 295.788 273.808 296.696 273.782C297.605 273.756 298.436 273.73 299.189 273.704C299.942 273.652 300.629 273.613 301.253 273.587C301.902 273.535 302.512 273.483 303.083 273.431C303.005 273.821 302.966 274.223 302.966 274.638C302.966 275.028 303.005 275.417 303.083 275.807C302.408 275.729 301.616 275.664 300.707 275.612C299.825 275.56 298.929 275.534 298.02 275.534C297.138 275.508 296.294 275.495 295.489 275.495C294.71 275.469 294.087 275.456 293.62 275.456C293.62 275.69 293.607 275.949 293.581 276.235C293.581 276.495 293.581 276.832 293.581 277.247V278.766V281.103C293.581 282.583 293.581 283.803 293.581 284.763C293.607 285.724 293.633 286.451 293.659 286.944C294.516 286.944 295.424 286.944 296.385 286.944C297.371 286.944 298.332 286.931 299.267 286.905C300.227 286.853 301.123 286.801 301.954 286.749C302.81 286.671 303.55 286.568 304.173 286.438C304.121 286.619 304.082 286.827 304.056 287.061C304.056 287.268 304.056 287.463 304.056 287.645C304.056 288.06 304.095 288.398 304.173 288.657C303.005 288.605 301.837 288.58 300.668 288.58C299.526 288.58 298.358 288.58 297.164 288.58C295.969 288.58 294.788 288.58 293.62 288.58C292.452 288.58 291.271 288.605 290.076 288.657C290.154 286.996 290.219 285.347 290.271 283.712C290.349 282.05 290.388 280.363 290.388 278.649V271.951Z" fill="white"/>
<path d="M334.119 289.164C331.134 285.711 327.954 282.18 324.579 278.572C321.204 274.937 317.829 271.328 314.454 267.746C314.428 268.473 314.402 269.446 314.376 270.666C314.35 271.887 314.337 273.548 314.337 275.651C314.337 276.196 314.337 276.871 314.337 277.676C314.363 278.481 314.376 279.324 314.376 280.207C314.402 281.09 314.428 281.985 314.454 282.894C314.48 283.803 314.506 284.646 314.532 285.425C314.558 286.204 314.584 286.892 314.61 287.489C314.636 288.06 314.661 288.45 314.687 288.657C314.272 288.605 313.818 288.58 313.324 288.58C312.805 288.58 312.325 288.605 311.884 288.657C311.936 288.398 311.988 287.918 312.039 287.217C312.117 286.516 312.182 285.685 312.234 284.724C312.286 283.738 312.338 282.673 312.39 281.531C312.468 280.389 312.52 279.246 312.546 278.104C312.598 276.962 312.637 275.846 312.663 274.755C312.688 273.665 312.701 272.691 312.701 271.835C312.701 269.342 312.688 267.201 312.663 265.409C312.663 263.618 312.637 262.281 312.585 261.398H313.208C314.791 263.112 316.479 264.955 318.27 266.928C320.087 268.875 321.879 270.809 323.644 272.73C325.435 274.625 327.123 276.43 328.707 278.143C330.316 279.831 331.718 281.271 332.912 282.466V277.17C332.912 274.444 332.886 271.796 332.834 269.225C332.808 266.629 332.73 264.189 332.601 261.904C333.12 262.034 333.561 262.099 333.925 262.099C334.236 262.099 334.652 262.034 335.171 261.904C335.119 262.476 335.054 263.332 334.976 264.475C334.924 265.617 334.859 266.837 334.781 268.135C334.729 269.433 334.678 270.705 334.626 271.951C334.574 273.198 334.548 274.197 334.548 274.95C334.548 275.599 334.548 276.378 334.548 277.286C334.548 278.169 334.548 279.091 334.548 280.051C334.574 281.012 334.587 281.985 334.587 282.972C334.613 283.932 334.626 284.841 334.626 285.698C334.652 286.529 334.665 287.256 334.665 287.879C334.665 288.45 334.665 288.878 334.665 289.164H334.119Z" fill="white"/>
</svg>
