<svg width="155" height="77" viewBox="0 0 155 77" fill="none" xmlns="http://www.w3.org/2000/svg">
<path d="M0.728543 75H0.0495126V69.8506H0.728543V75ZM0 69.0266C0 68.9205 0.0318295 68.8309 0.0954886 68.7578C0.161505 68.6847 0.258173 68.6482 0.385491 68.6482C0.512809 68.6482 0.609477 68.6847 0.675494 68.7578C0.741511 68.8309 0.774519 68.9205 0.774519 69.0266C0.774519 69.1327 0.741511 69.2211 0.675494 69.2919C0.609477 69.3626 0.512809 69.398 0.385491 69.398C0.258173 69.398 0.161505 69.3626 0.0954886 69.2919C0.0318295 69.2211 0 69.1327 0 69.0266Z" fill="#0A524E"/>
<path d="M5.69806 74.4447H8.13832V75H5.01549V69.8506H5.69806V74.4447Z" fill="#0A524E"/>
<path d="M12.6834 75H12.0044V69.8506H12.6834V75ZM11.9549 69.0266C11.9549 68.9205 11.9867 68.8309 12.0504 68.7578C12.1164 68.6847 12.2131 68.6482 12.3404 68.6482C12.4677 68.6482 12.5644 68.6847 12.6304 68.7578C12.6964 68.8309 12.7294 68.9205 12.7294 69.0266C12.7294 69.1327 12.6964 69.2211 12.6304 69.2919C12.5644 69.3626 12.4677 69.398 12.3404 69.398C12.2131 69.398 12.1164 69.3626 12.0504 69.2919C11.9867 69.2211 11.9549 69.1327 11.9549 69.0266Z" fill="#0A524E"/>
<path d="M18.4876 72.7047C17.9052 72.5373 17.4808 72.3322 17.2144 72.0893C16.9503 71.8441 16.8183 71.5423 16.8183 71.1839C16.8183 70.7784 16.9798 70.4436 17.3028 70.1795C17.6282 69.9131 18.0502 69.7799 18.5689 69.7799C18.9226 69.7799 19.2374 69.8483 19.5132 69.985C19.7914 70.1218 20.006 70.3104 20.1569 70.5509C20.3101 70.7914 20.3868 71.0543 20.3868 71.3396H19.7042C19.7042 71.0283 19.6052 70.7843 19.4071 70.6075C19.2091 70.4283 18.9297 70.3387 18.5689 70.3387C18.2341 70.3387 17.9724 70.413 17.7838 70.5615C17.5975 70.7077 17.5044 70.9116 17.5044 71.1733C17.5044 71.3832 17.5928 71.5612 17.7697 71.7074C17.9488 71.8512 18.2518 71.9832 18.6786 72.1035C19.1077 72.2237 19.4425 72.3569 19.683 72.5031C19.9258 72.6469 20.105 72.8155 20.2205 73.0088C20.3384 73.2022 20.3974 73.4297 20.3974 73.6914C20.3974 74.1087 20.2347 74.4435 19.9093 74.6958C19.5839 74.9457 19.1489 75.0707 18.6043 75.0707C18.2506 75.0707 17.9206 75.0035 17.614 74.8691C17.3075 74.7324 17.0706 74.5461 16.9032 74.3103C16.7381 74.0745 16.6556 73.8069 16.6556 73.5075H17.3382C17.3382 73.8187 17.4525 74.0651 17.6812 74.2467C17.9123 74.4258 18.22 74.5154 18.6043 74.5154C18.9627 74.5154 19.2374 74.4423 19.4283 74.2962C19.6193 74.15 19.7148 73.9508 19.7148 73.6985C19.7148 73.4462 19.6264 73.2517 19.4496 73.1149C19.2727 72.9758 18.9521 72.8391 18.4876 72.7047Z" fill="#0A524E"/>
<path d="M27.938 69.8506V73.3519C27.9356 73.8376 27.7824 74.2349 27.4782 74.5437C27.1764 74.8526 26.7662 75.0259 26.2475 75.0636L26.0671 75.0707C25.5036 75.0707 25.0545 74.9186 24.7197 74.6145C24.3849 74.3103 24.2151 73.8918 24.2104 73.359V69.8506H24.8824V73.3377C24.8824 73.7103 24.9849 74.0003 25.19 74.2078C25.3952 74.4129 25.6875 74.5154 26.0671 74.5154C26.4514 74.5154 26.745 74.4129 26.9477 74.2078C27.1529 74.0026 27.2554 73.7138 27.2554 73.3413V69.8506H27.938Z" fill="#0A524E"/>
<path d="M38.4606 72.4359L39.8045 69.8506H40.5755L38.8001 73.0796V75H38.121V73.0796L36.3457 69.8506H37.1237L38.4606 72.4359Z" fill="#0A524E"/>
<path d="M46.7934 73.656H44.6361L44.1515 75H43.4513L45.4177 69.8506H46.0118L47.9817 75H47.285L46.7934 73.656ZM44.8412 73.0973H46.5918L45.7147 70.6888L44.8412 73.0973Z" fill="#0A524E"/>
<path d="M53.2341 72.7047C52.6518 72.5373 52.2274 72.3322 51.961 72.0893C51.6969 71.8441 51.5649 71.5423 51.5649 71.1839C51.5649 70.7784 51.7264 70.4436 52.0494 70.1795C52.3747 69.9131 52.7968 69.7799 53.3155 69.7799C53.6691 69.7799 53.9839 69.8483 54.2598 69.985C54.538 70.1218 54.7525 70.3104 54.9034 70.5509C55.0567 70.7914 55.1333 71.0543 55.1333 71.3396H54.4507C54.4507 71.0283 54.3517 70.7843 54.1537 70.6075C53.9556 70.4283 53.6762 70.3387 53.3155 70.3387C52.9807 70.3387 52.719 70.413 52.5304 70.5615C52.3441 70.7077 52.251 70.9116 52.251 71.1733C52.251 71.3832 52.3394 71.5612 52.5162 71.7074C52.6954 71.8512 52.9984 71.9832 53.4251 72.1035C53.8542 72.2237 54.189 72.3569 54.4295 72.5031C54.6724 72.6469 54.8516 72.8155 54.9671 73.0088C55.085 73.2022 55.1439 73.4297 55.1439 73.6914C55.1439 74.1087 54.9812 74.4435 54.6559 74.6958C54.3305 74.9457 53.8955 75.0707 53.3509 75.0707C52.9972 75.0707 52.6671 75.0035 52.3606 74.8691C52.0541 74.7324 51.8171 74.5461 51.6497 74.3103C51.4847 74.0745 51.4022 73.8069 51.4022 73.5075H52.0847C52.0847 73.8187 52.1991 74.0651 52.4278 74.2467C52.6589 74.4258 52.9665 74.5154 53.3509 74.5154C53.7092 74.5154 53.9839 74.4423 54.1749 74.2962C54.3659 74.15 54.4613 73.9508 54.4613 73.6985C54.4613 73.4462 54.3729 73.2517 54.1961 73.1149C54.0193 72.9758 53.6986 72.8391 53.2341 72.7047ZM53.5949 75L53.5524 75.1839C53.9132 75.2475 54.0935 75.4515 54.0935 75.7957C54.0935 76.0244 53.9992 76.2048 53.8106 76.3368C53.622 76.4712 53.3591 76.5384 53.0219 76.5384L52.9972 76.16C53.1835 76.16 53.3273 76.1293 53.4287 76.068C53.5324 76.0067 53.5843 75.9207 53.5843 75.8098C53.5843 75.7061 53.5465 75.6295 53.4711 75.58C53.3956 75.5304 53.2424 75.4951 53.0113 75.4739L53.1245 75H53.5949Z" fill="#0A524E"/>
<path d="M61.903 73.656H59.7456L59.2611 75H58.5609L60.5272 69.8506H61.1214L63.0913 75H62.3945L61.903 73.656ZM59.9507 73.0973H61.7014L60.8243 70.6888L59.9507 73.0973Z" fill="#0A524E"/>
<path d="M68.0643 72.4359L69.4082 69.8506H70.1792L68.4038 73.0796V75H67.7248V73.0796L65.9494 69.8506H66.7275L68.0643 72.4359Z" fill="#0A524E"/>
<path d="M74.6147 75H73.9357V69.8506H74.6147V75Z" fill="#0A524E"/>
<path d="M80.4188 72.7047C79.8365 72.5373 79.4121 72.3322 79.1457 72.0893C78.8816 71.8441 78.7496 71.5423 78.7496 71.1839C78.7496 70.7784 78.9111 70.4436 79.2341 70.1795C79.5594 69.9131 79.9815 69.7799 80.5002 69.7799C80.8538 69.7799 81.1686 69.8483 81.4445 69.985C81.7227 70.1218 81.9372 70.3104 82.0881 70.5509C82.2414 70.7914 82.318 71.0543 82.318 71.3396H81.6354C81.6354 71.0283 81.5364 70.7843 81.3384 70.6075C81.1403 70.4283 80.8609 70.3387 80.5002 70.3387C80.1654 70.3387 79.9037 70.413 79.7151 70.5615C79.5288 70.7077 79.4357 70.9116 79.4357 71.1733C79.4357 71.3832 79.5241 71.5612 79.7009 71.7074C79.8801 71.8512 80.1831 71.9832 80.6098 72.1035C81.0389 72.2237 81.3737 72.3569 81.6142 72.5031C81.8571 72.6469 82.0363 72.8155 82.1518 73.0088C82.2697 73.2022 82.3286 73.4297 82.3286 73.6914C82.3286 74.1087 82.1659 74.4435 81.8406 74.6958C81.5152 74.9457 81.0802 75.0707 80.5356 75.0707C80.1819 75.0707 79.8518 75.0035 79.5453 74.8691C79.2388 74.7324 79.0018 74.5461 78.8344 74.3103C78.6694 74.0745 78.5869 73.8069 78.5869 73.5075H79.2694C79.2694 73.8187 79.3838 74.0651 79.6125 74.2467C79.8436 74.4258 80.1512 74.5154 80.5356 74.5154C80.8939 74.5154 81.1686 74.4423 81.3596 74.2962C81.5506 74.15 81.646 73.9508 81.646 73.6985C81.646 73.4462 81.5576 73.2517 81.3808 73.1149C81.204 72.9758 80.8833 72.8391 80.4188 72.7047ZM80.7796 75L80.7371 75.1839C81.0979 75.2475 81.2782 75.4515 81.2782 75.7957C81.2782 76.0244 81.1839 76.2048 80.9953 76.3368C80.8067 76.4712 80.5438 76.5384 80.2066 76.5384L80.1819 76.16C80.3682 76.16 80.512 76.1293 80.6134 76.068C80.7171 76.0067 80.769 75.9207 80.769 75.8098C80.769 75.7061 80.7312 75.6295 80.6558 75.58C80.5804 75.5304 80.4271 75.4951 80.196 75.4739L80.3092 75H80.7796Z" fill="#0A524E"/>
<path d="M92.3914 72.6057L91.7619 73.2599V75H91.0829V69.8506H91.7619V72.397L94.0501 69.8506H94.8706L92.8441 72.1247L95.0297 75H94.2163L92.3914 72.6057Z" fill="#0A524E"/>
<path d="M102.514 72.5915C102.514 73.0961 102.429 73.537 102.259 73.9142C102.089 74.2891 101.849 74.5756 101.538 74.7736C101.226 74.9717 100.863 75.0707 100.448 75.0707C100.043 75.0707 99.6833 74.9717 99.3697 74.7736C99.0562 74.5732 98.8121 74.2891 98.6376 73.9213C98.4655 73.5511 98.3771 73.1232 98.3724 72.6375V72.2662C98.3724 71.771 98.4585 71.3337 98.6306 70.9541C98.8027 70.5745 99.0455 70.2845 99.3591 70.0841C99.6751 69.8813 100.036 69.7799 100.441 69.7799C100.854 69.7799 101.217 69.8801 101.531 70.0805C101.847 70.2786 102.089 70.5674 102.259 70.947C102.429 71.3242 102.514 71.764 102.514 72.2662V72.5915ZM101.838 72.2591C101.838 71.6484 101.716 71.1804 101.47 70.855C101.225 70.5273 100.882 70.3635 100.441 70.3635C100.012 70.3635 99.6739 70.5273 99.4263 70.855C99.1811 71.1804 99.055 71.6331 99.0479 72.2131V72.5915C99.0479 73.1833 99.1717 73.649 99.4192 73.9885C99.6692 74.3256 100.012 74.4942 100.448 74.4942C100.887 74.4942 101.226 74.3351 101.467 74.0168C101.707 73.6961 101.831 73.2375 101.838 72.641V72.2591Z" fill="#0A524E"/>
<path d="M107.451 69.8506L109.135 74.0521L110.818 69.8506H111.699V75H111.02V72.9947L111.084 70.8303L109.393 75H108.873L107.186 70.8409L107.253 72.9947V75H106.574V69.8506H107.451Z" fill="#0A524E"/>
<path d="M116.619 72.9841V75H115.94V69.8506H117.839C118.403 69.8506 118.843 69.9945 119.162 70.2821C119.482 70.5698 119.643 70.9505 119.643 71.4244C119.643 71.9243 119.486 72.3098 119.172 72.5809C118.861 72.8497 118.414 72.9841 117.832 72.9841H116.619ZM116.619 72.4288H117.839C118.202 72.4288 118.48 72.344 118.674 72.1742C118.867 72.0021 118.964 71.7545 118.964 71.4315C118.964 71.125 118.867 70.8798 118.674 70.6959C118.48 70.512 118.215 70.4165 117.878 70.4094H116.619V72.4288Z" fill="#0A524E"/>
<path d="M124.234 74.4447H126.674V75H123.551V69.8506H124.234V74.4447Z" fill="#0A524E"/>
<path d="M133.401 72.6198H131.17V74.4447H133.762V75H130.491V69.8506H133.727V70.4094H131.17V72.0646H133.401V72.6198Z" fill="#0A524E"/>
<path d="M138.958 72.6057L138.328 73.2599V75H137.649V69.8506H138.328V72.397L140.617 69.8506H141.437L139.411 72.1247L141.596 75H140.783L138.958 72.6057Z" fill="#0A524E"/>
<path d="M146.75 72.7047C146.167 72.5373 145.743 72.3322 145.476 72.0893C145.212 71.8441 145.08 71.5423 145.08 71.1839C145.08 70.7784 145.242 70.4436 145.565 70.1795C145.89 69.9131 146.312 69.7799 146.831 69.7799C147.185 69.7799 147.499 69.8483 147.775 69.985C148.053 70.1218 148.268 70.3104 148.419 70.5509C148.572 70.7914 148.649 71.0543 148.649 71.3396H147.966C147.966 71.0283 147.867 70.7843 147.669 70.6075C147.471 70.4283 147.192 70.3387 146.831 70.3387C146.496 70.3387 146.234 70.413 146.046 70.5615C145.86 70.7077 145.766 70.9116 145.766 71.1733C145.766 71.3832 145.855 71.5612 146.032 71.7074C146.211 71.8512 146.514 71.9832 146.941 72.1035C147.37 72.2237 147.704 72.3569 147.945 72.5031C148.188 72.6469 148.367 72.8155 148.483 73.0088C148.6 73.2022 148.659 73.4297 148.659 73.6914C148.659 74.1087 148.497 74.4435 148.171 74.6958C147.846 74.9457 147.411 75.0707 146.866 75.0707C146.513 75.0707 146.183 75.0035 145.876 74.8691C145.57 74.7324 145.333 74.5461 145.165 74.3103C145 74.0745 144.918 73.8069 144.918 73.5075H145.6C145.6 73.8187 145.715 74.0651 145.943 74.2467C146.174 74.4258 146.482 74.5154 146.866 74.5154C147.225 74.5154 147.499 74.4423 147.69 74.2962C147.881 74.15 147.977 73.9508 147.977 73.6985C147.977 73.4462 147.888 73.2517 147.712 73.1149C147.535 72.9758 147.214 72.8391 146.75 72.7047Z" fill="#0A524E"/>
<path d="M153.304 75H152.625V69.8506H153.304V75ZM152.575 69.0266C152.575 68.9205 152.607 68.8309 152.67 68.7578C152.736 68.6847 152.833 68.6482 152.96 68.6482C153.088 68.6482 153.184 68.6847 153.25 68.7578C153.316 68.8309 153.35 68.9205 153.35 69.0266C153.35 69.1327 153.316 69.2211 153.25 69.2919C153.184 69.3626 153.088 69.398 152.96 69.398C152.833 69.398 152.736 69.3626 152.67 69.2919C152.607 69.2211 152.575 69.1327 152.575 69.0266Z" fill="#0A524E"/>
<path d="M71.8797 23.0529C70.2832 23.0758 68.7095 23.1214 67.113 23.1214C65.5166 23.1214 63.9429 23.0758 62.3464 23.0529V22.2547C62.3464 20.2933 62.4376 18.3091 62.5288 16.3477C62.1411 16.4161 61.7762 16.4617 61.4113 16.4617C61.0464 16.4617 60.6815 16.4161 60.2938 16.3477C60.385 18.3091 60.4762 20.2933 60.4762 22.2547V26.1775C60.4762 28.1389 60.385 30.1231 60.2938 32.0845C60.6815 32.0161 61.0464 31.9705 61.4113 31.9705C61.7762 31.9705 62.1411 32.0161 62.5288 32.0845C62.4376 30.1231 62.3464 28.1389 62.3464 26.1775V24.1249C63.9429 24.1021 65.5166 24.0793 67.113 24.0793C68.7095 24.0793 70.2832 24.1021 71.8797 24.1249V26.1775C71.8797 28.1389 71.7885 30.1231 71.6972 32.0845C72.085 32.0161 72.4499 31.9705 72.8148 31.9705C73.1797 31.9705 73.5446 32.0161 73.9323 32.0845C73.8411 30.1231 73.7499 28.1389 73.7499 26.1775V22.2547C73.7499 20.2933 73.8411 18.3091 73.9323 16.3477C73.5446 16.4161 73.1797 16.4617 72.8148 16.4617C72.4499 16.4617 72.085 16.4161 71.6972 16.3477C71.7885 18.3091 71.8797 20.2933 71.8797 22.2547V23.0529Z" fill="#0A524E"/>
<path d="M79.5958 26.1775C79.5958 28.1389 79.5045 30.1231 79.4133 32.0845C79.801 32.0161 80.1659 31.9705 80.5308 31.9705C80.8958 31.9705 81.2607 32.0161 81.6484 32.0845C81.5572 30.1231 81.4659 28.1389 81.4659 26.1775V22.2547C81.4659 20.2933 81.5572 18.3091 81.6484 16.3477C81.2607 16.4161 80.8958 16.4617 80.5308 16.4617C80.1659 16.4617 79.801 16.4161 79.4133 16.3477C79.5045 18.3091 79.5958 20.2933 79.5958 22.2547V26.1775Z" fill="#0A524E"/>
<path d="M87.3118 26.1775C87.3118 28.1389 87.2206 30.1231 87.1294 32.0845C88.5434 32.0161 89.9346 31.9705 91.3486 31.9705C92.7399 31.9705 94.1539 32.0161 95.5451 32.0845C95.4767 31.8564 95.4311 31.6284 95.4311 31.4003C95.4311 31.1722 95.4767 30.9442 95.5451 30.7161C93.2644 31.0126 91.3943 31.0126 89.2504 31.0126C89.2276 28.7775 89.182 26.0863 89.182 22.2547C89.182 20.2933 89.2732 18.3091 89.3644 16.3477C88.9767 16.4161 88.6118 16.4617 88.2469 16.4617C87.882 16.4617 87.5171 16.4161 87.1294 16.3477C87.2206 18.3091 87.3118 20.2933 87.3118 22.2547V26.1775Z" fill="#0A524E"/>
<path d="M100.084 26.1775C100.084 28.1389 99.9925 30.1231 99.9013 32.0845C101.315 32.0161 102.707 31.9705 104.121 31.9705C105.512 31.9705 106.926 32.0161 108.317 32.0845C108.249 31.8564 108.203 31.6284 108.203 31.4003C108.203 31.1722 108.249 30.9442 108.317 30.7161C106.036 31.0126 104.166 31.0126 102.022 31.0126C101.999 28.7775 101.954 26.0863 101.954 22.2547C101.954 20.2933 102.045 18.3091 102.136 16.3477C101.749 16.4161 101.384 16.4617 101.019 16.4617C100.654 16.4617 100.289 16.4161 99.9013 16.3477C99.9925 18.3091 100.084 20.2933 100.084 22.2547V26.1775Z" fill="#0A524E"/>
<path d="M113.932 26.1775C113.932 28.1389 113.841 30.1231 113.75 32.0845C114.137 32.0161 114.502 31.9705 114.867 31.9705C115.232 31.9705 115.597 32.0161 115.985 32.0845C115.894 30.1231 115.802 28.1389 115.802 26.1775V22.2547C115.802 20.681 115.825 19.1073 115.871 17.5337C117.444 17.5337 119.474 17.6249 120.751 17.7845C120.683 17.5565 120.637 17.3056 120.637 17.0775C120.637 16.8266 120.683 16.5986 120.751 16.3477C118.79 16.4161 116.829 16.4617 114.867 16.4617C112.906 16.4617 110.944 16.4161 108.983 16.3477C109.051 16.5986 109.097 16.8266 109.097 17.0547C109.097 17.3056 109.051 17.5565 108.983 17.7845C110.26 17.6249 112.29 17.5337 113.864 17.5337C113.909 19.1073 113.932 20.681 113.932 22.2547V26.1775Z" fill="#0A524E"/>
<path d="M137.527 24.2161C137.527 29.2792 134.79 31.5371 131.21 31.5371C127.652 31.5371 124.915 29.2792 124.915 24.2161C124.915 19.153 127.652 16.8951 131.21 16.8951C134.79 16.8951 137.527 19.153 137.527 24.2161ZM122.68 24.2161C122.68 29.3933 126.192 32.381 131.21 32.381C136.25 32.381 139.762 29.3933 139.762 24.2161C139.762 19.0389 136.25 16.0512 131.21 16.0512C126.192 16.0512 122.68 19.0389 122.68 24.2161Z" fill="#0A524E"/>
<path d="M144.324 26.1775C144.324 28.1389 144.233 30.1231 144.141 32.0845C144.529 32.0161 144.894 31.9705 145.259 31.9705C145.624 31.9705 145.989 32.0161 146.376 32.0845C146.285 30.1231 146.194 28.1389 146.194 26.1775V24.9231C146.787 24.9687 147.357 24.9915 148.041 24.9915C150.231 24.9915 154.176 24.2161 154.176 20.2021C154.176 16.3933 150.55 16.3477 149.182 16.3477C148.543 16.3477 147.084 16.4617 146.354 16.4617C145.624 16.4617 144.871 16.4161 144.141 16.3477C144.233 18.3091 144.324 20.2933 144.324 22.2547V26.1775ZM146.194 17.1916H148.247C150.596 17.1916 152.078 17.7389 152.078 20.3389C152.078 23.4407 149.684 24.1477 147.813 24.1477C147.312 24.1477 146.673 24.0793 146.194 23.9652V17.1916Z" fill="#0A524E"/>
<path d="M71.8797 45.8788C70.2832 45.9016 68.7095 45.9472 67.113 45.9472C65.5166 45.9472 63.9429 45.9016 62.3464 45.8788V45.0806C62.3464 43.1192 62.4376 41.135 62.5288 39.1736C62.1411 39.242 61.7762 39.2876 61.4113 39.2876C61.0464 39.2876 60.6815 39.242 60.2938 39.1736C60.385 41.135 60.4762 43.1192 60.4762 45.0806V49.0034C60.4762 50.9648 60.385 52.949 60.2938 54.9104C60.6815 54.8419 61.0464 54.7963 61.4113 54.7963C61.7762 54.7963 62.1411 54.8419 62.5288 54.9104C62.4376 52.949 62.3464 50.9648 62.3464 49.0034V46.9507C63.9429 46.9279 65.5166 46.9051 67.113 46.9051C68.7095 46.9051 70.2832 46.9279 71.8797 46.9507V49.0034C71.8797 50.9648 71.7885 52.949 71.6972 54.9104C72.085 54.8419 72.4499 54.7963 72.8148 54.7963C73.1797 54.7963 73.5446 54.8419 73.9323 54.9104C73.8411 52.949 73.7499 50.9648 73.7499 49.0034V45.0806C73.7499 43.1192 73.8411 41.135 73.9323 39.1736C73.5446 39.242 73.1797 39.2876 72.8148 39.2876C72.4499 39.2876 72.085 39.242 71.6972 39.1736C71.7885 41.135 71.8797 43.1192 71.8797 45.0806V45.8788Z" fill="#0A524E"/>
<path d="M79.5958 48.9806C79.5958 50.942 79.5045 52.9262 79.4133 54.9104C80.8045 54.8419 82.1729 54.7963 83.5642 54.7963C84.9554 54.7963 86.3238 54.8419 87.6694 54.9104C87.6238 54.7051 87.601 54.4542 87.601 54.249C87.601 54.0437 87.6238 53.7472 87.6694 53.5419C86.2326 53.8156 83.5414 53.8384 81.5115 53.8384C81.4887 53.2683 81.4659 52.1507 81.4659 50.4174C81.4659 48.2279 81.4659 47.6578 81.4887 47.1104C82.5835 47.1104 85.4571 47.156 87.0308 47.3156C86.9852 47.0876 86.9624 46.8595 86.9624 46.6314C86.9624 46.4034 86.9852 46.1525 87.0308 45.9244C85.6852 46.0385 84.18 46.1525 81.4887 46.1525C81.4887 45.5823 81.4659 44.3279 81.4659 43.142C81.4659 42.0244 81.5343 41.2262 81.5572 40.2455C84.5221 40.2455 85.6396 40.4051 87.5554 40.542C87.5098 40.3139 87.487 40.0858 87.487 39.8578C87.487 39.6297 87.5098 39.4016 87.5554 39.1736C86.2098 39.242 84.8642 39.2876 83.4957 39.2876C82.1273 39.2876 80.7817 39.242 79.4133 39.1736C79.5045 41.1122 79.5958 43.0964 79.5958 45.0578V48.9806Z" fill="#0A524E"/>
<path d="M97.6589 38.8771C95.3326 44.2595 92.9606 49.5735 90.5203 54.9104C90.8168 54.8419 91.0905 54.7963 91.3641 54.7963C91.6378 54.7963 91.9115 54.8419 92.208 54.9104C92.5957 53.4735 93.4624 51.1472 94.4203 48.7981C95.3554 48.7753 96.2676 48.7525 97.2027 48.7525C98.2062 48.7525 99.2097 48.7753 100.19 48.7981C101.011 50.8279 102.106 53.3367 102.54 54.9104C102.95 54.8419 103.338 54.7963 103.748 54.7963C104.159 54.7963 104.547 54.8419 104.957 54.9104C103.748 52.47 100.327 44.1683 98.0922 38.8771H97.6589ZM99.8711 47.749C99.0273 47.7718 98.1606 47.7946 97.3168 47.7946C96.5185 47.7946 95.6519 47.749 94.8536 47.749L97.3396 41.956L99.8711 47.749Z" fill="#0A524E"/>
<path d="M112.217 54.9104C112.422 54.8419 112.718 54.7963 112.969 54.7963C113.22 54.7963 113.471 54.8419 113.722 54.9104C115.729 49.6648 117.918 44.4192 120.29 39.1736C120.017 39.242 119.72 39.2876 119.446 39.2876C119.173 39.2876 118.876 39.242 118.603 39.1736C117.645 42.1613 115.09 48.9577 113.425 52.6525C111.51 48.0455 109.571 43.2104 108.225 39.1736C107.838 39.242 107.427 39.2876 107.039 39.2876C106.652 39.2876 106.241 39.242 105.854 39.1736C108.066 44.4192 110.848 51.1472 112.217 54.9104Z" fill="#0A524E"/>
<path d="M124.281 48.9806C124.281 50.942 124.19 52.9262 124.099 54.9104C125.49 54.8419 126.859 54.7963 128.25 54.7963C129.641 54.7963 131.009 54.8419 132.355 54.9104C132.309 54.7051 132.287 54.4542 132.287 54.249C132.287 54.0437 132.309 53.7472 132.355 53.5419C130.918 53.8156 128.227 53.8384 126.197 53.8384C126.174 53.2683 126.152 52.1507 126.152 50.4174C126.152 48.2279 126.152 47.6578 126.174 47.1104C127.269 47.1104 130.143 47.156 131.716 47.3156C131.671 47.0876 131.648 46.8595 131.648 46.6314C131.648 46.4034 131.671 46.1525 131.716 45.9244C130.371 46.0385 128.866 46.1525 126.174 46.1525C126.174 45.5823 126.152 44.3279 126.152 43.142C126.152 42.0244 126.22 41.2262 126.243 40.2455C129.208 40.2455 130.325 40.4051 132.241 40.542C132.195 40.3139 132.173 40.0858 132.173 39.8578C132.173 39.6297 132.195 39.4016 132.241 39.1736C130.895 39.242 129.55 39.2876 128.181 39.2876C126.813 39.2876 125.467 39.242 124.099 39.1736C124.19 41.1122 124.281 43.0964 124.281 45.0578V48.9806Z" fill="#0A524E"/>
<path d="M150.213 55.2069C150.19 54.1805 150.144 49.1402 150.144 46.8139C150.144 45.0349 150.373 40.5192 150.509 39.1736C150.258 39.242 150.03 39.2876 149.78 39.2876C149.529 39.2876 149.255 39.242 149.004 39.1736C149.187 42.6858 149.187 47.1332 149.187 51.2156C146.404 48.4104 141.364 42.9139 137.646 38.8771H137.281C137.35 39.9034 137.35 42.1157 137.35 44.9893C137.35 47.9999 137.053 53.8384 136.871 54.9104C137.167 54.8419 137.441 54.7963 137.715 54.7963C137.988 54.7963 138.262 54.8419 138.513 54.9104C138.399 53.9981 138.308 49.1858 138.308 47.2244C138.308 44.8069 138.353 43.4385 138.376 42.5946C142.276 46.7455 146.427 51.1244 149.894 55.2069H150.213Z" fill="#0A524E"/>
<path d="M26.9411 10.3461V10.3635L26.6516 10.8846L26.4374 11.2551L23.9883 15.5019L21.3279 10.8701L21.0384 10.349V10.3317H20.3986V10.349L20.6881 10.8412L23.9883 16.5586L27.274 10.8556L27.5635 10.3722V10.3548H26.9411V10.3461Z" fill="#0A524E"/>
<path d="M27.5779 10.3665H26.9323L26.9236 10.3462L26.6457 9.82511L23.9911 5.21644L21.322 9.82511L21.0354 10.3462L21.0267 10.3665H20.413L20.4246 10.3462L20.7199 9.8338L20.8733 9.55878V9.5472L23.9998 4.15112L27.106 9.5472L27.1987 9.71221L27.2594 9.82511L27.5663 10.3462L27.5779 10.3665Z" fill="#0A524E"/>
<path d="M26.7906 55.0695C27.304 55.0628 27.8174 55.0879 28.3278 55.1447C28.4506 55.1447 28.5684 55.0959 28.6553 55.0091C28.7421 54.9222 28.7909 54.8044 28.7909 54.6815C28.7894 54.5592 28.7402 54.4422 28.6536 54.3557C28.5671 54.2692 28.4501 54.2199 28.3278 54.2184C27.8175 54.1601 27.3041 54.1349 26.7906 54.1431C26.1971 54.1489 26.1855 55.081 26.7906 55.0695Z" fill="#F7F7F7"/>
<path d="M26.9411 10.3635L26.6516 10.8846L26.9411 10.3635Z" fill="#F7F7F7"/>
<path d="M41.0971 46.1965L45.9576 54.6148H2.04498L6.9663 46.1125L6.94025 46.1589C6.94466 46.1408 6.94466 46.1219 6.94025 46.1039C6.83603 45.9649 6.80129 45.8723 6.65076 45.6667L1.17651 55.0983H46.8L41.4155 45.7536L41.0971 46.1965ZM34.0422 32.9987L23.9883 15.5859L14.0848 32.7497L14.0675 32.7787C14.1398 33.0276 14.1485 33.2042 14.2325 33.4647V33.4445L23.9883 16.5672L33.8657 33.6761L34.0422 32.9987ZM41.1058 46.2139C41.1984 46.1212 41.3287 45.8723 41.4213 45.7796C41.3287 45.8723 41.1984 46.1212 41.1058 46.2139Z" fill="#0A524E"/>
<path d="M23.6177 43.869C23.6549 43.8682 23.6902 43.853 23.7162 43.8264C23.7422 43.7999 23.7567 43.7643 23.7567 43.7271C23.7567 43.6888 23.7414 43.6519 23.7143 43.6248C23.6872 43.5976 23.6503 43.5824 23.6119 43.5824C23.5736 43.5824 23.5367 43.5976 23.5096 43.6248C23.4824 43.6519 23.4672 43.6888 23.4672 43.7271C23.4662 43.7468 23.4696 43.7664 23.4769 43.7846C23.4843 43.8028 23.4955 43.8193 23.5098 43.8327C23.5241 43.8462 23.5412 43.8564 23.5598 43.8627C23.5784 43.869 23.5982 43.8711 23.6177 43.869Z" fill="#B4A990"/>
<path d="M23.5632 43.7677C23.534 43.7677 23.5078 43.7852 23.5078 43.8027C23.509 43.8144 23.5128 43.8256 23.5189 43.8357C23.5249 43.8457 23.5331 43.8544 23.5428 43.861L23.5894 43.8785L23.6186 43.7852H23.5807C23.5253 43.7852 23.4961 43.8698 23.5544 43.8785H23.5894C23.6018 43.8812 23.6147 43.8789 23.6254 43.8721C23.6361 43.8652 23.6436 43.8544 23.6463 43.8421C23.649 43.8297 23.6467 43.8167 23.6398 43.8061C23.633 43.7954 23.6222 43.7879 23.6098 43.7852L23.5632 43.7677V43.861C23.6186 43.861 23.6186 43.7677 23.5632 43.7677Z" fill="#B4A990"/>
<path d="M25.2853 54.7423C25.0219 54.7423 24.7556 54.7423 24.4892 54.7278C19.7329 54.5541 15.5151 53.2804 11.9775 50.9152C9.4297 49.2082 7.26157 46.9937 5.60873 44.4104C4.38531 42.4799 3.59517 40.3071 3.29282 38.0417C2.71384 33.7254 3.09017 29.7767 4.42472 26.3058C5.50777 23.5077 7.21118 20.9917 9.40683 18.9469C11.717 16.7796 14.4527 15.1165 17.4402 14.0633L18.0684 13.8751L17.6978 14.4164C15.1408 18.0781 13.6972 22.4011 13.5407 26.8645C13.4481 30.1618 14.1429 32.33 14.195 32.4893C17.7904 42.0713 21.8057 43.7591 24.5384 43.4898C26.7038 43.2727 28.9242 41.7269 30.7914 39.1475C32.5632 36.6444 33.7503 33.7755 34.2653 30.7523C34.9469 26.7337 34.5165 22.6053 33.0205 18.8138C32.4131 17.2405 31.5814 15.7633 30.5511 14.428L29.9345 13.7043L30.803 14.0633C34.989 15.7626 38.3587 18.0379 40.8164 20.8257C42.7711 23.0411 44.1928 25.6744 44.9725 28.524C45.7523 31.3736 45.8695 34.3639 45.3151 37.2658C44.3933 40.4661 42.9443 43.4903 41.0278 46.2139C39.3415 48.6498 37.1642 50.7058 34.6358 52.2498C31.8035 53.9151 28.5708 54.7769 25.2853 54.7423ZM16.9278 14.7378C14.2568 15.7916 11.8085 17.3394 9.71079 19.3001C7.56817 21.2974 5.90717 23.7552 4.85316 26.4881C3.55046 29.8809 3.18281 33.7514 3.7531 37.9867C4.04624 40.1832 4.8127 42.29 5.99954 44.1615C7.61764 46.6899 9.73931 48.8579 12.2322 50.5302C15.7061 52.8461 19.8371 54.0938 24.5066 54.2646C27.9672 54.4405 31.4037 53.6003 34.3927 51.8474C36.8664 50.3392 38.9957 48.3282 40.6427 45.9447C42.5282 43.2693 43.9538 40.2978 44.8606 37.1529C45.4009 34.297 45.2761 31.355 44.4958 28.5551C43.7342 25.7985 42.3473 23.2546 40.443 21.121C38.1908 18.5677 35.1511 16.4515 31.3993 14.8217C32.2141 16.0155 32.8938 17.2962 33.4258 18.6401C34.9609 22.5064 35.4075 26.7195 34.7169 30.8218C34.1944 33.9175 32.9803 36.8554 31.1649 39.4167C29.2166 42.1177 26.8804 43.7301 24.5819 43.9588C21.687 44.2483 17.4575 42.5114 13.7579 32.6687C13.5914 32.1566 13.4617 31.6332 13.3699 31.1026C13.1274 29.7483 13.0217 28.3731 13.0544 26.9976C13.184 22.6309 14.525 18.3863 16.9278 14.7378Z" fill="#B4A990"/>
<path d="M16.6845 38.8262C14.5712 37.7145 12.8835 35.9602 11.6676 33.6154C10.6287 31.518 9.95239 29.2599 9.66724 26.9368C9.29857 24.2106 9.26649 21.4494 9.57171 18.7153L10.032 18.779C9.72903 21.4743 9.7582 24.1966 10.1188 26.8847C10.3993 29.1546 11.0589 31.3612 12.07 33.4127C13.1169 35.5443 14.8029 37.2961 16.8929 38.4238L16.6845 38.8262Z" fill="#B4A990"/>
<path d="M19.0263 41.6486C12.3825 38.661 9.00999 34.0929 7.35122 30.7869C6.61092 29.3131 6.04268 27.7589 5.65771 26.1551C5.49999 25.5242 5.38776 24.8828 5.3219 24.2358L5.78508 24.201C5.78508 24.23 6.01378 27.0959 7.77677 30.5901C9.40081 33.8208 12.6981 38.2905 19.2145 41.2172L19.0263 41.6486Z" fill="#B4A990"/>
<path d="M14.4062 47.5976C13.4324 47.5957 12.4618 47.488 11.5113 47.2763C9.52954 46.8419 7.65769 46.0065 6.01099 44.8214L6.30048 44.4567C7.90474 45.5956 9.72079 46.4017 11.6416 46.8276C13.4344 47.2295 15.294 47.2295 17.0868 46.8276C19.2812 46.3326 21.3858 45.192 23.334 43.4377L23.6438 43.7822C21.6174 45.5857 19.4549 46.7639 17.1679 47.2821C16.2617 47.4885 15.3356 47.5943 14.4062 47.5976Z" fill="#B4A990"/>
<path d="M20.4276 42.9051C17.7933 42.9121 15.1932 42.3087 12.8314 41.1421C10.8136 40.1299 8.98059 38.7853 7.40922 37.1645C5.72022 35.4494 4.30191 33.4874 3.20294 31.3458L3.6256 31.1489C4.70525 33.2491 6.10037 35.1714 7.7624 36.849C9.29362 38.429 11.0796 39.7403 13.0456 40.7281C15.392 41.8861 17.9791 42.4724 20.5955 42.439V42.9022L20.4276 42.9051Z" fill="#B4A990"/>
<path d="M16.2965 44.8649C15.6978 44.8646 15.0996 44.8308 14.5046 44.7636C12.4112 44.5213 10.3848 43.8743 8.53823 42.8588C6.61076 41.8222 4.89832 40.4281 3.49243 38.7509L3.86008 38.4614C5.23796 40.0851 6.90703 41.437 8.7814 42.4477C10.5732 43.4337 12.5396 44.0619 14.5712 44.2975C17.1859 44.5666 19.8274 44.2226 22.2861 43.293L22.4453 43.7272C20.4779 44.4626 18.3968 44.8477 16.2965 44.8649Z" fill="#B4A990"/>
<path d="M31.3675 39.0954L31.1533 38.6843C33.1797 37.619 34.8124 35.9197 36.0022 33.6299C37.0342 31.5486 37.7131 29.3102 38.0113 27.0063C38.3986 24.2797 38.4549 21.5163 38.1792 18.7762L38.6395 18.7183C38.9204 21.4968 38.864 24.2992 38.4716 27.0642C38.1651 29.4199 37.4716 31.7087 36.4191 33.8383C35.183 36.215 33.4836 37.9838 31.3675 39.0954Z" fill="#B4A990"/>
<path d="M29.1008 41.7413L28.9097 41.3186C31.69 40.0908 34.2117 38.3461 36.3409 36.1773C37.9894 34.4737 39.3573 32.5195 40.3938 30.3875C41.4466 28.2938 42.1321 26.0348 42.4202 23.709L42.8834 23.7437C42.8149 24.4207 42.6988 25.0921 42.536 25.7528C42.1374 27.4189 41.5549 29.0354 40.7991 30.5728C39.1432 34.0206 35.7475 38.748 29.1008 41.7413Z" fill="#B4A990"/>
<path d="M27.714 42.9137H27.5664V42.4505H27.7112C30.31 42.4506 32.871 41.8282 35.18 40.6354C37.2024 39.577 39.0356 38.1909 40.605 36.5334C42.3361 34.7457 43.7987 32.7165 44.9473 30.5091L45.3642 30.7059C44.2005 32.9543 42.7164 35.0216 40.9582 36.8431C39.3523 38.5406 37.4761 39.9601 35.4058 41.0436C33.0288 42.2744 30.3908 42.9158 27.714 42.9137Z" fill="#B4A990"/>
<path d="M31.9261 44.865C29.8277 44.8473 27.7487 44.4623 25.7831 43.7273L25.9424 43.2931C28.4048 44.2279 31.0515 44.5749 33.6717 44.3063C35.7146 44.0669 37.6922 43.4359 39.4963 42.4478C41.3793 41.44 43.0588 40.0913 44.4494 38.4702L44.8142 38.7597C43.3882 40.4349 41.6585 41.8257 39.7163 42.8589C37.8606 43.8759 35.8258 44.5247 33.7238 44.7695C33.1268 44.8348 32.5267 44.8667 31.9261 44.865Z" fill="#B4A990"/>
<path d="M33.7874 47.5919C31.1096 47.5919 27.8587 46.7234 24.5759 43.7909L24.8856 43.4377C26.8339 45.1746 28.9385 46.3326 31.1154 46.8276C32.8858 47.2299 34.7238 47.2299 36.4941 46.8276C38.3872 46.4039 40.1733 45.5971 41.7426 44.4567L42.0321 44.8185C40.4171 46.0053 38.5724 46.8424 36.6157 47.2763C35.6872 47.4841 34.7389 47.5899 33.7874 47.5919Z" fill="#B4A990"/>
<path d="M24.1476 43.6173C24.117 43.6114 24.0855 43.6114 24.0549 43.6173C24.0194 43.6256 23.9885 43.6476 23.969 43.6784C23.9495 43.7093 23.9429 43.7466 23.9507 43.7823C23.9554 43.8007 23.9637 43.818 23.9752 43.8331C23.9867 43.8482 24.0011 43.8609 24.0176 43.8703C24.034 43.8798 24.0522 43.8858 24.0711 43.8881C24.0899 43.8904 24.1091 43.8889 24.1273 43.8836H24.1476C24.1842 43.8829 24.2191 43.868 24.245 43.8421C24.2709 43.8162 24.2858 43.7813 24.2865 43.7447C24.2808 43.711 24.2641 43.6802 24.2389 43.6571C24.2137 43.6341 24.1816 43.6201 24.1476 43.6173Z" fill="#B4A990"/>
<path d="M24.5354 43.6173L24.7207 43.6636L24.7033 43.8315L24.6367 43.8691H24.5904C24.6272 43.8781 24.6661 43.8726 24.699 43.8538C24.7318 43.8349 24.7562 43.8041 24.767 43.7678C24.7727 43.7501 24.7745 43.7314 24.7723 43.713C24.7701 43.6945 24.764 43.6767 24.7544 43.6608C24.7449 43.6449 24.732 43.6313 24.7167 43.6208C24.7013 43.6102 24.684 43.6031 24.6657 43.5999C24.637 43.5894 24.606 43.5874 24.5762 43.5941C24.5464 43.6007 24.5192 43.6158 24.4978 43.6375C24.4751 43.6581 24.4608 43.6863 24.4576 43.7167C24.4544 43.7471 24.4625 43.7777 24.4804 43.8025C24.4894 43.8179 24.5013 43.8314 24.5155 43.8421C24.5298 43.8528 24.546 43.8605 24.5633 43.8648C24.5805 43.8691 24.5985 43.87 24.6161 43.8672C24.6337 43.8645 24.6505 43.8582 24.6657 43.8488C24.6815 43.8403 24.6955 43.8288 24.7069 43.8149C24.7182 43.8009 24.7267 43.7849 24.7318 43.7677C24.7369 43.7504 24.7386 43.7324 24.7367 43.7145C24.7347 43.6966 24.7293 43.6793 24.7207 43.6636C24.7127 43.6472 24.7013 43.6327 24.6872 43.6213C24.673 43.6098 24.6565 43.6015 24.6389 43.5971C24.6212 43.5927 24.6028 43.5922 24.5849 43.5957C24.567 43.5992 24.5501 43.6065 24.5354 43.6173Z" fill="#B4A990"/>
<path d="M24.0173 43.3567H24.2112C24.2749 43.3567 24.2662 43.264 24.2112 43.264H24.0173C24.005 43.264 23.9932 43.2689 23.9845 43.2776C23.9758 43.2863 23.9709 43.2981 23.9709 43.3104C23.9709 43.3226 23.9758 43.3344 23.9845 43.3431C23.9932 43.3518 24.005 43.3567 24.0173 43.3567Z" fill="#F7F7F7"/>
<path d="M23.9883 3.77766C24.278 3.77766 24.5612 3.69175 24.8021 3.53079C25.043 3.36983 25.2308 3.14106 25.3416 2.8734C25.4525 2.60574 25.4815 2.31121 25.425 2.02707C25.3685 1.74292 25.229 1.48192 25.0241 1.27706C24.8192 1.0722 24.5582 0.932689 24.2741 0.876169C23.9899 0.819649 23.6954 0.848657 23.4278 0.959526C23.1601 1.07039 22.9313 1.25814 22.7704 1.49903C22.6094 1.73992 22.5235 2.02313 22.5235 2.31284C22.5231 2.50531 22.5607 2.69596 22.6342 2.87385C22.7077 3.05174 22.8156 3.21337 22.9517 3.34947C23.0878 3.48557 23.2494 3.59345 23.4273 3.66693C23.6052 3.74041 23.7958 3.77804 23.9883 3.77766Z" fill="#B4A990"/>
<path d="M26.0466 2.81078C26.0118 2.51555 26.0118 2.21727 26.0466 1.92204C26.0598 1.82611 26.0507 1.72843 26.0201 1.63657C25.9895 1.5447 25.9381 1.46111 25.87 1.39228C25.6832 1.19249 25.5332 0.961183 25.4271 0.709082C25.3922 0.620399 25.3305 0.544829 25.2505 0.492929C25.1706 0.441028 25.0765 0.415389 24.9813 0.419593C24.659 0.416923 24.3493 0.294079 24.1128 0.0751004C24.0996 0.0522615 24.0806 0.0333008 24.0577 0.0201196C24.0349 0.00693846 24.0089 0 23.9825 0C23.9561 0 23.9302 0.00693846 23.9073 0.0201196C23.8845 0.0333008 23.8655 0.0522615 23.8523 0.0751004C23.6288 0.283693 23.3384 0.40583 23.033 0.419593C22.9283 0.418154 22.8256 0.447591 22.7375 0.504226C22.6495 0.56086 22.5801 0.642182 22.538 0.738031C22.4347 0.989456 22.281 1.21705 22.0864 1.40675C22.0267 1.45983 21.9806 1.52642 21.9519 1.60095C21.9232 1.67548 21.9127 1.7558 21.9214 1.8352C21.9572 2.15262 21.9572 2.47308 21.9214 2.79051C21.909 2.88506 21.9179 2.98117 21.9475 3.07183C21.977 3.16249 22.0264 3.2454 22.0922 3.31449C22.254 3.48859 22.3922 3.68326 22.5032 3.89347C22.5423 3.9768 22.6013 4.0492 22.675 4.10425C22.7487 4.1593 22.8349 4.19528 22.9259 4.20901C23.2498 4.22543 23.5665 4.31028 23.8552 4.45797C23.8695 4.4766 23.8879 4.49175 23.909 4.50227C23.93 4.5128 23.9532 4.51844 23.9767 4.51876C24.0202 4.51769 24.0616 4.50009 24.0925 4.46955C24.37 4.32572 24.675 4.24281 24.9871 4.22638C25.0848 4.21388 25.1779 4.17749 25.2582 4.12043C25.3384 4.06338 25.4034 3.98741 25.4473 3.89926C25.5619 3.68908 25.703 3.49449 25.8671 3.32028C25.9332 3.25417 25.9836 3.17408 26.0147 3.08591C26.0458 2.99773 26.0567 2.90372 26.0466 2.81078ZM25.6066 3.06842C25.42 3.26514 25.2594 3.48502 25.1289 3.72267C25.1127 3.75799 25.0877 3.78853 25.0563 3.81136C25.0248 3.83418 24.988 3.8485 24.9494 3.85294C24.6203 3.88392 24.298 3.96596 23.9941 4.09611C23.6745 3.95554 23.3343 3.86756 22.9867 3.83557C22.9578 3.83126 22.9304 3.81971 22.9071 3.802C22.8838 3.78429 22.8654 3.76098 22.8535 3.73425C22.7268 3.49478 22.5681 3.2737 22.3817 3.07711C22.3523 3.04505 22.3306 3.00681 22.3181 2.96522C22.3056 2.92362 22.3025 2.87974 22.3093 2.83683C22.3467 2.49142 22.3467 2.14297 22.3093 1.79756C22.3061 1.77573 22.3084 1.75345 22.316 1.73274C22.3236 1.71202 22.3362 1.69351 22.3527 1.67887C22.5826 1.45196 22.7647 1.18126 22.8883 0.882776C22.9015 0.855965 22.9222 0.833531 22.9479 0.818136C22.9736 0.802742 23.0031 0.795034 23.033 0.795929C23.3792 0.789481 23.7142 0.671736 23.9883 0.460121C24.277 0.688657 24.6363 0.809449 25.0044 0.801719C25.0217 0.802396 25.0385 0.807908 25.0528 0.81763C25.0671 0.827352 25.0785 0.840895 25.0855 0.856722C25.21 1.14809 25.3844 1.41553 25.6008 1.64703C25.629 1.67751 25.6503 1.71372 25.6633 1.75318C25.6763 1.79264 25.6806 1.83444 25.676 1.87572C25.6384 2.20273 25.6384 2.53298 25.676 2.85999C25.6816 2.89775 25.6783 2.93629 25.6662 2.9725C25.6541 3.00871 25.6337 3.04157 25.6066 3.06842Z" fill="#B4A990"/>
<path d="M20.3987 10.3635L18.9338 7.75812H19.5736L21.16 10.653L20.3987 10.3635Z" fill="#0A524E"/>
<path d="M21.1512 10.0944L19.3708 13.0616H18.7919L20.8617 9.54724L21.1512 10.0944Z" fill="#0A524E"/>
<path d="M27.5779 10.3635L29.0427 7.75812H28.4029L26.8165 10.653L27.5779 10.3635Z" fill="#0A524E"/>
<path d="M26.8165 10.0944L28.6056 13.0616H29.1846L27.1031 9.54724L26.8165 10.0944Z" fill="#0A524E"/>
</svg>
