<svg width="154" height="77" viewBox="0 0 154 77" fill="none" xmlns="http://www.w3.org/2000/svg">
<path d="M1.90471 72.6841V75H1.1246V69.0842H3.30647C3.95385 69.0842 4.46038 69.2494 4.82606 69.5799C5.19445 69.9103 5.37864 70.3478 5.37864 70.8923C5.37864 71.4665 5.19851 71.9094 4.83825 72.2209C4.4807 72.5297 3.9674 72.6841 3.29835 72.6841H1.90471ZM1.90471 72.0462H3.30647C3.72361 72.0462 4.04324 71.9487 4.26536 71.7536C4.48747 71.5559 4.59853 71.2715 4.59853 70.9004C4.59853 70.5483 4.48747 70.2665 4.26536 70.0553C4.04324 69.844 3.73851 69.7343 3.35117 69.7262H1.90471V72.0462Z" fill="#0A524E"/>
<path d="M14.2114 72.2656H11.6476V74.3621H14.6259V75H10.8675V69.0842H14.5852V69.7262H11.6476V71.6277H14.2114V72.2656Z" fill="#0A524E"/>
<path d="M23.1255 70.6729C23.1255 70.3586 23.0104 70.1094 22.7801 69.9252C22.5526 69.7383 22.2316 69.6449 21.8172 69.6449C21.4705 69.6449 21.1793 69.7411 20.9436 69.9334C20.7107 70.123 20.5942 70.3586 20.5942 70.6403H19.8141C19.8141 70.3261 19.8994 70.0444 20.0701 69.7952C20.2434 69.546 20.4845 69.3524 20.7933 69.2142C21.1021 69.0734 21.4434 69.0029 21.8172 69.0029C22.4781 69.0029 22.9914 69.1519 23.3571 69.4499C23.7228 69.7451 23.9056 70.1568 23.9056 70.685C23.9056 70.9586 23.8216 71.2078 23.6537 71.4326C23.4857 71.6575 23.2514 71.8349 22.9508 71.9649C23.6469 72.1979 23.995 72.6597 23.995 73.3504C23.995 73.8813 23.7972 74.3025 23.4018 74.614C23.0063 74.9255 22.4781 75.0813 21.8172 75.0813C21.4244 75.0813 21.0669 75.0122 20.7445 74.8741C20.4249 74.7332 20.1757 74.5341 19.9969 74.2768C19.8181 74.0195 19.7288 73.7134 19.7288 73.3585H20.5089C20.5089 73.67 20.6321 73.9301 20.8786 74.1387C21.1251 74.3445 21.438 74.4474 21.8172 74.4474C22.2424 74.4474 22.581 74.3486 22.8329 74.1508C23.0876 73.9531 23.2149 73.6917 23.2149 73.3667C23.2149 72.6732 22.7855 72.3197 21.9269 72.3062H21.1955V71.6642H21.9228C22.3183 71.6561 22.6176 71.5667 22.8207 71.3961C23.0239 71.2254 23.1255 70.9844 23.1255 70.6729Z" fill="#0A524E"/>
<path d="M33.2544 69.0842H34.0345V75H33.2544V70.4413L30.3412 75H29.557V69.0842H30.3412V73.643L33.2544 69.0842Z" fill="#0A524E"/>
<path d="M45.362 76.4505H44.586V75H40.3401V76.4546H39.56L39.5559 74.3621H40.0394C40.294 74.075 40.4958 73.6904 40.6448 73.2082C40.7965 72.7233 40.8913 72.1924 40.9292 71.6155L41.0592 69.0842H44.5982V74.3621H45.3701L45.362 76.4505ZM40.9292 74.3621H43.814V69.7262H41.8109L41.7256 71.4652C41.6903 72.145 41.5996 72.7247 41.4533 73.2041C41.3098 73.6836 41.1351 74.0696 40.9292 74.3621Z" fill="#0A524E"/>
<path d="M54.1339 72.2656H51.5701V74.3621H54.5483V75H50.7899V69.0842H54.5077V69.7262H51.5701V71.6277H54.1339V72.2656Z" fill="#0A524E"/>
<path d="M64.5594 75H63.7752V72.2656H60.7929V75H60.0128V69.0842H60.7929V71.6277H63.7752V69.0842H64.5594V75Z" fill="#0A524E"/>
<path d="M70.4627 69.0842H71.2469V74.3621H74.1641V69.0842H74.9443V74.3459H75.5659L75.4928 76.4262H74.7899V75H70.4627V69.0842Z" fill="#0A524E"/>
<path d="M84.7481 69.0842H85.5282V75H84.7481V70.4413L81.8349 75H81.0507V69.0842H81.8349V73.643L84.7481 69.0842Z" fill="#0A524E"/>
<path d="M94.5398 75V72.6963H93.1746L91.9516 75H91.1187L92.492 72.4809C91.7281 72.1803 91.3462 71.6426 91.3462 70.8679C91.3462 70.3045 91.5304 69.867 91.8988 69.5555C92.2699 69.2413 92.7845 69.0842 93.4428 69.0842H95.324V75H94.5398ZM92.1263 70.8679C92.1263 71.2254 92.2374 71.5126 92.4595 71.7292C92.6843 71.9459 92.9958 72.0556 93.394 72.0584H94.5398V69.7262H93.4306C93.008 69.7262 92.6843 69.8264 92.4595 70.0268C92.2374 70.2273 92.1263 70.5076 92.1263 70.8679Z" fill="#0A524E"/>
<path d="M111.523 69.0842H112.303V75H111.523V70.4413L108.61 75H107.825V69.0842H108.61V73.643L111.523 69.0842Z" fill="#0A524E"/>
<path d="M122.765 69.0842V75H121.985V69.7262H119.864L119.758 72.0705C119.718 72.8561 119.636 73.4466 119.515 73.842C119.395 74.2375 119.219 74.5287 118.986 74.7156C118.753 74.8998 118.442 74.9946 118.052 75H117.796V74.3621L117.958 74.354C118.21 74.335 118.404 74.2538 118.539 74.1102C118.675 73.9639 118.778 73.7323 118.848 73.4154C118.919 73.0985 118.969 72.6109 118.998 71.9527L119.12 69.0842H122.765Z" fill="#0A524E"/>
<path d="M132.406 69.0842H133.186V75H132.406V70.4413L129.493 75H128.709V69.0842H129.493V73.643L132.406 69.0842Z" fill="#0A524E"/>
<path d="M143.453 73.1229C143.38 73.7486 143.149 74.2321 142.759 74.5734C142.371 74.912 141.855 75.0813 141.211 75.0813C140.512 75.0813 139.951 74.8307 139.529 74.3296C139.109 73.8285 138.899 73.1581 138.899 72.3184V71.7496C138.899 71.1997 138.996 70.7162 139.191 70.299C139.389 69.8819 139.668 69.5623 140.028 69.3402C140.389 69.1153 140.806 69.0029 141.28 69.0029C141.908 69.0029 142.412 69.179 142.791 69.5311C143.17 69.8806 143.391 70.3654 143.453 70.9857H142.669C142.602 70.5144 142.454 70.1731 142.226 69.9618C142.002 69.7505 141.686 69.6449 141.28 69.6449C140.781 69.6449 140.39 69.8291 140.105 70.1975C139.824 70.5659 139.683 71.09 139.683 71.7699V72.3428C139.683 72.9847 139.817 73.4953 140.085 73.8746C140.353 74.2538 140.729 74.4434 141.211 74.4434C141.644 74.4434 141.976 74.3459 142.206 74.1508C142.439 73.9531 142.593 73.6105 142.669 73.1229H143.453Z" fill="#0A524E"/>
<path d="M151.047 72.5175L152.408 69.0842H153.314L151.222 74.0127C151.081 74.3269 150.95 74.5504 150.828 74.6831C150.706 74.8131 150.562 74.9133 150.397 74.9838C150.234 75.0515 150.03 75.0853 149.783 75.0853C149.569 75.0853 149.433 75.0732 149.373 75.0488L149.397 74.4312L149.767 74.4474C150.052 74.4474 150.263 74.3107 150.401 74.0371L150.503 73.8258L150.657 73.4642L148.642 69.0842H149.515L151.047 72.5175Z" fill="#0A524E"/>
<path d="M70.7032 23.053C69.1067 23.0758 67.533 23.1214 65.9365 23.1214C64.34 23.1214 62.7664 23.0758 61.1699 23.053V22.2548C61.1699 20.2934 61.2611 18.3092 61.3523 16.3478C60.9646 16.4162 60.5997 16.4618 60.2348 16.4618C59.8699 16.4618 59.505 16.4162 59.1172 16.3478C59.2085 18.3092 59.2997 20.2934 59.2997 22.2548V26.1776C59.2997 28.139 59.2085 30.1232 59.1172 32.0846C59.505 32.0161 59.8699 31.9705 60.2348 31.9705C60.5997 31.9705 60.9646 32.0161 61.3523 32.0846C61.2611 30.1232 61.1699 28.139 61.1699 26.1776V24.1249C62.7664 24.1021 64.34 24.0793 65.9365 24.0793C67.533 24.0793 69.1067 24.1021 70.7032 24.1249V26.1776C70.7032 28.139 70.612 30.1232 70.5207 32.0846C70.9084 32.0161 71.2734 31.9705 71.6383 31.9705C72.0032 31.9705 72.3681 32.0161 72.7558 32.0846C72.6646 30.1232 72.5734 28.139 72.5734 26.1776V22.2548C72.5734 20.2934 72.6646 18.3092 72.7558 16.3478C72.3681 16.4162 72.0032 16.4618 71.6383 16.4618C71.2734 16.4618 70.9084 16.4162 70.5207 16.3478C70.612 18.3092 70.7032 20.2934 70.7032 22.2548V23.053Z" fill="#0A524E"/>
<path d="M78.4192 26.1776C78.4192 28.139 78.328 30.1232 78.2368 32.0846C78.6245 32.0161 78.9894 31.9705 79.3543 31.9705C79.7192 31.9705 80.0842 32.0161 80.4719 32.0846C80.3806 30.1232 80.2894 28.139 80.2894 26.1776V22.2548C80.2894 20.2934 80.3806 18.3092 80.4719 16.3478C80.0842 16.4162 79.7192 16.4618 79.3543 16.4618C78.9894 16.4618 78.6245 16.4162 78.2368 16.3478C78.328 18.3092 78.4192 20.2934 78.4192 22.2548V26.1776Z" fill="#0A524E"/>
<path d="M86.1353 26.1776C86.1353 28.139 86.0441 30.1232 85.9528 32.0846C87.3669 32.0161 88.7581 31.9705 90.1721 31.9705C91.5634 31.9705 92.9774 32.0161 94.3686 32.0846C94.3002 31.8565 94.2546 31.6284 94.2546 31.4004C94.2546 31.1723 94.3002 30.9442 94.3686 30.7161C92.0879 31.0126 90.2177 31.0126 88.0739 31.0126C88.0511 28.7776 88.0055 26.0863 88.0055 22.2548C88.0055 20.2934 88.0967 18.3092 88.1879 16.3478C87.8002 16.4162 87.4353 16.4618 87.0704 16.4618C86.7055 16.4618 86.3406 16.4162 85.9528 16.3478C86.0441 18.3092 86.1353 20.2934 86.1353 22.2548V26.1776Z" fill="#0A524E"/>
<path d="M98.9072 26.1776C98.9072 28.139 98.816 30.1232 98.7247 32.0846C100.139 32.0161 101.53 31.9705 102.944 31.9705C104.335 31.9705 105.749 32.0161 107.141 32.0846C107.072 31.8565 107.026 31.6284 107.026 31.4004C107.026 31.1723 107.072 30.9442 107.141 30.7161C104.86 31.0126 102.99 31.0126 100.846 31.0126C100.823 28.7776 100.777 26.0863 100.777 22.2548C100.777 20.2934 100.869 18.3092 100.96 16.3478C100.572 16.4162 100.207 16.4618 99.8423 16.4618C99.4774 16.4618 99.1125 16.4162 98.7247 16.3478C98.816 18.3092 98.9072 20.2934 98.9072 22.2548V26.1776Z" fill="#0A524E"/>
<path d="M112.756 26.1776C112.756 28.139 112.664 30.1232 112.573 32.0846C112.961 32.0161 113.326 31.9705 113.691 31.9705C114.056 31.9705 114.421 32.0161 114.808 32.0846C114.717 30.1232 114.626 28.139 114.626 26.1776V22.2548C114.626 20.6811 114.649 19.1074 114.694 17.5337C116.268 17.5337 118.298 17.6249 119.575 17.7846C119.507 17.5565 119.461 17.3057 119.461 17.0776C119.461 16.8267 119.507 16.5986 119.575 16.3478C117.614 16.4162 115.652 16.4618 113.691 16.4618C111.729 16.4618 109.768 16.4162 107.807 16.3478C107.875 16.5986 107.921 16.8267 107.921 17.0548C107.921 17.3057 107.875 17.5565 107.807 17.7846C109.084 17.6249 111.114 17.5337 112.687 17.5337C112.733 19.1074 112.756 20.6811 112.756 22.2548V26.1776Z" fill="#0A524E"/>
<path d="M136.351 24.2162C136.351 29.2793 133.614 31.5372 130.033 31.5372C126.475 31.5372 123.738 29.2793 123.738 24.2162C123.738 19.153 126.475 16.8951 130.033 16.8951C133.614 16.8951 136.351 19.153 136.351 24.2162ZM121.503 24.2162C121.503 29.3933 125.016 32.3811 130.033 32.3811C135.074 32.3811 138.586 29.3933 138.586 24.2162C138.586 19.039 135.074 16.0513 130.033 16.0513C125.016 16.0513 121.503 19.039 121.503 24.2162Z" fill="#0A524E"/>
<path d="M143.147 26.1776C143.147 28.139 143.056 30.1232 142.965 32.0846C143.353 32.0161 143.718 31.9705 144.082 31.9705C144.447 31.9705 144.812 32.0161 145.2 32.0846C145.109 30.1232 145.018 28.139 145.018 26.1776V24.9232C145.611 24.9688 146.181 24.9916 146.865 24.9916C149.054 24.9916 153 24.2162 153 20.2021C153 16.3934 149.374 16.3478 148.005 16.3478C147.367 16.3478 145.907 16.4618 145.177 16.4618C144.447 16.4618 143.695 16.4162 142.965 16.3478C143.056 18.3092 143.147 20.2934 143.147 22.2548V26.1776ZM145.018 17.1916H147.07C149.419 17.1916 150.902 17.739 150.902 20.339C150.902 23.4407 148.507 24.1477 146.637 24.1477C146.135 24.1477 145.496 24.0793 145.018 23.9653V17.1916Z" fill="#0A524E"/>
<path d="M70.7032 45.8789C69.1067 45.9017 67.533 45.9473 65.9365 45.9473C64.34 45.9473 62.7664 45.9017 61.1699 45.8789V45.0806C61.1699 43.1192 61.2611 41.135 61.3523 39.1736C60.9646 39.242 60.5997 39.2877 60.2348 39.2877C59.8699 39.2877 59.505 39.242 59.1172 39.1736C59.2085 41.135 59.2997 43.1192 59.2997 45.0806V49.0034C59.2997 50.9648 59.2085 52.949 59.1172 54.9104C59.505 54.842 59.8699 54.7964 60.2348 54.7964C60.5997 54.7964 60.9646 54.842 61.3523 54.9104C61.2611 52.949 61.1699 50.9648 61.1699 49.0034V46.9508C62.7664 46.928 64.34 46.9052 65.9365 46.9052C67.533 46.9052 69.1067 46.928 70.7032 46.9508V49.0034C70.7032 50.9648 70.612 52.949 70.5207 54.9104C70.9084 54.842 71.2734 54.7964 71.6383 54.7964C72.0032 54.7964 72.3681 54.842 72.7558 54.9104C72.6646 52.949 72.5734 50.9648 72.5734 49.0034V45.0806C72.5734 43.1192 72.6646 41.135 72.7558 39.1736C72.3681 39.242 72.0032 39.2877 71.6383 39.2877C71.2734 39.2877 70.9084 39.242 70.5207 39.1736C70.612 41.135 70.7032 43.1192 70.7032 45.0806V45.8789Z" fill="#0A524E"/>
<path d="M78.4192 48.9806C78.4192 50.942 78.328 52.9262 78.2368 54.9104C79.628 54.842 80.9964 54.7964 82.3877 54.7964C83.7789 54.7964 85.1473 54.842 86.4929 54.9104C86.4473 54.7052 86.4245 54.4543 86.4245 54.249C86.4245 54.0438 86.4473 53.7473 86.4929 53.542C85.0561 53.8157 82.3648 53.8385 80.335 53.8385C80.3122 53.2683 80.2894 52.1508 80.2894 50.4175C80.2894 48.228 80.2894 47.6578 80.3122 47.1104C81.407 47.1104 84.2806 47.1561 85.8543 47.3157C85.8087 47.0876 85.7859 46.8596 85.7859 46.6315C85.7859 46.4034 85.8087 46.1526 85.8543 45.9245C84.5087 46.0385 83.0034 46.1526 80.3122 46.1526C80.3122 45.5824 80.2894 44.328 80.2894 43.142C80.2894 42.0245 80.3578 41.2262 80.3806 40.2456C83.3455 40.2456 84.4631 40.4052 86.3789 40.542C86.3333 40.314 86.3104 40.0859 86.3104 39.8578C86.3104 39.6298 86.3333 39.4017 86.3789 39.1736C85.0333 39.242 83.6877 39.2877 82.3192 39.2877C80.9508 39.2877 79.6052 39.242 78.2368 39.1736C78.328 41.1122 78.4192 43.0964 78.4192 45.0578V48.9806Z" fill="#0A524E"/>
<path d="M96.4824 38.8771C94.156 44.2596 91.7841 49.5736 89.3438 54.9104C89.6403 54.842 89.9139 54.7964 90.1876 54.7964C90.4613 54.7964 90.735 54.842 91.0315 54.9104C91.4192 53.4736 92.2859 51.1473 93.2438 48.7982C94.1788 48.7754 95.0911 48.7525 96.0262 48.7525C97.0297 48.7525 98.0332 48.7754 99.0139 48.7982C99.835 50.828 100.93 53.3367 101.363 54.9104C101.774 54.842 102.161 54.7964 102.572 54.7964C102.982 54.7964 103.37 54.842 103.781 54.9104C102.572 52.4701 99.1508 44.1683 96.9157 38.8771H96.4824ZM98.6946 47.749C97.8508 47.7718 96.9841 47.7947 96.1402 47.7947C95.342 47.7947 94.4753 47.749 93.6771 47.749L96.1631 41.9561L98.6946 47.749Z" fill="#0A524E"/>
<path d="M111.04 54.9104C111.245 54.842 111.542 54.7964 111.793 54.7964C112.044 54.7964 112.295 54.842 112.545 54.9104C114.552 49.6648 116.742 44.4192 119.114 39.1736C118.84 39.242 118.544 39.2877 118.27 39.2877C117.996 39.2877 117.7 39.242 117.426 39.1736C116.468 42.1613 113.914 48.9578 112.249 52.6525C110.333 48.0455 108.395 43.2105 107.049 39.1736C106.661 39.242 106.251 39.2877 105.863 39.2877C105.475 39.2877 105.065 39.242 104.677 39.1736C106.889 44.4192 109.672 51.1473 111.04 54.9104Z" fill="#0A524E"/>
<path d="M123.105 48.9806C123.105 50.942 123.014 52.9262 122.922 54.9104C124.314 54.842 125.682 54.7964 127.073 54.7964C128.464 54.7964 129.833 54.842 131.179 54.9104C131.133 54.7052 131.11 54.4543 131.11 54.249C131.11 54.0438 131.133 53.7473 131.179 53.542C129.742 53.8157 127.05 53.8385 125.021 53.8385C124.998 53.2683 124.975 52.1508 124.975 50.4175C124.975 48.228 124.975 47.6578 124.998 47.1104C126.093 47.1104 128.966 47.1561 130.54 47.3157C130.494 47.0876 130.471 46.8596 130.471 46.6315C130.471 46.4034 130.494 46.1526 130.54 45.9245C129.194 46.0385 127.689 46.1526 124.998 46.1526C124.998 45.5824 124.975 44.328 124.975 43.142C124.975 42.0245 125.043 41.2262 125.066 40.2456C128.031 40.2456 129.149 40.4052 131.064 40.542C131.019 40.314 130.996 40.0859 130.996 39.8578C130.996 39.6298 131.019 39.4017 131.064 39.1736C129.719 39.242 128.373 39.2877 127.005 39.2877C125.636 39.2877 124.291 39.242 122.922 39.1736C123.014 41.1122 123.105 43.0964 123.105 45.0578V48.9806Z" fill="#0A524E"/>
<path d="M149.036 55.2069C149.014 54.1806 148.968 49.1403 148.968 46.814C148.968 45.035 149.196 40.5192 149.333 39.1736C149.082 39.242 148.854 39.2877 148.603 39.2877C148.352 39.2877 148.078 39.242 147.828 39.1736C148.01 42.6859 148.01 47.1333 148.01 51.2157C145.228 48.4104 140.187 42.914 136.47 38.8771H136.105C136.173 39.9034 136.173 42.1157 136.173 44.9894C136.173 47.9999 135.877 53.8385 135.694 54.9104C135.991 54.842 136.264 54.7964 136.538 54.7964C136.812 54.7964 137.086 54.842 137.336 54.9104C137.222 53.9981 137.131 49.1859 137.131 47.2245C137.131 44.8069 137.177 43.4385 137.2 42.5947C141.1 46.7455 145.25 51.1245 148.717 55.2069H149.036Z" fill="#0A524E"/>
<path d="M25.7646 10.3462V10.3636L25.4751 10.8847L25.2609 11.2552L22.8118 15.502L20.1514 10.8702L19.8619 10.3491V10.3317H19.2221V10.3491L19.5116 10.8412L22.8118 16.5586L26.0975 10.8557L26.387 10.3723V10.3549H25.7646V10.3462Z" fill="#0A524E"/>
<path d="M26.4014 10.3665H25.7558L25.7471 10.3463L25.4692 9.82518L22.8146 5.2165L20.1455 9.82518L19.8589 10.3463L19.8502 10.3665H19.2365L19.2481 10.3463L19.5434 9.83386L19.6968 9.55885V9.54727L22.8233 4.15118L25.9295 9.54727L26.0221 9.71228L26.0829 9.82518L26.3898 10.3463L26.4014 10.3665Z" fill="#0A524E"/>
<path d="M25.6141 55.0695C26.1275 55.0628 26.6409 55.088 27.1512 55.1448C27.2741 55.1448 27.3919 55.096 27.4788 55.0091C27.5656 54.9223 27.6144 54.8045 27.6144 54.6816C27.6129 54.5592 27.5636 54.4423 27.4771 54.3558C27.3906 54.2692 27.2736 54.2199 27.1512 54.2184C26.641 54.1602 26.1275 54.135 25.6141 54.1432C25.0206 54.1489 25.009 55.0811 25.6141 55.0695Z" fill="#F7F7F7"/>
<path d="M25.7646 10.3636L25.4751 10.8847L25.7646 10.3636Z" fill="#F7F7F7"/>
<path d="M39.9206 46.1965L44.7811 54.6149H0.868468L5.78979 46.1126L5.76373 46.1589C5.76815 46.1408 5.76815 46.122 5.76373 46.1039C5.65952 45.965 5.62478 45.8723 5.47424 45.6668L0 55.0983H45.6235L40.239 45.7536L39.9206 46.1965ZM32.8657 32.9987L22.8118 15.5859L12.9083 32.7498L12.891 32.7787C12.9633 33.0277 12.972 33.2043 13.056 33.4648V33.4445L22.8118 16.5673L32.6891 33.6761L32.8657 32.9987ZM39.9293 46.2139C40.0219 46.1213 40.1522 45.8723 40.2448 45.7797C40.1522 45.8723 40.0219 46.1213 39.9293 46.2139Z" fill="#0A524E"/>
<path d="M22.4412 43.8691C22.4783 43.8683 22.5137 43.853 22.5397 43.8265C22.5656 43.8 22.5802 43.7643 22.5802 43.7272C22.5802 43.6888 22.5649 43.652 22.5378 43.6249C22.5106 43.5977 22.4738 43.5825 22.4354 43.5825C22.397 43.5825 22.3602 43.5977 22.3331 43.6249C22.3059 43.652 22.2907 43.6888 22.2907 43.7272C22.2897 43.7468 22.2931 43.7664 22.3004 43.7847C22.3078 43.8029 22.319 43.8193 22.3333 43.8328C22.3476 43.8463 22.3646 43.8565 22.3833 43.8628C22.4019 43.869 22.4217 43.8712 22.4412 43.8691Z" fill="#B4A990"/>
<path d="M22.3867 43.7678C22.3575 43.7678 22.3312 43.7853 22.3312 43.8028C22.3325 43.8144 22.3363 43.8257 22.3424 43.8357C22.3484 43.8458 22.3566 43.8545 22.3662 43.8611L22.4129 43.8786L22.4421 43.7853H22.4042C22.3487 43.7853 22.3196 43.8698 22.3779 43.8786H22.4129C22.4253 43.8813 22.4382 43.879 22.4489 43.8721C22.4596 43.8653 22.4671 43.8545 22.4698 43.8421C22.4725 43.8298 22.4702 43.8168 22.4633 43.8061C22.4565 43.7955 22.4457 43.788 22.4333 43.7853L22.3867 43.7678V43.8611C22.4421 43.8611 22.4421 43.7678 22.3867 43.7678Z" fill="#B4A990"/>
<path d="M24.1088 54.7424C23.8454 54.7424 23.579 54.7424 23.3127 54.7279C18.5564 54.5542 14.3385 53.2804 10.801 50.9153C8.25319 49.2082 6.08506 46.9938 4.43222 44.4105C3.20879 42.48 2.41866 40.3071 2.1163 38.0417C1.53732 33.7254 1.91366 29.7768 3.24821 26.3058C4.33126 23.5078 6.03467 20.9918 8.23032 18.947C10.5405 16.7797 13.2762 15.1165 16.2636 14.0633L16.8918 13.8751L16.5213 14.4165C13.9643 18.0782 12.5207 22.4011 12.3642 26.8645C12.2716 30.1618 12.9664 32.3301 13.0185 32.4893C16.6139 42.0714 20.6291 43.7591 23.3619 43.4899C25.5273 43.2728 27.7477 41.7269 29.6149 39.1476C31.3867 36.6445 32.5738 33.7755 33.0888 30.7524C33.7704 26.7338 33.34 22.6053 31.844 18.8138C31.2366 17.2405 30.4048 15.7633 29.3746 14.4281L28.758 13.7043L29.6265 14.0633C33.8125 15.7626 37.1821 18.038 39.6399 20.8258C41.5946 23.0411 43.0162 25.6744 43.796 28.5241C44.5758 31.3737 44.693 34.364 44.1386 37.2659C43.2168 40.4662 41.7678 43.4904 39.8512 46.214C38.165 48.6498 35.9877 50.7058 33.4593 52.2499C30.627 53.9152 27.3943 54.7769 24.1088 54.7424ZM15.7513 14.7378C13.0803 15.7917 10.632 17.3395 8.53428 19.3002C6.39165 21.2974 4.73066 23.7553 3.67665 26.4882C2.37395 29.881 2.0063 33.7515 2.57659 37.9867C2.86972 40.1833 3.63618 42.2901 4.82303 44.1615C6.44113 46.69 8.56279 48.858 11.0557 50.5303C14.5296 52.8462 18.6606 54.0939 23.3301 54.2647C26.7907 54.4406 30.2272 53.6004 33.2161 51.8475C35.6899 50.3393 37.8192 48.3283 39.4662 45.9448C41.3517 43.2694 42.7773 40.2979 43.6841 37.153C44.2244 34.2971 44.0996 31.355 43.3193 28.5551C42.5577 25.7986 41.1708 23.2547 39.2665 21.1211C37.0142 18.5678 33.9746 16.4516 30.2228 14.8218C31.0376 16.0156 31.7173 17.2962 32.2493 18.6401C33.7844 22.5065 34.2309 26.7196 33.5404 30.8219C33.0179 33.9175 31.8038 36.8555 29.9883 39.4168C28.0401 42.1177 25.7039 43.7302 23.4053 43.9589C20.5105 44.2484 16.281 42.5114 12.5813 32.6688C12.4149 32.1567 12.2852 31.6333 12.1934 31.1027C11.9509 29.7484 11.8452 28.3731 11.8779 26.9977C12.0075 22.631 13.3485 18.3863 15.7513 14.7378Z" fill="#B4A990"/>
<path d="M15.5079 38.8262C13.3947 37.7146 11.707 35.9603 10.4911 33.6154C9.45223 31.5181 8.77588 29.26 8.49072 26.9369C8.12206 24.2107 8.08998 21.4495 8.39519 18.7154L8.85548 18.7791C8.55252 21.4744 8.58169 24.1966 8.94233 26.8848C9.22282 29.1546 9.88237 31.3613 10.8935 33.4128C11.9404 35.5444 13.6264 37.2961 15.7164 38.4238L15.5079 38.8262Z" fill="#B4A990"/>
<path d="M17.8498 41.6486C11.206 38.6611 7.83348 34.093 6.17471 30.787C5.43441 29.3131 4.86617 27.759 4.48119 26.1552C4.32347 25.5243 4.21125 24.8828 4.14539 24.2358L4.60857 24.2011C4.60857 24.2301 4.83727 27.096 6.60026 30.5901C8.22429 33.8208 11.5216 38.2906 18.038 41.2173L17.8498 41.6486Z" fill="#B4A990"/>
<path d="M13.2297 47.5977C12.2559 47.5958 11.2852 47.488 10.3348 47.2764C8.35303 46.842 6.48118 46.0066 4.83447 44.8215L5.12396 44.4567C6.72822 45.5956 8.54428 46.4018 10.465 46.8277C12.2579 47.2295 14.1175 47.2295 15.9103 46.8277C18.1047 46.3326 20.2093 45.192 22.1575 43.4377L22.4673 43.7822C20.4408 45.5858 18.2784 46.764 15.9914 47.2822C15.0852 47.4886 14.159 47.5944 13.2297 47.5977Z" fill="#B4A990"/>
<path d="M19.251 42.9052C16.6168 42.9122 14.0167 42.3087 11.6548 41.1422C9.63706 40.13 7.80407 38.7853 6.23271 37.1646C4.5437 35.4495 3.12539 33.4875 2.02643 31.3458L2.44908 31.149C3.52873 33.2492 4.92386 35.1715 6.58589 36.849C8.11711 38.429 9.90306 39.7404 11.8691 40.7282C14.2155 41.8862 16.8026 42.4724 19.419 42.4391V42.9023L19.251 42.9052Z" fill="#B4A990"/>
<path d="M15.12 44.865C14.5213 44.8647 13.9231 44.8309 13.3281 44.7637C11.2347 44.5214 9.20828 43.8744 7.36172 42.8588C5.43425 41.8223 3.72181 40.4282 2.31592 38.751L2.68357 38.4615C4.06145 40.0851 5.73052 41.4371 7.60489 42.4478C9.39671 43.4337 11.3631 44.062 13.3947 44.2976C16.0094 44.5666 18.6509 44.2227 21.1096 43.2931L21.2688 43.7273C19.3014 44.4627 17.2203 44.8477 15.12 44.865Z" fill="#B4A990"/>
<path d="M30.191 39.0955L29.9767 38.6844C32.0032 37.6191 33.6359 35.9198 34.8257 33.6299C35.8577 31.5486 36.5366 29.3103 36.8347 27.0064C37.222 24.2798 37.2784 21.5164 37.0027 18.7762L37.4629 18.7183C37.7439 21.4969 37.6875 24.2993 37.295 27.0643C36.9886 29.4199 36.2951 31.7088 35.2426 33.8384C34.0064 36.2151 32.3071 37.9838 30.191 39.0955Z" fill="#B4A990"/>
<path d="M27.9243 41.7413L27.7332 41.3187C30.5135 40.0909 33.0352 38.3462 35.1644 36.1774C36.8129 34.4738 38.1808 32.5196 39.2173 30.3876C40.2701 28.2938 40.9556 26.0348 41.2437 23.709L41.7069 23.7438C41.6384 24.4208 41.5223 25.0921 41.3595 25.7528C40.9609 27.4189 40.3784 29.0355 39.6225 30.5728C37.9667 34.0207 34.571 38.748 27.9243 41.7413Z" fill="#B4A990"/>
<path d="M26.5375 42.9138H26.3899V42.4506H26.5346C29.1335 42.4507 31.6945 41.8283 34.0035 40.6355C36.0259 39.5771 37.8591 38.191 39.4285 36.5334C41.1595 34.7458 42.6222 32.7166 43.7708 30.5092L44.1877 30.706C43.024 32.9543 41.5398 35.0217 39.7817 36.8432C38.1758 38.5407 36.2996 39.9601 34.2293 41.0437C31.8523 42.2744 29.2143 42.9158 26.5375 42.9138Z" fill="#B4A990"/>
<path d="M30.7496 44.8651C28.6512 44.8474 26.5722 44.4623 24.6066 43.7274L24.7658 43.2932C27.2283 44.228 29.875 44.5749 32.4952 44.3064C34.5381 44.067 36.5157 43.4359 38.3197 42.4479C40.2028 41.4401 41.8823 40.0913 43.2729 38.4703L43.6377 38.7598C42.2117 40.435 40.482 41.8258 38.5398 42.8589C36.6841 43.876 34.6493 44.5248 32.5473 44.7696C31.9503 44.8349 31.3501 44.8668 30.7496 44.8651Z" fill="#B4A990"/>
<path d="M32.6109 47.5919C29.9331 47.5919 26.6822 46.7234 23.3994 43.7909L23.7091 43.4377C25.6574 45.1747 27.762 46.3326 29.9389 46.8277C31.7093 47.23 33.5473 47.23 35.3176 46.8277C37.2106 46.404 38.9968 45.5971 40.5661 44.4567L40.8556 44.8186C39.2405 46.0054 37.3958 46.8424 35.4392 47.2764C34.5107 47.4841 33.5623 47.5899 32.6109 47.5919Z" fill="#B4A990"/>
<path d="M22.9711 43.6174C22.9405 43.6115 22.909 43.6115 22.8784 43.6174C22.8428 43.6257 22.812 43.6476 22.7925 43.6785C22.773 43.7094 22.7664 43.7467 22.7742 43.7824C22.7789 43.8008 22.7872 43.8181 22.7987 43.8332C22.8102 43.8483 22.8246 43.8609 22.8411 43.8704C22.8575 43.8798 22.8757 43.8859 22.8946 43.8882C22.9134 43.8905 22.9325 43.8889 22.9508 43.8837H22.9711C23.0077 43.883 23.0426 43.8681 23.0685 43.8422C23.0944 43.8163 23.1093 43.7814 23.11 43.7448C23.1043 43.7111 23.0876 43.6803 23.0624 43.6572C23.0372 43.6341 23.0051 43.6201 22.9711 43.6174Z" fill="#B4A990"/>
<path d="M23.3589 43.6173L23.5442 43.6636L23.5268 43.8315L23.4602 43.8692H23.4139C23.4507 43.8782 23.4896 43.8727 23.5225 43.8538C23.5553 43.835 23.5797 43.8042 23.5905 43.7678C23.5961 43.7502 23.5979 43.7315 23.5958 43.713C23.5936 43.6946 23.5875 43.6768 23.5779 43.6609C23.5683 43.645 23.5555 43.6313 23.5401 43.6208C23.5248 43.6103 23.5075 43.6032 23.4892 43.5999C23.4605 43.5895 23.4295 43.5875 23.3997 43.5941C23.3699 43.6008 23.3427 43.6159 23.3213 43.6376C23.2986 43.6581 23.2843 43.6863 23.2811 43.7168C23.2779 43.7472 23.286 43.7778 23.3039 43.8026C23.3128 43.818 23.3248 43.8314 23.339 43.8421C23.3532 43.8528 23.3695 43.8606 23.3867 43.8649C23.404 43.8692 23.422 43.87 23.4396 43.8673C23.4572 43.8645 23.474 43.8583 23.4892 43.8489C23.505 43.8404 23.519 43.8289 23.5303 43.8149C23.5417 43.801 23.5502 43.785 23.5553 43.7677C23.5604 43.7505 23.562 43.7324 23.5601 43.7146C23.5582 43.6967 23.5528 43.6794 23.5442 43.6636C23.5362 43.6472 23.5248 43.6328 23.5106 43.6213C23.4965 43.6098 23.48 43.6016 23.4624 43.5972C23.4447 43.5928 23.4263 43.5923 23.4084 43.5958C23.3905 43.5992 23.3736 43.6066 23.3589 43.6173Z" fill="#B4A990"/>
<path d="M22.8408 43.3567H23.0347C23.0984 43.3567 23.0897 43.2641 23.0347 43.2641H22.8408C22.8285 43.2641 22.8167 43.269 22.808 43.2777C22.7993 43.2864 22.7944 43.2981 22.7944 43.3104C22.7944 43.3227 22.7993 43.3345 22.808 43.3432C22.8167 43.3519 22.8285 43.3567 22.8408 43.3567Z" fill="#F7F7F7"/>
<path d="M22.8118 3.77772C23.1015 3.77772 23.3847 3.69181 23.6256 3.53085C23.8665 3.36989 24.0542 3.14112 24.1651 2.87346C24.276 2.6058 24.305 2.31128 24.2485 2.02713C24.192 1.74298 24.0524 1.48198 23.8476 1.27712C23.6427 1.07226 23.3817 0.93275 23.0976 0.87623C22.8134 0.81971 22.5189 0.848718 22.2512 0.959587C21.9836 1.07046 21.7548 1.2582 21.5939 1.49909C21.4329 1.73998 21.347 2.02319 21.347 2.3129C21.3466 2.50537 21.3842 2.69602 21.4577 2.87391C21.5312 3.0518 21.6391 3.21344 21.7752 3.34953C21.9113 3.48563 22.0729 3.59351 22.2508 3.66699C22.4287 3.74047 22.6193 3.7781 22.8118 3.77772Z" fill="#B4A990"/>
<path d="M24.87 2.81084C24.8353 2.51561 24.8353 2.21733 24.87 1.9221C24.8832 1.82617 24.8742 1.72849 24.8435 1.63663C24.8129 1.54476 24.7616 1.46118 24.6935 1.39234C24.5066 1.19255 24.3567 0.961244 24.2505 0.709143C24.2156 0.62046 24.1539 0.54489 24.074 0.49299C23.9941 0.441089 23.8999 0.41545 23.8047 0.419654C23.4824 0.416984 23.1727 0.29414 22.9363 0.0751614C22.923 0.0523225 22.904 0.0333619 22.8812 0.0201807C22.8583 0.00699949 22.8324 6.10352e-05 22.806 6.10352e-05C22.7796 6.10352e-05 22.7537 0.00699949 22.7308 0.0201807C22.7079 0.0333619 22.6889 0.0523225 22.6757 0.0751614C22.4523 0.283754 22.1618 0.405891 21.8565 0.419654C21.7518 0.418215 21.649 0.447652 21.561 0.504287C21.4729 0.560921 21.4035 0.642243 21.3614 0.738092C21.2582 0.989517 21.1045 1.21711 20.9098 1.40681C20.8502 1.4599 20.804 1.52648 20.7753 1.60101C20.7466 1.67554 20.7362 1.75586 20.7448 1.83526C20.7807 2.15268 20.7807 2.47314 20.7448 2.79057C20.7324 2.88512 20.7414 2.98124 20.7709 3.07189C20.8005 3.16255 20.8499 3.24546 20.9156 3.31455C21.0775 3.48865 21.2157 3.68332 21.3267 3.89353C21.3657 3.97686 21.4247 4.04927 21.4984 4.10431C21.5722 4.15936 21.6584 4.19534 21.7493 4.20907C22.0732 4.22549 22.3899 4.31034 22.6786 4.45803C22.693 4.47666 22.7114 4.49181 22.7324 4.50234C22.7535 4.51286 22.7767 4.5185 22.8002 4.51882C22.8437 4.51775 22.8851 4.50015 22.916 4.46961C23.1934 4.32578 23.4984 4.24287 23.8105 4.22644C23.9082 4.21394 24.0013 4.17755 24.0816 4.12049C24.1619 4.06344 24.2269 3.98747 24.2708 3.89932C24.3853 3.68914 24.5264 3.49455 24.6906 3.32034C24.7567 3.25423 24.8071 3.17414 24.8382 3.08597C24.8692 2.99779 24.8801 2.90378 24.87 2.81084ZM24.43 3.06848C24.2434 3.2652 24.0829 3.48508 23.9524 3.72273C23.9362 3.75805 23.9112 3.7886 23.8797 3.81142C23.8483 3.83424 23.8115 3.84856 23.7729 3.853C23.4438 3.88398 23.1215 3.96602 22.8176 4.09617C22.498 3.9556 22.1578 3.86762 21.8101 3.83563C21.7812 3.83132 21.7538 3.81977 21.7306 3.80206C21.7073 3.78435 21.6888 3.76104 21.677 3.73431C21.5503 3.49484 21.3915 3.27376 21.2051 3.07717C21.1758 3.04511 21.1541 3.00687 21.1415 2.96528C21.129 2.92368 21.126 2.8798 21.1327 2.83689C21.1702 2.49148 21.1702 2.14303 21.1327 1.79762C21.1296 1.77579 21.1319 1.75352 21.1395 1.7328C21.1471 1.71208 21.1597 1.69357 21.1762 1.67893C21.4061 1.45202 21.5882 1.18132 21.7117 0.882837C21.725 0.856027 21.7457 0.833592 21.7714 0.818197C21.797 0.802803 21.8266 0.795096 21.8565 0.79599C22.2027 0.789542 22.5377 0.671797 22.8118 0.460182C23.1005 0.688718 23.4598 0.80951 23.8279 0.80178C23.8452 0.802457 23.8619 0.807969 23.8763 0.817691C23.8906 0.827413 23.9019 0.840956 23.9089 0.856783C24.0335 1.14816 24.2079 1.41559 24.4242 1.64709C24.4525 1.67758 24.4738 1.71378 24.4868 1.75324C24.4998 1.7927 24.5041 1.8345 24.4995 1.87579C24.4619 2.20279 24.4619 2.53304 24.4995 2.86005C24.5051 2.89781 24.5017 2.93635 24.4896 2.97256C24.4776 3.00877 24.4571 3.04163 24.43 3.06848Z" fill="#B4A990"/>
<path d="M19.2221 10.3636L17.7573 7.75818H18.3971L19.9835 10.6531L19.2221 10.3636Z" fill="#0A524E"/>
<path d="M19.9747 10.0944L18.1943 13.0617H17.6154L19.6852 9.5473L19.9747 10.0944Z" fill="#0A524E"/>
<path d="M26.4014 10.3636L27.8662 7.75818H27.2264L25.64 10.6531L26.4014 10.3636Z" fill="#0A524E"/>
<path d="M25.64 10.0944L27.4291 13.0617H28.008L25.9266 9.5473L25.64 10.0944Z" fill="#0A524E"/>
</svg>
