<svg aria-hidden="true" style="position: absolute; width: 0; height: 0; overflow: hidden;" version="1.1" xmlns="http://www.w3.org/2000/svg" xmlns:xlink="http://www.w3.org/1999/xlink">
<defs>
<symbol id="icon-big-4" viewBox="0 0 32 32">
<path d="M22.796 10.584c-0.653-0.023-1.243-0.313-1.661-0.819-0.305-0.369-0.866-0.368-1.17 0-0.907 1.095-2.575 1.093-3.48 0-0.309-0.373-0.87-0.363-1.17 0-0.906 1.095-2.575 1.094-3.48-0-0.306-0.369-0.866-0.367-1.17 0-0.418 0.505-1.008 0.796-1.661 0.819-0.257 0.009-0.458 0.225-0.449 0.482s0.223 0.458 0.482 0.449c0.843-0.029 1.639-0.393 2.214-1.005 1.259 1.343 3.389 1.345 4.65 0 1.259 1.343 3.389 1.345 4.65-0 0.575 0.612 1.371 0.976 2.214 1.005 0.256 0.009 0.473-0.192 0.482-0.449s-0.192-0.473-0.449-0.482z"></path>
<path d="M21.135 13.586c-0.305-0.369-0.866-0.368-1.17 0-0.907 1.095-2.575 1.094-3.48 0-0.309-0.373-0.87-0.363-1.17 0-0.907 1.095-2.575 1.093-3.48-0-0.305-0.368-0.865-0.369-1.17 0-0.496 0.6-1.253 0.9-2.025 0.802-0.255-0.032-0.488 0.148-0.521 0.404s0.148 0.488 0.404 0.521c1.024 0.13 2.028-0.236 2.727-0.982 1.259 1.343 3.389 1.345 4.65 0 1.259 1.343 3.389 1.345 4.65 0 0.699 0.746 1.704 1.111 2.727 0.982 0.255-0.032 0.436-0.265 0.404-0.521s-0.266-0.436-0.521-0.404c-0.772 0.097-1.529-0.202-2.025-0.802z"></path>
<path d="M22.407 6.689c-0.502-0.106-0.942-0.373-1.272-0.772-0.305-0.369-0.866-0.368-1.17 0-0.907 1.095-2.575 1.093-3.48 0-0.309-0.373-0.87-0.363-1.17 0-0.906 1.095-2.575 1.094-3.48-0-0.306-0.369-0.866-0.367-1.17 0-0.33 0.399-0.77 0.666-1.272 0.772-0.252 0.053-0.413 0.3-0.36 0.552s0.301 0.413 0.552 0.36c0.645-0.136 1.217-0.459 1.665-0.939 1.26 1.343 3.389 1.344 4.65-0 1.259 1.343 3.389 1.345 4.65 0 0.449 0.48 1.021 0.803 1.666 0.939 0.251 0.053 0.499-0.108 0.552-0.36s-0.108-0.499-0.36-0.552z"></path>
<path d="M3.415 26.661h10.542v4.321c0 0.45 0.366 0.817 0.817 0.817h1.565c0.45 0 0.817-0.366 0.817-0.817v-0.091h4.608v0.091c0 0.45 0.366 0.817 0.817 0.817h1.565c0.45 0 0.817-0.366 0.817-0.817v-4.321h3.423c1.498 0 2.676-1.297 2.525-2.792-0-0.002-0.001-0.005-0.001-0.007l-0.81-6.929c-0.030-0.256-0.262-0.439-0.517-0.409s-0.439 0.261-0.409 0.517l0.809 6.925c0.091 0.921-0.627 1.764-1.599 1.764h-3.423v-1.184h2.791c0.588 0 1.048-0.509 0.99-1.094-0.001-0.003-0.001-0.005-0.001-0.008l-2.407-20.438c-0.053-0.508-0.478-0.89-0.989-0.89h-8.358c-0.257 0-0.466 0.209-0.466 0.466s0.209 0.466 0.466 0.466h8.358c0.032 0 0.059 0.024 0.063 0.057 0 0.003 0.001 0.005 0.001 0.008l2.407 20.435c0.001 0.017-0.005 0.034-0.016 0.047s-0.029 0.021-0.047 0.021h-2.791v-1.422c0-2.452-2.003-4.369-4.369-4.369-1.663 0-3.164 0.943-3.903 2.406-0.746-1.476-2.281-2.438-3.988-2.405-2.341 0.044-4.285 1.962-4.285 4.368v1.422h-4.369c-0.018 0-0.035-0.008-0.047-0.021s-0.017-0.030-0.016-0.047l2.407-20.435c0-0.003 0.001-0.005 0.001-0.008 0.003-0.032 0.030-0.057 0.063-0.057h8.358c0.257 0 0.466-0.209 0.466-0.466s-0.209-0.466-0.466-0.466h-8.358c-0.511 0-0.936 0.383-0.989 0.891l-2.407 20.438c-0 0.003-0.001 0.005-0.001 0.008-0.059 0.585 0.401 1.094 0.99 1.094h9.909v1.184h-10.542c-0.922 0-1.694-0.794-1.599-1.764l2.522-21.581c0-0.002 0.001-0.005 0.001-0.007 0.083-0.824 0.77-1.445 1.598-1.445h19.924c0.828 0 1.515 0.621 1.598 1.445 0 0.002 0 0.005 0.001 0.007l1.459 12.482c0.030 0.256 0.262 0.439 0.517 0.409s0.439-0.261 0.409-0.517l-1.458-12.479c-0.133-1.3-1.218-2.28-2.525-2.28h-19.924c-1.307 0-2.392 0.98-2.525 2.28l-2.522 21.582c-0 0.003-0.001 0.005-0.001 0.007-0.15 1.491 1.023 2.792 2.525 2.792zM19.421 22.233c0-0.641 0.504-1.198 1.149-1.21 0.663-0.013 1.193 0.527 1.193 1.17v1.422h-2.342v-1.382zM17.154 26.661h4.608v1.184h-4.608v-1.184zM22.012 24.546c0.346 0 0.622 0.299 0.589 0.648-0.029 0.303-0.285 0.536-0.589 0.536h-4.858v-1.184c1.622 0 3.24 0 4.858 0zM17.154 28.776h4.858c0.344 0 0.622 0.298 0.589 0.648-0.029 0.303-0.285 0.536-0.589 0.536h-4.858v-1.184zM24.029 30.867h-1.335v-0.137c1.119-0.567 1.121-2.156 0-2.724v-1.507c1.124-0.57 1.116-2.158 0-2.724v-1.583c0-1.272-1.13-2.268-2.409-2.080-1.016 0.149-1.796 1.026-1.796 2.080v1.422h-1.335v-1.356c0-1.898 1.519-3.484 3.405-3.502 1.939-0.016 3.47 1.556 3.47 3.436v8.675zM9.348 23.614v-1.356c0-2.001 1.658-3.576 3.577-3.499 1.831 0.075 3.298 1.584 3.298 3.434v8.675h-1.335c0-0.895 0-7.519 0-8.675 0-1.115-0.873-2.037-1.982-2.099-1.197-0.068-2.223 0.886-2.223 2.099v1.422l-1.335 0zM11.615 23.614v-1.382c0-0.585 0.42-1.101 0.986-1.195 0.723-0.115 1.356 0.449 1.356 1.155v1.422h-2.342z"></path>
</symbol>
<symbol id="icon-time" viewBox="0 0 32 32">
<path stroke-linejoin="miter" stroke-linecap="butt" stroke-miterlimit="4" stroke-width="0.8312" d="M30.459 16c0 7.871-6.38 14.251-14.251 14.251s-14.251-6.38-14.251-14.251 6.38-14.251 14.251-14.251c7.871 0 14.251 6.38 14.251 14.251z"></path>
<path stroke-linejoin="miter" stroke-linecap="round" stroke-miterlimit="4" stroke-width="0.8312" d="M16.208 6.667v9.333l5.333 5.333"></path>
</symbol>
<symbol id="icon-envelope-alt" viewBox="0 0 32 32">
<path stroke-linejoin="miter" stroke-linecap="butt" stroke-miterlimit="4" stroke-width="0.8312" d="M4 8l12 10.667 12-10.667"></path>
<path stroke-linejoin="round" stroke-linecap="round" stroke-miterlimit="4" stroke-width="0.8312" d="M2.667 6.667h26.667v18.667h-26.667v-18.667z"></path>
</symbol>
<symbol id="icon-location" viewBox="0 0 32 32">
<path stroke-linejoin="miter" stroke-linecap="butt" stroke-miterlimit="4" stroke-width="0.8312" d="M16.208 28c0 0 8-8.4 8-16 0-4.418-3.582-8-8-8s-8 3.582-8 8c0 7.6 8 16 8 16z"></path>
<path stroke-linejoin="miter" stroke-linecap="butt" stroke-miterlimit="4" stroke-width="0.8312" d="M16.208 13.333c0.736 0 1.333-0.597 1.333-1.333s-0.597-1.333-1.333-1.333c-0.736 0-1.333 0.597-1.333 1.333s0.597 1.333 1.333 1.333z"></path>
</symbol>
<symbol id="icon-callcenter" viewBox="0 0 32 32">
<path d="M16.24 28.919c-0.229-0.018-0.429 0.154-0.446 0.382s0.154 0.429 0.383 0.446l0.064-0.829zM25.957 22.667v-0.416h-0.831v0.416h0.831zM16.176 29.748c1.517 0.117 3.929-0.23 5.974-1.296 2.058-1.073 3.807-2.913 3.807-5.785h-0.831c0 2.461-1.474 4.065-3.36 5.048-1.899 0.99-4.154 1.31-5.526 1.204l-0.064 0.829z"></path>
<path stroke-linejoin="miter" stroke-linecap="round" stroke-miterlimit="4" stroke-width="0.8312" d="M28.208 14.029h-4.502c-0.459 0-0.831 0.372-0.831 0.831v6.329c0 0.463 0.378 0.836 0.84 0.831l1.826-0.020 1.826 0.020c0.463 0.005 0.84-0.369 0.84-0.831v-7.16zM28.208 14.029c0-6.627-5.373-12-12-12s-12 5.373-12 12M4.208 14.029v7.169c0 0.459 0.372 0.831 0.831 0.831h3.671c0.459 0 0.831-0.372 0.831-0.831v-6.338c0-0.459-0.372-0.831-0.831-0.831h-4.502z"></path>
</symbol>
<symbol id="icon-big-12" viewBox="0 0 26 32">
<path d="M15.38 20.464c-0.47-0.403-0.94-0.906-1.477-1.443-0.369-0.403-0.772-0.974-1.108-1.578 0.638-2.182 0.94-4.263 0.269-5.27-0.302-0.47-0.772-0.705-1.376-0.705-0.671 0-1.175 0.302-1.41 0.873-0.537 1.208 0.269 3.424 1.242 5.237-0.269 0.873-0.604 1.813-1.007 2.853-0.235 0.571-0.504 1.141-0.772 1.678-2.753 1.074-4.431 2.283-4.666 3.424-0.101 0.537 0.067 1.007 0.537 1.376 0.269 0.201 0.571 0.336 0.906 0.336 0.134 0 0.269-0.034 0.403-0.067 1.276-0.336 2.652-2.216 3.659-4.129 0.604-0.235 1.309-0.47 2.081-0.671 0.906-0.269 1.712-0.47 2.417-0.604 1.309 1.041 2.417 1.611 3.39 1.611 0.738 0.034 1.276-0.235 1.779-0.738 0.738-0.738 0.436-1.376 0.336-1.544-0.604-0.94-2.45-1.141-5.203-0.638zM6.585 26.002c-0.134 0.034-0.201 0-0.269-0.034-0.134-0.101-0.134-0.168-0.101-0.235 0.067-0.403 0.839-1.141 2.518-1.947-0.806 1.208-1.611 2.081-2.148 2.216zM11.352 12.81c0.034-0.067 0.067-0.168 0.336-0.168 0.235 0 0.336 0.101 0.403 0.168 0.302 0.436 0.269 1.544-0.101 3.021-0.571-1.276-0.873-2.484-0.638-3.021zM12.292 21.202c-0.336 0.101-0.671 0.201-1.007 0.302 0.101-0.235 0.201-0.47 0.302-0.671 0.235-0.638 0.504-1.276 0.739-1.947 0.269 0.369 0.504 0.705 0.739 0.94 0.302 0.336 0.604 0.638 0.906 0.94-0.537 0.134-1.108 0.269-1.678 0.436zM19.375 21.806c-0.235 0.269-0.537 0.369-0.906 0.369-0.504 0-1.108-0.235-1.813-0.705 1.947-0.269 3.055-0.067 2.719 0.336z"></path>
<path d="M24.88 8.146l-7.352-7.352c-0.47-0.47-1.108-0.739-1.746-0.739h-13.192c-0.671 0-1.276 0.269-1.746 0.739s-0.739 1.074-0.739 1.746v26.922c0 1.376 1.108 2.484 2.484 2.484h20.544c1.376 0 2.484-1.108 2.484-2.484v-19.57c0-0.638-0.269-1.276-0.738-1.746zM23.47 8.75h-5.438c-0.604 0-1.108-0.504-1.108-1.108v-5.405l6.546 6.512zM23.135 30.503h-20.544c-0.571 0-1.041-0.47-1.041-1.041v-26.922c0-0.269 0.101-0.537 0.302-0.739s0.47-0.302 0.738-0.302h12.89v6.143c0 1.41 1.141 2.551 2.551 2.551h6.143v19.268c0 0.571-0.47 1.041-1.041 1.041z"></path>
</symbol>
<symbol id="icon-hamburger" viewBox="0 0 31 32">
<path stroke-linejoin="miter" stroke-linecap="round" stroke-miterlimit="4" stroke-width="0.6531" d="M8.49 12.858h14.367"></path>
<path stroke-linejoin="miter" stroke-linecap="round" stroke-miterlimit="4" stroke-width="0.6531" d="M8.49 16.123h14.367"></path>
<path stroke-linejoin="miter" stroke-linecap="round" stroke-miterlimit="4" stroke-width="0.6531" d="M8.49 19.389h14.367"></path>
<path stroke-linejoin="miter" stroke-linecap="butt" stroke-miterlimit="4" stroke-width="0.6531" d="M15.673 0.777c8.476 0 15.347 6.871 15.347 15.347s-6.871 15.347-15.347 15.347c-8.476 0-15.347-6.871-15.347-15.347s6.871-15.347 15.347-15.347z"></path>
</symbol>
<symbol id="icon-loan" viewBox="0 0 32 32">
<path d="M10.807 24.578c-0.164 0-0.326 0.066-0.442 0.183s-0.183 0.277-0.183 0.442c0 0.164 0.067 0.326 0.183 0.442s0.277 0.183 0.442 0.183 0.325-0.067 0.442-0.183c0.116-0.116 0.183-0.277 0.183-0.442s-0.067-0.326-0.183-0.442c-0.116-0.117-0.277-0.183-0.442-0.183z"></path>
<path d="M16.514 20.506c0-0.345-0.28-0.625-0.625-0.625h-6.977c-0.345 0-0.625 0.28-0.625 0.625s0.28 0.625 0.625 0.625h6.977c0.345 0 0.625-0.28 0.625-0.625z"></path>
<path d="M8.185 14.133h8.433c0.345 0 0.625-0.28 0.625-0.625s-0.28-0.625-0.625-0.625h-8.433c-0.345 0-0.625 0.28-0.625 0.625s0.28 0.625 0.625 0.625z"></path>
<path d="M12.212 9.256c-0.454 0-0.823-0.309-0.823-0.689 0-0.345-0.28-0.625-0.625-0.625s-0.625 0.28-0.625 0.625c0 0.865 0.609 1.6 1.448 1.848v0.087c0 0.345 0.28 0.625 0.625 0.625s0.625-0.28 0.625-0.625v-0.087c0.838-0.248 1.448-0.983 1.448-1.848 0-1.069-0.93-1.939-2.072-1.939-0.454 0-0.823-0.309-0.823-0.689s0.369-0.689 0.823-0.689c0.454 0 0.823 0.309 0.823 0.689 0 0.345 0.28 0.625 0.625 0.625s0.625-0.28 0.625-0.625c0-0.865-0.609-1.6-1.448-1.848v-0.087c0-0.345-0.28-0.625-0.625-0.625s-0.625 0.28-0.625 0.625v0.087c-0.838 0.248-1.448 0.983-1.448 1.848 0 1.069 0.93 1.939 2.072 1.939 0.454 0 0.823 0.309 0.823 0.689s-0.369 0.689-0.823 0.689z"></path>
<path d="M31 19.304l-0.975 0.7c-1.463 1.050-3.188 1.606-4.989 1.606h-2.173c-0.517 0-0.938-0.421-0.938-0.938s0.421-0.938 0.938-0.938h1.062c1.821 0 3.309-1.449 3.375-3.254l2.73-4.728h1.345c0.345 0 0.625-0.28 0.625-0.625s-0.28-0.625-0.625-0.625h-0.624l1.165-2.017c0.083-0.144 0.105-0.314 0.062-0.474s-0.148-0.297-0.291-0.379l-2.381-1.375c-0.299-0.173-0.681-0.070-0.853 0.229l-2.319 4.017h-0.59c-0.313 0-0.622 0.021-0.927 0.063v-9.934c0-0.345-0.28-0.625-0.625-0.625h-23.367c-0.345 0-0.625 0.28-0.625 0.625v30.74c0 0.345 0.28 0.625 0.625 0.625h23.367c0.345 0 0.625-0.28 0.625-0.625v-8.511h0.42c2.064 0 4.041-0.636 5.718-1.841l0.975-0.7c0.28-0.201 0.344-0.592 0.143-0.872s-0.592-0.344-0.872-0.143zM22.229 22.765l-0.005 0.009-1.496 1.092 0.198-1.842 0.099-0.171c0.278 0.432 0.703 0.76 1.205 0.912zM29.223 7.651l1.299 0.75-5.709 9.888c-0.27 0.124-0.57 0.194-0.887 0.194h-0.957l6.254-10.832zM22.144 17.413c-0 0-0 0-0 0l-1.618 2.802c-0.103 0.178-0.27 0.299-0.472 0.341s-0.403-0.003-0.568-0.125c-0.232-0.172-0.336-0.463-0.267-0.743l0.925-3.716c0.245-0.985 0.754-1.883 1.473-2.599 1.019-1.014 2.361-1.585 3.794-1.619l-3.267 5.658zM1.25 30.745v-29.49h22.118v9.601c-0.98 0.329-1.878 0.882-2.632 1.632-0.88 0.877-1.504 1.977-1.804 3.183l-0.177 0.712h-13.175c-0.345 0-0.625 0.28-0.625 0.625s0.28 0.625 0.625 0.625h12.864l-0.436 1.754c-0.192 0.771 0.097 1.576 0.735 2.049 0.281 0.208 0.609 0.334 0.949 0.372l-0.297 2.771h-5.776c-0.345 0-0.625 0.28-0.625 0.625s0.28 0.625 0.625 0.625h6.337c0.13 0 0.259-0.040 0.368-0.12l2.743-2.002c0.070-0.051 0.129-0.117 0.173-0.192l0.128-0.221v7.454l-22.118 0z"></path>
</symbol>
<symbol id="icon-bank" viewBox="0 0 32 32">
<path d="M31.467 26.666h-1.067v-0.533c-0.003-0.676-0.43-1.277-1.067-1.502v-10.863c0.637-0.225 1.064-0.826 1.067-1.502v-0.533c0.884 0 1.6-0.716 1.6-1.6s-0.716-1.6-1.6-1.6h-0.382l-13.738-8.454c-0.171-0.105-0.388-0.105-0.559 0l-13.738 8.454h-0.382c-0.884 0-1.6 0.716-1.6 1.6s0.716 1.6 1.6 1.6v0.533c0.003 0.676 0.43 1.277 1.067 1.502v10.863c-0.637 0.225-1.064 0.826-1.067 1.502v0.533h-1.067c-0.295 0-0.533 0.239-0.533 0.533v4.267c0 0.295 0.239 0.533 0.533 0.533h30.933c0.295 0 0.533-0.239 0.533-0.533v-4.267c0-0.295-0.239-0.533-0.533-0.533zM29.334 12.267c0 0.295-0.239 0.533-0.533 0.533h-2.133c-0.295 0-0.533-0.239-0.533-0.533v-0.533h3.2v0.533zM28.8 25.6c0.295 0 0.533 0.239 0.533 0.533v0.533h-3.2v-0.533c0-0.295 0.239-0.533 0.533-0.533h2.133zM27.2 24.533v-10.667h1.067v10.667h-1.067zM1.6 10.667c-0.295 0-0.533-0.239-0.533-0.533s0.239-0.533 0.533-0.533h3.733v-1.067h-1.316l11.982-7.374 11.982 7.374h-19.449v1.067h21.867c0.295 0 0.533 0.239 0.533 0.533s-0.239 0.533-0.533 0.533h-28.8zM12.267 24.631v-10.863c0.637-0.225 1.064-0.826 1.067-1.502v-0.533h5.333v0.533c0.003 0.676 0.43 1.277 1.067 1.502v10.863c-0.637 0.225-1.064 0.826-1.067 1.502v0.533h-5.333v-0.533c-0.003-0.676-0.43-1.277-1.067-1.502zM11.734 25.6c0.295 0 0.533 0.239 0.533 0.533v0.533h-3.2v-0.533c0-0.295 0.239-0.533 0.533-0.533h2.133zM10.134 24.533v-10.667h1.067v10.667h-1.067zM11.734 12.8h-2.133c-0.295 0-0.533-0.239-0.533-0.533v-0.533h3.2v0.533c0 0.295-0.239 0.533-0.533 0.533zM19.734 26.133c0-0.295 0.239-0.533 0.533-0.533h2.133c0.295 0 0.533 0.239 0.533 0.533v0.533h-3.2v-0.533zM20.8 24.533v-10.667h1.067v10.667h-1.067zM22.4 12.8h-2.133c-0.295 0-0.533-0.239-0.533-0.533v-0.533h3.2v0.533c0 0.295-0.239 0.533-0.533 0.533zM3.2 12.8c-0.295 0-0.533-0.239-0.533-0.533v-0.533h3.2v0.533c0 0.295-0.239 0.533-0.533 0.533h-2.133zM4.8 13.867v10.667h-1.067v-10.667h1.067zM2.667 26.133c0-0.295 0.239-0.533 0.533-0.533h2.133c0.295 0 0.533 0.239 0.533 0.533v0.533h-3.2v-0.533zM6.934 30.933h-5.867v-3.2h5.867v3.2zM5.867 24.631v-10.863c0.637-0.225 1.064-0.826 1.067-1.502v-0.533h1.067v0.533c0.003 0.676 0.43 1.277 1.067 1.502v10.863c-0.637 0.225-1.064 0.826-1.067 1.502v0.533h-1.067v-0.533c-0.003-0.676-0.43-1.277-1.067-1.502zM24 30.933h-16v-1.067h12.8v-1.067h-12.8v-1.067h16v3.2zM22.934 24.631v-10.863c0.637-0.225 1.064-0.826 1.067-1.502v-0.533h1.067v0.533c0.003 0.676 0.43 1.277 1.067 1.502v10.863c-0.637 0.225-1.064 0.826-1.067 1.502v0.533h-1.067v-0.533c-0.003-0.676-0.43-1.277-1.067-1.502zM30.934 30.933h-5.867v-3.2h5.867v3.2z"></path>
<path d="M22.933 28.8h-1.067v1.067h1.067v-1.067z"></path>
<path d="M7.467 8.534h-1.067v1.067h1.067v-1.067z"></path>
<path d="M16 3.2c-1.178 0-2.133 0.955-2.133 2.133s0.955 2.133 2.133 2.133c1.178 0 2.133-0.955 2.133-2.133s-0.955-2.133-2.133-2.133zM16 6.4c-0.589 0-1.067-0.478-1.067-1.067s0.478-1.067 1.067-1.067c0.589 0 1.067 0.478 1.067 1.067s-0.478 1.067-1.067 1.067z"></path>
</symbol>
<symbol id="icon-payment" viewBox="0 0 32 32">
<path d="M10.784 24.494c-0.008-0.040-0.020-0.079-0.036-0.117s-0.035-0.074-0.058-0.108c-0.022-0.034-0.049-0.066-0.078-0.095s-0.061-0.055-0.095-0.078c-0.034-0.022-0.070-0.042-0.108-0.057s-0.077-0.028-0.117-0.036c-0.081-0.016-0.164-0.016-0.244 0-0.040 0.008-0.079 0.020-0.117 0.036s-0.074 0.035-0.107 0.057c-0.034 0.023-0.066 0.049-0.095 0.078s-0.055 0.061-0.078 0.095c-0.023 0.034-0.042 0.070-0.057 0.108s-0.028 0.078-0.036 0.117c-0.008 0.040-0.012 0.081-0.012 0.122s0.004 0.082 0.012 0.122c0.008 0.040 0.020 0.079 0.036 0.117s0.034 0.074 0.057 0.108c0.023 0.034 0.049 0.066 0.078 0.095s0.061 0.055 0.095 0.078c0.034 0.023 0.070 0.042 0.107 0.058s0.078 0.028 0.117 0.036c0.040 0.008 0.081 0.012 0.122 0.012s0.082-0.004 0.122-0.012c0.040-0.008 0.079-0.020 0.117-0.036s0.074-0.035 0.108-0.058c0.034-0.022 0.066-0.049 0.095-0.078s0.055-0.061 0.078-0.095c0.023-0.034 0.042-0.070 0.058-0.108s0.027-0.077 0.036-0.117c0.008-0.040 0.012-0.081 0.012-0.122s-0.004-0.082-0.012-0.122z"></path>
<path d="M28.75 24.686c-0.002-0.006-0.005-0.012-0.008-0.019-0.575-1.346-1.924-1.844-3.521-1.298l-4.354 1.204c-0.252-0.762-0.88-1.411-1.768-1.741-0.006-0.002-0.011-0.004-0.017-0.006l-4.786-1.624c-0.398-0.515-1.646-1.833-3.983-1.833-1.633 0-3.077 1.12-3.904 2.341h-5.785c-0.345 0-0.625 0.28-0.625 0.625v7.88c0 0.345 0.28 0.625 0.625 0.625h3.716c0.345 0 0.625-0.28 0.625-0.625v-0.54h1.743c0.345 0 0.625-0.28 0.625-0.625v-0.18c1.016 0.089 1.35 0.281 2.283 0.819 0.717 0.414 1.802 1.039 3.755 1.917 0.009 0.004 0.018 0.008 0.027 0.012 0.375 0.147 1.108 0.379 2.011 0.379 0.629 0 1.34-0.112 2.071-0.443l9.624-3.446c0.017-0.006 0.034-0.013 0.050-0.021 0.92-0.423 2.291-1.616 1.594-3.402zM3.716 29.591h-2.466v-6.63h2.466v6.63zM6.084 28.426h-1.118v-5.465h1.118v5.465zM26.656 26.942l-9.62 3.444c-0.008 0.003-0.020 0.007-0.028 0.011s-0.017 0.007-0.025 0.011c-1.34 0.616-2.613 0.247-3.112 0.053-1.886-0.849-2.893-1.429-3.629-1.854-1.023-0.59-1.516-0.874-2.907-0.989v-5.034c0.592-0.971 1.741-1.965 2.98-1.965 2.124 0 3.024 1.382 3.060 1.437 0.076 0.124 0.194 0.218 0.332 0.264l4.967 1.686c0.793 0.298 1.213 0.977 1.020 1.655-0.089 0.313-0.294 0.572-0.579 0.731-0.282 0.157-0.607 0.196-0.918 0.11l-5.6-1.774c-0.329-0.104-0.68 0.078-0.785 0.407s0.078 0.68 0.407 0.785l5.609 1.778c0.006 0.002 0.012 0.004 0.018 0.005 0.224 0.064 0.452 0.095 0.679 0.095 0.415 0 0.825-0.106 1.198-0.313 0.576-0.321 0.992-0.847 1.172-1.481 0.014-0.051 0.027-0.101 0.038-0.152l4.693-1.3c0.678-0.232 1.567-0.315 1.964 0.597 0.41 1.071-0.656 1.66-0.933 1.792z"></path>
<path d="M22.441 8.222c-0.008-0.040-0.020-0.079-0.036-0.117s-0.034-0.074-0.057-0.107c-0.023-0.034-0.049-0.066-0.078-0.095s-0.061-0.055-0.095-0.077c-0.034-0.022-0.070-0.042-0.108-0.057s-0.078-0.028-0.117-0.036c-0.081-0.016-0.164-0.016-0.244 0-0.040 0.007-0.079 0.020-0.117 0.036s-0.074 0.035-0.108 0.057c-0.034 0.023-0.066 0.049-0.095 0.077s-0.055 0.061-0.078 0.095c-0.023 0.034-0.042 0.070-0.058 0.107s-0.028 0.078-0.036 0.117c-0.008 0.040-0.012 0.081-0.012 0.122s0.004 0.082 0.012 0.122c0.007 0.040 0.020 0.079 0.036 0.117s0.035 0.074 0.058 0.108c0.022 0.034 0.049 0.066 0.078 0.095s0.061 0.055 0.095 0.077c0.034 0.023 0.070 0.042 0.108 0.058s0.077 0.027 0.117 0.036c0.040 0.008 0.081 0.012 0.122 0.012s0.082-0.004 0.122-0.012c0.039-0.008 0.079-0.020 0.117-0.036s0.074-0.035 0.108-0.058c0.034-0.022 0.066-0.049 0.095-0.077s0.055-0.061 0.078-0.095c0.023-0.034 0.042-0.070 0.057-0.108s0.028-0.077 0.036-0.117c0.008-0.040 0.012-0.081 0.012-0.122s-0.004-0.082-0.012-0.122z"></path>
<path d="M31.375 2.118h-3.716c-0.345 0-0.625 0.28-0.625 0.625v0.54h-1.743c-0.345 0-0.625 0.28-0.625 0.625v0.18c-1.016-0.089-1.35-0.281-2.283-0.819-0.717-0.414-1.802-1.039-3.755-1.917-0.009-0.004-0.018-0.008-0.027-0.012-0.636-0.25-2.302-0.742-4.081 0.064l-2.515 0.9-2.12-2.12c-0.244-0.244-0.64-0.244-0.884 0l-6.96 6.96c-0.225 0.225-0.268 0.616 0 0.884l11.893 11.893c0.19 0.19 0.636 0.248 0.884 0l6.354-6.354c0.165 0.014 0.337 0.022 0.514 0.022 1.633 0 3.077-1.12 3.904-2.341h5.785c0.345 0 0.625-0.28 0.625-0.625v-7.88c0-0.345-0.28-0.625-0.625-0.625zM9.443 1.51l1.425 1.425c-0.423 0.262-0.913 0.402-1.425 0.402s-1.001-0.14-1.425-0.402l1.425-1.425zM4.791 9.011l-1.425-1.425 1.425-1.425c0.262 0.423 0.402 0.913 0.402 1.425s-0.14 1.001-0.402 1.425zM14.376 18.595l-1.424-1.424c0.87-0.537 1.979-0.537 2.848 0l-1.424 1.424zM16.701 16.271c-1.381-1.002-3.268-1.002-4.649 0l-6.359-6.36c0.488-0.671 0.752-1.478 0.752-2.325s-0.263-1.654-0.752-2.325l1.426-1.426c0.671 0.488 1.478 0.752 2.325 0.752s1.654-0.264 2.325-0.752l1.352 1.352c-0.292 0.043-0.576 0.139-0.841 0.287-0.448 0.25-0.8 0.623-1.018 1.076-0.705 0.131-1.358 0.472-1.87 0.984-1.389 1.389-1.389 3.649 0 5.038 0.694 0.695 1.607 1.042 2.519 1.042s1.825-0.347 2.519-1.042c0.452-0.452 0.768-1.007 0.927-1.612l2.11 0.716c-0.238 1.101 0.006 2.258 0.662 3.168l-1.427 1.427zM12.901 10.126c0.005 0.002 0.011 0.004 0.017 0.006l1.25 0.424c-0.094 0.426-0.308 0.818-0.622 1.132-0.902 0.902-2.369 0.902-3.271 0s-0.902-2.369 0-3.271c0.217-0.218 0.474-0.388 0.754-0.503 0.115 0.96 0.807 1.816 1.873 2.212zM19.029 13.943c-0.241-0.393-0.378-0.842-0.399-1.3 0.299 0.216 0.665 0.428 1.102 0.597l-0.703 0.703zM24.666 10.374c-0.592 0.971-1.741 1.965-2.98 1.965-0.232 0-0.449-0.017-0.652-0.046-0.001-0-0.002-0-0.002-0-1.35-0.196-2.076-0.963-2.315-1.267-0.013-0.019-0.067-0.090-0.075-0.102-0.073-0.13-0.192-0.235-0.344-0.286l-4.969-1.687c-0.793-0.298-1.212-0.977-1.020-1.654 0-0 0-0.001 0-0.001s0-0.001 0-0.002c0.089-0.312 0.294-0.571 0.578-0.728 0.282-0.157 0.607-0.196 0.918-0.11l5.6 1.774c0.329 0.104 0.68-0.078 0.785-0.407s-0.078-0.68-0.407-0.785l-4.453-1.411-0.039-0.039c-0-0-0.001-0.001-0.001-0.001l-2.306-2.306 1.982-0.71c0.007-0.002 0.015-0.006 0.022-0.008 0.002-0.001 0.005-0.002 0.007-0.003 0.009-0.003 0.017-0.007 0.025-0.011 1.34-0.616 2.613-0.247 3.112-0.053 1.886 0.849 2.893 1.429 3.629 1.854 1.023 0.59 1.516 0.874 2.907 0.989v5.034zM27.034 9.998h-1.118v-5.465h1.118v5.465zM30.75 9.998h-2.466v-6.63h2.466v6.63z"></path>
</symbol>
<symbol id="icon-big-11" viewBox="0 0 32 32">
<path d="M27.049 18.142c0.291-0.654 0.456-1.397 0.456-2.099 0-0.91-0.283-1.796-0.804-2.535 0.177-0.449 0.269-0.932 0.269-1.416 0-1.018-0.396-1.945-1.042-2.637h0.499c1.086 0 1.97-0.884 1.97-1.97s-0.884-1.97-1.97-1.97h-1.839v-1.195c0-1.785-1.452-3.237-3.238-3.237h-4.607c-1.785 0-3.237 1.452-3.237 3.237v1.195h-1.855c-0.266 0-0.519 0.053-0.751 0.149-0.012-0.063-0.032-0.124-0.064-0.181l-1.191-2.166 1.191-2.166c0.105-0.191 0.101-0.423-0.009-0.61s-0.312-0.302-0.53-0.302h-7.388c-0.34 0-0.616 0.276-0.616 0.616v9.186c-0.049 0.015-0.098 0.030-0.147 0.048-1.34 0.489-2.032 1.976-1.543 3.315 0.001 0.002 0.002 0.005 0.003 0.007l2.762 7.286c0.495 1.305 1.664 2.213 3.050 2.37l3.879 0.439v7.639c0 0.34 0.276 0.616 0.616 0.616h20.44c0.34 0 0.616-0.276 0.616-0.616v-5.969c-0-3.227-2.052-5.984-4.919-7.034zM12.191 17.688c-0.234-0.51-0.37-1.103-0.37-1.645 0-0.751 0.268-1.48 0.755-2.052 0.162-0.191 0.193-0.461 0.077-0.683-0.197-0.378-0.297-0.787-0.297-1.215 0-1.003 0.563-1.876 1.389-2.322v1.561c0 2.034 1.153 3.803 2.84 4.689v1.668h-4.394zM23.102 9.456h0.001v1.875c0 2.241-1.823 4.063-4.063 4.063s-4.063-1.823-4.063-4.063v-1.875c0.006 0 0.011-0 0.017-0l8.11 0zM20.267 18.227l-1.228 1.228-1.224-1.224v-1.749c0.393 0.093 0.802 0.144 1.224 0.144 0.423 0 0.833-0.051 1.228-0.145v1.746zM16.763 18.92l1.405 1.405-1.675 1.675-1.988-3.081h2.258zM21.316 18.92h2.258l-1.988 3.081-1.675-1.675 1.405-1.405zM24.847 18.931c0.594 0.034 1.165 0.152 1.703 0.341v11.258h-1.703v-11.599zM25.844 17.813c-0.442-0.082-0.898-0.125-1.363-0.125h-2.982v-1.67c1.684-0.887 2.836-2.655 2.836-4.687v-1.569c0.835 0.443 1.405 1.321 1.405 2.33 0 0.428-0.1 0.837-0.297 1.215-0.116 0.222-0.085 0.492 0.077 0.683 0.487 0.572 0.755 1.301 0.755 2.052-0 0.59-0.16 1.236-0.43 1.77zM14.738 4.32c0-1.106 0.9-2.006 2.006-2.006h4.607c1.106 0 2.006 0.9 2.006 2.006v1.195h-8.619v-1.195zM11.651 6.747h14.776c0.407 0 0.739 0.331 0.739 0.739s-0.331 0.739-0.739 0.739h-14.776c-0.407 0-0.739-0.331-0.739-0.739s0.331-0.739 0.739-0.739zM3.524 1.47h5.731l-0.853 1.55c-0.102 0.185-0.102 0.409 0 0.593l0.853 1.55h-5.731v-3.694zM10.011 6.396c-0.208 0.312-0.33 0.687-0.33 1.090 0 1.086 0.884 1.97 1.97 1.97h0.515c-0.646 0.691-1.042 1.619-1.042 2.637 0 0.484 0.092 0.967 0.269 1.416-0.521 0.739-0.804 1.625-0.804 2.535 0 0.544 0.098 1.111 0.278 1.644h-3.197l-2.208-6.055c-0.237-0.649-0.712-1.167-1.338-1.458-0.194-0.090-0.395-0.155-0.599-0.195v-3.583h6.487zM2.568 11.246c0.34-0.124 0.708-0.108 1.036 0.045s0.577 0.424 0.701 0.764l0.258 0.709-2.491 1.042-0.313-0.826c-0.253-0.701 0.109-1.478 0.81-1.733zM4.519 20.261l-2.010-5.303 2.477-1.036 1.675 4.593c0.089 0.243 0.32 0.405 0.578 0.405h3.058v3.349l-3.74-0.424c-0.926-0.105-1.707-0.712-2.038-1.583zM11.528 18.92h1.703v4.919c0 0.34 0.276 0.616 0.616 0.616s0.616-0.276 0.616-0.616v-2.714l1.409 2.184c0.101 0.156 0.267 0.259 0.452 0.278 0.022 0.002 0.044 0.003 0.065 0.003 0.162 0 0.319-0.064 0.435-0.18l2.215-2.215 2.215 2.215c0.116 0.116 0.273 0.18 0.435 0.18 0.022 0 0.044-0.001 0.065-0.003 0.185-0.020 0.351-0.122 0.452-0.278l1.409-2.184v5.408h-2.228c-0.34 0-0.616 0.276-0.616 0.616s0.276 0.616 0.616 0.616h2.228v2.765h-9.153v-1.15c0-0.34-0.276-0.616-0.616-0.616s-0.616 0.276-0.616 0.616v1.15h-1.703v-11.61zM30.737 30.53h-2.955v-10.666c1.773 1.106 2.955 3.073 2.955 5.312v5.354z"></path>
<path d="M19.039 13.719c0.316 0 0.631-0.12 0.872-0.36s0.24-0.63-0.001-0.871c-0.24-0.24-0.631-0.24-0.872 0-0.24-0.24-0.63-0.24-0.871 0s-0.24 0.63 0 0.871c0.24 0.24 0.556 0.36 0.872 0.36z"></path>
<path d="M13.847 27.225c0.162 0 0.321-0.066 0.435-0.18s0.18-0.273 0.18-0.435c0-0.162-0.066-0.321-0.18-0.435s-0.273-0.18-0.435-0.18-0.321 0.066-0.435 0.18c-0.115 0.114-0.18 0.273-0.18 0.435s0.065 0.321 0.18 0.435c0.114 0.115 0.273 0.18 0.435 0.18z"></path>
</symbol>
<symbol id="icon-big-10" viewBox="0 0 32 32">
<path d="M10.851 17.329c0-1.635-1.33-2.965-2.965-2.965s-2.965 1.33-2.965 2.965c0 1.635 1.33 2.965 2.965 2.965s2.965-1.33 2.965-2.965zM5.845 17.329c0-1.125 0.916-2.041 2.041-2.041s2.041 0.916 2.041 2.041c0 1.125-0.916 2.041-2.041 2.041s-2.041-0.916-2.041-2.041z"></path>
<path d="M29.954 28.683h-2.097l-2.411-2.257c-0.186-0.174-0.478-0.165-0.653 0.021s-0.165 0.478 0.021 0.653l2.544 2.382c0.086 0.080 0.198 0.125 0.316 0.125h2.279c0.602 0 1.091 0.49 1.091 1.092v0.14h-3.746c-0.132 0-0.262-0.043-0.368-0.122l-11.605-11.015v-1.486l8.14 7.622c0.186 0.174 0.478 0.165 0.653-0.021s0.165-0.478-0.021-0.653l-8.771-8.213v-0.151c0-0.51-0.415-0.925-0.925-0.925h-0.773v-2.634h0.704c0.402 0 0.762-0.24 0.916-0.612s0.070-0.796-0.214-1.081l-6.446-6.467c-0.072-0.072-0.153-0.132-0.241-0.178v-0.669h3.087c0.552 0 1-0.449 1-1v-1.552c0-0.552-0.449-1-1-1h-3.089c-0.011-0.245-0.213-0.44-0.461-0.44-0.255 0-0.462 0.207-0.462 0.462v4.2c-0.088 0.046-0.169 0.106-0.241 0.178l-2.464 2.471c-0.18 0.181-0.18 0.473 0.001 0.653s0.473 0.18 0.653-0.001l2.464-2.471c0.017-0.017 0.036-0.020 0.049-0.020s0.032 0.003 0.049 0.020l6.446 6.467c0.010 0.010 0.032 0.033 0.015 0.075s-0.050 0.042-0.064 0.042h-12.893c-0.014 0-0.046 0-0.064-0.042s0.005-0.065 0.015-0.075l2.679-2.688c0.18-0.181 0.18-0.473-0.001-0.653s-0.473-0.18-0.653 0.001l-2.679 2.688c-0.284 0.285-0.368 0.709-0.214 1.081s0.514 0.612 0.917 0.612h0.704v4.275c0 0.255 0.207 0.462 0.462 0.462s0.462-0.207 0.462-0.462v-4.275h9.637v8.181h-9.637v-2.060c0-0.255-0.207-0.462-0.462-0.462s-0.462 0.207-0.462 0.462v11.477h-1.236c-0.255 0-0.462 0.207-0.462 0.462s0.207 0.462 0.462 0.462h30.599c0.255 0 0.462-0.207 0.462-0.462v-0.602c0-1.111-0.904-2.015-2.015-2.015zM11.512 1.679v1.552c0 0.042-0.034 0.077-0.077 0.077h-3.087v-1.706h3.087c0.042 0 0.077 0.034 0.077 0.077zM21.806 27.124l3.912 3.713h-3.912v-3.713zM20.883 30.838h-3.744v-8.143l3.744 3.554v4.59zM16.215 21.818v9.020h-2.587v-9.662h0.773c0.304 0 0.574-0.148 0.742-0.375l1.072 1.018zM14.402 16.798l-0.001 3.454c0 0-0 0-0.001 0h-0.773v-3.455l0.774 0.001zM12.705 30.838h-2.287v-8.494h2.287v8.494zM6.278 27.052h3.216v1.32h-3.216v-1.32zM9.494 26.129h-3.216v-1.32h3.216v1.32zM6.278 29.295h3.216v1.542h-3.216v-1.542zM9.494 22.343v1.542h-3.216v-1.542h3.216zM3.067 22.343h2.287v8.494h-2.287v-8.494z"></path>
</symbol>
<symbol id="icon-big-9" viewBox="0 0 32 32">
<path d="M28.89 10.274c0.252 0 0.478-0.153 0.572-0.387l2.463-6.166c0.126-0.316-0.027-0.674-0.343-0.8l-2.287-0.914c-0.316-0.126-0.674 0.028-0.8 0.343l-1.689 4.23h-5.304c-0.34 0-0.616 0.276-0.616 0.616v0.616h-3.078c-1.018 0-1.847 0.829-1.847 1.847 0 0.34 0.276 0.616 0.616 0.616s0.616-0.276 0.616-0.616c0-0.339 0.276-0.616 0.616-0.616h3.078v0.616c0 0.34 0.276 0.616 0.616 0.616h2.927l-2.191 9.912h-17.483c-2.376 0-4.31 1.933-4.31 4.31s1.933 4.31 4.31 4.31h0.616v0.616c0 0.34 0.276 0.616 0.616 0.616h4.925c0.34 0 0.616-0.276 0.616-0.616v-0.616h9.358v0.616c0 0.34 0.276 0.616 0.616 0.616h4.925c0.34 0 0.616-0.276 0.616-0.616v-0.616h0.616c2.376 0 4.31-1.933 4.31-4.31 0-2.167-1.608-3.965-3.694-4.265v-9.957h0.616zM25.69 10.274h1.353v9.912h-3.543l2.191-9.912zM10.297 28.806h-3.694v-2.463h3.694v2.463zM20.886 27.575h-9.358v-1.231h9.358v1.231zM25.812 28.806h-3.694v-2.463h3.694v2.463zM30.737 24.496c0 1.697-1.381 3.078-3.078 3.078h-0.616v-1.231h0.616c1.018 0 1.847-0.829 1.847-1.847s-0.829-1.847-1.847-1.847h-8.681c-0.34 0-0.616 0.276-0.616 0.616s0.276 0.616 0.616 0.616h8.681c0.34 0 0.616 0.276 0.616 0.616s-0.276 0.616-0.616 0.616h-22.903c-0.339 0-0.616-0.276-0.616-0.616s0.276-0.616 0.616-0.616h8.681c0.34 0 0.616-0.276 0.616-0.616s-0.276-0.616-0.616-0.616h-8.681c-1.018 0-1.847 0.829-1.847 1.847s0.829 1.847 1.847 1.847h0.616v1.231h-0.616c-1.697 0-3.078-1.381-3.078-3.078s1.381-3.078 3.078-3.078h22.903c1.697 0 3.078 1.381 3.078 3.078zM22.118 9.043v-1.231h5.105c0.252 0 0.478-0.153 0.572-0.387l1.615-4.045 1.143 0.457-2.080 5.207c-0.745 0-5.694 0-6.355 0z"></path>
<path d="M16.207 23.881c0.34 0 0.616-0.276 0.616-0.616s-0.276-0.616-0.616-0.616-0.616 0.276-0.616 0.616c0 0.34 0.276 0.616 0.616 0.616z"></path>
</symbol>
<symbol id="icon-big-8" viewBox="0 0 32 32">
<path d="M16.207 24.866h-3.448c-0.131 0-0.256 0.052-0.348 0.144s-0.144 0.218-0.144 0.348c0 0.131 0.052 0.256 0.144 0.348s0.218 0.144 0.348 0.144h3.448c0.131 0 0.256-0.052 0.348-0.144s0.144-0.218 0.144-0.348c0-0.131-0.052-0.256-0.144-0.348s-0.218-0.144-0.348-0.144z"></path>
<path d="M8.020 14.513c0.358-0.312 0.817-0.484 1.292-0.483h6.896c0.437 0.001 0.861 0.146 1.206 0.413s0.592 0.642 0.702 1.064h-5.848c-0.131 0-0.256 0.052-0.348 0.144s-0.144 0.218-0.144 0.348c0 0.131 0.052 0.256 0.144 0.348s0.218 0.144 0.348 0.144h5.848c-0.11 0.423-0.356 0.797-0.702 1.065s-0.77 0.413-1.206 0.413h-1.478c-0.131 0-0.256 0.052-0.348 0.144s-0.144 0.218-0.144 0.348c0 0.131 0.052 0.256 0.144 0.348s0.218 0.144 0.348 0.144h2.463c0.71 0.002 1.395 0.259 1.932 0.724s0.889 1.106 0.993 1.808c0.009 0.064 0.031 0.126 0.064 0.181s0.077 0.104 0.128 0.143c0.052 0.039 0.111 0.067 0.173 0.083s0.128 0.020 0.192 0.010c0.064-0.009 0.126-0.031 0.181-0.064s0.104-0.077 0.143-0.128c0.039-0.052 0.067-0.111 0.083-0.173s0.020-0.128 0.010-0.192c-0.111-0.753-0.438-1.458-0.939-2.030s-1.158-0.988-1.89-1.197c0.011-0.010 0.022-0.020 0.033-0.031 0.36-0.36 0.621-0.807 0.757-1.297s0.144-1.008 0.022-1.502c-0.122-0.494-0.37-0.948-0.719-1.319s-0.788-0.644-1.274-0.795c0.272-0.313 0.46-0.691 0.547-1.096s0.070-0.827-0.050-1.224c-0.119-0.397-0.338-0.758-0.634-1.048s-0.661-0.501-1.061-0.613c0.155-0.237 0.257-0.505 0.299-0.785s0.023-0.566-0.055-0.838-0.215-0.524-0.4-0.739c-0.185-0.215-0.414-0.387-0.671-0.505 0.116-0.225 0.171-0.476 0.162-0.729s-0.084-0.499-0.216-0.715c-0.132-0.216-0.317-0.394-0.538-0.518s-0.47-0.189-0.723-0.188h-1.97c-0.253-0-0.502 0.065-0.723 0.188s-0.406 0.302-0.538 0.518c-0.132 0.216-0.206 0.462-0.216 0.715s0.046 0.504 0.162 0.729c-0.257 0.118-0.486 0.29-0.671 0.505s-0.321 0.467-0.4 0.739-0.097 0.558-0.055 0.838c0.042 0.28 0.144 0.548 0.3 0.785-0.4 0.111-0.765 0.322-1.061 0.613s-0.514 0.651-0.634 1.049c-0.119 0.397-0.136 0.819-0.049 1.224s0.275 0.783 0.547 1.096c-0.392 0.121-0.754 0.323-1.064 0.593-0.098 0.086-0.159 0.207-0.168 0.338-0.004 0.065 0.004 0.129 0.024 0.191s0.053 0.118 0.096 0.167c0.043 0.049 0.094 0.089 0.152 0.117s0.121 0.046 0.186 0.050c0.13 0.009 0.259-0.034 0.357-0.12h0zM11.774 5.164h1.97c0.131 0 0.256 0.052 0.348 0.144s0.144 0.218 0.144 0.348c0 0.131-0.052 0.256-0.144 0.348s-0.218 0.144-0.348 0.144h-1.97c-0.131 0-0.256-0.052-0.348-0.144s-0.144-0.218-0.144-0.348c0-0.131 0.052-0.256 0.144-0.348s0.218-0.144 0.348-0.144zM11.282 7.134h2.955c0.261 0 0.512 0.104 0.697 0.289s0.289 0.435 0.289 0.697c0 0.261-0.104 0.512-0.289 0.697s-0.435 0.289-0.697 0.289h-2.955c-0.261 0-0.512-0.104-0.697-0.289s-0.289-0.435-0.289-0.697 0.104-0.512 0.289-0.697c0.185-0.185 0.435-0.289 0.697-0.289zM10.297 10.090h4.925c0.305 0 0.603 0.095 0.853 0.272s0.438 0.426 0.54 0.713h-4.841c-0.131 0-0.256 0.052-0.348 0.144s-0.144 0.218-0.144 0.348c0 0.131 0.052 0.256 0.144 0.348s0.218 0.144 0.348 0.144h4.841c-0.102 0.288-0.291 0.537-0.54 0.713s-0.547 0.271-0.853 0.272h-4.925c-0.392 0-0.768-0.156-1.045-0.433s-0.433-0.653-0.433-1.045c0-0.392 0.156-0.768 0.433-1.045s0.653-0.433 1.045-0.433z"></path>
<path d="M13.239 19.445c0.028-0.12 0.010-0.246-0.051-0.354s-0.159-0.188-0.276-0.226c-0.083-0.027-1.896-0.607-3.542-0.322-0.609-1.574-2.126-2.854-2.206-2.921-0.089-0.074-0.2-0.114-0.315-0.114s-0.227 0.040-0.315 0.114c-0.073 0.060-1.64 1.381-2.231 2.983-1.639-0.275-3.423 0.296-3.517 0.326-0.117 0.038-0.216 0.119-0.276 0.226s-0.079 0.234-0.051 0.354c0.027 0.115 0.65 2.714 2.286 3.832-0.847 1.645-0.5 3.953-0.483 4.062 0.018 0.116 0.077 0.222 0.166 0.298s0.203 0.118 0.32 0.118c0.011 0 0.021 0 0.032-0.001 0.115-0.007 2.635-0.185 4.043-1.491 1.407 1.306 3.928 1.483 4.043 1.491 0.011 0.001 0.021 0.001 0.032 0.001 0.117-0 0.231-0.042 0.32-0.118s0.148-0.182 0.166-0.298c0.017-0.107 0.366-2.438-0.495-4.084 1.685-1.093 2.324-3.76 2.351-3.876zM3.183 26.783c-0.067-0.922-0.016-2.508 0.695-3.39 0.531-0.658 1.31-1.297 2.172-0.945-0.243 0.323-0.395 0.706-0.44 1.108-0.071 0.644 0.126 1.319 0.584 2.011-0.815 0.799-2.267 1.107-3.011 1.216zM5.164 21.399c-0.65 0.112-1.271 0.496-1.85 1.139-0.967-0.647-1.529-2.067-1.764-2.798 0.905-0.215 2.491-0.424 3.484 0.131 0.63 0.353 1.301 0.901 1.322 1.639-0.38-0.143-0.791-0.182-1.191-0.112zM5.515 19.012c-0.086-0.048-0.174-0.092-0.265-0.132 0.363-0.931 1.158-1.787 1.601-2.215 0.688 0.663 1.785 1.963 1.785 3.111 0 1.201-0.45 1.918-1.308 2.102-0.004-0.004-0.007-0.008-0.011-0.011 0.108-0.759-0.097-1.901-1.801-2.856h0zM10.458 26.785c-0.92-0.135-2.472-0.528-3.185-1.412-0.501-0.621-0.737-1.212-0.683-1.71 0.028-0.247 0.127-0.48 0.284-0.672 0.336 0.486 0.845 0.826 1.423 0.95 0.171 0.036 0.346 0.054 0.521 0.054 0.407-0.006 0.809-0.086 1.188-0.236 0.517 0.96 0.503 2.32 0.452 3.027h0zM10.234 22.565c-0.709 0.397-1.621 0.693-2.284 0.151 0.326-0.126 0.621-0.321 0.864-0.572 0.535-0.553 0.807-1.349 0.807-2.368 0-0.092-0.006-0.184-0.015-0.275 0.932-0.146 1.963 0.039 2.542 0.176-0.248 0.769-0.856 2.296-1.914 2.888h0z"></path>
<path d="M24.58 12.060c0.131 0 0.256-0.052 0.348-0.144s0.144-0.218 0.144-0.348v-3.448c0-0.131-0.052-0.256-0.144-0.348s-0.218-0.144-0.348-0.144c-0.131 0-0.256 0.052-0.348 0.144s-0.144 0.218-0.144 0.348v3.448c0 0.131 0.052 0.256 0.144 0.348s0.218 0.144 0.348 0.144z"></path>
<path d="M24.58 15.508c0.131 0 0.256-0.052 0.348-0.144s0.144-0.218 0.144-0.348v-1.478c0-0.131-0.052-0.256-0.144-0.348s-0.218-0.144-0.348-0.144c-0.131 0-0.256 0.052-0.348 0.144s-0.144 0.218-0.144 0.348v1.478c0 0.131 0.052 0.256 0.144 0.348s0.218 0.144 0.348 0.144z"></path>
<path d="M22.61 16.492c0.131 0 0.256-0.052 0.348-0.144s0.144-0.218 0.144-0.348v-3.94c0-0.131-0.052-0.256-0.144-0.348s-0.218-0.144-0.348-0.144c-0.131 0-0.256 0.052-0.348 0.144s-0.144 0.218-0.144 0.348v3.94c0 0.131 0.052 0.256 0.144 0.348s0.218 0.144 0.348 0.144z"></path>
<path d="M26.551 16.492c0.131 0 0.256-0.052 0.348-0.144s0.144-0.218 0.144-0.348v-3.94c0-0.131-0.052-0.256-0.144-0.348s-0.218-0.144-0.348-0.144c-0.131 0-0.256 0.052-0.348 0.144s-0.144 0.218-0.144 0.348v3.94c0 0.131 0.052 0.256 0.144 0.348s0.218 0.144 0.348 0.144z"></path>
<path d="M22.61 10.582c0.272 0 0.493-0.22 0.493-0.492s-0.221-0.492-0.493-0.492c-0.272 0-0.492 0.22-0.492 0.492s0.221 0.492 0.492 0.492z"></path>
<path d="M10.297 16.492c0.272 0 0.492-0.221 0.492-0.492s-0.22-0.492-0.492-0.492c-0.272 0-0.493 0.22-0.493 0.492s0.22 0.492 0.493 0.492z"></path>
<path d="M26.551 10.582c0.272 0 0.493-0.22 0.493-0.492s-0.221-0.492-0.493-0.492c-0.272 0-0.492 0.22-0.492 0.492s0.221 0.492 0.492 0.492z"></path>
<path d="M26.551 8.612c0.272 0 0.493-0.22 0.493-0.492s-0.221-0.492-0.493-0.492c-0.272 0-0.492 0.221-0.492 0.492s0.221 0.492 0.492 0.492z"></path>
<path d="M22.61 8.612c0.272 0 0.493-0.22 0.493-0.492s-0.221-0.492-0.493-0.492c-0.272 0-0.492 0.221-0.492 0.492s0.221 0.492 0.492 0.492z"></path>
<path d="M24.58 6.642c0.272 0 0.493-0.221 0.493-0.492s-0.221-0.492-0.493-0.492c-0.272 0-0.492 0.221-0.492 0.492s0.221 0.492 0.492 0.492z"></path>
<path d="M31.476 22.895h-6.403v-1.045c0.849-0.211 1.478-0.956 1.478-1.84 0-0.858-1.193-2.74-1.558-3.296-0.045-0.068-0.106-0.124-0.178-0.163s-0.152-0.059-0.234-0.059c-0.082 0-0.162 0.020-0.234 0.059s-0.133 0.095-0.178 0.163c-0.366 0.556-1.559 2.438-1.559 3.296 0 0.884 0.629 1.628 1.478 1.84v1.045h-6.403c-0.131 0-0.256 0.052-0.348 0.144s-0.144 0.218-0.144 0.348c-0.001 0.709 0.17 1.408 0.498 2.037 0.017 0.127 0.083 0.242 0.184 0.321 0.399 0.635 0.952 1.158 1.608 1.521s1.393 0.554 2.143 0.554h5.91c0.75-0 1.487-0.191 2.143-0.554s1.209-0.886 1.608-1.521c0.101-0.079 0.167-0.194 0.184-0.321 0.327-0.629 0.498-1.328 0.498-2.037 0-0.131-0.052-0.256-0.144-0.348s-0.218-0.144-0.348-0.144zM23.595 20.011c0-0.309 0.459-1.223 0.985-2.099 0.526 0.876 0.985 1.79 0.985 2.099 0 0.504-0.442 0.915-0.985 0.915s-0.985-0.41-0.985-0.915zM30.65 24.866h-8.039c-0.131 0-0.256 0.052-0.348 0.144s-0.144 0.218-0.144 0.348c0 0.131 0.052 0.256 0.144 0.348s0.218 0.144 0.348 0.144h7.335c-0.643 0.632-1.508 0.985-2.41 0.985h-5.91c-0.901 0-1.767-0.353-2.41-0.985h1.425c0.131 0 0.256-0.052 0.348-0.144s0.144-0.218 0.144-0.348c0-0.131-0.052-0.256-0.144-0.348s-0.218-0.144-0.348-0.144h-2.129c-0.149-0.311-0.249-0.644-0.299-0.985h12.736c-0.049 0.342-0.15 0.674-0.299 0.985z"></path>
</symbol>
<symbol id="icon-big-7" viewBox="0 0 32 32">
<path d="M31.050 13.964c0.094 0.053 0.198 0.079 0.303 0.079 0.107 0 0.215-0.028 0.311-0.084 0.189-0.11 0.305-0.313 0.305-0.532v-3.328c0-0.222-0.12-0.427-0.313-0.536l-15.146-8.545c-0.188-0.106-0.417-0.106-0.605 0l-15.146 8.545c-0.194 0.109-0.313 0.314-0.313 0.536v3.328c0 0.219 0.116 0.421 0.305 0.532s0.422 0.112 0.613 0.005l1.98-1.117v14.083h-2.283c-0.34 0-0.616 0.276-0.616 0.616v2.899c0 0.34 0.276 0.616 0.616 0.616h12.375c0.34 0 0.616-0.276 0.616-0.616s-0.276-0.616-0.616-0.616h-11.759v-1.667h29.060v1.667h-11.759c-0.34 0-0.616 0.276-0.616 0.616s0.276 0.616 0.616 0.616h12.375c0.34 0 0.616-0.276 0.616-0.616v-2.899c0-0.34-0.276-0.616-0.616-0.616h-2.283v-14.083l1.98 1.117zM1.677 10.46l14.53-8.198 14.53 8.197v1.914l-14.227-8.027c-0.094-0.053-0.198-0.079-0.303-0.079s-0.209 0.026-0.303 0.079l-14.227 8.027v-1.914zM27.838 26.93h-23.262v-14.778l11.631-6.562 11.631 6.562v14.778z"></path>
<path d="M16.207 31.060c0.34 0 0.616-0.276 0.616-0.616s-0.276-0.616-0.616-0.616-0.616 0.276-0.616 0.616c0 0.34 0.276 0.616 0.616 0.616z"></path>
<path d="M10.125 14.936c-0.24 0.24-0.24 0.63-0 0.871s0.63 0.24 0.871 0c1.394-1.394 3.245-2.162 5.212-2.162s3.817 0.768 5.212 2.162c0.12 0.12 0.278 0.18 0.435 0.18s0.315-0.060 0.435-0.18c0.24-0.24 0.24-0.63 0-0.871-1.627-1.627-3.787-2.523-6.082-2.523s-4.455 0.896-6.082 2.523z"></path>
<path d="M16.207 15.609c-1.444 0-2.802 0.563-3.824 1.587-0.24 0.241-0.24 0.63 0 0.871s0.63 0.24 0.871-0c0.79-0.79 1.838-1.226 2.953-1.226s2.163 0.435 2.953 1.226c0.12 0.12 0.278 0.181 0.436 0.181s0.315-0.060 0.435-0.18c0.241-0.24 0.241-0.63 0-0.871-1.022-1.023-2.38-1.587-3.824-1.587z"></path>
<path d="M16.207 18.805c-1.221 0-2.213 0.993-2.213 2.213s0.993 2.214 2.213 2.214c1.221 0 2.214-0.993 2.214-2.214s-0.993-2.213-2.214-2.213zM16.207 22.001c-0.542 0-0.982-0.441-0.982-0.982s0.441-0.982 0.982-0.982c0.542 0 0.982 0.441 0.982 0.982s-0.441 0.982-0.982 0.982z"></path>
</symbol>
<symbol id="icon-big-6" viewBox="0 0 32 32">
<path d="M27.706 24.281l-2.3-5.91c-0.343-0.881-0.936-1.629-1.717-2.163s-1.693-0.816-2.638-0.816h-2.108c-0.185-0.199-0.379-0.39-0.581-0.573v-4.554c0-1.396-0.7-2.632-1.766-3.376 1.056-0.621 1.766-1.769 1.766-3.079 0-1.969-1.602-3.571-3.571-3.571s-3.571 1.602-3.571 3.571c0 1.095 0.496 2.076 1.274 2.732-0.769 0.362-1.422 0.959-1.848 1.728-0.74 1.335-1.169 2.827-1.256 4.348-1.582 0.41-3.040 1.215-4.237 2.347-1.301 1.23-2.236 2.788-2.704 4.506-0.089 0.328 0.104 0.667 0.432 0.756 0.054 0.015 0.108 0.022 0.162 0.022 0.271 0 0.519-0.18 0.594-0.454 0.765-2.806 2.976-5.052 5.736-5.893v1.822c-1.182 0.46-2.202 1.235-2.969 2.265-0.877 1.176-1.341 2.575-1.341 4.045 0 3.734 3.038 6.772 6.772 6.772s6.772-3.038 6.772-6.772c0-3.098-2.095-5.776-5.049-6.549v-1.771c3.906 0.803 6.772 4.264 6.772 8.321 0 4.685-3.811 8.496-8.496 8.496-3.772 0-7.131-2.53-8.169-6.152-0.094-0.327-0.435-0.516-0.761-0.422s-0.516 0.435-0.422 0.761c0.57 1.99 1.794 3.783 3.447 5.047 1.708 1.306 3.75 1.997 5.905 1.997 2.914 0 5.532-1.288 7.317-3.325h10.538c0.34 0 0.616-0.276 0.616-0.616v-0.538c0-1.526-1.132-2.791-2.6-3.002zM14.791 1.47c1.29 0 2.34 1.050 2.34 2.34s-1.049 2.34-2.34 2.34c-1.29 0-2.34-1.050-2.34-2.34s1.050-2.34 2.34-2.34zM17.377 22.034c0 3.055-2.486 5.541-5.541 5.541s-5.541-2.486-5.541-5.541c0-2.142 1.208-4.044 3.078-4.966v1.088c0 1.154 0.939 2.093 2.093 2.093s2.093-0.939 2.093-2.093v-1.389c2.25 0.733 3.817 2.844 3.817 5.268zM12.944 11.588c-0.34 0-0.616 0.276-0.616 0.616v5.952c0 0.475-0.387 0.862-0.862 0.862s-0.862-0.387-0.862-0.862v-1.995c0-0.002 0-0.003 0-0.005v-2.962c0-1.51 0.387-3.006 1.119-4.327 0.508-0.917 1.475-1.486 2.523-1.486 1.59 0 2.884 1.294 2.884 2.884v3.606c-1.061-0.69-2.268-1.179-3.571-1.412v-0.255c0-0.34-0.276-0.616-0.616-0.616zM21.564 22.034c0-0.248-0.010-0.495-0.028-0.739h0.068l2.683 5.91h-4.215c0.945-1.499 1.492-3.272 1.492-5.172zM25.639 27.205l-3.079-6.781c-0.1-0.22-0.319-0.361-0.56-0.361h-0.637c-0.257-1.247-0.754-2.411-1.443-3.44h1.131c1.43 0 2.689 0.861 3.208 2.194l2.441 6.271c0.092 0.237 0.32 0.392 0.574 0.392 0.967 0 1.759 0.766 1.8 1.724h-3.434z"></path>
<path d="M3.159 22.521c0.114-0.114 0.18-0.273 0.18-0.435s-0.066-0.321-0.18-0.435c-0.114-0.115-0.273-0.18-0.435-0.18s-0.321 0.065-0.435 0.18c-0.114 0.114-0.18 0.273-0.18 0.435s0.066 0.321 0.18 0.435 0.273 0.18 0.435 0.18c0.162 0 0.321-0.066 0.435-0.18z"></path>
<path d="M13.688 25.172c0.122 0.144 0.295 0.217 0.47 0.217 0.141 0 0.282-0.048 0.398-0.146 0.945-0.802 1.487-1.971 1.487-3.209 0-0.34-0.276-0.616-0.616-0.616s-0.616 0.276-0.616 0.616c0 0.876-0.383 1.703-1.052 2.271-0.259 0.22-0.291 0.608-0.071 0.868z"></path>
<path d="M11.844 25.009c-0.001 0-0.003 0-0.004 0h-0.004c-0.34 0-0.616 0.276-0.616 0.616s0.276 0.616 0.616 0.616h0.015c0.34-0.003 0.612-0.281 0.609-0.62-0.003-0.338-0.278-0.611-0.616-0.611z"></path>
</symbol>
<symbol id="icon-big-5" viewBox="0 0 32 32">
<path d="M19.217 29.689c-0.243 0.065-0.389 0.316-0.316 0.559 0.065 0.227 0.34 0.381 0.559 0.316 0.576-0.178 0.34-1.013-0.243-0.876z"></path>
<path d="M16.906 30.119c-0.251 0.024-0.43 0.251-0.405 0.494 0.024 0.251 0.251 0.438 0.495 0.405 0.251-0.024 0.43-0.251 0.405-0.494-0.024-0.251-0.243-0.43-0.495-0.405z"></path>
<path d="M12.237 29.794c-0.243-0.057-0.494 0.089-0.551 0.332s0.089 0.495 0.332 0.551c0.227 0.057 0.495-0.105 0.551-0.332 0.065-0.251-0.089-0.494-0.332-0.551z"></path>
<path d="M14.556 30.151c-0.251-0.016-0.47 0.17-0.486 0.422s0.17 0.47 0.422 0.486c0.251 0.016 0.47-0.17 0.486-0.422 0.024-0.251-0.17-0.47-0.422-0.486z"></path>
<path d="M21.422 28.878c-0.227 0.105-0.324 0.381-0.219 0.608 0.17 0.243 0.373 0.316 0.608 0.219 0.535-0.276 0.162-1.062-0.389-0.827z"></path>
<path d="M23.457 27.711c-0.211 0.146-0.259 0.43-0.113 0.632 0.195 0.219 0.405 0.251 0.632 0.114 0.203-0.146 0.259-0.43 0.113-0.632-0.146-0.211-0.43-0.259-0.632-0.113z"></path>
<path d="M28.62 22.215c-0.227-0.113-0.495-0.016-0.608 0.211s-0.016 0.494 0.211 0.608c0.235 0.105 0.438 0.032 0.608-0.211 0.105-0.227 0.016-0.503-0.211-0.608z"></path>
<path d="M29.845 17.537c-0.251-0.032-0.478 0.146-0.503 0.397-0.032 0.243 0.203 0.511 0.454 0.511 0.227 0 0.422-0.17 0.454-0.405 0.016-0.251-0.162-0.478-0.405-0.503z"></path>
<path d="M29.431 19.929c-0.243-0.073-0.495 0.065-0.567 0.308s0.065 0.495 0.308 0.567c0.219 0.065 0.503-0.081 0.567-0.308 0.073-0.243-0.065-0.503-0.308-0.567z"></path>
<path d="M25.264 26.211c-0.178 0.178-0.186 0.462-0.008 0.64 0.211 0.178 0.43 0.178 0.64 0.008 0.178-0.178 0.178-0.462 0.008-0.64-0.178-0.186-0.462-0.186-0.64-0.008z"></path>
<path d="M27.429 24.33c-0.203-0.146-0.486-0.105-0.632 0.105-0.146 0.203-0.105 0.486 0.105 0.632 0.227 0.146 0.438 0.105 0.632-0.105 0.146-0.203 0.097-0.486-0.105-0.632z"></path>
<path d="M7.73 4.68c0.081 0 0.17-0.024 0.251-0.073 0.211-0.138 0.268-0.422 0.138-0.632-0.138-0.211-0.422-0.268-0.632-0.138-0.211 0.138-0.268 0.422-0.138 0.632 0.081 0.138 0.227 0.211 0.381 0.211z"></path>
<path d="M9.87 3.537c0.3 0 0.535-0.357 0.422-0.632-0.097-0.227-0.365-0.34-0.6-0.235-0.227 0.097-0.341 0.365-0.235 0.6 0.065 0.17 0.235 0.268 0.413 0.268z"></path>
<path d="M14.564 2.41c0.008 0 0.024 0 0.032 0 0.251-0.016 0.438-0.235 0.422-0.486s-0.235-0.438-0.486-0.422c-0.251 0.016-0.438 0.235-0.422 0.486 0.016 0.235 0.219 0.422 0.454 0.422z"></path>
<path d="M12.164 2.775c0.267 0 0.503-0.3 0.446-0.559-0.057-0.243-0.308-0.397-0.551-0.332-0.243 0.057-0.397 0.308-0.332 0.551 0.049 0.203 0.235 0.34 0.438 0.34z"></path>
<path d="M5.809 6.164c0.113 0 0.219-0.041 0.308-0.122 0.186-0.17 0.195-0.462 0.024-0.64-0.17-0.186-0.454-0.195-0.64-0.024s-0.195 0.462-0.024 0.64c0.089 0.097 0.211 0.146 0.332 0.146z"></path>
<path d="M1.334 18.51c-0.243 0.049-0.405 0.284-0.365 0.535 0.041 0.227 0.308 0.405 0.535 0.365 0.251-0.049 0.413-0.284 0.365-0.535s-0.284-0.413-0.535-0.365z"></path>
<path d="M1.269 14.57c0.227 0.032 0.486-0.154 0.519-0.381 0.041-0.251-0.13-0.478-0.381-0.519s-0.478 0.13-0.519 0.381c-0.041 0.251 0.13 0.486 0.381 0.519z"></path>
<path d="M1.172 16.994h0.008c0.251-0.008 0.454-0.211 0.446-0.462s-0.211-0.454-0.462-0.446-0.446 0.211-0.446 0.462c0.008 0.251 0.211 0.446 0.454 0.446z"></path>
<path d="M1.755 12.195c0.219 0.073 0.503-0.065 0.576-0.292 0.081-0.235-0.049-0.494-0.292-0.576-0.235-0.081-0.494 0.049-0.576 0.292s0.049 0.494 0.292 0.576z"></path>
<path d="M2.639 9.933c0.235 0.113 0.438 0.049 0.616-0.186 0.122-0.219 0.032-0.495-0.186-0.616s-0.494-0.032-0.616 0.186c-0.122 0.227-0.032 0.503 0.186 0.616z"></path>
<path d="M3.895 7.858c0.227 0.146 0.438 0.122 0.64-0.081 0.154-0.203 0.114-0.486-0.081-0.64s-0.486-0.114-0.64 0.081c-0.154 0.203-0.122 0.486 0.081 0.64z"></path>
<path d="M31.328 7.85l-1.694-0.73c-0.122-0.389-0.276-0.778-0.454-1.143l0.681-1.694c0.065-0.17 0.024-0.365-0.097-0.486l-1.67-1.678c-0.13-0.13-0.324-0.17-0.494-0.105l-1.589 0.632c-0.413-0.227-0.851-0.422-1.305-0.559l-0.657-1.548c-0.073-0.17-0.235-0.276-0.422-0.276h-2.367c-0.186 0-0.349 0.105-0.422 0.276l-0.657 1.548c-0.454 0.146-0.884 0.332-1.305 0.559l-1.581-0.64c-0.17-0.065-0.365-0.032-0.494 0.105l-1.67 1.678c-0.13 0.13-0.17 0.324-0.097 0.486l0.681 1.694c-0.146 0.3-0.276 0.608-0.381 0.924-1.994 0-3.899 0.608-5.529 1.759-0.478 0.34 0.041 1.086 0.527 0.746 5.658-4.069 13.789 0.146 13.733 7.126 0 2.432-1.030 4.767-2.813 6.412-0.097 0.089-0.146 0.211-0.146 0.332v1.727l-1.556-0.657c-0.122-0.049-0.259-0.049-0.381 0.008-2.197 1.086-4.88 1.167-7.134 0.227l0.462-0.47c0.13-0.13 0.162-0.324 0.097-0.494l-0.6-1.451c-0.073-0.17-0.235-0.284-0.413-0.284l-1.054-0.008c-0.178-0.211-0.373-0.413-0.576-0.592l-0.008-1.046c0-0.178-0.114-0.349-0.284-0.413l-1.443-0.6c-0.17-0.073-0.365-0.032-0.494 0.097l-0.454 0.446c-1.208-2.951-0.608-6.542 1.508-8.934 0.389-0.446-0.3-1.038-0.689-0.6-2.318 2.627-2.991 6.558-1.694 9.809-0.081 0-0.162 0.008-0.243 0.016l-0.754-0.746c-0.13-0.13-0.324-0.17-0.495-0.097l-1.443 0.6c-0.17 0.073-0.276 0.235-0.284 0.413l-0.016 1.143c-0.17 0.154-0.332 0.324-0.486 0.503l-1.143 0.016c-0.186 0-0.349 0.114-0.413 0.284l-0.6 1.451c-0.073 0.17-0.032 0.357 0.097 0.495l0.803 0.827c-0.016 0.235-0.024 0.47-0.008 0.697l-0.794 0.819c-0.13 0.13-0.162 0.324-0.097 0.494l0.6 1.451c0.073 0.17 0.235 0.284 0.413 0.284l1.054 0.008c0.178 0.211 0.373 0.413 0.576 0.592l0.008 1.046c0 0.178 0.114 0.349 0.284 0.413l1.443 0.6c0.17 0.073 0.365 0.032 0.495-0.097l0.746-0.73c0.276 0.016 0.551 0.016 0.827-0.008l0.754 0.746c0.154 0.13 0.316 0.162 0.495 0.097l1.443-0.6c0.17-0.073 0.276-0.235 0.284-0.413l0.016-1.143c0.17-0.154 0.332-0.324 0.486-0.503l1.143-0.016c0.186 0 0.349-0.114 0.413-0.284l0.6-1.451c0.073-0.17 0.032-0.357-0.097-0.495l-0.803-0.827c0.008-0.065 0.008-0.13 0.008-0.195 2.424 1.005 5.302 0.948 7.677-0.17l1.994 0.843c0.365 0.089 0.576-0.057 0.632-0.422v-2.221c1.832-1.759 2.902-4.191 2.959-6.728 0.357-0.13 0.705-0.292 1.046-0.478l1.581 0.64c0.178 0.065 0.34 0.032 0.495-0.105l1.67-1.678c0.13-0.13 0.17-0.324 0.097-0.486l-0.681-1.694c0.178-0.365 0.332-0.754 0.454-1.143l1.694-0.73c0.17-0.073 0.276-0.235 0.276-0.422v-2.359c0.008-0.186-0.097-0.349-0.268-0.422zM11.256 27.768l-1.054 0.008c-0.138 0-0.268 0.065-0.357 0.178-0.195 0.243-0.413 0.47-0.657 0.673-0.105 0.089-0.162 0.211-0.162 0.349l-0.008 1.046-0.892 0.373-0.697-0.681c-0.097-0.097-0.243-0.146-0.381-0.13-0.349 0.049-0.697 0.057-1.038 0.016-0.138-0.016-0.276 0.032-0.373 0.13l-0.681 0.665-0.892-0.373-0.008-0.957c0-0.138-0.065-0.267-0.17-0.349-0.276-0.219-0.519-0.47-0.73-0.754-0.081-0.113-0.219-0.178-0.357-0.178l-0.973-0.008-0.373-0.9 0.73-0.746c0.089-0.097 0.138-0.227 0.13-0.357-0.032-0.316-0.024-0.632 0.016-0.94 0.016-0.138-0.032-0.276-0.13-0.373l-0.738-0.762 0.373-0.9 1.054-0.008c0.138 0 0.268-0.065 0.357-0.178 0.195-0.243 0.413-0.47 0.649-0.673 0.105-0.089 0.162-0.211 0.162-0.349l0.008-1.046 0.892-0.373 0.697 0.681c0.097 0.097 0.243 0.146 0.381 0.13 0.292-0.041 0.592-0.049 0.884-0.032 0.178 0.073 0.397 0.024 0.535-0.114l0.681-0.665 0.892 0.373 0.008 0.957c0 0.138 0.065 0.268 0.17 0.349 0.276 0.219 0.519 0.47 0.73 0.754 0.081 0.113 0.219 0.178 0.357 0.178l0.973 0.008 0.373 0.9-0.632 0.657c-0.138 0.089-0.235 0.292-0.219 0.454 0.032 0.316 0.024 0.632-0.016 0.94-0.016 0.138 0.032 0.276 0.13 0.373l0.738 0.762-0.381 0.892zM19.485 7.834c0.584-1.086 1.727-1.775 2.967-1.775 3.502 0.041 4.645 4.677 1.613 6.38-0.948-2.010-2.578-3.64-4.58-4.604zM30.696 10.347l-1.613 0.689c-0.13 0.057-0.219 0.162-0.259 0.3-0.13 0.47-0.316 0.932-0.543 1.37-0.065 0.122-0.073 0.259-0.016 0.381l0.64 1.613-1.248 1.257-1.508-0.608c-0.13-0.057-0.284-0.041-0.405 0.032-0.259 0.154-0.527 0.292-0.803 0.405-0.065-0.867-0.251-1.702-0.535-2.489 1.427-0.73 2.327-2.189 2.327-3.834-0.049-4.507-5.999-5.95-8.099-1.978-0.746-0.276-1.532-0.454-2.359-0.535 0.097-0.251 0.211-0.494 0.332-0.738 0.065-0.122 0.073-0.259 0.016-0.381l-0.64-1.613 1.248-1.257 1.508 0.608c0.13 0.057 0.284 0.041 0.405-0.032 0.47-0.276 0.981-0.494 1.5-0.649 0.13-0.041 0.235-0.13 0.292-0.259l0.624-1.467h1.759l0.624 1.467c0.057 0.13 0.162 0.219 0.292 0.259 0.527 0.154 1.030 0.373 1.5 0.649 0.122 0.073 0.268 0.081 0.405 0.032l1.508-0.608 1.248 1.257-0.64 1.613c-0.049 0.122-0.041 0.259 0.016 0.381 0.227 0.43 0.413 0.892 0.543 1.362 0.041 0.13 0.13 0.243 0.259 0.3l1.613 0.689v1.783h0.008z"></path>
<path d="M11.313 19.426h0.332c0.511 0 0.932-0.422 0.932-0.932v-2.764c0-0.511-0.422-0.932-0.932-0.932-0.195-0.008-0.405-0.008-0.6 0.016 1.054-4.637 7.531-4.653 8.601 0-0.195-0.024-0.405-0.016-0.6-0.016-0.511 0-0.932 0.422-0.932 0.932v2.764c0 0.511 0.422 0.932 0.932 0.932 0.203 0 0.551 0 0.689 0 0 0.827-0.608 1.524-1.402 1.654-0.195-0.494-0.673-0.851-1.24-0.851h-0.875c-1.767 0.073-1.767 2.586 0 2.659h0.875c0.576 0 1.070-0.373 1.257-0.892 1.289-0.146 2.302-1.24 2.302-2.57v-0.381c1.394-0.9 1.378-2.999-0.024-3.883-0.13-1.289-0.73-2.481-1.694-3.364-3.17-2.943-8.439-0.924-8.852 3.364-1.929 1.24-1.086 4.24 1.232 4.264zM17.101 21.972h-0.876c-0.551-0.016-0.551-0.819 0-0.835h0.876c0.551 0.016 0.551 0.819 0 0.835zM19.379 18.518c0 0-0.349 0.024-0.349-0.024v-2.764c0-0.041 0.357-0.024 0.349-0.024 1.865 0.081 1.865 2.732 0 2.813zM11.313 15.705c0 0 0.349-0.024 0.349 0.024v2.764c0 0.040-0.357 0.024-0.349 0.024-1.856-0.081-1.856-2.732 0-2.813z"></path>
<path d="M7.697 22.507c-0.738-0.308-1.548-0.308-2.286 0s-1.313 0.884-1.621 1.629c-0.965 2.327 1.224 4.759 3.632 4.021 0.243-0.073 0.373-0.324 0.3-0.567s-0.324-0.373-0.567-0.3c-0.454 0.138-0.957 0.114-1.394-0.073-1.070-0.446-1.573-1.67-1.135-2.74 0.211-0.519 0.616-0.924 1.127-1.135 1.621-0.681 3.299 0.9 2.772 2.562-0.073 0.243 0.057 0.495 0.3 0.567s0.494-0.057 0.567-0.3c0.227-0.713 0.17-1.484-0.138-2.164-0.308-0.673-0.867-1.216-1.556-1.5z"></path>
</symbol>
<symbol id="icon-big-3" viewBox="0 0 32 32">
<path d="M29.755 21.249c0.407-0.389 0.669-0.924 0.687-1.514 0.036-1.192-0.9-2.196-2.086-2.25-0.018 0-0.037 0-0.055 0h-0.322c-0.012 0-0.024 0-0.037 0h-0.791v-4.337c2.664-1.095 4.428-3.692 4.428-6.605 0-2.554-1.381-4.927-3.595-6.198-0.255-0.146-0.584-0.146-0.839 0s-0.407 0.426-0.407 0.742c0 0.036-0.012 3.558-0.012 4.732 0 0.097-0.122 0.225-0.195 0.28-0.018 0.012-0.024 0.018-0.043 0.036-0.742 0.614-1.691 1.32-2.044 1.478-0.359-0.164-1.326-0.876-2.074-1.502-0.018-0.012-0.030-0.024-0.049-0.036 0 0-0.152-0.128-0.152-0.365 0-1.216-0.012-4.58-0.012-4.61 0-0.328-0.146-0.608-0.401-0.754s-0.584-0.14-0.851 0.012c-2.214 1.271-3.582 3.643-3.582 6.192 0 2.281 1.077 4.367 2.828 5.687-0.073-0.006-0.14-0.006-0.213-0.006-0.523 0-1.010 0.201-1.375 0.572-0.365 0.365-0.572 0.858-0.572 1.375v2.658c0 0.189 0.006 0.347 0.006 0.487 0.012 0.596 0.018 0.657-0.249 0.973l-1.855 1.429c-0.511 0.395-0.918 0.894-1.198 1.472h-0.724c-0.036-0.298-0.292-0.535-0.602-0.535h-2.050c0-0.334-0.274-0.602-0.608-0.602h-9.664c-0.335 0-0.608 0.274-0.608 0.608v8.892c0 0.335 0.274 0.608 0.608 0.608h9.652c0.335 0 0.602-0.268 0.608-0.602h2.050c0.28 0 0.517-0.189 0.584-0.444h0.59c0.553 1.35 1.873 2.263 3.363 2.263h10.327c0.037 0 0.079 0 0.116 0 1.149-0.061 2.074-0.997 2.111-2.129 0.018-0.645-0.243-1.235-0.675-1.648 0.012-0.012 0.024-0.024 0.036-0.030 0.414-0.414 0.639-0.967 0.639-1.551 0-0.62-0.262-1.18-0.681-1.581 0.42-0.401 0.681-0.967 0.681-1.581 0-0.639-0.268-1.21-0.693-1.612zM22.956 12.783c0-0.006 0-0.012 0-0.024v-0.018c0.006-0.268-0.158-0.511-0.414-0.596-2.402-0.815-4.014-3.065-4.014-5.608 0-1.885 0.912-3.655 2.409-4.768 0.006 1.052 0.012 3.053 0.012 3.929 0 0.797 0.505 1.235 0.651 1.35 2.147 1.794 2.67 1.794 2.84 1.794 0.249 0 0.584-0.073 1.752-0.943 0.505-0.377 0.955-0.748 1.052-0.827 0.146-0.109 0.693-0.553 0.693-1.259 0-0.851 0.006-2.95 0.012-4.045 1.502 1.119 2.415 2.889 2.415 4.774 0 2.536-1.612 4.793-4.014 5.608-0.255 0.085-0.42 0.328-0.414 0.59v0.024c0 0.006 0 0.012 0 0.018v4.701h-0.882v-5.285c0-0.335-0.274-0.608-0.608-0.608s-0.608 0.274-0.608 0.608v5.291h-0.882v-4.708zM12.75 22.557h-1.441v-0.687h1.441v0.687zM1.656 21.267h8.436v1.289h-5.048c-0.335 0-0.608 0.274-0.608 0.608s0.274 0.608 0.608 0.608h5.048v1.946c-0.341-0.195-0.736-0.304-1.156-0.304-1.308 0-2.372 1.064-2.372 2.372 0 0.42 0.109 0.815 0.304 1.156h-5.212v-7.676zM7.781 27.793c0-0.639 0.517-1.156 1.156-1.156s1.156 0.517 1.156 1.156c0 0.639-0.517 1.156-1.156 1.156s-1.156-0.517-1.156-1.156zM11.308 23.773h1.441v4.574h-1.441v-4.574zM28.344 23.822h-2.287c-0.334 0-0.608 0.274-0.608 0.608s0.274 0.608 0.608 0.608h2.214c0.024 0.006 0.043 0.006 0.067 0.006 0.505 0.036 0.9 0.462 0.9 0.973 0 0.262-0.103 0.505-0.286 0.687-0.164 0.164-0.383 0.268-0.614 0.28-0.012 0-0.018 0-0.030 0.006h-2.25c-0.334 0-0.608 0.274-0.608 0.608s0.274 0.608 0.608 0.608h2.25c0.012 0 0.018 0.006 0.030 0.006 0.517 0.037 0.912 0.474 0.9 0.997-0.012 0.505-0.432 0.918-0.955 0.949-0.018 0-0.037 0-0.055 0h-10.334c-1.101 0-2.062-0.742-2.342-1.806-0.067-0.268-0.31-0.456-0.59-0.456h-1.004v-5.492h1.119c0.255 0 0.487-0.158 0.572-0.401 0.189-0.523 0.529-0.985 0.967-1.326l1.91-1.472c0.030-0.024 0.061-0.055 0.091-0.085 0.584-0.675 0.602-1.077 0.584-1.837-0.006-0.134-0.006-0.286-0.006-0.456v-2.658c0-0.195 0.073-0.377 0.213-0.517s0.322-0.213 0.517-0.213c0.511 0 1.004 0.207 1.344 0.572 0.286 0.298 0.444 0.681 0.468 1.089 0 0.030 0 0.061 0 0.091v0.006c0 0.030 0 0.067 0 0.097 0 0.012 0 0.024 0 0.036v2.761c0 0.164 0.067 0.316 0.176 0.432 0.116 0.116 0.268 0.176 0.432 0.176h5.735c0.012 0 0.018 0 0.030 0h0.17c0.529 0.018 0.949 0.468 0.937 1.004-0.012 0.505-0.432 0.918-0.955 0.943-0.018 0-0.036 0-0.055 0h-2.159c-0.334 0-0.608 0.274-0.608 0.608s0.274 0.608 0.608 0.608h2.159c0.006 0 0.018 0 0.030 0 0.030 0.006 0.061 0.012 0.091 0.012 0.505 0.037 0.9 0.462 0.9 0.973 0 0.505-0.389 0.931-0.888 0.973z"></path>
<path d="M24.111 10.575c0.030 0.024 0.067 0.043 0.103 0.055s0.073 0.024 0.116 0.037c0.036 0.006 0.079 0.012 0.116 0.012 0.158 0 0.316-0.067 0.432-0.176 0.116-0.116 0.176-0.268 0.176-0.432 0-0.037-0.006-0.079-0.012-0.122-0.006-0.037-0.018-0.079-0.036-0.116s-0.037-0.073-0.055-0.103c-0.024-0.030-0.049-0.061-0.073-0.091-0.14-0.14-0.353-0.207-0.547-0.164-0.037 0.006-0.079 0.018-0.116 0.036s-0.073 0.036-0.103 0.055c-0.030 0.024-0.067 0.049-0.091 0.073-0.030 0.030-0.055 0.061-0.073 0.091-0.024 0.030-0.043 0.067-0.055 0.103-0.018 0.036-0.030 0.073-0.036 0.116-0.006 0.036-0.012 0.079-0.012 0.122 0 0.158 0.067 0.316 0.176 0.432 0.024 0.024 0.055 0.049 0.091 0.073z"></path>
<path d="M3.481 22.934c-0.012-0.036-0.037-0.073-0.055-0.103-0.024-0.030-0.049-0.067-0.073-0.091-0.030-0.030-0.061-0.055-0.091-0.073-0.030-0.024-0.067-0.043-0.103-0.055-0.037-0.018-0.073-0.030-0.116-0.036-0.079-0.018-0.158-0.018-0.237 0-0.037 0.006-0.079 0.018-0.116 0.036s-0.073 0.037-0.103 0.055c-0.030 0.024-0.067 0.049-0.091 0.073-0.030 0.030-0.055 0.061-0.073 0.091-0.024 0.030-0.043 0.067-0.055 0.103s-0.024 0.073-0.037 0.116c-0.012 0.043-0.012 0.079-0.012 0.116s0.006 0.079 0.012 0.116 0.018 0.079 0.037 0.116c0.012 0.036 0.037 0.073 0.055 0.103 0.024 0.030 0.049 0.067 0.073 0.091 0.030 0.030 0.061 0.055 0.091 0.073 0.030 0.024 0.067 0.043 0.103 0.055 0.037 0.018 0.073 0.030 0.116 0.036 0.037 0.006 0.079 0.012 0.116 0.012s0.079-0.006 0.122-0.012c0.037-0.006 0.079-0.018 0.116-0.036s0.073-0.037 0.103-0.055c0.030-0.024 0.067-0.049 0.091-0.073 0.030-0.030 0.055-0.061 0.073-0.091 0.024-0.030 0.043-0.067 0.055-0.103s0.024-0.073 0.037-0.116c0.006-0.036 0.012-0.079 0.012-0.116s-0.006-0.079-0.012-0.116c-0.012-0.043-0.024-0.079-0.037-0.116z"></path>
</symbol>
<symbol id="icon-big-2" viewBox="0 0 32 32">
<path d="M29.012 13.58c0.286 0.209 0.632 0.281 0.955 0.23 0.323-0.052 0.628-0.229 0.836-0.515 0.208-0.288 0.281-0.632 0.229-0.956-0.052-0.323-0.227-0.627-0.515-0.836l-5.917-4.302c-0.206-0.15-0.253-0.438-0.103-0.644s0.438-0.251 0.644-0.103l5.917 4.304c0.492 0.356 0.794 0.88 0.883 1.438 0.089 0.557-0.035 1.149-0.391 1.641-0.358 0.492-0.881 0.792-1.438 0.881-0.555 0.089-1.143-0.033-1.635-0.386v16.612c0 0.255-0.206 0.462-0.461 0.462-7.872 0-15.745 0-23.616 0-0.255 0-0.462-0.208-0.462-0.462v-16.611c-0.485 0.339-1.047 0.478-1.634 0.384-0.55-0.087-1.15-0.429-1.454-0.904-0.344-0.489-0.463-1.070-0.375-1.618 0.089-0.555 0.426-1.145 0.902-1.454l2.56-1.862v-5.357h-0.335c-0.255 0-0.462-0.206-0.462-0.461v-2.122c0-0.255 0.208-0.463 0.462-0.463h6.062c0.255 0 0.463 0.208 0.463 0.463v2.122c0 0.255-0.208 0.461-0.463 0.461h-0.337v1.438l5.587-4.063c0.398-0.288 0.859-0.424 1.316-0.419 0.469 0.005 0.927 0.159 1.304 0.442l5.917 4.302c0.206 0.15 0.251 0.438 0.103 0.644-0.15 0.206-0.438 0.253-0.644 0.103l-5.918-4.302c-0.23-0.171-0.48-0.265-0.77-0.269-0.264-0.002-0.534 0.077-0.766 0.246-4.519 3.287-9.038 6.573-13.556 9.858-0.288 0.209-0.462 0.513-0.515 0.836-0.052 0.325 0.021 0.668 0.229 0.955 0.209 0.279 0.49 0.461 0.836 0.517 0.323 0.051 0.667-0.021 0.955-0.229 4.175-3.037 8.351-6.074 12.526-9.111 0.157-0.119 0.381-0.127 0.548-0.005 4.178 3.039 8.357 6.077 12.535 9.114zM16.206 20.439c0.094-1.101 0.579-2.091 1.318-2.829 0.826-0.824 1.963-1.335 3.222-1.335s2.396 0.511 3.222 1.335c0.737 0.738 1.224 1.728 1.316 2.829 0.225 0.072 0.424 0.197 0.586 0.36 0.265 0.264 0.429 0.628 0.429 1.032 0 0.401-0.164 0.766-0.429 1.030-0.169 0.169-0.379 0.299-0.613 0.368l-0.314 2.67c-0.030 0.253-0.257 0.435-0.51 0.407-0.253-0.030-0.436-0.258-0.407-0.511l0.293-2.505h-1.705v0.878c0 0.347-0.141 0.662-0.37 0.89-0.227 0.229-0.543 0.37-0.89 0.37h-1.197c-0.346 0-0.662-0.141-0.89-0.37-0.227-0.229-0.37-0.543-0.37-0.89v-0.878h-1.728l0.845 7.193h5.463l0.305-2.609c0.030-0.253 0.258-0.435 0.511-0.407 0.253 0.030 0.435 0.258 0.405 0.511l-0.293 2.505h3.147v-16.822l-11.346-8.25-11.345 8.25v16.822h1.702l0.552-4.618c0.047-0.391 0.215-0.75 0.473-1.009s0.602-0.419 1.004-0.419h0.518v-11.49c0-0.403 0.164-0.768 0.428-1.031 0.265-0.265 0.63-0.429 1.031-0.429 0.403 0 0.768 0.164 1.031 0.429 0.265 0.264 0.429 0.628 0.429 1.031v4.931c0 0.255-0.208 0.461-0.462 0.461s-0.463-0.206-0.463-0.461v-4.931c0-0.148-0.059-0.281-0.157-0.379s-0.232-0.159-0.379-0.159c-0.147 0-0.281 0.061-0.377 0.159-0.098 0.098-0.159 0.232-0.159 0.379v11.49h1.072v-4.468c0-0.255 0.208-0.463 0.463-0.463s0.462 0.208 0.462 0.463v4.468h0.517c0.403 0 0.745 0.161 1.004 0.419 0.26 0.258 0.428 0.618 0.475 1.009 0.183 1.539 0.367 3.079 0.55 4.618h2.512l-0.852-7.254c-0.234-0.070-0.445-0.199-0.614-0.368-0.264-0.264-0.428-0.628-0.428-1.030 0-0.403 0.164-0.768 0.428-1.032 0.162-0.162 0.363-0.288 0.586-0.36zM24.348 20.369c-0.103-0.819-0.48-1.552-1.035-2.107-0.656-0.656-1.564-1.063-2.567-1.063s-1.911 0.407-2.569 1.063c-0.553 0.555-0.93 1.288-1.033 2.107h7.205zM9.2 2.6v-1.199h-5.138v1.199h5.138zM8.403 3.523h-3.541v4.685l3.541-2.574v-2.11zM22.615 21.293v1.073h2.224c0.148 0 0.281-0.061 0.379-0.159s0.159-0.23 0.159-0.377c0-0.148-0.061-0.281-0.159-0.379s-0.23-0.159-0.379-0.159h-2.224zM18.898 22.366v-1.073h-2.246c-0.147 0-0.281 0.061-0.377 0.159-0.098 0.098-0.159 0.23-0.159 0.379 0 0.147 0.061 0.279 0.159 0.377 0.096 0.098 0.23 0.159 0.377 0.159h2.246zM21.692 24.167v-2.875h-1.869v2.875c0 0.091 0.037 0.176 0.098 0.237s0.147 0.099 0.237 0.099h1.197c0.092 0 0.176-0.038 0.237-0.099s0.099-0.147 0.099-0.237zM11.272 29.122c0-0.255 0.206-0.461 0.461-0.461s0.463 0.206 0.463 0.461v1.36h1.45l-0.321-2.684h-5.512l-0.319 2.684h1.45v-0.627c0-0.257 0.206-0.463 0.461-0.463s0.462 0.206 0.462 0.463v0.627h1.405v-1.36zM7.923 26.874h5.292l-0.106-0.902c-0.023-0.185-0.098-0.351-0.211-0.464-0.091-0.091-0.211-0.148-0.351-0.148h-3.955c-0.14 0-0.258 0.058-0.351 0.148-0.113 0.113-0.187 0.279-0.209 0.464l-0.108 0.902z"></path>
</symbol>
<symbol id="icon-big-1" viewBox="0 0 32 32">
<path d="M30.382 14.215h-8.618v-1.034c0-0.906-0.736-1.648-1.648-1.648s-1.648 0.736-1.648 1.648v1.034h-8.618c-0.62 0-1.131 0.474-1.192 1.077-0.006 0.043-0.006 0.079-0.006 0.122v7.84c0 0.663 0.541 1.198 1.198 1.198h1.454v3.272h-6.265v-15.85l10.479-6.97 10.479 6.97v1.265c0 0.243 0.201 0.444 0.444 0.444s0.444-0.201 0.444-0.444v-0.675l1.35 0.9c0.511 0.341 1.174 0.341 1.685 0 0.426-0.28 0.675-0.754 0.675-1.265s-0.255-0.979-0.675-1.265l-13.971-9.287c-0.261-0.176-0.602-0.176-0.864 0l-8.101 5.389c-0.207 0.134-0.262 0.414-0.122 0.62 0.134 0.207 0.414 0.261 0.62 0.122l8.047-5.352 13.91 9.251c0.176 0.116 0.28 0.31 0.28 0.523s-0.103 0.401-0.28 0.523c-0.213 0.14-0.487 0.14-0.693 0l-12.797-8.503c-0.261-0.176-0.602-0.176-0.864 0l-12.778 8.503c-0.213 0.14-0.487 0.14-0.693 0-0.176-0.116-0.28-0.31-0.28-0.523s0.103-0.401 0.28-0.523l3.558-2.366c0.207-0.134 0.261-0.414 0.122-0.62-0.134-0.207-0.414-0.261-0.62-0.122l-3.558 2.372c-0.42 0.28-0.675 0.754-0.675 1.259s0.255 0.979 0.675 1.265c0.255 0.17 0.547 0.255 0.839 0.255s0.584-0.085 0.839-0.255l1.356-0.894v15.26h-1.709c-0.742 0-1.344 0.602-1.344 1.344s0.602 1.344 1.344 1.344h26.153c0.742 0 1.344-0.602 1.344-1.344s-0.602-1.344-1.344-1.344h-1.709v-2.196c0-0.243-0.201-0.444-0.444-0.444s-0.444 0.201-0.444 0.444v2.196h-4.239v-3.272h8.618c0.663 0 1.198-0.541 1.198-1.198v-7.846c0.006-0.663-0.535-1.198-1.192-1.198zM19.361 13.181c0-0.42 0.341-0.754 0.754-0.754s0.754 0.341 0.754 0.754v1.034h-1.514v-1.034h0.006zM18.467 29.524h-16.026c-0.249 0-0.456-0.201-0.456-0.456 0-0.249 0.201-0.456 0.456-0.456h16.026v0.912zM18.467 27.723h-6.271v-3.272h6.271v3.272zM20.869 29.524h-1.514v-5.066h1.514v5.066zM28.6 28.617c0.249 0 0.456 0.201 0.456 0.456 0 0.249-0.201 0.456-0.456 0.456h-6.836v-0.906l6.836-0.006zM30.692 23.253c0 0.17-0.14 0.31-0.31 0.31h-20.533c-0.17 0-0.31-0.14-0.31-0.31v-7.84c0-0.17 0.14-0.31 0.31-0.31h20.527c0.17 0 0.31 0.14 0.31 0.31l0.006 7.84z"></path>
<path d="M12.713 9.671c0 1.545 1.259 2.804 2.804 2.804s2.804-1.259 2.804-2.804c0-1.545-1.259-2.804-2.804-2.804s-2.804 1.259-2.804 2.804zM15.073 11.532c-0.699-0.17-1.253-0.718-1.417-1.417h1.417v1.417zM15.073 9.221h-1.417c0.17-0.699 0.718-1.247 1.417-1.417v1.417zM15.967 7.81c0.699 0.164 1.247 0.718 1.417 1.417h-1.417v-1.417zM15.967 10.115h1.417c-0.164 0.699-0.718 1.253-1.417 1.417v-1.417z"></path>
<path d="M15.158 19.615c0.487-0.146 0.845-0.547 0.845-1.289 0-1.028-0.687-1.35-1.533-1.35h-1.277c-0.164 0-0.274 0.122-0.274 0.255v4.197c0 0.176 0.213 0.268 0.42 0.268 0.213 0 0.42-0.091 0.42-0.268v-1.685h0.541l0.918 1.782c0.067 0.128 0.176 0.201 0.292 0.201 0.243 0 0.523-0.225 0.523-0.438 0-0.024-0.006-0.073-0.030-0.103l-0.845-1.569zM14.471 19.086h-0.712v-1.375h0.712c0.42 0 0.693 0.182 0.693 0.693 0 0.505-0.274 0.681-0.693 0.681z"></path>
<path d="M19.397 17.712c0.17 0 0.268-0.176 0.268-0.377 0-0.176-0.085-0.359-0.268-0.359h-2.299c-0.189 0-0.365 0.091-0.365 0.268v4.191c0 0.176 0.182 0.268 0.365 0.268h2.299c0.182 0 0.268-0.189 0.268-0.359 0-0.201-0.097-0.377-0.268-0.377h-1.825v-1.308h0.979c0.182 0 0.268-0.176 0.268-0.322 0-0.176-0.097-0.334-0.268-0.334h-0.979v-1.289h1.825z"></path>
<path d="M22.992 16.976c-0.213 0-0.42 0.079-0.42 0.255v2.597l-1.247-2.409c-0.201-0.383-0.322-0.444-0.626-0.444-0.213 0-0.42 0.085-0.42 0.268v4.191c0 0.176 0.207 0.268 0.42 0.268 0.207 0 0.42-0.091 0.42-0.268v-2.597l1.387 2.597c0.109 0.201 0.286 0.268 0.487 0.268 0.207 0 0.42-0.091 0.42-0.268v-4.197c0-0.189-0.213-0.262-0.42-0.262z"></path>
<path d="M27 16.976h-2.731c-0.182 0-0.268 0.195-0.268 0.377 0 0.207 0.097 0.383 0.268 0.383h0.949v3.698c0 0.176 0.207 0.268 0.42 0.268 0.207 0 0.42-0.091 0.42-0.268v-3.698h0.943c0.17 0 0.268-0.182 0.268-0.383 0-0.189-0.085-0.377-0.268-0.377z"></path>
</symbol>
<symbol id="icon-money" viewBox="0 0 32 32">
<path d="M12.3 3.822c-0.343 0-0.621 0.278-0.621 0.621s0.278 0.621 0.621 0.621c0.343 0 0.621-0.278 0.621-0.621s-0.278-0.621-0.621-0.621z"></path>
<path d="M16.028 8.793c-0.343 0-0.621-0.279-0.621-0.621s0.279-0.621 0.621-0.621c0.22 0 0.452 0.112 0.672 0.325 0.247 0.239 0.64 0.232 0.879-0.014s0.232-0.64-0.014-0.879c-0.315-0.305-0.631-0.478-0.915-0.572v-0.724c0-0.343-0.278-0.621-0.621-0.621s-0.621 0.278-0.621 0.621v0.728c-0.723 0.256-1.243 0.947-1.243 1.757 0 1.028 0.836 1.864 1.864 1.864 0.343 0 0.621 0.279 0.621 0.621s-0.279 0.621-0.621 0.621c-0.265 0-0.552-0.167-0.807-0.47-0.221-0.263-0.613-0.297-0.875-0.076s-0.297 0.613-0.076 0.875c0.332 0.395 0.723 0.67 1.137 0.809v0.725c0 0.343 0.278 0.621 0.621 0.621s0.621-0.278 0.621-0.621v-0.728c0.723-0.257 1.243-0.947 1.243-1.757 0-1.028-0.836-1.864-1.864-1.864z"></path>
<path d="M29.448 9.165c-1.37 0-2.485 1.115-2.485 2.485v4.428c-0.825-0.213-1.736 0.007-2.378 0.649l-4.167 4.167c-0.587 0.586-0.91 1.367-0.91 2.197v3.656h-0.621c-0.343 0-0.621 0.278-0.621 0.621v3.914c0 0.343 0.278 0.622 0.621 0.622h8.699c0.343 0 0.621-0.278 0.621-0.622v-3.914c0-0.343-0.278-0.621-0.621-0.621h-0.621v-0.293c0-0.163 0.066-0.323 0.182-0.439l3.878-3.878c0.587-0.587 0.91-1.367 0.91-2.197v-8.29c0-1.37-1.115-2.485-2.485-2.485zM26.963 30.663h-7.456v-2.672h7.456v2.672zM30.691 19.941c0 0.498-0.194 0.966-0.546 1.318l-3.878 3.878c-0.347 0.347-0.546 0.827-0.546 1.318v0.293h-4.971v-3.656c0-0.498 0.194-0.967 0.546-1.318l4.167-4.167c0.466-0.466 1.216-0.487 1.706-0.048 0.004 0.003 0.007 0.006 0.011 0.009 0.014 0.012 0.027 0.025 0.041 0.039 0.235 0.235 0.364 0.546 0.364 0.878s-0.129 0.644-0.364 0.878l-3.087 3.087c-0.243 0.243-0.243 0.636 0 0.879s0.636 0.243 0.879 0l3.087-3.087c0.47-0.469 0.728-1.093 0.728-1.757 0-0.611-0.22-1.189-0.621-1.643v-5.192c0-0.685 0.557-1.243 1.243-1.243s1.243 0.557 1.243 1.243v8.29z"></path>
<path d="M13.17 26.749h-0.621v-3.656c0-0.831-0.323-1.611-0.91-2.197l-4.167-4.167c-0.642-0.642-1.553-0.862-2.379-0.649v-4.428c0-1.37-1.115-2.485-2.485-2.485s-2.485 1.115-2.485 2.485v8.29c0 0.83 0.323 1.61 0.91 2.197l3.878 3.878c0.116 0.116 0.182 0.276 0.182 0.439v0.293h-0.621c-0.343 0-0.621 0.278-0.621 0.621v3.914c0 0.343 0.278 0.622 0.621 0.622h8.699c0.343 0 0.621-0.278 0.621-0.622v-3.914c0-0.343-0.278-0.621-0.621-0.621zM1.911 21.26c-0.352-0.352-0.546-0.821-0.546-1.318v-8.29c0-0.685 0.557-1.243 1.243-1.243s1.243 0.557 1.243 1.243v5.192c-0.401 0.454-0.621 1.031-0.621 1.643 0 0.664 0.259 1.288 0.728 1.757l3.107 3.107c0.243 0.243 0.636 0.243 0.879 0s0.243-0.636 0-0.879l-3.107-3.107c-0.235-0.235-0.364-0.546-0.364-0.878s0.129-0.644 0.364-0.878c0.014-0.014 0.027-0.027 0.041-0.039l0.011-0.009c0.49-0.44 1.239-0.419 1.706 0.048l4.168 4.167c0.352 0.352 0.546 0.82 0.546 1.318v3.657h-4.971v-0.293c0-0.491-0.199-0.971-0.546-1.318l-3.878-3.878zM12.549 30.663h-7.456v-2.672h7.456v2.672z"></path>
<path d="M16.028 0.094c-5.139 0-9.32 4.181-9.32 9.32s4.181 9.32 9.32 9.32c5.139 0 9.32-4.181 9.32-9.32s-4.181-9.32-9.32-9.32zM16.028 17.491c-4.454 0-8.077-3.623-8.077-8.077s3.623-8.077 8.077-8.077c4.454 0 8.077 3.623 8.077 8.077s-3.623 8.077-8.077 8.077z"></path>
<path d="M20.318 4.094c-1.617-1.305-3.733-1.798-5.804-1.351-0.335 0.072-0.549 0.403-0.476 0.738s0.403 0.549 0.738 0.476c1.703-0.367 3.439 0.035 4.762 1.103s2.082 2.655 2.082 4.354c0 3.083-2.509 5.592-5.592 5.592s-5.592-2.509-5.592-5.592c0-0.921 0.229-1.834 0.661-2.64 0.162-0.302 0.049-0.679-0.254-0.841s-0.679-0.049-0.841 0.254c-0.529 0.986-0.809 2.102-0.809 3.228 0 3.769 3.066 6.835 6.835 6.835s6.835-3.066 6.835-6.835c0-2.076-0.927-4.015-2.544-5.32z"></path>
</symbol>
<symbol id="icon-profit" viewBox="0 0 32 32">
<path d="M28.279 13.772c0-0.636-0.517-1.153-1.153-1.153h-1.477v-7.611h1.023c0.236 0 0.449-0.13 0.556-0.34s0.088-0.459-0.050-0.65l-2.718-3.759c-0.117-0.161-0.305-0.258-0.504-0.258-0.196 0-0.388 0.094-0.505 0.254l-2.765 3.758c-0.14 0.191-0.161 0.441-0.054 0.652s0.32 0.343 0.557 0.343h1.072v7.611h-2.418c-0.636 0-1.153 0.517-1.153 1.153v1.070c0 0.258 0.086 0.495 0.229 0.687-0.143 0.192-0.229 0.43-0.229 0.687v1.070c0 0.258 0.086 0.495 0.229 0.687-0.143 0.192-0.229 0.43-0.229 0.687v1.070c0 0.076 0.008 0.149 0.022 0.221h-0.915v-10.073h1.023c0.236 0 0.449-0.13 0.556-0.34s0.088-0.459-0.050-0.65l-2.718-3.758c-0.116-0.161-0.305-0.258-0.503-0.259-0.001 0-0.002 0-0.003 0-0.198 0-0.386 0.095-0.503 0.254l-2.765 3.758c-0.14 0.191-0.161 0.441-0.054 0.652s0.32 0.343 0.557 0.343h1.072v10.072h-2.079c-0.636 0-1.153 0.517-1.153 1.153v0.629c-0.389-0.166-0.802-0.287-1.232-0.355v-6.293h1.023c0.236 0 0.449-0.13 0.556-0.34s0.088-0.459-0.050-0.65l-2.718-3.758c-0.116-0.161-0.305-0.258-0.503-0.259s-0.388 0.094-0.506 0.254l-2.765 3.758c-0.14 0.191-0.161 0.441-0.054 0.652s0.32 0.343 0.557 0.343h1.072v1.629c0 0.257 0.209 0.466 0.466 0.466s0.466-0.209 0.466-0.466v-1.936c0-0.344-0.28-0.624-0.624-0.624h-0.771l2.155-2.929 2.118 2.929h-0.728c-0.344 0-0.624 0.28-0.624 0.624v6.539c-0.531 0.011-1.043 0.102-1.524 0.26v-2.688c0-0.257-0.209-0.466-0.466-0.466s-0.466 0.209-0.466 0.466v3.1c-1.598 0.901-2.68 2.613-2.68 4.575 0 2.894 2.355 5.249 5.249 5.249 1.239 0 2.378-0.432 3.277-1.153h14.723c0.636 0 1.153-0.517 1.153-1.153v-1.070c0-0.258-0.086-0.495-0.229-0.687 0.143-0.192 0.229-0.429 0.229-0.687v-1.070c0-0.258-0.086-0.495-0.229-0.687 0.143-0.192 0.229-0.43 0.229-0.687v-1.070c0-0.258-0.086-0.495-0.229-0.687 0.143-0.192 0.229-0.43 0.229-0.687v-1.070c0-0.258-0.086-0.495-0.229-0.687 0.143-0.192 0.229-0.429 0.229-0.687v-1.070c0-0.258-0.086-0.495-0.229-0.687 0.143-0.192 0.229-0.43 0.229-0.687v-1.070c0-0.258-0.086-0.495-0.229-0.687 0.143-0.192 0.229-0.43 0.229-0.687v-1.070zM21.796 4.075l2.155-2.929 2.118 2.929h-0.728c-0.344 0-0.624 0.28-0.624 0.624v7.919h-1.524v-7.919c0-0.344-0.28-0.624-0.625-0.624h-0.772zM13.944 8.946l2.155-2.929 2.118 2.929h-0.728c-0.344 0-0.625 0.28-0.625 0.624v10.38h-1.524v-10.38c0-0.344-0.28-0.624-0.624-0.624h-0.772zM9.126 30.88c-2.38 0-4.317-1.936-4.317-4.317s1.937-4.317 4.317-4.317 4.317 1.937 4.317 4.317c0 2.381-1.937 4.317-4.317 4.317zM19.834 29.506c0 0.122-0.099 0.221-0.221 0.221h-6.302c0.343-0.452 0.614-0.962 0.796-1.512h5.506c0.122 0 0.221 0.099 0.221 0.221v1.070zM19.834 24.618c0 0.122-0.099 0.221-0.221 0.221h-1.795c-0.257 0-0.466 0.209-0.466 0.466s0.209 0.466 0.466 0.466h1.795c0.122 0 0.221 0.099 0.221 0.221v1.070c0 0.122-0.099 0.221-0.221 0.221h-5.289c0.033-0.236 0.051-0.476 0.051-0.72 0-0.269-0.021-0.533-0.061-0.792h1.329c0.257 0 0.466-0.209 0.466-0.466s-0.209-0.466-0.466-0.466h-1.56c-0.192-0.551-0.473-1.061-0.827-1.512h6.357c0.122 0 0.221 0.099 0.221 0.221v1.070zM19.834 22.174c0 0.122-0.099 0.221-0.221 0.221h-7.283c-0.007 0-0.014-0.001-0.021-0.002-0.060-0.046-0.121-0.090-0.182-0.133-0.011-0.026-0.017-0.055-0.017-0.085v-1.070c0-0.122 0.099-0.221 0.221-0.221h7.283c0.122 0 0.221 0.099 0.221 0.221v1.070zM27.347 29.506c0 0.122-0.099 0.221-0.221 0.221h-6.381c0.014-0.072 0.022-0.145 0.022-0.221v-1.070c0-0.076-0.008-0.149-0.022-0.221h6.382c0.122 0 0.221 0.099 0.221 0.221v1.070zM27.347 27.062c0 0.122-0.099 0.221-0.221 0.221h-6.382c0.014-0.072 0.022-0.145 0.022-0.221v-1.070c0-0.076-0.008-0.149-0.022-0.221h6.382c0.122 0 0.221 0.099 0.221 0.221v1.070zM27.347 24.618c0 0.122-0.099 0.221-0.221 0.221h-6.382c0.014-0.072 0.022-0.145 0.022-0.221v-1.070c0-0.076-0.008-0.149-0.022-0.221h6.382c0.122 0 0.221 0.099 0.221 0.221v1.070zM27.347 19.73c0 0.122-0.099 0.221-0.221 0.221-0 0-0 0-0 0h-1.169c-0.257 0-0.466 0.209-0.466 0.466s0.209 0.466 0.466 0.466h1.168c0 0 0.001 0 0.001 0h0c0.122 0 0.221 0.099 0.221 0.221v1.070c0 0.122-0.099 0.221-0.221 0.221h-6.382c0.014-0.072 0.022-0.145 0.022-0.221v-1.070c0-0.076-0.008-0.149-0.022-0.221h3.038c0.257 0 0.466-0.209 0.466-0.466s-0.209-0.466-0.466-0.466h-3.94c-0 0-0 0-0 0-0.122-0-0.221-0.099-0.221-0.221v-1.070c0-0.122 0.099-0.221 0.221-0.221h7.283c0.122 0 0.221 0.099 0.221 0.221v1.070zM27.347 17.286c0 0.122-0.099 0.221-0.221 0.221h-7.283c-0.122 0-0.221-0.099-0.221-0.221v-1.070c0-0.122 0.099-0.221 0.221-0.221h7.283c0.122 0 0.221 0.099 0.221 0.221v1.070zM27.347 14.841c0 0.122-0.099 0.221-0.221 0.221h-7.283c-0.122 0-0.221-0.099-0.221-0.221v-1.070c0-0.122 0.099-0.221 0.221-0.221h7.283c0.122 0 0.221 0.099 0.221 0.221v1.070z"></path>
<path d="M9.638 26.097h-1.024c-0.254 0-0.461-0.207-0.461-0.461s0.207-0.461 0.461-0.461h1.805c0.257 0 0.466-0.209 0.466-0.466s-0.209-0.466-0.466-0.466h-0.826v-0.485c0-0.257-0.209-0.466-0.466-0.466s-0.466 0.209-0.466 0.466v0.485h-0.046c-0.768 0-1.393 0.625-1.393 1.393s0.625 1.393 1.393 1.393h1.024c0.254 0 0.461 0.207 0.461 0.461s-0.207 0.461-0.461 0.461h-1.804c-0.257 0-0.466 0.209-0.466 0.466s0.209 0.466 0.466 0.466h0.826v0.485c0 0.257 0.209 0.466 0.466 0.466s0.466-0.208 0.466-0.466v-0.485h0.046c0.768 0 1.393-0.625 1.393-1.393s-0.625-1.393-1.393-1.393z"></path>
</symbol>
<symbol id="icon-key" viewBox="0 0 32 32">
<path d="M10.687 31.812h11.336v-14.031h-11.336v14.031zM21.090 30.88h-9.472v-9.275h9.472v9.275h0zM11.619 18.713h9.472v1.96h-9.472v-1.96z"></path>
<path d="M31.274 4.338v-2.936h-5.826v2.936h-0.6v0.932h3.513v-0.932h-1.981v-2.004h1.515v1.223h0.932v-1.223h1.515v2.936h0.632v1.030h-6.126v0.932h7.058v-2.894h-0.632z"></path>
<path d="M8.638 8.008v4.834l2.769 2.796v1.366h0.932v-1.749l-2.769-2.796v-4.451h-0.932z"></path>
<path d="M21.466 1.011h-3.043v-0.953h-3.975v0.953h-3.043v5.289h-3.827v1.061c0 1.807-1.47 3.277-3.277 3.277s-3.277-1.47-3.277-3.277v-3.151c0-1.807 1.47-3.277 3.277-3.277s3.277 1.47 3.277 3.277v1.061h3.050v-0.932h-2.118v-0.129c0-2.321-1.888-4.209-4.209-4.209s-4.209 1.888-4.209 4.209v3.151c0 2.321 1.888 4.209 4.209 4.209s4.209-1.888 4.209-4.209v-0.129h2.895v1.759h0.932v-7.048h2.111v3.361h0.932v-4.314h2.111v4.314h0.932v-3.361h2.111v3.361h0.932v-2.154h1.673v9.32l-2.796 2.769v1.765h0.932v-1.377l2.796-2.769v-10.641h-2.605v-1.207z"></path>
<path d="M3.093 4.342c-0.796 0-1.443 0.647-1.443 1.443s0.647 1.443 1.443 1.443c0.796 0 1.443-0.648 1.443-1.443s-0.647-1.443-1.443-1.443zM3.093 6.296c-0.282 0-0.511-0.229-0.511-0.511s0.229-0.511 0.511-0.511c0.282 0 0.511 0.229 0.511 0.511s-0.229 0.511-0.511 0.511z"></path>
<path d="M22.518 11.851h-0.932v-2.861h0.932v2.861zM22.518 8.369h-0.932v-0.932h0.932v0.932zM22.518 6.815h-0.932v-0.932h0.932v0.932z"></path>
<path d="M20.469 29.972h-0.932v-4.353h0.932v4.353zM20.469 24.998h-0.932v-0.932h0.932v0.932zM20.469 23.445h-0.932v-0.932h0.932v0.932z"></path>
<path d="M4.303 10.016v-0.932c0.95 0 1.724-0.773 1.724-1.724v-3.151c0-0.088-0.007-0.176-0.020-0.262l0.921-0.141c0.020 0.133 0.031 0.268 0.030 0.403v3.151c0 1.464-1.191 2.656-2.656 2.656zM5.866 3.482c-0.103-0.22-0.255-0.421-0.441-0.58l0.607-0.707c0.285 0.245 0.519 0.553 0.678 0.892l-0.844 0.395zM5.014 2.639c-0.224-0.102-0.463-0.154-0.711-0.154v-0.932c0.382 0 0.751 0.080 1.097 0.237l-0.386 0.849z"></path>
</symbol>
<symbol id="icon-whatsapp" viewBox="0 0 32 32">
<path d="M25.842 5.605c-2.697-2.763-6.382-4.342-10.329-4.342-8.026 0-14.605 6.579-14.605 14.605 0 2.632 0.724 5.132 1.974 7.303l-2.039 7.566 7.697-1.974c2.171 1.118 4.539 1.776 6.974 1.776 8.092 0 14.803-6.579 14.803-14.605 0-3.947-1.71-7.566-4.474-10.329zM15.513 28.039c-2.171 0-4.276-0.592-6.184-1.71l-0.395-0.263-4.605 1.25 1.25-4.474-0.329-0.46c-1.184-1.974-1.842-4.211-1.842-6.513 0-6.645 5.461-12.105 12.171-12.105 3.224 0 6.25 1.25 8.553 3.553s3.684 5.329 3.684 8.618c0 6.645-5.592 12.105-12.303 12.105zM22.224 18.96c-0.395-0.197-2.171-1.053-2.5-1.184s-0.592-0.197-0.855 0.197c-0.197 0.329-0.921 1.184-1.118 1.447-0.263 0.197-0.461 0.263-0.79 0.066-2.171-1.053-3.553-1.908-5-4.342-0.395-0.658 0.395-0.592 1.053-1.974 0.132-0.263 0.066-0.46 0-0.658s-0.855-1.974-1.118-2.697c-0.329-0.724-0.592-0.658-0.855-0.658-0.197 0-0.461 0-0.658 0-0.263 0-0.658 0.066-0.987 0.461s-1.25 1.25-1.25 3.026c0 1.842 1.25 3.553 1.447 3.816 0.197 0.197 2.566 3.882 6.25 5.46 2.303 1.053 3.224 1.118 4.408 0.921 0.658-0.066 2.105-0.855 2.434-1.71s0.329-1.579 0.197-1.711c-0.066-0.197-0.329-0.263-0.658-0.46z"></path>
</symbol>
<symbol id="icon-youtube" viewBox="0 0 32 32">
<path d="M30.023 9.336c-0.328-1.313-1.367-2.352-2.625-2.68-2.352-0.656-11.648-0.656-11.648-0.656s-9.352 0-11.703 0.656c-1.258 0.328-2.297 1.367-2.625 2.68-0.656 2.297-0.656 7.219-0.656 7.219s0 4.867 0.656 7.219c0.328 1.313 1.367 2.297 2.625 2.625 2.352 0.602 11.703 0.602 11.703 0.602s9.297 0 11.648-0.602c1.258-0.328 2.297-1.312 2.625-2.625 0.656-2.352 0.656-7.219 0.656-7.219s0-4.922-0.656-7.219zM12.688 20.984v-8.859l7.766 4.43-7.766 4.43z"></path>
</symbol>
<symbol id="icon-linkedin-in" viewBox="0 0 32 32">
<path d="M6.731 32v-20.125h-6.26v20.125h6.26zM3.567 9.183c2.019 0 3.635-1.683 3.635-3.702 0-1.952-1.615-3.567-3.635-3.567-1.952 0-3.567 1.615-3.567 3.567 0 2.019 1.615 3.702 3.567 3.702zM30.087 32h0.067v-11.038c0-5.385-1.212-9.558-7.538-9.558-3.029 0-5.048 1.683-5.923 3.231h-0.067v-2.76h-5.99v20.125h6.26v-9.962c0-2.625 0.471-5.115 3.702-5.115s3.298 2.962 3.298 5.317v9.76h6.192z"></path>
</symbol>
<symbol id="icon-instagram" viewBox="0 0 32 32">
<path d="M16.286 9.384c-4 0-7.188 3.25-7.188 7.188 0 4 3.188 7.188 7.188 7.188 3.938 0 7.187-3.188 7.187-7.188 0-3.938-3.25-7.188-7.187-7.188zM16.286 21.259c-2.563 0-4.688-2.063-4.688-4.688 0-2.563 2.063-4.625 4.688-4.625 2.563 0 4.625 2.063 4.625 4.625 0 2.625-2.063 4.688-4.625 4.688zM25.411 9.134c0-0.938-0.75-1.688-1.688-1.688s-1.688 0.75-1.688 1.688 0.75 1.688 1.688 1.688c0.938 0 1.688-0.75 1.688-1.688zM30.161 10.821c-0.125-2.25-0.625-4.25-2.25-5.875s-3.625-2.125-5.875-2.25c-2.312-0.125-9.25-0.125-11.563 0-2.25 0.125-4.188 0.625-5.875 2.25-1.625 1.625-2.125 3.625-2.25 5.875-0.125 2.312-0.125 9.25 0 11.563 0.125 2.25 0.625 4.188 2.25 5.875 1.688 1.625 3.625 2.125 5.875 2.25 2.313 0.125 9.25 0.125 11.563 0 2.25-0.125 4.25-0.625 5.875-2.25 1.625-1.688 2.125-3.625 2.25-5.875 0.125-2.313 0.125-9.25 0-11.563zM27.161 24.822c-0.438 1.25-1.438 2.187-2.625 2.688-1.875 0.75-6.25 0.562-8.25 0.562-2.063 0-6.438 0.188-8.25-0.562-1.25-0.5-2.188-1.438-2.688-2.688-0.75-1.813-0.563-6.188-0.563-8.25 0-2-0.188-6.375 0.563-8.25 0.5-1.188 1.438-2.125 2.688-2.625 1.813-0.75 6.188-0.563 8.25-0.563 2 0 6.375-0.188 8.25 0.563 1.187 0.438 2.125 1.438 2.625 2.625 0.75 1.875 0.563 6.25 0.563 8.25 0 2.063 0.187 6.438-0.563 8.25z"></path>
</symbol>
<symbol id="icon-facebook" viewBox="0 0 32 32">
<path d="M22.675 18.4l0.817-5.367h-5.192v-3.5c0-1.517 0.7-2.917 3.033-2.917h2.392v-4.608c0 0-2.158-0.408-4.2-0.408-4.258 0-7.058 2.625-7.058 7.292v4.142h-4.783v5.367h4.783v13.067h5.833v-13.067h4.375z"></path>
</symbol>
</defs>
</svg>
